<?xml version="1.0" standalone="no"?>
<!DOCTYPE svg PUBLIC "-//W3C//DTD SVG 20010904//EN"
 "http://www.w3.org/TR/2001/REC-SVG-20010904/DTD/svg10.dtd">
<svg version="1.0" xmlns="http://www.w3.org/2000/svg"
 width="500.000000pt" height="500.000000pt" viewBox="0 0 500.000000 500.000000"
 preserveAspectRatio="xMidYMid meet">

<g transform="translate(0.000000,500.000000) scale(0.100000,-0.100000)"
fill="#000000" stroke="none">
<path d="M805 3134 c-77 -17 -156 -40 -187 -56 l-38 -18 0 -105 0 -105 145 0
146 0 -3 143 c-3 154 -3 154 -63 141z"/>
<path d="M900 2996 l0 -146 145 0 145 0 0 103 0 103 -43 22 c-46 23 -129 47
-201 57 l-46 7 0 -146z"/>
<path d="M2230 2830 l0 -280 1065 0 1065 0 0 280 0 280 -45 0 -45 0 0 -235 0
-235 -101 0 c-92 0 -101 2 -94 18 25 58 27 72 21 105 -9 48 -64 104 -111 113
-60 11 -106 -4 -147 -47 -34 -36 -38 -45 -38 -92 0 -31 6 -62 16 -75 l15 -22
-150 0 -151 0 0 115 0 115 -45 0 -45 0 0 -115 0 -115 -555 0 -555 0 0 235 0
235 -50 0 -50 0 0 -280z m1759 -50 c10 -5 24 -22 30 -39 33 -77 -76 -141 -128
-75 -12 15 -21 37 -21 49 0 36 37 75 71 75 17 0 38 -4 48 -10z"/>
<path d="M4470 2830 l0 -280 45 0 45 0 0 280 0 280 -45 0 -45 0 0 -280z"/>
<path d="M3062 3028 c-7 -7 -12 -21 -12 -33 0 -12 5 -26 12 -33 7 -7 21 -12
33 -12 12 0 26 5 33 12 7 7 12 21 12 33 0 12 -5 26 -12 33 -7 7 -21 12 -33 12
-12 0 -26 -5 -33 -12z"/>
<path d="M3900 3024 c-21 -24 -1 -68 32 -72 36 -4 61 31 46 64 -13 28 -58 33
-78 8z"/>
<path d="M439 2950 c-43 -44 -79 -85 -79 -90 0 -6 38 -10 89 -10 l89 0 4 80
c3 87 2 100 -14 100 -5 0 -45 -36 -89 -80z"/>
<path d="M1220 2940 l0 -90 96 0 95 0 -20 28 c-49 66 -140 152 -162 152 -5 0
-9 -40 -9 -90z"/>
<path d="M2029 2868 c0 -2 -3 -46 -5 -98 -6 -136 -40 -175 -141 -166 -57 5
-58 4 -42 -26 25 -47 125 -62 195 -28 64 31 78 70 79 205 l0 110 -42 3 c-24 2
-43 2 -44 0z"/>
<path d="M324 2795 c-25 -38 -74 -208 -74 -256 0 -5 62 -9 145 -9 l145 0 0
143 0 142 -101 0 c-91 0 -103 -2 -115 -20z"/>
<path d="M718 2812 l-138 -3 0 -139 0 -140 58 0 c136 1 232 104 232 250 0 16
-3 30 -7 32 -5 2 -70 2 -145 0z"/>
<path d="M904 2811 c-2 -2 -4 -28 -4 -56 0 -70 41 -148 98 -189 37 -26 54 -31
118 -34 l74 -4 0 141 c0 78 -3 141 -7 141 -5 0 -68 1 -141 3 -74 1 -136 0
-138 -2z"/>
<path d="M1243 2812 c-23 -3 -23 -6 -23 -143 l0 -139 145 0 145 0 0 24 c0 57
-40 200 -69 245 -8 13 -138 21 -198 13z"/>
<path d="M2731 2500 c-18 -4 -45 -19 -59 -33 -22 -23 -26 -36 -30 -111 -4 -76
-7 -86 -23 -86 -16 0 -19 -8 -19 -45 0 -38 3 -45 20 -45 19 0 20 -7 20 -150
l0 -150 45 0 44 0 3 148 3 147 53 3 52 3 0 44 0 44 -52 3 -53 3 0 51 c1 68 17
88 67 81 36 -5 40 -3 58 34 11 21 20 40 20 43 0 4 -33 12 -87 20 -16 2 -43 1
-62 -4z"/>
<path d="M255 2453 c14 -79 36 -160 58 -203 l22 -45 102 -3 102 -3 3 129 c2
71 2 137 0 146 -3 14 -22 16 -148 16 l-145 0 6 -37z"/>
<path d="M580 2345 l0 -146 143 3 142 3 -2 61 c-3 134 -95 224 -228 224 l-55
0 0 -145z"/>
<path d="M1028 2470 c-20 -11 -39 -24 -42 -28 -3 -5 42 -55 100 -113 l104
-104 0 133 0 132 -62 0 c-42 -1 -75 -7 -100 -20z"/>
<path d="M1220 2342 l0 -148 59 -58 59 -59 26 29 c67 75 130 218 142 324 l7
60 -147 0 -146 0 0 -148z"/>
<path d="M2440 2185 l0 -305 45 0 45 0 0 305 0 305 -45 0 -45 0 0 -305z"/>
<path d="M900 2440 c0 -13 7 -20 20 -20 13 0 17 5 14 14 -9 24 -34 28 -34 6z"/>
<path d="M900 2350 l0 -40 75 0 c41 0 75 2 75 5 0 3 -17 20 -37 40 -29 26 -47
35 -75 35 -38 0 -38 0 -38 -40z"/>
<path d="M2004 2317 c-114 -44 -169 -166 -132 -291 18 -59 91 -129 150 -144
26 -7 55 -12 65 -12 39 0 97 23 118 46 l24 25 3 -28 c3 -25 7 -28 46 -31 l42
-3 0 220 0 221 -45 0 c-42 0 -45 -2 -45 -27 0 -24 -1 -25 -17 -11 -53 46 -141
61 -209 35z m163 -102 c13 -9 33 -30 43 -48 71 -116 -69 -248 -187 -176 -67
42 -85 132 -36 190 50 58 121 72 180 34z"/>
<path d="M2995 2311 c-80 -37 -125 -111 -125 -206 0 -69 20 -119 68 -168 68
-70 196 -86 261 -31 36 30 41 30 41 -1 0 -23 4 -25 45 -25 l45 0 0 220 0 220
-45 0 c-41 0 -45 -2 -45 -25 0 -29 -12 -32 -31 -8 -37 44 -144 56 -214 24z
m159 -85 c38 -16 73 -61 82 -105 8 -40 -26 -111 -65 -134 -87 -51 -201 12
-201 112 0 57 26 102 71 124 42 20 70 21 113 3z"/>
<path d="M3577 2306 c-46 -31 -47 -31 -47 -6 0 17 -7 20 -45 20 l-45 0 0 -220
0 -220 45 0 45 0 0 133 c0 106 4 139 18 167 33 68 112 76 156 17 18 -25 21
-45 24 -173 l4 -144 45 0 44 0 -3 174 c-3 158 -5 177 -24 202 -35 47 -70 67
-126 72 -45 3 -59 0 -91 -22z"/>
<path d="M4026 2310 c-55 -27 -72 -45 -101 -103 -77 -155 37 -338 209 -337 36
0 116 34 116 50 0 5 5 10 10 10 6 0 10 -11 10 -25 0 -23 4 -25 45 -25 l45 0 0
220 0 220 -45 0 c-42 0 -45 -2 -45 -27 0 -24 -1 -25 -17 -11 -58 51 -157 63
-227 28z m180 -95 c35 -23 64 -74 64 -113 0 -103 -118 -166 -207 -111 -95 59
-81 190 27 241 23 11 88 2 116 -17z"/>
<path d="M4591 2304 c-30 -25 -31 -25 -31 -5 0 18 -6 21 -45 21 l-45 0 0 -220
0 -220 45 0 45 0 0 135 c0 188 18 225 107 225 35 0 41 4 57 37 21 44 12 53
-56 53 -36 0 -54 -6 -77 -26z"/>
<path d="M900 2240 l0 -40 131 0 c144 0 142 -2 82 58 -20 20 -32 22 -118 22
l-95 0 0 -40z"/>
<path d="M360 2159 c0 -13 156 -169 169 -169 12 0 12 5 12 100 0 33 0 65 0 70
-1 14 -181 13 -181 -1z"/>
<path d="M580 2065 l0 -105 38 -19 c52 -26 137 -49 197 -53 l50 -3 3 143 3
142 -146 0 -145 0 0 -105z"/>
<path d="M900 2135 l0 -35 180 0 c169 0 180 1 171 18 -26 48 -43 52 -201 52
l-150 0 0 -35z"/>
<path d="M900 2025 l0 -35 235 0 235 0 -16 25 c-9 14 -25 30 -35 35 -10 6
-108 10 -218 10 l-201 0 0 -35z"/>
<path d="M900 1920 l0 -40 290 0 c160 0 290 2 290 5 0 3 -14 21 -32 40 l-31
35 -259 0 -258 0 0 -40z"/>
</g>
</svg>
