<?xml version="1.0" standalone="no"?>
<!DOCTYPE svg PUBLIC "-//W3C//DTD SVG 20010904//EN"
 "http://www.w3.org/TR/2001/REC-SVG-20010904/DTD/svg10.dtd">
<svg version="1.0" xmlns="http://www.w3.org/2000/svg"
 width="2084.000000pt" height="2917.000000pt" viewBox="0 0 2084.000000 2917.000000"
 preserveAspectRatio="xMidYMid meet">

<g transform="translate(0.000000,2917.000000) scale(0.100000,-0.100000)"
fill="#000000" stroke="none">
<path d="M10345 20363 c-82 -7 -210 -35 -273 -59 -126 -47 -1007 -556 -1151
-664 -166 -125 -290 -315 -342 -521 -29 -118 -41 -499 -33 -1044 4 -294 3
-439 -5 -457 -13 -35 4 -24 -586 -363 -275 -158 -531 -308 -570 -334 -160
-105 -308 -292 -374 -473 -58 -157 -56 -127 -56 -853 0 -663 0 -671 23 -759
70 -277 210 -456 491 -629 210 -131 883 -514 954 -544 272 -115 588 -108 842
20 52 25 522 295 990 566 91 53 150 81 170 81 20 0 101 -41 255 -131 772 -449
924 -533 1019 -565 226 -77 499 -68 711 22 68 29 942 528 1045 597 237 159
399 414 435 687 7 57 10 289 8 705 l-3 620 -28 90 c-76 246 -207 432 -396 560
-40 28 -319 192 -620 365 l-546 315 -5 720 -5 720 -28 88 c-91 291 -250 486
-527 642 -47 27 -259 149 -472 272 -467 269 -537 300 -738 323 -84 10 -107 10
-185 3z m224 -573 c47 -17 791 -438 958 -543 111 -69 189 -182 213 -306 12
-63 14 -990 2 -1008 -6 -9 -88 34 -293 153 -507 297 -592 339 -784 385 -215
52 -462 29 -682 -64 -88 -37 -141 -66 -570 -313 -165 -96 -304 -174 -307 -174
-10 0 -7 974 4 1031 15 82 63 169 122 226 29 27 107 81 173 120 204 120 778
449 824 473 101 51 229 59 340 20z m25 -1870 c33 -11 98 -41 145 -66 198 -107
958 -549 981 -571 l25 -23 0 -633 c0 -567 -2 -638 -17 -694 -51 -185 -139
-279 -403 -433 -428 -249 -891 -513 -900 -513 -15 0 -1000 569 -1071 619 -108
76 -183 177 -226 304 -22 64 -23 74 -26 702 l-3 637 28 29 c25 27 889 531
1034 604 138 69 303 84 433 38z m-2044 -1454 c0 -513 4 -569 51 -721 66 -216
225 -438 411 -576 37 -28 242 -151 454 -273 213 -122 386 -226 386 -231 0 -11
-679 -407 -819 -477 -89 -44 -111 -52 -178 -56 -145 -9 -146 -9 -911 436 -298
173 -346 212 -402 331 l-35 74 -9 221 c-13 297 -2 944 16 1013 41 153 115 223
427 402 129 74 315 181 413 238 99 57 183 103 188 103 4 0 8 -218 8 -484z
m3783 473 c12 -7 202 -116 422 -242 425 -245 486 -289 538 -385 56 -103 57
-118 57 -722 0 -603 -1 -620 -56 -720 -52 -95 -109 -138 -479 -353 -557 -324
-614 -355 -685 -373 -85 -22 -185 -14 -265 19 -72 30 -868 488 -869 500 -1 9
36 31 489 292 297 171 367 218 462 308 135 128 231 281 292 463 57 169 61 219
61 745 0 264 3 479 6 479 3 0 15 -5 27 -11z"/>
<path d="M9030 11996 c0 -327 3 -601 6 -610 5 -13 25 -16 110 -16 l104 0 0
610 0 610 -110 0 -110 0 0 -594z"/>
<path d="M10148 12123 c-3 -420 -5 -471 -20 -499 -24 -44 -61 -54 -194 -54
l-113 0 -16 30 c-12 24 -15 77 -15 305 l0 275 -114 0 -115 0 -3 -407 -3 -408
-28 -57 c-32 -65 -59 -88 -134 -112 l-53 -18 0 -94 0 -94 38 0 c49 0 142 24
194 51 101 52 184 167 210 291 l12 59 31 -8 c16 -4 102 -8 190 -8 147 0 164 2
208 24 51 25 86 61 120 125 22 41 22 47 25 554 l3 512 -110 0 -110 0 -3 -467z"/>
<path d="M10580 11980 l0 -610 114 0 114 0 7 243 c4 133 3 406 -1 607 l-9 365
-112 3 -113 3 0 -611z"/>
<path d="M11673 12551 c-49 -23 -73 -63 -73 -121 0 -55 22 -94 64 -114 67 -31
152 -11 180 43 20 38 21 103 2 140 -32 60 -106 83 -173 52z"/>
<path d="M6202 12249 c-156 -30 -288 -161 -321 -317 -6 -29 -11 -112 -11 -185
0 -73 -3 -143 -7 -156 l-6 -24 -206 6 c-121 3 -218 10 -236 17 -73 28 -135
127 -135 215 0 28 12 82 25 120 14 39 25 71 25 71 0 1 -34 29 -75 63 -43 36
-82 61 -93 59 -22 -4 -79 -99 -98 -167 -12 -38 -15 -83 -12 -160 3 -94 7 -114
35 -174 58 -121 174 -213 302 -237 29 -5 201 -10 382 -10 l328 0 3 263 c3 285
5 294 67 360 46 51 93 68 174 65 l72 -3 3 -336 2 -336 62 -7 c80 -8 1590 -8
1966 1 l292 6 0 93 0 93 -51 7 c-71 9 -76 21 -82 189 -9 250 -71 367 -242 452
-100 50 -275 57 -385 14 -56 -22 -150 -84 -150 -100 0 -5 37 -39 81 -75 78
-64 83 -66 103 -51 120 89 262 64 325 -58 21 -41 25 -69 34 -203 5 -85 7 -158
3 -162 -10 -9 -501 -16 -591 -7 -103 9 -106 14 -110 192 -5 201 -34 283 -134
376 -78 73 -166 110 -274 115 -99 5 -192 -10 -252 -40 -45 -23 -115 -76 -115
-87 0 -4 36 -38 81 -75 l80 -68 37 26 c78 53 138 59 219 22 57 -27 95 -75 111
-141 6 -22 13 -102 17 -177 l7 -138 -396 0 -396 0 0 340 0 340 -207 -1 c-115
-1 -227 -5 -251 -10z"/>
<path d="M12123 12250 c-148 -31 -267 -142 -315 -294 -25 -80 -21 -223 10
-311 11 -33 18 -62 15 -65 -2 -3 -80 -5 -171 -4 -181 1 -202 6 -254 61 -66 70
-84 172 -47 273 11 30 22 62 25 71 4 10 -21 37 -78 83 l-83 67 -23 -28 c-13
-15 -38 -57 -55 -93 -31 -63 -32 -69 -32 -195 0 -126 1 -132 32 -198 59 -123
172 -212 303 -237 73 -14 820 -13 895 1 87 16 143 46 211 114 105 105 146 232
125 388 -22 157 -108 274 -248 339 -58 28 -78 32 -167 34 -56 2 -120 -1 -143
-6z m178 -201 c55 -19 95 -55 123 -111 80 -160 -27 -368 -190 -368 -37 0 -107
30 -136 57 -92 88 -97 274 -10 367 54 58 139 79 213 55z"/>
<path d="M15228 12250 c-65 -16 -158 -69 -202 -115 -23 -23 -56 -72 -73 -106
-60 -123 -66 -241 -20 -378 l23 -69 -63 -7 c-59 -6 -196 0 -235 11 -15 5 -15
9 2 59 55 161 17 339 -98 454 -192 192 -550 162 -792 -66 -43 -40 -81 -73 -84
-73 -3 0 -6 45 -6 100 l0 100 -105 0 -105 0 -2 -292 -3 -293 -133 0 c-121 0
-135 2 -148 19 -11 16 -14 74 -14 303 l0 283 -120 0 -120 0 0 -402 c0 -237 -4
-418 -10 -439 -16 -55 -67 -107 -135 -134 l-60 -24 -3 -95 c-3 -111 -9 -107
109 -82 171 37 270 132 321 312 l23 80 34 -13 c27 -11 140 -13 605 -11 619 4
598 2 684 61 l44 29 31 -30 c63 -61 70 -62 470 -62 204 0 388 4 418 10 128 24
232 107 294 234 31 62 38 88 42 159 14 216 -84 385 -266 458 -63 25 -236 36
-303 19z m207 -209 c116 -52 164 -213 104 -342 -32 -67 -77 -104 -145 -120
-92 -21 -182 21 -224 106 -21 42 -25 64 -25 135 0 75 3 91 28 132 56 96 166
133 262 89z m-1113 -31 c18 -1 81 -67 100 -103 25 -50 34 -138 19 -194 -13
-48 -51 -97 -90 -117 -39 -20 -219 -29 -432 -21 -221 9 -208 -3 -137 123 59
106 191 238 278 280 74 36 156 51 215 40 22 -4 43 -7 47 -8z"/>
<path d="M8179 11171 c-71 -22 -99 -61 -99 -136 0 -125 179 -173 243 -65 21
35 22 101 3 139 -26 50 -93 78 -147 62z"/>
<path d="M5413 11150 c-41 -25 -53 -48 -53 -105 0 -93 52 -141 144 -132 41 4
55 10 83 41 27 29 33 44 33 81 0 87 -47 135 -132 135 -25 0 -56 -8 -75 -20z"/>
<path d="M5798 11154 c-37 -19 -58 -63 -58 -119 0 -37 6 -52 33 -81 28 -31 42
-37 83 -41 62 -6 107 14 130 60 20 38 22 103 5 135 -30 56 -131 80 -193 46z"/>
<path d="M6490 9965 l0 -675 115 0 115 0 0 675 0 675 -115 0 -115 0 0 -675z"/>
<path d="M9220 9965 l0 -675 115 0 115 0 0 260 c0 304 7 349 59 402 85 84 212
67 269 -37 15 -26 17 -74 20 -327 l4 -298 119 0 119 0 0 259 c0 278 -13 398
-50 471 -86 169 -310 246 -476 165 -28 -14 -54 -25 -57 -25 -4 0 -8 107 -9
238 l-3 237 -112 3 -113 3 0 -676z"/>
<path d="M10353 10630 c-95 -22 -141 -123 -95 -209 52 -96 210 -95 255 2 55
115 -39 235 -160 207z"/>
<path d="M14660 9965 l0 -675 110 0 110 0 0 121 c0 88 4 130 15 153 18 37 73
82 85 70 26 -29 233 -300 237 -311 13 -32 60 -43 193 -43 71 0 130 2 130 5 0
3 -92 121 -204 264 l-204 259 191 183 191 184 -123 8 c-68 5 -139 6 -159 2
-29 -5 -65 -36 -187 -156 -83 -82 -154 -149 -158 -149 -4 0 -7 171 -7 380 l0
380 -110 0 -110 0 0 -675z"/>
<path d="M8783 10610 c-87 -52 -83 -198 6 -245 37 -19 101 -19 144 -1 48 20
71 61 71 126 0 62 -21 103 -65 126 -40 20 -118 18 -156 -6z"/>
<path d="M11350 9960 l0 -670 111 0 c90 0 114 3 123 16 10 13 19 12 75 -15
164 -77 375 -31 506 110 181 197 177 488 -11 677 -140 140 -348 180 -507 97
-27 -14 -53 -25 -58 -25 -5 0 -9 103 -9 240 l0 240 -115 0 -115 0 0 -670z
m566 21 c122 -56 177 -235 115 -375 -22 -50 -86 -109 -136 -126 -60 -20 -146
-9 -202 26 -92 57 -137 206 -98 324 20 60 83 136 130 156 44 19 143 17 191 -5z"/>
<path d="M5673 10205 c-189 -42 -338 -205 -366 -400 -20 -139 36 -315 133
-413 80 -81 222 -141 335 -142 58 0 154 27 197 55 45 30 44 30 51 5 5 -18 14
-20 116 -20 l111 0 0 445 0 445 -115 0 c-107 0 -115 -1 -115 -20 0 -17 -6 -16
-72 15 -88 42 -180 52 -275 30z m212 -224 c75 -35 111 -90 135 -204 10 -51 9
-66 -9 -125 -45 -147 -159 -211 -306 -171 -61 17 -127 90 -148 165 -21 74 -21
116 -2 181 17 57 83 139 130 159 45 20 152 17 200 -5z"/>
<path d="M7905 10207 c-77 -20 -147 -61 -214 -123 -242 -224 -175 -645 124
-786 129 -60 267 -61 379 -3 45 23 52 25 62 11 9 -13 33 -16 121 -16 l110 0 7
77 c8 98 8 400 -1 631 l-6 182 -113 0 c-89 0 -113 -3 -118 -15 -4 -12 -17 -9
-76 16 -84 35 -197 46 -275 26z m221 -226 c138 -63 180 -294 77 -429 -56 -73
-190 -104 -278 -63 -188 87 -191 393 -6 491 48 26 152 26 207 1z"/>
<path d="M12771 10204 c-110 -30 -235 -121 -288 -211 -66 -112 -84 -292 -42
-415 88 -264 393 -402 621 -284 60 31 64 32 71 6 5 -18 13 -20 99 -20 51 0
103 3 116 6 l22 6 0 377 c0 207 -3 406 -7 444 l-6 67 -113 0 c-95 0 -114 -3
-114 -15 0 -20 -16 -19 -54 4 -79 49 -202 63 -305 35z m230 -227 c178 -94 174
-401 -6 -486 -121 -57 -269 2 -323 128 -21 50 -21 165 1 227 19 56 73 115 127
138 55 24 149 20 201 -7z"/>
<path d="M13965 10206 c-27 -8 -66 -21 -84 -29 -30 -13 -38 -13 -57 -1 -16 11
-48 14 -120 12 l-99 -3 -3 -447 -2 -448 115 0 115 0 0 238 c0 331 14 398 91
450 29 20 44 23 101 20 84 -5 117 -26 140 -94 15 -42 17 -92 18 -331 l0 -283
121 0 121 0 -4 308 c-5 341 -10 376 -69 463 -37 55 -128 122 -187 139 -65 18
-145 21 -197 6z"/>
<path d="M7243 10200 c-170 -31 -259 -112 -292 -268 -7 -33 -11 -169 -11 -352
l0 -300 122 0 121 0 -6 208 c-3 114 -2 258 1 319 7 108 8 114 37 143 33 33
102 50 203 50 l52 0 0 94 c0 52 -4 97 -9 101 -18 11 -166 14 -218 5z"/>
<path d="M8748 9688 c-3 -449 -5 -497 -21 -533 -26 -58 -82 -111 -143 -136
l-54 -21 0 -96 0 -95 64 5 c125 10 268 105 329 216 55 101 57 123 57 659 l0
493 -114 0 -115 0 -3 -492z"/>
<path d="M10270 9751 c0 -236 3 -436 6 -445 5 -13 25 -16 115 -16 l109 0 0
445 0 445 -115 0 -115 0 0 -429z"/>
</g>
</svg>
