<?xml version="1.0" encoding="UTF-8"?>
<svg id="Layer_2" xmlns="http://www.w3.org/2000/svg" version="1.1" viewBox="0 0 1000 1000">
  <!-- Generator: Adobe Illustrator 29.1.0, SVG Export Plug-In . SVG Version: 2.1.0 Build 142)  -->
  <defs>
    <style>
      .st0 {
        fill: #fff;
      }

      .st1 {
        fill: #006a46;
      }

      .st2 {
        fill: #8ba0d0;
      }

      .st3 {
        fill: #0d6b30;
      }
    </style>
  </defs>
  <path class="st1" d="M499.7,308.9c-63.5,0-115.2,51.7-115.2,115.2,0,30.7,12,59.7,33.8,81.4,21.8,21.8,50.7,33.8,81.4,33.8h0c30.7,0,59.6-12,81.4-33.8,21.8-21.8,33.8-50.7,33.8-81.4,0-30.7-12-59.6-33.8-81.4-21.8-21.8-50.7-33.8-81.4-33.8h0ZM499.7,540.8h0c-31.1,0-60.4-12.2-82.5-34.2-22.1-22.1-34.2-51.4-34.2-82.5,0-64.3,52.4-116.7,116.7-116.7h0c31.1,0,60.4,12.2,82.5,34.2,22.1,22.1,34.2,51.4,34.2,82.5,0,31.1-12.2,60.4-34.2,82.5-22.1,22.1-51.4,34.2-82.5,34.2"/>
  <path class="st2" d="M583.1,397.6c0,46.8-38,84.8-84.8,84.8s-84.8-38-84.8-84.8,38-84.8,84.8-84.8,84.8,38,84.8,84.8"/>
  <path class="st1" d="M499.6,455c-38.8,0-70.3-31.5-70.3-70.4,0-38.9,31.5-70.4,70.4-70.3,38.9,0,70.3,31.5,70.3,70.4,0,38.9-31.5,70.3-70.4,70.3M499.7,313.4c-61.1,0-110.7,49.5-110.7,110.7,0,61.1,49.5,110.7,110.7,110.7,61.1,0,110.7-49.5,110.7-110.7,0-61.1-49.5-110.7-110.7-110.7"/>
  <path class="st1" d="M499.6,454.7h0c38.6,0,70-31.4,70-70,0-18.7-7.3-36.3-20.5-49.5-13.2-13.2-30.8-20.5-49.5-20.5h0c-18.7,0-36.3,7.3-49.5,20.5-13.2,13.2-20.5,30.8-20.5,49.5,0,38.6,31.4,70,70,70M499.6,455.4h0c-39,0-70.7-31.7-70.7-70.7,0-18.9,7.4-36.6,20.7-50,13.4-13.3,31.1-20.7,50-20.7h0c18.9,0,36.6,7.4,50,20.7,13.3,13.4,20.7,31.1,20.7,50,0,39-31.7,70.7-70.7,70.7M499.7,313.8c-60.8,0-110.3,49.5-110.3,110.3,0,29.5,11.5,57.2,32.3,78,20.8,20.8,48.5,32.3,78,32.3h0c60.8,0,110.3-49.5,110.3-110.3,0-60.8-49.5-110.4-110.3-110.4h0ZM499.7,535.2h0c-29.7,0-57.6-11.6-78.5-32.5-21-21-32.5-48.9-32.5-78.5,0-61.2,49.8-111,111-111h0c61.2,0,111,49.8,111,111.1,0,61.2-49.8,111-111.1,111"/>
  <path class="st0" d="M542.8,455.9s6,1.6,12.3-1.9c0,0,0,2.8.6,3.6.5.5,23.3,22.1,23.3,22.1l-4.6,6.1-31.5-29.4s-.3-.5,0-.4"/>
  <path class="st0" d="M540,459.2s1.2,6.4-1.4,12.5l3.2.3,8.9,8.1s-7.1,6.3-12.5,9.4c0,0-.5.3-.6,0-.2-.3-6.3-9.6-6.3-9.6,0,0-1,8.2-3.8,11.2v.8s1.2,0,2.1.3c.9.4,1.1.7,1.1.7l6.4,9.9s.3,3-.1,4.2c-.4,1.1-.9,3.5-6.5,4.8,0,0-.4,1.7,6,1.2,6.3-.4,9.9-7.1,8.3-13.3,0-.1,0-.3-.1-.4,0,0,14.6-9.2,20.1-16.5,0,0,0,0,.1-.1,0,0-22.6-22-24.8-23.5"/>
  <path class="st0" d="M518.4,482.6s.5,0,.5.5c0,.6,7.9,24.4,7.9,24.4,0,0-26.8,10.9-59-1.5l13-39.7s.2-.2.2,0,2.5,7.3,6.8,10v.4s-2.3.2-3.1,3c-.9,2.8-5.5,16.7-5.5,17.1s.8.5,1.3.6c.5.1,7.4,2.2,16.9,2.4,9.5.2,18.1-1.5,18.1-1.5,0,0-.2-3.7-3.8-5.2l-.2-.6s5.7-3.5,6.9-9.9"/>
  <path class="st0" d="M462.2,484.7c-.5,1.9-1.1,4.2-1.6,4.4l-8.4-6s4.1-1.5,8.4-.9c0,0,2.1.5,1.6,2.5M464.7,475.7c-9.5-.6-15.6,3.1-15.6,3.1,1.1-2.7,1-7.7,1-7.7-4.3,2.9-8.3,2.1-9.7,1.9-1.4-.3-.7.7-.7.7,0,0,0,.2.1.2,3.5,8.2-4.5,9.3-4.5,9.3-6.9-.7-5.8-6.5-5.7-7.2,0-.7,1.1-5.9,10-8,8.9-2.1,7-2.1,7.3-2.4.3-.3,1.7-1.6,1.2-2.4-.6-.8-1.6,0-1.6,0-.3.1-1.3.3-1.3.3-9.6,1.5-12.2,2.8-12.2,2.8-11.2,6-8.6,15.8-8.6,15.8,4.1,15.1,17.1,7.4,17.1,7.4,9.5,9.7,23,14.6,23,14.6,0,0,6.5-19.9,6.7-20.5.2-.6,3.2-7.3-6.3-7.9"/>
  <path class="st0" d="M458.3,467c0-2.6,2.1-4.7,4.7-4.7,2.6,0,4.7,2.1,4.7,4.7,0,2.6-2.1,4.7-4.7,4.7s-4.7-2.1-4.7-4.7"/>
  <path class="st0" d="M487.1,518.9c0-2.6,2.1-4.7,4.7-4.7s4.7,2.1,4.7,4.7c0,2.6-2.1,4.7-4.7,4.7s-4.7-2.1-4.7-4.7"/>
  <path class="st0" d="M503,518.7c0-2.6,2.1-4.7,4.7-4.7s4.7,2.1,4.7,4.7c0,2.6-2.1,4.7-4.7,4.7s-4.7-2.1-4.7-4.7"/>
  <path class="st0" d="M539.1,410.5l5.8-23.7s1.9-1.4,7.1-1.4,7.2,1.3,7.2,1.3l3.7,16.7s-4.5,13.5-9.6,19.8c-3.9,4.8-14.2-12.7-14.2-12.7"/>
  <path class="st3" d="M539.3,410.4c.6,1,8.1,13.4,12.3,13.4.6,0,1.1-.3,1.5-.8,4.9-6,9.3-18.8,9.6-19.7l-3.6-16.6c-.4-.2-2.8-1.3-7-1.3-4.7,0-6.7,1.2-7,1.4l-5.8,23.6ZM551.6,424.2c-4.6,0-12.3-13.1-12.7-13.6h0c0,0,5.9-23.9,5.9-23.9h0c0,0,2-1.5,7.2-1.5s7.2,1.3,7.3,1.3h0s3.7,16.9,3.7,16.9h0c0,.2-4.6,13.7-9.6,19.9-.5.6-1.1.9-1.8.9"/>
  <path class="st3" d="M559.8,386.2s-3.3-1.5-7.8-1.5c-4.5,0-7.8,1.5-7.8,1.5l.7.5s2.5-1.3,7.1-1.3,7.1,1.3,7.1,1.3l.6-.4Z"/>
  <path class="st0" d="M559.6,385.9l-2-9.3h-.4v.8h-.4v.3h-.3c0-.1-.3-.1-.3-.1v-.5l-.2-.2h-.3v-.9s-.4,0-.4,0v.7h-.3l-.2.2v.3h-.3c0-.1-.2-.1-.2-.1v-.4l-.2-.2h-.2v-.9h-.5s0,.8,0,.8l-.4.2v.4h-.6v-.4l-.2-.2h-.2v-.9s-.4,0-.4,0v.9h-.2l-.2.2v.3h-.5v-.4h-.1c0-.1-.3-.1-.3-.1v-.7h-.4v.8h-.2l-.2.2v.3h-.3v.2h-.2v-.3h-.1c0-.1-.3-.1-.3-.1v-.7h-.4v.9h-.2l-.2.2v.4h-.3s0,0,0,0h-.2v-.3h-.4v-.8h-.4l-1.9,9.3s2.9-1.3,7.5-1.3,7.6,1.3,7.6,1.3"/>
  <path class="st3" d="M546.5,376.7l-1.8,8.9c.9-.3,3.5-1.2,7.3-1.2s6.5.9,7.4,1.2l-1.9-8.9h-.1v.8h-.4v.3h-.6c0-.1-.3-.1-.3-.1v-.6h0c0,0-.4,0-.4,0v-.9h0v.7h-.5v.5h-.7c0-.1-.2-.1-.2-.1v-.5h0c0,0-.3,0-.3,0v-.9h-.1v.8l-.4.2v.4h-.9v-.5h0c0,0-.3,0-.3,0v-.9h0v.9h-.5v.5h-.8v-.5h0s-.4,0-.4,0v-.7h0v.8h-.4c0,.1,0,.5,0,.5h-.3v.2h-.6v-.4h0s-.4,0-.4,0v-.7h0v.9h-.4v.6h-.3c0,0-.5,0-.5,0v-.3h-.4v-.8h-.1ZM544.3,386.2l2-9.8h.8v.8h.4v.2h.2v-.3l.3-.3h.1v-.9h.7v.7h.2l.2.2h0s.2,0,.2,0v-.2l.3-.3h.1v-.8h.8v.7h.2l.2.2v.3h.2v-.2l.3-.3h.1v-.9h.8v.9h.1l.3.3v.3h.2v-.3l.4-.2v-.9h.8v.9h.1l.3.3v.3s.1,0,.1,0h0c0,0,.3-.3.3-.3h.2v-.7h.7v.9h.2l.3.3v.4h.3v-.2h.4v-.8h.7l2.1,9.8h-.3c0-.1-3-1.4-7.5-1.4s-7.4,1.2-7.4,1.3h-.3Z"/>
  <rect class="st0" x="551.2" y="383.1" width="1.7" height="1.6"/>
  <path class="st3" d="M551.4,384.5h1.4v-1.2h-1.4v1.2ZM553.1,384.8h-2.1v-1.9h2.1v1.9Z"/>
  <path class="st0" d="M459.5,410.5l-5.8-23.7s-1.9-1.4-7.1-1.4c-4.8,0-7.2,1.3-7.2,1.3l-3.7,16.7s4.5,13.5,9.6,19.8c3.9,4.8,14.2-12.7,14.2-12.7"/>
  <path class="st3" d="M435.8,403.4c.3.9,4.7,13.7,9.6,19.7.4.5.9.8,1.5.8,4.3,0,11.8-12.4,12.3-13.4l-5.8-23.6c-.3-.2-2.3-1.4-7-1.4-4.3,0-6.6,1.1-7,1.3l-3.6,16.6ZM446.9,424.2h0c-.7,0-1.3-.3-1.8-.9-5.1-6.2-9.6-19.7-9.6-19.8h0s3.7-16.9,3.7-16.9h0c0,0,2.5-1.4,7.2-1.4s7.2,1.4,7.2,1.5h0s0,0,0,0l5.8,23.8h0c-.3.6-8,13.7-12.7,13.7"/>
  <path class="st3" d="M438.7,386.1s3.4-1.5,7.8-1.5c4.5,0,7.8,1.5,7.8,1.5l-.7.5s-2.5-1.3-7.1-1.4c-4.6,0-7.1,1.3-7.1,1.3l-.6-.4Z"/>
  <path class="st0" d="M438.9,385.9l2-9.3h.4v.8h.4v.3h.3c0-.1.3-.1.3-.1v-.5l.2-.2h.3v-.9h.4v.7h.3l.2.2v.3h.3c0-.1.2-.1.2-.1v-.4l.2-.2h.2v-.9h.5v.8l.4.2v.4h.6v-.4l.2-.2h.2v-.9h.4v.9h.2l.2.2v.3h.5v-.4h.1c0-.1.3-.1.3-.1v-.7h.4v.8h.2l.2.2v.3h.3v.2h.2v-.3h.1c0-.1.3-.1.3-.1v-.7h.4v.9h.2l.2.2v.4h.3c0,0,.2,0,.2,0v-.3h.4v-.8h.5l1.9,9.3s-2.9-1.3-7.5-1.3-7.6,1.3-7.6,1.3"/>
  <path class="st3" d="M446.5,384.4c3.8,0,6.4.9,7.3,1.2l-1.8-8.9h-.1v.8h-.4v.3h-.5c0,0-.3,0-.3,0v-.5h-.1c0-.1-.3-.1-.3-.1v-.9h0v.7h-.4v.4h-.6v-.2h-.3v-.4h-.1c0-.1-.3-.1-.3-.1v-.8h0v.7h-.4v.6h-.8v-.4h-.1c0-.1-.3-.1-.3-.1v-.9h0v.9h-.4v.6h-.9v-.4l-.4-.2v-.8h-.1v.9h-.4v.6h-.2c0,.1-.6.1-.6.1v-.4h0c0,0-.4,0-.4,0v-.7h0v.9h-.4v.6h-.3c0,.1-.6.1-.6.1v-.3h-.4v-.8h-.1l-1.9,8.9c.9-.3,3.6-1.2,7.4-1.2M454.3,386.2h-.3c0-.1-2.9-1.4-7.4-1.4s-7.5,1.2-7.5,1.3h-.3c0,.1,2.1-9.6,2.1-9.6h.7v.8h.4v.2h.3v-.4l.3-.3h.2v-.9h.7v.7h.2l.3.3h0c0,0,.1,0,.1,0v-.3l.3-.3h.1v-.9h.8v.9l.4.2v.3h.2v-.3s.3-.3.3-.3h.1v-.9h.8v.9h.1l.3.3v.2h.2v-.3l.2-.2h.2v-.7h.8v.8h.1l.3.3v.2h.2s.2-.3.2-.3h.2v-.7h.7v.9h.1l.3.3v.3h.2v-.2h.4v-.8h.8l2,9.8Z"/>
  <rect class="st0" x="445.6" y="383" width="1.7" height="1.6"/>
  <path class="st3" d="M445.8,384.4h1.4v-1.2h-1.4v1.2ZM447.5,384.8h-2.1v-1.9h2.1v1.9Z"/>
  <path class="st0" d="M524.9,378.7l-50.6.5-27.1,14.4-2.7,26.7s13.1,30,58.6,30.6"/>
  <path class="st3" d="M503.1,451.2c-23.6-.3-38.4-8.6-46.6-15.6-8.9-7.5-12.3-15.1-12.3-15.2h0c0,0,0-.2,0-.2l2.7-26.9,27.3-14.5h0l50.6-.5v.7s-50.5.5-50.5.5l-26.9,14.3-2.7,26.4c.4.8,3.8,7.9,12.1,14.9,8.1,6.9,22.7,15.1,46.1,15.4v.7Z"/>
  <path class="st0" d="M503.1,450.8s33,0,52-30.3l-3-27.1-27.2-14.8"/>
  <path class="st3" d="M503.1,451.2v-.7c0,0,8.3,0,18.8-3.8,9.6-3.4,23.1-10.8,32.9-26.2l-3-26.8-27.1-14.7.3-.6,27.4,14.9,3,27.4h0c-9.8,15.8-23.5,23.3-33.3,26.7-10.6,3.8-18.9,3.8-19,3.8"/>
  <path class="st0" d="M521.7,365.1s-7.3-4.1-21.9-4.1c-16,0-21.8,4.4-21.8,4.4l-17.8,72.5c11.1,8.1,24.7,13,39.5,13,15.3,0,28.5-4.5,39.8-13.1l-17.7-72.6Z"/>
  <path class="st3" d="M460.5,437.7c11.4,8.4,24.9,12.8,39.1,12.8,14.9,0,28.1-4.4,39.4-12.9l-17.6-72.3c-1-.5-8.3-3.9-21.6-3.9h0c-14.6,0-20.7,3.7-21.5,4.2l-17.7,72.1ZM499.6,451.2c-14.4,0-28.1-4.5-39.7-13h-.2c0-.1,0-.4,0-.4l17.9-72.6h0c.2-.3,6.1-4.5,22-4.5h0c14.5,0,22,4.1,22.1,4.1h.1c0,0,0,.2,0,.2l17.8,72.8h-.2c-11.4,8.9-24.8,13.3-40,13.3"/>
  <path class="st3" d="M523.5,363.5s-10.2-4.7-23.9-4.7c-13.6,0-23.7,4.7-23.7,4.7l2.1,1.6s7.8-4.1,21.8-4.1c14,0,21.8,3.9,21.8,3.9l2-1.3Z"/>
  <path class="st0" d="M523.2,363.2l-6.4-29h-1.3v2.4h-1.1v.9h-.8v-.3h-1v-1.4s-.5-.6-.5-.6h-.8v-2.7h-1.2v2.2h-.9l-.5.5v.9h-.9v-.3h-.5v-1.2l-.5-.5h-.7v-2.6h-1.4v2.5l-1.2.5v1.1h-1.7v-1.3l-.5-.5h-.7v-2.6h-1.3v2.7h-.7l-.7.7v.9h-1.5v-1.3l-.4-.4h-.9v-2.3s-1.3,0-1.3,0v2.6h-.7l-.7.7v.9h-1v.5h-.7v-.9l-.4-.4h-.8v-2.3h-1.2v2.7h-.7l-.6.6v1.3h-1v.2h-.6v-1h-1.3v-2.3h-1.4l-6.2,29.2s9.3-4.6,23.4-4.6c14.1,0,23.6,4.4,23.6,4.4"/>
  <path class="st3" d="M482.7,334.6l-6,28.2c2.3-1,10.9-4.3,22.9-4.3,12,0,20.8,3.2,23.1,4.2l-6.2-28.1h-.7v2.4h-1.1v.9h-1.5v-.3h-1v-1.6l-.3-.3h-1v-2.7h-.6v2.3h-1.1l-.3.3v1.1h-1.6v-.3h-.5v-1.4l-.3-.3h-.9v-2.6h-.7v2.4l-1.2.5v1.2h-2.4v-1.5l-.3-.3h-.9v-2.6h-.6v2.7h-.9s-.5.5-.5.5v1.1h-2.2v-1.5l-.2-.2h-1.1v-2.2s-.6,0-.6,0v2.6h-.9l-.5.5v1.1h-1v.5h-1.4v-1.1l-.2-.2h-1v-2.3h-.5v2.7h-.9l-.4.4v1.5h-1v.2h-1.3v-1h-1.3v-2.3s-.8,0-.8,0ZM475.8,364l6.4-30.1h2v2.3h1.3v.8h.9v-1.2l.8-.8h.5v-2.7h1.9v2.3h.6l.6.6v.7h0v-.5h1v-.7l.9-.9h.5v-2.6h2v2.2s.7,0,.7,0l.6.6v1.1h.8v-.7l.9-.9h.5v-2.7h2v2.6h.5l.7.7v1.1h1v-.9l1.2-.5v-2.6h2.1v2.6h.5l.7.7v1h.5v.3h.3v-.7l.7-.7h.7v-2.2h1.9v2.7h.6l.7.7v1.2h1v.3h.1v-.9h1.1v-2.4h1.9l6.6,29.9-.6-.3c0,0-9.6-4.4-23.5-4.4-13.9,0-23.1,4.5-23.2,4.5l-.6.3Z"/>
  <path class="st3" d="M497.5,358.5h4.6v-4.1h-4.6s0,4.1,0,4.1ZM502.7,359.2h-5.9v-5.5h5.9v5.5Z"/>
  <path class="st3" d="M520.9,405.7s-8.2-1-21.2,8.6c0,0-11.2-9-20.7-9.6,0,0,16.7,7.8,19,11.1,0,0-3.2,3.9-4.4,4.3,0,0-1.8-4.1-3.7-2.1,0,0-1.1.8,0,1.9,0,0,1,1.1,1.8.4l.5.6s-.7,1-1.9,1.3c0,0-2.4-1.3-2.5,1.6,0,0,1.4,3.1,6-.9,0,0,2.1,2.5,3.6,2.1,0,0,2.9-.9.5-2.9,0,0-.8-.7-2,.7l-1-.8s4.3-4,4.6-4.2c.3-.2,4.5,4.2,4.5,4.2l-.6.8s-1.7-1.8-2.9.4c0,0,.4,3.5,3.4,1.2l1.5-1.4s3.4,3.5,5.4,2c0,0,1.5-1.3.5-2.3,0,0-.8-1.1-2-.3,0,0-.8.2-2.2-1.3l.7-.7s1.4,1.2,2.2-.8c0,0,.6-1.8-2.2-1.8,0,0-.9.4-1.8,2.5l-4.3-4.2s5.8-6.2,19.3-10.5"/>
  <path class="st3" d="M499.1,391.6s-1.3,1.6-.9,3.7c0,0-2.7-2.8-.6-5.8,0,0-2.1.3-2.8,4.5,0,0-1.5-3.5,1.1-6.7,0,0-2.8,1.7-3.5,4.1,0,0-.2-4.2,3.6-5.9,0,0-2.1,0-3.3.9,0,0,1.1-3.3,5.4-2.4,0,0-1.6-2-2.6-2,0,0,2.8-.4,4.1,1,0,0-.1-1.1.6-1.8,0,0,.8,1.6,1.2,1.9,0,0,1.7-1.3,3.4-.9,0,0-1.5,1.1-1.8,1.8,0,0,4.4-.1,5.1,3.1,0,0-2.6-1.9-4-1.4,0,0,3.9,1.4,4.3,5.8,0,0-2.5-3.8-3.9-4,0,0,2.4,3.9,1,6.3,0,0-1-4.2-2.2-4.8,0,0,.6,4.7-.9,6.2,0,0-.6-3.4-1.7-3.8l-.2,13.7c.1,1.1.4,1.5.4,1.5-.1.7,0,1.3,0,1.3.3.4.3.8.3.8.2.8,0,1.3,0,1.3.3.8.8,1.4.8,1.4l-4.6.2c.4-.2.9-1.9.9-1.9-.3-.8.3-2,.3-2,0-.8.6-2.6.6-2.6v-13.5Z"/>
  <path class="st1" d="M499.6,318.6c-36.3,0-65.8,29.5-65.8,65.8,0,36.3,29.5,65.8,65.8,65.8,36.3,0,65.8-29.5,65.8-65.8,0-36.3-29.5-65.8-65.8-65.8M499.6,452c-37.3,0-67.6-30.3-67.6-67.6,0-37.3,30.3-67.6,67.6-67.6,37.3,0,67.6,30.3,67.6,67.6,0,37.3-30.3,67.6-67.6,67.6"/>
  <path class="st0" d="M499.6,316.5c-37.7,0-68.3,30.6-68.3,68.3,0,37.7,30.6,68.3,68.3,68.3,37.7,0,68.3-30.6,68.3-68.3,0-37.7-30.6-68.3-68.3-68.3M499.6,455c-38.7,0-70.2-31.5-70.2-70.2,0-38.7,31.5-70.2,70.2-70.2,38.7,0,70.2,31.5,70.2,70.2,0,38.7-31.5,70.2-70.2,70.2"/>
  <path class="st0" d="M499.6,317.5c-37.1,0-67.4,30.2-67.4,67.3,0,18,7,34.9,19.7,47.6,12.7,12.7,29.6,19.8,47.6,19.8h0c37.1,0,67.3-30.2,67.4-67.3,0-18-7-34.9-19.7-47.6-12.7-12.7-29.6-19.8-47.6-19.8h0ZM499.6,456h0c-39.2,0-71.1-31.9-71.1-71.1,0-39.2,31.9-71.1,71.1-71.1h0c39.2,0,71.1,31.9,71.1,71.1,0,19-7.4,36.8-20.9,50.3-13.4,13.4-31.3,20.8-50.3,20.8"/>
  <path class="st1" d="M255.8,591.8c-.9-1-1.4-2.2-1.4-3.6s.5-2.6,1.4-3.6c.9-1,2-1.4,3.3-1.4s2.4.5,3.4,1.4c.9,1,1.4,2.2,1.4,3.6s-.5,2.6-1.4,3.6c-.9,1-2,1.5-3.4,1.5s-2.4-.5-3.3-1.5M254.9,619.9c5.7,0,8.5-2.7,8.5-8s-1.8-7.1-5.4-7.1-5.2,1.5-7.5,4.4c-2.2,2.9-3.7,6.4-4.5,10.6h8.9ZM213,624.2c0-3.6.5-7.3,1.4-11.1l9.9-1.9c-1.2,4.1-1.7,8.1-1.7,12,0,7.7,2.4,11.6,7.2,11.6s6.9-3.9,6.9-11.6v-25.6h9.5v1c0,3.1-.2,5.9-.7,8.3h.1c1.2-3.2,3.2-5.7,5.9-7.5,2.6-1.7,5.4-2.6,8.5-2.6s7.7,1.3,10,3.9c2.2,2.5,3.3,6.1,3.3,10.7s-1.5,9-4.4,11.8c-3.3,3.2-8.2,4.7-14.7,4.7h-8.5c-1.1,9.9-6.6,14.8-16.6,14.8s-16-6.2-16-18.6"/>
  <polygon class="st1" points="279.8 582.5 289.4 582.5 289.4 619.9 295.1 619.9 295.1 627.9 279.8 627.9 279.8 582.5"/>
  <rect class="st1" x="294.2" y="619.9" width="15" height="8"/>
  <rect class="st1" x="308.6" y="619.9" width="15" height="8"/>
  <path class="st1" d="M342.1,641.1c-.9,1-2,1.4-3.2,1.4s-2.4-.5-3.3-1.4c-.9-.9-1.3-2.1-1.3-3.5s.4-2.5,1.3-3.5c.9-1,2-1.4,3.3-1.4s2.3.5,3.2,1.4c.9,1,1.3,2.1,1.3,3.5s-.4,2.6-1.3,3.5M331.4,641.1c-.9,1-1.9,1.4-3.2,1.4s-2.3-.5-3.2-1.4c-.9-1-1.3-2.1-1.3-3.5s.4-2.5,1.3-3.5c.9-1,2-1.4,3.2-1.4s2.3.5,3.2,1.4c.9,1,1.3,2.1,1.3,3.5s-.4,2.6-1.3,3.5M323,619.9h10.9v-22.3h9.5v30.3h-20.4v-8Z"/>
  <path class="st1" d="M347.1,643.8l.7-8.1c1.2.3,2.6.5,4.1.5s3.2-.5,4.1-1.6c.9-1.2,1.4-3.2,1.4-6.1v-31h9.6v22.3h5.5v8h-5.5v.3c0,10.7-5.2,16-15.6,16s-2.9-.1-4.3-.4"/>
  <polygon class="st1" points="371.5 619.9 378.4 619.9 378.4 582.5 388 582.5 388 627.9 371.5 627.9 371.5 619.9"/>
  <rect class="st1" x="397.4" y="582.5" width="9.6" height="45.5"/>
  <path class="st1" d="M443.4,591.9c-.9-1-1.3-2.1-1.3-3.5s.4-2.6,1.3-3.5c.9-1,2-1.4,3.3-1.4s2.3.5,3.2,1.4c.9,1,1.3,2.2,1.3,3.5s-.4,2.6-1.3,3.5c-.9,1-2,1.5-3.2,1.5s-2.4-.5-3.3-1.5M445.9,605.7c-1.2-.7-2.8-1-4.7-1s-3.4.7-4.5,2.1c-1,1.4-1.6,3.1-1.6,5.3,0,5.2,2.6,7.8,7.8,7.8h2.9v-14.2ZM432.6,591.9c-.9-1-1.3-2.1-1.3-3.5s.4-2.5,1.3-3.5c.9-1,2-1.4,3.2-1.4s2.3.5,3.2,1.4c.9,1,1.3,2.2,1.3,3.5s-.4,2.6-1.3,3.5c-.9,1-2,1.5-3.2,1.5s-2.3-.5-3.2-1.5M442,627.9c-10.9,0-16.3-4.9-16.3-14.8s1.3-8.4,3.9-11.4c2.9-3.3,7.1-5,12.6-5s9.4.7,13.1,2.2v21h5.5v8h-18.6Z"/>
  <rect class="st1" x="459.7" y="619.9" width="15" height="8"/>
  <path class="st1" d="M494.7,591.9c-.9-1-1.3-2.1-1.3-3.5s.4-2.6,1.3-3.5c.9-1,2-1.4,3.2-1.4s2.3.5,3.2,1.4c.9,1,1.3,2.2,1.3,3.5s-.4,2.6-1.3,3.5c-.9,1-2,1.5-3.2,1.5s-2.4-.5-3.2-1.5M496.5,618c1-1.4,1.6-3.3,1.6-5.7,0-5.1-1.8-7.6-5.5-7.6s-2.9.6-3.9,1.7c-1.2,1.3-1.8,3.2-1.8,5.6,0,5.3,1.8,7.9,5.5,7.9s3.1-.7,4.1-2M484,591.9c-.9-1-1.3-2.1-1.3-3.5s.4-2.5,1.3-3.5c.9-1,2-1.4,3.2-1.4s2.3.5,3.2,1.4c.9,1,1.3,2.2,1.3,3.5s-.4,2.6-1.3,3.5c-.9,1-1.9,1.5-3.2,1.5s-2.3-.5-3.2-1.5M474.1,619.9h1.9c1.2,0,2.3.1,3.3.3-1.3-1.8-2-4.2-2-7.3,0-4.8,1.5-8.7,4.5-11.7,3-3,6.7-4.5,11.4-4.5s8.2,1.3,10.7,3.8c2.5,2.6,3.8,6.3,3.8,11.2s-.9,6.8-2.7,8.6c1.5-.2,2.9-.3,4.2-.3h2.7v8h-37.6v-8Z"/>
  <path class="st1" d="M536.4,619.9c5.3-.1,8-2.8,8-8s-1.8-7.1-5.4-7.1-5.1,1.5-7.4,4.4c-2.3,2.9-3.8,6.5-4.5,10.6h9.3ZM510.9,619.9h6.8v-37.5h9.6v16.1c0,3.2-.3,5.9-.8,8.3h.1c1.2-3.2,3.2-5.6,6-7.5,2.6-1.7,5.4-2.6,8.5-2.6s7.6,1.3,9.9,3.9c2.2,2.5,3.3,6.1,3.3,10.7s-.6,6.2-1.9,8.6h6v8h-47.5v-8Z"/>
  <path class="st1" d="M566.7,591.8c-.9-1-1.4-2.2-1.4-3.6s.5-2.6,1.4-3.6c.9-1,2-1.4,3.3-1.4s2.5.5,3.4,1.4c.9,1,1.4,2.2,1.4,3.6s-.5,2.6-1.4,3.6c-.9,1-2.1,1.5-3.4,1.5s-2.4-.5-3.3-1.5M557.1,619.9h8.2v-22.3h9.6v22.3h5.4v8h-23.2v-8Z"/>
  <path class="st1" d="M603.5,612.9c0-5.4-1.8-8.1-5.4-8.1s-3.4.7-4.5,2.1c-1,1.4-1.6,3.1-1.6,5.3,0,5.2,2.6,7.8,7.8,7.8h3.7v-7.1ZM579.4,627.9v-8h2.6c1.4,0,2.5.2,3.3.5-1.8-1.6-2.7-4.3-2.7-8.1s1.3-8,4-10.8c3-3.2,7-4.8,12.1-4.8s8.4,1.4,10.8,4.2c2.2,2.6,3.3,6.2,3.3,10.8v16.2h-33.5Z"/>
  <path class="st1" d="M648,591.9c-.9-1-1.3-2.1-1.3-3.5s.4-2.6,1.3-3.5c.9-1,2-1.4,3.2-1.4s2.3.5,3.2,1.4c.9,1,1.3,2.2,1.3,3.5s-.4,2.6-1.3,3.5c-.9,1-2,1.5-3.2,1.5s-2.4-.5-3.2-1.5M650.5,605.7c-1.2-.7-2.8-1-4.7-1s-3.4.7-4.5,2.1c-1,1.4-1.6,3.1-1.6,5.3,0,5.2,2.6,7.8,7.8,7.8h2.9v-14.2ZM637.3,591.9c-.9-1-1.3-2.1-1.3-3.5s.4-2.5,1.3-3.5c.9-1,2-1.4,3.2-1.4s2.3.5,3.2,1.4c.9,1,1.3,2.2,1.3,3.5s-.4,2.6-1.3,3.5c-.9,1-2,1.5-3.2,1.5s-2.3-.5-3.2-1.5M646.6,627.9c-10.9,0-16.3-4.9-16.3-14.8s1.3-8.4,3.9-11.4c2.9-3.3,7.1-5,12.6-5s9.4.7,13.1,2.2v21h5.5v8h-18.6Z"/>
  <rect class="st1" x="664.3" y="619.9" width="15" height="8"/>
  <path class="st1" d="M688.3,591.8c-.9-1-1.4-2.2-1.4-3.6s.5-2.6,1.4-3.6c.9-1,2-1.4,3.3-1.4s2.5.5,3.4,1.4c.9,1,1.4,2.2,1.4,3.6s-.5,2.6-1.4,3.6c-.9,1-2.1,1.5-3.4,1.5s-2.4-.5-3.3-1.5M678.7,619.9h8.2v-22.3h9.6v30.3h-17.8v-8Z"/>
  <polygon class="st1" points="705.2 582.5 714.7 582.5 714.7 619.9 720.4 619.9 720.4 627.9 705.2 627.9 705.2 582.5"/>
  <rect class="st1" x="719.5" y="619.9" width="15" height="8"/>
  <path class="st1" d="M758.1,612.9c0-5.4-1.8-8.1-5.4-8.1s-3.4.7-4.5,2.1c-1,1.4-1.6,3.1-1.6,5.3,0,5.2,2.6,7.8,7.8,7.8h3.7v-7.1ZM733.9,627.9v-8h2.6c1.4,0,2.5.2,3.3.5-1.8-1.6-2.7-4.3-2.7-8.1s1.3-8,4-10.8c3-3.2,7-4.8,12.1-4.8s8.4,1.4,10.8,4.2c2.2,2.6,3.3,6.2,3.3,10.8v16.2h-33.5Z"/>
  <path class="st1" d="M774.5,584.4h9.6v43.5h-9.6v-43.5ZM770.8,575.9c1.3,0,2.3.1,3.2.3-.7-.5-1.1-1.4-1.1-2.6,0-1.8.7-3.3,2.2-4.6,1.7-1.5,4.1-2.2,7.3-2.2s1.6,0,2.5.2l1.3.2-.9,5-1-.2c-.7,0-1.4-.1-2.1-.1-1.9,0-2.8.6-2.8,1.9s1.3,2,4,2h3.7v5.2h-16.2v-5.2Z"/>
  <path class="st1" d="M223,669.4c-.7,0-1.2,0-1.7,0v7.1c.4,0,.9,0,1.5,0,1.3,0,2.3-.3,3-1,.8-.7,1.1-1.6,1.1-2.8,0-2.3-1.3-3.5-4-3.5M227.7,692l-6-10.9h-.4v10.9h-6v-27.7c1.8-.1,4.5-.2,8.1-.2,6.5,0,9.8,2.7,9.8,8.2s-.5,3.5-1.6,4.9c-1,1.4-2.4,2.3-4.1,2.8.9,1.3,1.6,2.4,2,3.1l5.4,8.9h-7.3Z"/>
  <rect class="st1" x="239.8" y="664.3" width="6" height="27.7"/>
  <path class="st1" d="M264.5,682.3v9.7h-6v-9.6l-8.1-18.1h6.6l3,7.1c.7,1.6,1.2,3.1,1.7,4.4h0c.3-1.1,1-2.7,2-5l2.8-6.5h6.3l-8.2,18Z"/>
  <path class="st1" d="M284.9,675c-.4-1.1-.7-2.4-1-3.9h0c-.4,1.8-.7,3.1-.9,3.9l-2.1,6.8h6.2l-2.1-6.8ZM290,692l-1.6-5.1h-9.1l-1.5,5.1h-6l8.6-27.7h7.1l9,27.7h-6.6Z"/>
  <path class="st1" d="M315,671.9c-1.1-1.6-2.9-2.3-5.5-2.3s-2,0-2.5,0v17c.7.1,1.4.2,2.2.2,2.2,0,3.9-.7,5.2-2.1,1.4-1.5,2.1-3.7,2.1-6.5s-.5-4.9-1.5-6.3M319,688.5c-2.5,2.5-5.9,3.8-10.3,3.8s-4.5,0-7.7-.2v-27.6c2.7-.2,5.7-.3,8.9-.3,8.7,0,13,4.5,13,13.5s-1.3,8.3-3.9,10.9"/>
  <polygon class="st1" points="344 692 344 680.5 334.5 680.5 334.5 692 328.5 692 328.5 664.3 334.5 664.3 334.5 674.9 344 674.9 344 664.3 350 664.3 350 692 344 692"/>
  <path class="st1" d="M374.5,669.4c-.7,0-1.2,0-1.7,0v7.1c.4,0,.9,0,1.5,0,1.3,0,2.3-.3,3-1,.8-.7,1.1-1.6,1.1-2.8,0-2.3-1.3-3.5-4-3.5M379.2,692l-6-10.9h-.4v10.9h-6v-27.7c1.8-.1,4.5-.2,8.1-.2,6.5,0,9.8,2.7,9.8,8.2s-.5,3.5-1.6,4.9c-1,1.4-2.4,2.3-4.1,2.8.9,1.3,1.6,2.4,2,3.1l5.4,8.9h-7.3Z"/>
  <polygon class="st1" points="391.2 692 391.2 664.3 405.9 664.3 405.9 669.7 397.2 669.7 397.2 675.2 405.4 675.2 405.4 680.4 397.2 680.4 397.2 686.5 405.9 686.5 405.9 692 391.2 692"/>
  <path class="st1" d="M433.6,690.7c-2.8,1.2-5.8,1.8-9.1,1.8s-7.6-1.2-9.9-3.6c-2.2-2.3-3.3-5.6-3.3-9.7s1.3-8.4,3.8-11.1c2.6-2.8,6.2-4.2,10.9-4.2s5.2.4,7.5,1.1l-1.2,5.8c-2.1-.8-4.3-1.3-6.6-1.3s-4.7.8-6.1,2.5c-1.3,1.5-1.9,3.6-1.9,6.2s.6,4.7,1.8,6.1c1.3,1.5,3.1,2.2,5.6,2.2s1.8-.1,2.5-.4v-9.1h6v13.4Z"/>
  <rect class="st1" x="440.4" y="664.3" width="6" height="27.7"/>
  <path class="st1" d="M464.3,669.6c-1.8,0-3.3.7-4.4,2.2-1.2,1.5-1.7,3.6-1.7,6.2,0,5.8,2,8.7,6,8.7s3.3-.7,4.4-2.2c1.2-1.5,1.7-3.6,1.7-6.2,0-5.8-2-8.7-6-8.7M472.9,688.6c-2.4,2.7-5.5,4-9.1,4s-7-1.3-9-3.8c-2-2.4-3-5.8-3-10.2s1.3-8.1,3.8-10.9c2.4-2.7,5.5-4,9.1-4s7,1.3,9,3.8c2,2.4,3,5.8,3,10.2s-1.3,8.1-3.8,10.9"/>
  <path class="st1" d="M496.4,692l-6.7-13.6c-.9-2-1.6-3.8-2-5.3.2,3.2.3,7.1.3,11.6v7.4h-5.7v-27.7h7.9l6.5,13.2c.8,1.7,1.6,3.6,2.2,5.5-.2-2.8-.3-6.7-.3-11.8v-6.9h5.8v27.7h-7.9Z"/>
  <path class="st1" d="M545.5,692l-1.7-11.7c-.3-1.9-.6-4.2-.8-6.9h0c-.5,2.7-1,5-1.5,7.1l-3.3,11.5h-5.6l-3.2-10.6c-.8-2.9-1.4-5.6-1.7-8h0c-.2,3-.5,5.5-.7,7.5l-1.3,11.1h-6.1l4.2-27.7h6.9l3.6,12.3c.5,1.5.9,3.5,1.4,6h0c.5-2.3.9-4.3,1.5-6l3.7-12.3h6.8l4.2,27.7h-6.2Z"/>
  <path class="st1" d="M578.4,681.1c0,7.6-3.7,11.4-11,11.4s-10.3-3.4-10.3-10.3v-18h6v17.6c0,1.8.3,3,1,3.9.7.9,2,1.4,3.7,1.4s2.9-.4,3.6-1.3c.7-.9,1.1-2.3,1.1-4.4v-17.2h5.9v16.8Z"/>
  <path class="st1" d="M599.6,692l-6.7-13.6c-.9-2-1.6-3.8-2-5.3.2,3.2.3,7.1.3,11.6v7.4h-5.7v-27.7h7.9l6.5,13.2c.8,1.7,1.6,3.6,2.2,5.5-.2-2.8-.3-6.7-.3-11.8v-6.9h5.8v27.7h-7.9Z"/>
  <rect class="st1" x="614.4" y="664.3" width="6" height="27.7"/>
  <path class="st1" d="M644.6,691.2c-2,.8-4.1,1.2-6.5,1.2-4.4,0-7.6-1.4-9.7-4.3-1.7-2.3-2.5-5.3-2.5-9s1.1-8.2,3.4-10.9c2.3-2.8,5.6-4.2,9.8-4.2s3.8.3,5.3.8l-.8,5.8c-1.5-.6-3-.9-4.7-.9s-3.7.7-4.8,2.2c-1.1,1.5-1.7,3.5-1.7,6,0,5.6,2.3,8.5,6.8,8.5s3.1-.3,4.4-1l.8,5.7Z"/>
  <rect class="st1" x="650.7" y="664.3" width="6" height="27.7"/>
  <path class="st1" d="M671.1,669.4c-.5,0-1,0-1.5,0v8.3c.5.1,1.1.2,1.7.2,2.7,0,4.1-1.4,4.1-4.3s-1.4-4.2-4.3-4.2M679,680.2c-1.9,2-4.6,3-7.9,3s-1,0-1.4,0v8.9h-6v-27.7c2.5-.1,5.1-.2,7.8-.2,6.8,0,10.2,3,10.2,8.9s-.9,5.3-2.7,7.2"/>
  <path class="st1" d="M695,675c-.4-1.1-.7-2.4-1-3.9h0c-.4,1.8-.7,3.1-.9,3.9l-2.1,6.8h6.2l-2.1-6.8ZM700.2,692l-1.6-5.1h-9.1l-1.5,5.1h-6l8.6-27.7h7.1l9,27.7h-6.6Z"/>
  <polygon class="st1" points="711.1 692 711.1 664.3 717.1 664.3 717.1 686.4 725 686.4 725 692 711.1 692"/>
  <rect class="st1" x="730" y="664.3" width="6" height="27.7"/>
  <polygon class="st1" points="753.4 669.8 753.4 692 747.4 692 747.4 669.8 741.2 669.8 741.2 664.3 759.6 664.3 759.6 669.8 753.4 669.8"/>
  <path class="st1" d="M777.4,682.3v9.7h-6v-9.6l-8.1-18.1h6.5l3,7.1c.7,1.6,1.2,3.1,1.7,4.4h0c.3-1.1,1-2.7,2-5l2.8-6.5h6.3l-8.2,18Z"/>
</svg>