<?xml version="1.0" standalone="no"?>
<!DOCTYPE svg PUBLIC "-//W3C//DTD SVG 20010904//EN"
 "http://www.w3.org/TR/2001/REC-SVG-20010904/DTD/svg10.dtd">
<svg version="1.0" xmlns="http://www.w3.org/2000/svg"
 width="400.000000pt" height="400.000000pt" viewBox="0 0 400.000000 400.000000"
 preserveAspectRatio="xMidYMid meet">

<g transform="translate(0.000000,400.000000) scale(0.100000,-0.100000)"
fill="#000000" stroke="none">
<path d="M1905 3150 c-153 -21 -285 -89 -401 -204 -123 -123 -184 -249 -203
-418 -24 -208 40 -402 184 -556 140 -151 313 -225 520 -225 120 1 199 19 315
75 70 34 100 57 175 132 147 148 209 295 208 496 -2 267 -128 484 -358 615
-125 71 -299 105 -440 85z m227 -45 c197 -40 374 -177 463 -357 71 -145 89
-272 60 -424 -39 -205 -178 -383 -370 -475 -395 -190 -852 44 -941 481 -57
282 94 584 358 714 147 73 279 92 430 61z"/>
<path d="M1953 3031 c-164 -40 -217 -242 -93 -355 129 -116 329 -43 347 127
l6 57 -95 0 c-100 0 -118 -7 -118 -47 0 -27 24 -41 68 -36 40 4 43 -17 6 -46
-32 -25 -100 -28 -132 -5 -71 50 -67 163 8 208 36 21 58 20 118 -3 58 -23 82
-14 82 29 0 24 -7 33 -37 48 -46 23 -116 33 -160 23z"/>
<path d="M1642 2950 c-85 -60 -151 -138 -196 -234 -46 -97 -61 -164 -60 -276
2 -174 84 -351 216 -461 53 -44 107 -79 123 -79 3 0 5 49 5 108 0 108 0 108
-30 137 -70 67 -116 169 -90 200 19 23 761 23 780 0 26 -31 -20 -133 -90 -200
-30 -29 -30 -29 -30 -137 0 -59 4 -108 8 -108 23 0 156 106 198 157 226 277
171 690 -120 894 -38 27 -73 49 -78 49 -4 0 -8 -49 -8 -108 0 -105 1 -109 26
-133 42 -38 104 -139 104 -169 0 -14 -5 -31 -12 -38 -17 -17 -759 -17 -776 0
-7 7 -12 21 -12 33 0 26 61 129 101 170 28 30 29 33 29 138 0 59 -4 107 -8
107 -5 0 -41 -22 -80 -50z"/>
<path d="M1840 2087 c0 -192 3 -207 45 -207 34 0 45 20 45 82 l0 58 80 0 c91
0 138 17 164 60 23 39 21 101 -5 134 -38 48 -67 56 -204 56 l-125 0 0 -183z
m238 91 c16 -16 15 -53 -1 -66 -11 -10 -73 -16 -124 -13 -20 1 -23 6 -23 46
l0 45 68 0 c40 0 73 -5 80 -12z"/>
<path d="M3108 1568 c-20 -17 -30 -46 -18 -53 5 -3 7 -12 4 -20 -5 -13 -2 -13
27 -1 44 19 49 36 9 36 -21 0 -30 4 -27 13 2 6 13 11 25 10 11 -1 23 4 26 12
7 19 -24 20 -46 3z"/>
<path d="M3257 1452 c-10 -10 -15 -26 -11 -35 3 -9 -1 -25 -8 -36 -14 -20 -16
-19 -52 24 -42 50 -58 55 -73 23 -14 -32 3 -65 38 -72 42 -8 48 -34 15 -63
-16 -13 -32 -40 -36 -59 l-8 -34 69 0 c65 0 70 2 81 25 9 21 8 32 -6 61 -18
40 -17 43 36 98 24 24 26 30 13 40 -8 6 -20 19 -28 29 -12 18 -13 18 -30 -1z
m-19 -180 c2 -7 -7 -12 -22 -12 -27 0 -35 15 -13 23 17 7 30 3 35 -11z"/>
<path d="M812 1435 c-7 -15 -12 -71 -11 -133 l1 -107 19 40 c15 31 19 60 18
133 -1 50 -5 92 -9 92 -4 0 -12 -11 -18 -25z"/>
<path d="M1869 1438 c-8 -14 -8 -23 0 -31 6 -6 11 -42 11 -79 l0 -68 -66 0
c-55 0 -65 3 -60 15 4 11 -1 15 -18 15 -13 0 -57 14 -96 31 -73 31 -73 31 -98
12 -33 -24 -40 -43 -14 -36 24 6 65 -14 57 -28 -4 -5 -49 -9 -101 -9 l-94 0 0
29 c0 39 -43 75 -80 66 -14 -3 -55 -26 -93 -51 l-67 -44 -7 30 c-5 29 -7 30
-24 14 -11 -9 -19 -23 -19 -31 0 -9 -17 -13 -65 -13 -45 0 -65 4 -65 13 0 6
-5 19 -10 27 -8 13 -11 12 -23 -4 -11 -14 -12 -26 -4 -46 23 -61 -24 -116 -78
-92 l-25 12 22 -30 c33 -45 57 -48 90 -11 15 17 28 40 28 51 0 22 17 24 263
20 83 -1 133 2 142 10 9 7 15 8 20 0 3 -6 46 -10 101 -10 76 0 103 4 135 21
l41 20 19 -20 c17 -18 32 -21 114 -21 113 0 115 2 115 114 0 41 5 78 10 81 19
12 10 34 -20 49 -28 14 -31 13 -41 -6z m-535 -150 c15 -25 5 -29 -65 -26 l-64
3 35 23 c40 25 78 25 94 0z"/>
<path d="M1990 1432 c-12 -21 -14 -51 -10 -132 l5 -105 18 43 c11 28 17 69 17
120 0 91 -9 112 -30 74z"/>
<path d="M2864 1433 c-17 -23 -22 -45 -23 -117 -1 -55 2 -93 10 -102 8 -10 36
-14 105 -14 l93 0 11 41 c8 30 8 50 -1 77 l-12 36 -17 -22 c-11 -13 -16 -31
-13 -47 5 -25 5 -25 -60 -25 l-66 0 -3 101 -3 101 -21 -29z"/>
<path d="M3371 1436 c-14 -26 -23 -254 -10 -238 32 37 49 174 30 241 l-6 23
-14 -26z"/>
<path d="M3001 1437 c-17 -21 23 -55 44 -37 14 12 14 15 -1 31 -20 23 -28 23
-43 6z"/>
<path d="M1608 1426 c-17 -12 -17 -14 2 -31 18 -17 22 -17 36 -4 13 14 13 17
-3 31 -15 14 -21 14 -35 4z"/>
<path d="M1210 1420 c-13 -8 -12 -11 5 -24 11 -9 23 -16 27 -16 14 0 19 21 8
35 -14 17 -20 18 -40 5z"/>
<path d="M650 1331 c-33 -33 -47 -77 -33 -101 8 -11 7 -23 -3 -41 -7 -13 -13
-32 -14 -43 0 -15 5 -14 34 12 19 17 48 33 64 37 19 4 32 14 36 28 9 33 9 33
-30 34 -64 2 -70 42 -6 43 15 0 26 9 32 26 14 35 14 34 -21 34 -20 0 -40 -10
-59 -29z"/>
<path d="M2749 1334 c-7 -9 -12 -29 -11 -45 l2 -30 -62 3 -62 3 -11 38 c-11
38 -11 38 -29 18 -12 -13 -15 -27 -11 -41 6 -20 4 -21 -56 -18 -61 3 -64 4
-73 33 -14 41 -13 41 -36 20 -15 -13 -17 -22 -9 -36 9 -18 4 -19 -85 -19 -105
0 -132 12 -123 57 5 30 -9 30 -17 1 -13 -48 -7 -97 13 -108 27 -14 221 -13
221 1 0 8 4 8 13 1 8 -7 79 -11 184 -11 l172 0 11 40 c8 29 8 50 0 75 -13 39
-13 39 -31 18z"/>
<path d="M2280 1145 c-11 -13 -10 -18 6 -30 23 -18 31 -18 40 -4 3 6 -2 20
-13 31 -18 17 -21 18 -33 3z"/>
<path d="M2540 1145 c-18 -22 -1 -37 44 -40 44 -4 63 15 37 37 -13 11 -22 13
-30 5 -7 -7 -14 -7 -24 2 -11 9 -17 8 -27 -4z"/>
<path d="M2720 1144 c-11 -12 -10 -17 6 -29 24 -18 29 -18 42 -2 7 9 4 17 -13
29 -20 15 -24 16 -35 2z"/>
<path d="M655 1018 c-44 -25 -60 -74 -44 -132 14 -51 60 -73 126 -60 42 8 47
12 48 36 1 15 8 34 15 43 11 13 7 15 -31 14 -24 0 -38 -3 -31 -6 6 -2 12 -20
12 -39 0 -30 -3 -34 -26 -34 -41 0 -63 18 -74 59 -12 46 -2 82 31 104 26 19
47 13 76 -22 l23 -26 0 35 0 36 -52 2 c-29 1 -62 -4 -73 -10z"/>
<path d="M930 1021 c0 -6 5 -11 10 -11 6 0 10 -33 10 -79 0 -44 -4 -83 -10
-86 -20 -13 -9 -22 29 -23 22 -1 43 3 46 8 3 6 -1 10 -9 10 -12 0 -16 10 -16
36 0 42 11 38 46 -17 17 -28 31 -39 49 -39 27 0 33 14 12 27 -7 4 -21 21 -31
36 -17 28 -17 29 3 44 25 17 28 65 6 83 -20 17 -145 27 -145 11z m104 -17 c19
-7 21 -55 4 -72 -7 -7 -20 -12 -30 -12 -15 0 -18 8 -18 45 0 46 8 53 44 39z"/>
<path d="M1230 1020 c0 -5 5 -10 10 -10 6 0 10 -33 10 -79 0 -44 -4 -83 -10
-86 -24 -15 -5 -21 64 -21 74 -1 74 -1 78 28 6 36 -2 44 -16 15 -8 -15 -22
-23 -44 -25 -31 -3 -32 -2 -32 37 0 34 3 41 20 41 11 0 20 -4 20 -10 0 -5 5
-10 10 -10 6 0 10 14 10 30 0 17 -4 30 -10 30 -5 0 -10 -4 -10 -10 0 -5 -9
-10 -21 -10 -17 0 -20 5 -17 33 2 27 8 33 31 35 21 3 29 -2 35 -19 10 -25 22
-13 18 17 -2 16 -12 19 -74 22 -45 2 -72 -1 -72 -8z"/>
<path d="M1515 1020 c-3 -5 1 -10 9 -10 23 0 23 -158 1 -166 -32 -13 -3 -21
67 -20 72 1 73 1 76 29 4 32 -8 35 -26 6 -9 -14 -21 -19 -40 -17 -23 3 -27 8
-30 41 -3 32 0 37 17 37 12 0 21 -4 21 -10 0 -5 5 -10 10 -10 6 0 10 14 10 30
0 17 -4 30 -10 30 -5 0 -10 -4 -10 -10 0 -5 -9 -10 -20 -10 -20 0 -26 22 -14
54 9 23 49 19 67 -6 16 -23 16 -23 16 10 l1 32 -69 0 c-39 0 -73 -4 -76 -10z"/>
<path d="M1800 1020 c0 -5 5 -10 10 -10 6 0 10 -33 10 -79 0 -44 -4 -83 -10
-86 -20 -12 -9 -25 20 -25 29 0 42 14 19 22 -6 2 -9 27 -7 62 l3 59 54 -71
c30 -40 60 -72 65 -72 7 0 11 33 11 87 0 56 4 91 13 99 19 20 15 24 -23 24
-35 0 -47 -13 -22 -23 12 -5 25 -117 14 -117 -3 0 -30 32 -61 70 -35 44 -64
70 -76 70 -11 0 -20 -4 -20 -10z"/>
<path d="M2145 1020 c-3 -5 1 -10 9 -10 23 0 23 -142 1 -164 -19 -19 -10 -24
38 -23 34 1 55 17 22 17 -10 0 -15 10 -15 30 0 26 3 30 29 30 55 0 98 57 73
97 -18 28 -142 47 -157 23z m116 -31 c16 -31 -3 -69 -36 -69 -22 0 -25 4 -25
38 0 21 3 42 7 45 13 14 43 6 54 -14z"/>
<path d="M2430 1020 c0 -5 5 -10 10 -10 6 0 10 -33 10 -79 0 -44 -4 -83 -10
-86 -21 -13 -9 -22 30 -23 22 -1 40 3 40 8 0 6 -4 10 -10 10 -6 0 -10 33 -10
79 0 44 5 83 10 86 22 13 8 25 -30 25 -22 0 -40 -4 -40 -10z"/>
<path d="M2645 1020 c-3 -5 1 -10 9 -10 23 0 23 -142 0 -164 -8 -9 -14 -16
-12 -17 20 -7 79 -5 84 2 3 5 -2 9 -10 9 -11 0 -16 9 -16 30 0 26 3 30 29 30
55 0 98 57 73 97 -18 28 -142 47 -157 23z m118 -32 c17 -26 -7 -68 -38 -68
-22 0 -25 4 -25 38 0 21 3 42 7 46 12 11 45 2 56 -16z"/>
<path d="M2930 1020 c0 -5 5 -10 10 -10 6 0 10 -33 10 -79 0 -44 -4 -83 -10
-86 -25 -16 -4 -23 65 -22 l75 0 0 36 c0 36 0 36 -13 11 -9 -17 -22 -26 -45
-28 -31 -3 -32 -2 -32 37 0 34 3 41 20 41 11 0 20 -4 20 -10 0 -5 5 -10 10
-10 6 0 10 14 10 30 0 17 -4 30 -10 30 -5 0 -10 -4 -10 -10 0 -5 -9 -10 -21
-10 -17 0 -20 5 -17 33 3 27 8 33 31 35 22 3 30 -1 34 -17 7 -27 20 -19 18 11
-1 21 -7 23 -73 26 -45 2 -72 -1 -72 -8z"/>
<path d="M3230 1010 c-35 -35 -19 -73 45 -101 52 -23 61 -35 45 -54 -20 -24
-56 -18 -79 13 l-20 27 -1 -35 c0 -35 1 -35 46 -38 63 -3 96 18 92 60 -2 26
-12 35 -53 57 -56 30 -69 63 -25 69 17 3 31 -4 47 -25 l23 -28 0 36 0 36 -50
2 c-38 1 -54 -3 -70 -19z"/>
</g>
</svg>
