<svg xmlns="http://www.w3.org/2000/svg" xml:space="preserve" viewBox="0 0 1000 1000"><style>.st1065{fill:#326bac}.st1066,.st1067{fill:#868486}.st1067{fill-rule:evenodd;clip-rule:evenodd}</style><g id="Layer_2"><g id="Layer_1-2_00000075131015761785861120000011820144413137288832_"><path d="M602.2 513.3a5.58 5.58 0 0 0-5.59-5.59h-1.47c-3.03 0-5.54 2.48-5.54 5.59v32.45c0 3.05 2.46 5.44 5.43 5.44h1.39l.92-.11 1.38.11h11.3c3.79 0 6.8-1.89 6.8-4.18 0-2.3-3.02-4.18-6.8-4.18h-7.03M546.06 547.58l.07-.55-.27-35.09c.22-2.34 2.59-4.22 5.55-4.22h16.56c2.99 0 5.36 1.88 5.36 4.14 0 2.39-2.37 4.22-5.36 4.22h-10.13v8.36h10.45c3.08 0 5.53 1.91 5.53 4.24s-2.45 4.12-5.53 4.12h-10.45v10.03h10.35c3.05 0 5.47 1.89 5.47 4.2s-2.42 4.16-5.47 4.16H551.1c-3.13 0-5.64-1.96-5.64-4.31M502.61 547.58l.03-.55-.24-35.09c.2-2.34 2.55-4.22 5.53-4.22h16.51c2.9 0 5.36 1.88 5.36 4.14 0 2.39-2.44 4.22-5.36 4.22h-10.1v8.36h10.45c3 0 5.54 1.91 5.54 4.24s-2.53 4.12-5.54 4.12h-10.45v10.03h10.35c2.97 0 5.49 1.89 5.49 4.2s-2.5 4.16-5.49 4.16h-16.36c-3.16 0-5.65-1.96-5.65-4.31M453.92 511.91c0-2.36 2.07-4.2 4.7-4.2h26.39c2.59 0 4.74 1.85 4.74 4.22s-2.15 4.14-4.74 4.14h-7.46v30.12c0 2.82-2.09 5-4.57 5h-2.59c-2.49 0-4.55-2.18-4.55-5v-30.12h-7.23c-2.63 0-4.7-1.87-4.7-4.11M407.46 512.29c0-2.59 2.78-4.58 6.42-4.58h22.94c3.34 0 6.06 1.82 6.06 4.2 0 2.37-2.73 4.17-6.06 4.17h-17.8v8.36h17.23s6.18-.09 6.18 5.64v17.8s-1.04 3.32-5.49 3.32h-23.43s-3.03.19-4.89-1.9c-1.88-2.12-.57-6.47 4.62-6.47h17.5V532.8h-18.37s-5.05-.99-5.05-4.78l.07-13.61M606.33 464.23h-14.37s-4.01-.39-4.92-4.96c-.85-4.53 2.61-6.75 6.82-6.75h18.26s5.92.8 5.92 6.4v17.25s-1.03 4.78-6.55 4.78h-86.31s-6.13.39-6.84-4.91c-.69-5.33 3.83-6.8 6.42-6.8h14.68v-5.02H525.9s-6.06.09-6.06-5.57 4.53-6.13 6.71-6.13h17.07s5.86.54 5.86 5.56v11.17h56.86v-6.69M495.95 462.56l-.08 6.69h-60.12v-11.83s-1.54-4.89-5.97-4.89h-19.16s-3.85-.09-5.14 3.74c-1.36 3.8.72 7.96 5.93 7.96h14.3v5.02h-15.47s-3.75-.07-5.23 4.16c-1.42 4.31 2.34 6.94 4.95 5.87h91.78c0 1.07 5.15.23 5.92-4.84v-17.33c-.77 0-1.51-5.03-6.18-5.03s-5.53 7.02-5.53 7.02zM496.57 493.09c0-2.99 2.48-5.39 5.44-5.39s5.42 2.39 5.42 5.39c0 2.99-2.41 5.39-5.42 5.39-3.02 0-5.44-2.45-5.44-5.39M484.28 493.09c0-2.99 2.44-5.39 5.44-5.39s5.42 2.39 5.42 5.39c0 2.99-2.39 5.39-5.42 5.39s-5.44-2.45-5.44-5.39" class="st1065"/><path d="M480.9 437.47h147.17V562.9H480.93s27.62 44.94 107.95 65.19c80.33 20.24 165.84 2.68 224.51-46.66 59.02-49.73 59.51-156.37-63.3-200.44-122.8-43.93-209.29 8.12-228.6 19.68h42.95s62-29.62 139.01-12.69c77.05 16.96 109.02 55.88 117.1 85.53 8.03 29.65 9.6 79.34-62.41 119.73-72.03 40.39-178.31 23.46-223.72-11.94h122.09V419.07H497.39c-7.01 5.03-12.36 11.14-16.14 18.51" class="st1065"/><path d="m693.55 420.85-.85.17s.85 4.47 1.32 6.42c.54 2.04 2.44 4.06.87 6.3-1.52 2.24-3.91 7.11-3.91 7.11s.22 1.04 2.58 1.87c2.29.89 8.9 2.99 8.9 2.99 3.31-.28 7.74-1.91 13.35-4.78 0 0-2.22-5.03-3.95-9.33-1.77-4.35-3.09-10.85-10.92-10.85s-7.62.12-7.62.12" class="st1066"/><path d="M715.16 424.78s8.18 1.32 11.66 4.11c3.41 2.83 6.72 7.38 9.75 14.48 2.98 7.11 3.33 7.38 1.62 8.06l-10.39 4.43h-1.61l-17.73-6.79s4.72-2.99 7.11-3.83c2.42-.75 6.44-1.27 4.92-4.87-1.57-3.63-5.45-13.16-5.45-13.16v-1.46" class="st1066"/><path d="M737.86 436.31s4.78 2.56 13.31 9.7 9.16 10.13 9.53 12.06c.35 1.92.03 3.08-1.49 5.15-1.51 2.07-4.82 7.34-5.85 8.43-1.02 1.04-3.75 0-7.02 0s-7.56-.69-8.66-.92c-1.15-.32-1.99-.8-3.63-4.43-1.64-3.6-6.57-6.67-7.41-6.67-.74 0-.74-1.4 1.79-1.64 2.63-.23 15.32-5.75 15.32-5.75l-5.77-14.62" class="st1066"/><path d="M764.14 465.05s6.19 7.86 6.72 16.24c.45 8.3-1.74 8.5-3.41 10.7-1.76 2.24-6.57 8.03-7.14 8.55-.59.64-1.05 1.19-3.38.23-2.29-.95-13.8-6.1-13.8-6.1l-6.19-19.43-.69-1.56s9.35.32 13.06.8c3.65.48 5.3 1.84 8.24-2.51 2.88-4.23 3.81-6.07 4.36-6.67l2.21-.23" class="st1066"/><path d="M772.25 494.06s.65 9.9-.28 14.17c-.95 4.31-5.27 8.18-8.8 10.65-3.45 2.48-5.13 3.03-6.12 3.03-1.05 0-9.72-2.79-12.91-11.54s-1.79-12.41-1.79-12.41 5.49 1.76 8.18 3.28c2.66 1.59 7.64 3.88 8.85 4l5.33-4.47 5.82-5.82 1.74-.89" class="st1066"/><path d="M770.07 518.28s-.43 5.95-2.86 8.35c-2.36 2.36-10.18 8.38-16.31 10.22-6.09 1.72-6 1.59-6 1.59s-4.88-3.03-6.34-6.74c-1.54-3.83-1.12-7.43.59-10.34 1.69-3.08 3.65-5.75 4.97-3.88 1.39 1.92 6.82 7.74 9.97 8.03 3.11.23 10.03-3.6 11.59-4.83l2.58-2.24 1.82-.17" class="st1066"/><path d="M760.94 535.69s-7.29 14.6-12.93 18.56c-5.67 4-11.17 7.51-13.78 7.74-2.58.28-10.47-1.4-11.84-1.4s-1.44-1.15-1.05-3.8c.47-2.56 1.42-8.06 1.66-10.97.25-2.91.25-3.95.25-3.95l11.22-11.05s3.41 6.47 4.78 8.43 4.3 4.23 7.99 2.76c3.68-1.47 11.15-5.23 12.28-6.19l1.42-.12" class="st1066"/><path d="M719.76 545.27s-1.42 8.55-1.74 11.17c-.32 2.56-3.01 7.02 1.47 7.66 4.48.55 7.31.95 8.58 1.32l2.59 1.15-15.5 6.66c-.82.37-5.52-1.24-9.01-1.47-3.43-.2-4.1-.12-4.48-.69v-2.63l.84-7.63c.28-1.32 1.19-5.87 4.57-7.94 3.31-2.24 9.75-6.19 10.75-7.11l1.94-.52" class="st1066"/><path d="M698.32 561.23v2.1l-.99 4.98c0 .95-.6 4.55 2.59 5.15 3.31.69 10.49 2.27 10.49 2.27l-.15.6s-9.37 1.27-12.04 1.27-6.54 0-7.61-.2l-1.86-.12 1.25-8.78 5.9-7.14 2.39-.89" class="st1066"/><path d="M334.85 513.21c0-3.03 2.44-5.5 5.47-5.5h1.33c3.02 0 5.47 2.45 5.47 5.47v32.54c0 3.02-2.45 5.47-5.47 5.47h-1.06c-2.88 0-5.17-2.48-5.17-5.55V532.8h-18.4v12.84c0 3.07-2.33 5.55-5.16 5.55h-1.39c-2.83 0-5.16-2.48-5.16-5.55v-32.45c0-3.01 2.33-5.48 5.16-5.48h1.1a5.45 5.45 0 0 1 5.45 5.45v11.27h18.4m30.09-11.22c0-3.03 2.48-5.5 5.5-5.5h1.04c2.87 0 5.17 2.47 5.17 5.5v32.52c0 3.02-2.45 5.47-5.47 5.47H371c-3.02 0-5.49-2.47-5.49-5.49zm-90.31.05c0-3.07 2.48-5.55 5.55-5.55h.61a5.55 5.55 0 0 1 5.55 5.55v32.49c0 3.05-2.44 5.44-5.44 5.44h-13.02c-3.79 0-6.82-1.89-6.82-4.18 0-2.3 3.03-4.18 6.82-4.18h6.76V513.3zm-56.86 2.81h18.4v8.36h-18.4zm-11.71 14.38v-17.04c-1.23-2.71 3.74-5.7 3.74-5.7h33.08s4.92 2.99 3.32 5.7l1.67 17.04v18.38s-.66 3.55-5.31 3.55-6.39-2.19-6.39-4.26v-13.65h-18.4v14.13s-1.66 3.91-6.97 3.91-6.41-3.11-6.41-5.35l1.67-16.69zm-46.83-12.7h18.4v8.36h-18.4zm-11.78-6.32s.57-3.72 5.76-3.72h30.48s5.65.2 5.65 5.92v15.65s-1.54 3.52-5.77 3.52H172.6l.88 1.21 12.92 9.37c1.67 1.39 2.92 2.63 2.04 4.64-.95 2.05-3.83 3-6.58 2.77-2.71-.17-3.55-1.48-5.73-2.8-2.16-1.41-16.33-12.09-16.33-12.09l.06 10.13s.76 4.21-5.27 5c-6.01.8-6.5-3.84-6.5-4.44l-.09-35.14zM154.55 493.18c0-2.83 2.49-5.1 5.57-5.1s5.6 2.27 5.6 5.1-2.54 5.15-5.6 5.15-5.57-2.31-5.57-5.15m12.44 0c0-2.83 2.48-5.1 5.6-5.1s5.62 2.27 5.62 5.1-2.54 5.15-5.62 5.15-5.6-2.31-5.6-5.15m91.48-40.66h18.19s5.23.17 5.23 6.12v16.96s-1.15 5.35-6.83 5.35h-81.03s-4.12-1.86-4.12-6.36v-12.04h-5.02v12.14s-.78 4.58-6.07 4.58H152.1s-4-.84-4-6.19v-15.8s1.18-3.95 4.33-3.95 5.71.92 5.71 5.5v10.4h15.05v-12.3s.37-4.43 6.07-4.43h15.14s5.55.42 5.55 5.13v11.59h31.78v-6.69H220.5s-5.94.37-5.94-4.76 2.8-5.27 9.44-5.27h13.26s4.49.48 4.49 5.5v11.22h28.43v-6.69h-12.45s-4.88-.49-4.88-5.3c0-4.82 4.97-5.67 4.97-5.67m8.17 41.63c0-2.83 2.46-5.1 5.64-5.1s5.54 2.27 5.54 5.1-2.49 5.15-5.54 5.15c-3.04 0-5.64-2.31-5.64-5.15m27.65-60.74s.94-4.06 4.41-4.06 5.58 2.19 5.58 5.7v40.42s-.17 5.59-5.11 5.59-4.92-5.39-4.92-9.3l.06-38.35zm52.12 1.33s-.22-4.06 3.89-5.35c4.06-1.2 7.5 1.35 7.5 8.95v38.08s.1 5.5-6.79 5.5h-24.99v11.84s-1.09 4.88-5.45 4.88h-10.4s-4.64-.97-4.64-5.01 2.03-6.7 5.91-6.7h2.87v-24.4s.76-4.41 4.78-4.41 5.25 3.42 5.25 5.89v6.2h21.74l.29-35.49zm21.42-1.14s.94-3.81 4.44-3.81 5.6 2.05 5.6 5.35v40.52s-.18 6.06-5.95 6.06-5.75-5.84-5.75-10.09l1.67-37.95v-.08z" class="st1067"/></g></g></svg>