<svg xmlns="http://www.w3.org/2000/svg" xmlns:xlink="http://www.w3.org/1999/xlink" xml:space="preserve" id="Layer_1" x="0" y="0" version="1.1" viewBox="0 0 440 342"><style>.st3{fill:#043}</style><g id="surface1"><defs><path id="SVGID_1_" d="M63.89 122.94h51.26v34.95H63.89z"/></defs><clipPath id="SVGID_00000174587043229844571610000004934548514851270558_"><use xlink:href="#SVGID_1_" style="overflow:visible"/></clipPath><g style="clip-path:url(#SVGID_00000174587043229844571610000004934548514851270558_)"><defs><path id="SVGID_00000029025275673801412500000004874572853150548151_" d="M65.06 142.74c3.26 4.66 5.82 9.56 7.45 14.91 3.49-7.92 9.78-14.44 17.47-18.17 7.93 3.72 13.98 10.25 17.47 18.17 1.63-5.35 4.2-10.48 7.45-14.91-6.05-8.39-14.91-14.68-25.16-18.18a53.27 53.27 0 0 0-24.68 18.18"/></defs><clipPath id="SVGID_00000134958858403092743780000003985930034335187110_"><use xlink:href="#SVGID_00000029025275673801412500000004874572853150548151_" style="overflow:visible"/></clipPath><g style="clip-path:url(#SVGID_00000134958858403092743780000003985930034335187110_)"><linearGradient id="SVGID_00000124140108625040572160000001747293342138796215_" x1="-306.992" x2="-304.658" y1="648.664" y2="648.664" gradientTransform="matrix(0 -14.1746 -14.1746 0 9284.535 -4193.839)" gradientUnits="userSpaceOnUse"><stop offset="0" style="stop-color:#82c341"/><stop offset=".008" style="stop-color:#82c341"/><stop offset=".012" style="stop-color:#81c241"/><stop offset=".016" style="stop-color:#80c241"/><stop offset=".019" style="stop-color:#80c241"/><stop offset=".023" style="stop-color:#7fc141"/><stop offset=".027" style="stop-color:#7fc141"/><stop offset=".031" style="stop-color:#7ec142"/><stop offset=".035" style="stop-color:#7ec042"/><stop offset=".039" style="stop-color:#7dc042"/><stop offset=".043" style="stop-color:#7dc042"/><stop offset=".047" style="stop-color:#7cbf42"/><stop offset=".051" style="stop-color:#7cbf42"/><stop offset=".055" style="stop-color:#7bbf42"/><stop offset=".059" style="stop-color:#7bbe42"/><stop offset=".063" style="stop-color:#7abe42"/><stop offset=".066" style="stop-color:#7abe42"/><stop offset=".07" style="stop-color:#79bd42"/><stop offset=".074" style="stop-color:#79bd42"/><stop offset=".078" style="stop-color:#78bd42"/><stop offset=".082" style="stop-color:#78bc43"/><stop offset=".086" style="stop-color:#77bc43"/><stop offset=".09" style="stop-color:#77bc43"/><stop offset=".094" style="stop-color:#76bb43"/><stop offset=".098" style="stop-color:#75bb43"/><stop offset=".102" style="stop-color:#75bb43"/><stop offset=".105" style="stop-color:#74ba43"/><stop offset=".109" style="stop-color:#74ba43"/><stop offset=".113" style="stop-color:#73ba43"/><stop offset=".117" style="stop-color:#73b943"/><stop offset=".121" style="stop-color:#72b943"/><stop offset=".125" style="stop-color:#72b943"/><stop offset=".129" style="stop-color:#71b843"/><stop offset=".133" style="stop-color:#71b843"/><stop offset=".137" style="stop-color:#70b844"/><stop offset=".141" style="stop-color:#70b744"/><stop offset=".144" style="stop-color:#6fb744"/><stop offset=".148" style="stop-color:#6fb744"/><stop offset=".152" style="stop-color:#6eb644"/><stop offset=".156" style="stop-color:#6eb644"/><stop offset=".16" style="stop-color:#6db644"/><stop offset=".164" style="stop-color:#6db544"/><stop offset=".168" style="stop-color:#6cb544"/><stop offset=".172" style="stop-color:#6cb544"/><stop offset=".176" style="stop-color:#6bb544"/><stop offset=".18" style="stop-color:#6bb444"/><stop offset=".184" style="stop-color:#6ab444"/><stop offset=".188" style="stop-color:#6ab445"/><stop offset=".191" style="stop-color:#69b345"/><stop offset=".195" style="stop-color:#69b345"/><stop offset=".199" style="stop-color:#68b345"/><stop offset=".203" style="stop-color:#68b245"/><stop offset=".207" style="stop-color:#67b245"/><stop offset=".211" style="stop-color:#67b245"/><stop offset=".215" style="stop-color:#66b145"/><stop offset=".219" style="stop-color:#66b145"/><stop offset=".223" style="stop-color:#65b145"/><stop offset=".227" style="stop-color:#65b045"/><stop offset=".231" style="stop-color:#64b045"/><stop offset=".234" style="stop-color:#64b045"/><stop offset=".238" style="stop-color:#63af46"/><stop offset=".242" style="stop-color:#63af46"/><stop offset=".246" style="stop-color:#62af46"/><stop offset=".25" style="stop-color:#62ae46"/><stop offset=".254" style="stop-color:#61ae46"/><stop offset=".258" style="stop-color:#61ae46"/><stop offset=".262" style="stop-color:#60ad46"/><stop offset=".266" style="stop-color:#60ad46"/><stop offset=".27" style="stop-color:#5fad46"/><stop offset=".273" style="stop-color:#5fac46"/><stop offset=".277" style="stop-color:#5eac46"/><stop offset=".281" style="stop-color:#5eac46"/><stop offset=".285" style="stop-color:#5dab46"/><stop offset=".289" style="stop-color:#5dab46"/><stop offset=".293" style="stop-color:#5cab47"/><stop offset=".297" style="stop-color:#5caa47"/><stop offset=".301" style="stop-color:#5baa47"/><stop offset=".305" style="stop-color:#5baa47"/><stop offset=".309" style="stop-color:#5aa947"/><stop offset=".313" style="stop-color:#5aa947"/><stop offset=".316" style="stop-color:#59a947"/><stop offset=".32" style="stop-color:#58a947"/><stop offset=".324" style="stop-color:#58a847"/><stop offset=".328" style="stop-color:#57a847"/><stop offset=".332" style="stop-color:#57a847"/><stop offset=".336" style="stop-color:#56a747"/><stop offset=".34" style="stop-color:#56a747"/><stop offset=".344" style="stop-color:#55a748"/><stop offset=".348" style="stop-color:#55a648"/><stop offset=".352" style="stop-color:#54a648"/><stop offset=".355" style="stop-color:#54a648"/><stop offset=".359" style="stop-color:#53a548"/><stop offset=".363" style="stop-color:#53a548"/><stop offset=".367" style="stop-color:#52a548"/><stop offset=".371" style="stop-color:#52a448"/><stop offset=".375" style="stop-color:#51a448"/><stop offset=".379" style="stop-color:#51a448"/><stop offset=".383" style="stop-color:#50a348"/><stop offset=".387" style="stop-color:#50a348"/><stop offset=".391" style="stop-color:#4fa348"/><stop offset=".395" style="stop-color:#4fa248"/><stop offset=".398" style="stop-color:#4ea249"/><stop offset=".402" style="stop-color:#4ea249"/><stop offset=".406" style="stop-color:#4da149"/><stop offset=".41" style="stop-color:#4da149"/><stop offset=".414" style="stop-color:#4ca149"/><stop offset=".418" style="stop-color:#4ca049"/><stop offset=".422" style="stop-color:#4ba049"/><stop offset=".426" style="stop-color:#4ba049"/><stop offset=".43" style="stop-color:#4a9f49"/><stop offset=".434" style="stop-color:#4a9f49"/><stop offset=".438" style="stop-color:#499f49"/><stop offset=".441" style="stop-color:#499e49"/><stop offset=".445" style="stop-color:#489e49"/><stop offset=".449" style="stop-color:#489e4a"/><stop offset=".453" style="stop-color:#479d4a"/><stop offset=".457" style="stop-color:#479d4a"/><stop offset=".461" style="stop-color:#469d4a"/><stop offset=".465" style="stop-color:#469c4a"/><stop offset=".469" style="stop-color:#459c4a"/><stop offset=".473" style="stop-color:#459c4a"/><stop offset=".477" style="stop-color:#449c4a"/><stop offset=".48" style="stop-color:#449b4a"/><stop offset=".484" style="stop-color:#439b4a"/><stop offset=".488" style="stop-color:#439b4a"/><stop offset=".492" style="stop-color:#429a4a"/><stop offset=".496" style="stop-color:#429a4a"/><stop offset=".5" style="stop-color:#419a4a"/><stop offset=".504" style="stop-color:#41994b"/><stop offset=".508" style="stop-color:#40994b"/><stop offset=".512" style="stop-color:#40994b"/><stop offset=".516" style="stop-color:#3f984b"/><stop offset=".519" style="stop-color:#3f984b"/><stop offset=".523" style="stop-color:#3e984b"/><stop offset=".527" style="stop-color:#3e974b"/><stop offset=".531" style="stop-color:#3d974b"/><stop offset=".535" style="stop-color:#3d974b"/><stop offset=".539" style="stop-color:#3c964b"/><stop offset=".543" style="stop-color:#3c964b"/><stop offset=".547" style="stop-color:#3b964b"/><stop offset=".551" style="stop-color:#3a954b"/><stop offset=".555" style="stop-color:#3a954c"/><stop offset=".559" style="stop-color:#39954c"/><stop offset=".563" style="stop-color:#39944c"/><stop offset=".566" style="stop-color:#38944c"/><stop offset=".57" style="stop-color:#38944c"/><stop offset=".574" style="stop-color:#37934c"/><stop offset=".578" style="stop-color:#37934c"/><stop offset=".582" style="stop-color:#36934c"/><stop offset=".586" style="stop-color:#36924c"/><stop offset=".59" style="stop-color:#35924c"/><stop offset=".594" style="stop-color:#35924c"/><stop offset=".598" style="stop-color:#34914c"/><stop offset=".602" style="stop-color:#34914c"/><stop offset=".606" style="stop-color:#33914c"/><stop offset=".609" style="stop-color:#33904d"/><stop offset=".613" style="stop-color:#32904d"/><stop offset=".617" style="stop-color:#32904d"/><stop offset=".621" style="stop-color:#318f4d"/><stop offset=".625" style="stop-color:#318f4d"/><stop offset=".629" style="stop-color:#308f4d"/><stop offset=".633" style="stop-color:#308f4d"/><stop offset=".637" style="stop-color:#2f8e4d"/><stop offset=".641" style="stop-color:#2f8e4d"/><stop offset=".644" style="stop-color:#2e8e4d"/><stop offset=".648" style="stop-color:#2e8d4d"/><stop offset=".652" style="stop-color:#2d8d4d"/><stop offset=".656" style="stop-color:#2d8d4d"/><stop offset=".66" style="stop-color:#2c8c4e"/><stop offset=".664" style="stop-color:#2c8c4e"/><stop offset=".668" style="stop-color:#2b8c4e"/><stop offset=".672" style="stop-color:#2b8b4e"/><stop offset=".676" style="stop-color:#2a8b4e"/><stop offset=".68" style="stop-color:#2a8b4e"/><stop offset=".684" style="stop-color:#298a4e"/><stop offset=".688" style="stop-color:#298a4e"/><stop offset=".691" style="stop-color:#288a4e"/><stop offset=".695" style="stop-color:#28894e"/><stop offset=".699" style="stop-color:#27894e"/><stop offset=".703" style="stop-color:#27894e"/><stop offset=".707" style="stop-color:#26884e"/><stop offset=".711" style="stop-color:#26884e"/><stop offset=".715" style="stop-color:#25884f"/><stop offset=".719" style="stop-color:#25874f"/><stop offset=".723" style="stop-color:#24874f"/><stop offset=".727" style="stop-color:#24874f"/><stop offset=".731" style="stop-color:#23864f"/><stop offset=".734" style="stop-color:#23864f"/><stop offset=".738" style="stop-color:#22864f"/><stop offset=".742" style="stop-color:#22854f"/><stop offset=".746" style="stop-color:#21854f"/><stop offset=".75" style="stop-color:#21854f"/><stop offset=".754" style="stop-color:#20844f"/><stop offset=".758" style="stop-color:#20844f"/><stop offset=".762" style="stop-color:#1f844f"/><stop offset=".766" style="stop-color:#1f8350"/><stop offset=".769" style="stop-color:#1e8350"/><stop offset=".773" style="stop-color:#1d8350"/><stop offset=".777" style="stop-color:#1d8250"/><stop offset=".781" style="stop-color:#1c8250"/><stop offset=".785" style="stop-color:#1c8250"/><stop offset=".789" style="stop-color:#1b8250"/><stop offset=".793" style="stop-color:#1b8150"/><stop offset=".797" style="stop-color:#1a8150"/><stop offset=".801" style="stop-color:#1a8150"/><stop offset=".805" style="stop-color:#198050"/><stop offset=".809" style="stop-color:#198050"/><stop offset=".813" style="stop-color:#188050"/><stop offset=".816" style="stop-color:#187f51"/><stop offset=".82" style="stop-color:#177f51"/><stop offset=".824" style="stop-color:#177f51"/><stop offset=".828" style="stop-color:#167e51"/><stop offset=".832" style="stop-color:#167e51"/><stop offset=".836" style="stop-color:#157e51"/><stop offset=".84" style="stop-color:#157d51"/><stop offset=".844" style="stop-color:#147d51"/><stop offset=".848" style="stop-color:#147d51"/><stop offset=".852" style="stop-color:#137c51"/><stop offset=".856" style="stop-color:#137c51"/><stop offset=".859" style="stop-color:#127c51"/><stop offset=".863" style="stop-color:#127b51"/><stop offset=".867" style="stop-color:#117b51"/><stop offset=".871" style="stop-color:#117b52"/><stop offset=".875" style="stop-color:#107a52"/><stop offset=".879" style="stop-color:#107a52"/><stop offset=".883" style="stop-color:#0f7a52"/><stop offset=".887" style="stop-color:#0f7952"/><stop offset=".891" style="stop-color:#0e7952"/><stop offset=".894" style="stop-color:#0e7952"/><stop offset=".898" style="stop-color:#0d7852"/><stop offset=".902" style="stop-color:#0d7852"/><stop offset=".906" style="stop-color:#0c7852"/><stop offset=".91" style="stop-color:#0c7752"/><stop offset=".914" style="stop-color:#0b7752"/><stop offset=".918" style="stop-color:#0b7752"/><stop offset=".922" style="stop-color:#0a7653"/><stop offset=".926" style="stop-color:#0a7653"/><stop offset=".93" style="stop-color:#097653"/><stop offset=".934" style="stop-color:#097653"/><stop offset=".938" style="stop-color:#087553"/><stop offset=".941" style="stop-color:#087553"/><stop offset=".945" style="stop-color:#077553"/><stop offset=".949" style="stop-color:#077453"/><stop offset=".953" style="stop-color:#067453"/><stop offset=".957" style="stop-color:#067453"/><stop offset=".961" style="stop-color:#057353"/><stop offset=".965" style="stop-color:#057353"/><stop offset=".969" style="stop-color:#047353"/><stop offset=".973" style="stop-color:#047253"/><stop offset=".977" style="stop-color:#037254"/><stop offset=".981" style="stop-color:#037254"/><stop offset=".984" style="stop-color:#027154"/><stop offset=".988" style="stop-color:#027154"/><stop offset=".992" style="stop-color:#017154"/><stop offset=".996" style="stop-color:#007054"/><stop offset="1" style="stop-color:#007054"/></linearGradient><path d="M65.06 157.65h49.86v-33.08H65.06z" style="fill:url(#SVGID_00000124140108625040572160000001747293342138796215_)"/></g></g><path d="M35.47 203.32c.46-3.26.46-6.53 0-9.56 5.59 5.13 18.4 7.69 29.35 7.69 8.86 0 12.59-1.87 12.59-5.82 0-5.12-5.6-5.59-18.88-6.75-14.68-1.17-23.53-3.5-23.53-12.35s7.92-12.81 24.23-12.81c9.08 0 17.94 1.16 26.56 3.49-.46 3.03-.46 6.06 0 9.08-8.62-3.49-17.7-5.59-27.02-5.59s-13.05 1.87-13.05 5.59c0 4.66 4.9 5.82 17.01 6.76 15.38 1.16 25.39 3.26 25.39 12.58 0 8.62-8.15 12.59-24.23 12.59-9.78 0-19.34-1.64-28.42-4.9M106.53 172.57c-.24 11.65 0 23.54.46 35.19H96.51c.46-14.45.46-28.9 0-43.11 4.9.47 9.78.47 14.68 0 9.32 11.89 18.87 23.77 28.89 35.42.24-11.89 0-23.76-.46-35.42 3.49.47 7.23.47 10.72 0-.47 14.45-.47 28.9.23 43.11h-14.44c-9.57-12.13-19.35-23.78-29.6-35.19M171.31 200.99c4.89.24 8.38.24 15.84.24 10.72 0 13.52-3.03 13.52-6.53s-2.79-5.6-13.04-5.6h-16.55c-.01 3.97-.01 8.16.23 11.89m16.3-17.47c7.22 0 10.95-2.09 10.95-6.29s-3.96-6.06-10.95-6.06h-16.55c0 3.73-.24 7.93 0 12.35 5.13-.24 10.73 0 16.55 0m-27.03-19.11c8.15 0 15.61-.24 27.03-.24 13.98 0 21.66 3.27 21.66 10.72 0 6.75-6.29 9.55-13.98 9.78v.7c9.56.23 16.78 3.26 16.78 10.71 0 10.48-14.68 11.65-25.4 11.65-12.58 0-17.94-.23-26.09-.23.7-10.7.7-32.37 0-43.09M254.25 214.74c-.93 0-1.87.23-2.57.93-.69.46-.93 1.4-.93 2.33s.24 1.86.93 2.33c.7.69 1.64.93 2.57.93s1.87-.24 2.33-.93c.7-.7 1.16-1.4.93-2.33 0-.93-.46-1.64-.93-2.33-.47-.7-1.41-.93-2.33-.93M244.93 214.74c-.93 0-1.87.23-2.57.93-.69.46-.93 1.4-.93 2.33s.24 1.86.93 2.33c.7.69 1.64.93 2.57.93s1.87-.24 2.33-.93c.7-.7.93-1.4.93-2.33s-.23-1.64-.93-2.33c-.7-.7-1.63-.93-2.33-.93M328.8 188.64v14.22h-2.09c-6.99 0-8.63-4.9-8.63-6.76-.23-4.2 3.5-8.62 10.72-7.46m13.75-13.28c-3.96-3.03-8.85-4.42-13.74-4.2-11.65 0-15.38 6.53-16.07 7.92l4.89 2.1c2.57-3.49 6.53-5.36 10.72-4.9 11.19 0 12.58 7.23 12.58 10.95v12.35c0 2.1-1.87 3.73-3.96 3.49h-2.33v-17.24c-2.57-1.16-5.36-1.87-7.92-1.87-7.93 0-14.22 3.26-14.22 12.58 0 2.33.93 4.66 2.33 6.53h-13.74V160.9l-6.3 2.33v34.25c0 3.03-1.16 5.36-7.22 5.36h-7.23c-.93 0-2.09 0-4.2-3.27l-14.21-24.69-2.33-3.96c-5.6 3.26-9.32 9.08-9.78 15.37.23 3.49 1.39 6.75 3.26 9.56l4.9 6.99h-18.41c-4.89 0-7.22-2.57-7.22-8.15.23-3.27 1.16-6.53 3.26-9.09l-3.73-2.33a20.2 20.2 0 0 0-4.42 12.59c0 7.22 4.42 11.65 12.58 11.65h27.5l-8.38-12.12c-3.27-5.12-5.6-9.78-1.16-15.84 2.33 3.96 13.28 22.6 13.98 23.53 1.86 3.03 5.12 4.66 8.62 4.43h7.45c1.4 0 2.79 0 4.2-.47.93-.23 1.87-.46 2.79-.93v1.16h44.03c4.43.24 8.39-3.26 8.63-7.69v-12.81c-.02-3.95-1.89-8.38-5.15-11.41M362.12 171.17l11.89-4.42v-3.03l-5.82 2.09-.7-1.63c-.24-.7 0-1.39.93-1.87.24-.23.7-.23 1.16-.23s.7.23.94.46l.69.46.7-2.56-.46-.24c-1.4-.93-3.26-1.16-4.9-.46-1.16.46-2.33 1.16-2.79 2.33s-.46 2.33.24 3.49l.7 1.63-1.16.46zM382.16 197.96c-.23 3.03-2.79 5.36-5.82 5.12h-3.95v-32.62l-6.3 2.33v30.29h-8.15l-2.09 4.66h21.43c4.66 0 10.95-3.96 10.95-10.25v-36.58l-6.29 2.33v34.71h.22zM398.94 163.48v44.04H405v-46.13z" class="st3"/></g></svg>