<svg xmlns="http://www.w3.org/2000/svg" id="Logo" viewBox="0 0 283.46 85.04"><defs><style>.cls-1{fill:#a8acd4}.cls-2{fill:#6c48f6}.cls-3{fill:#303151}</style></defs><path d="M69.62 16.37c.49-.56.5-1.38.03-1.95C62.46 5.62 51.51 0 39.26 0S16.08 5.61 8.88 14.39c13.27-11.95 38.43 2.5 38.43 2.51 3.48 1.89 6.84 4.11 11.14 4.11 5.69 0 9.08-2.55 10.48-3.89.23-.22.47-.47.7-.74Z" class="cls-2"/><path d="M47.3 16.9c-.12-.07-25.18-14.42-38.43-2.5a1.55 1.55 0 0 0-.11 1.8c.13.21 3.43 5.29 11.31 5.29 3.94 0 7.07-1.88 10.09-3.71 2.93-1.76 5.68-3.43 9.1-3.43 2.97 0 5.49 1.16 8.04 2.55" class="cls-1"/><path d="M43.88 76.99c.24.7.95 1.12 1.68 1 11.22-1.83 21.56-8.5 27.69-19.12 6.12-10.6 6.73-22.88 2.72-33.51 3.71 17.47-21.38 32.03-21.38 32.03-3.37 2.07-6.98 3.87-9.12 7.59-2.84 4.92-2.34 9.14-1.87 11.03.08.31.18.64.29.97Z" class="cls-2"/><path d="M54.59 57.39c.12-.07 25.08-14.6 21.38-32.03-.24-.61-.84-1.03-1.51-1-.25 0-6.29.33-10.23 7.15-1.97 3.41-1.9 7.06-1.83 10.59.06 3.42.13 6.63-1.58 9.59-1.49 2.58-3.75 4.17-6.23 5.69Z" class="cls-1"/><path d="M4.26 24.39c-.73-.14-1.45.26-1.71.95-4.02 10.63-3.42 22.92 2.71 33.54 6.12 10.6 16.45 17.27 27.66 19.11-16.98-5.52-17.04-34.53-17.04-34.53-.1-3.96.13-7.98-2.01-11.7-2.84-4.92-6.75-6.59-8.61-7.13-.31-.09-.64-.17-.99-.23Z" class="cls-2"/><path d="M15.88 43.45c0 .14.1 29.02 17.04 34.53.65.1 1.31-.21 1.62-.81.12-.22 2.87-5.61-1.07-12.44-1.97-3.41-5.16-5.18-8.26-6.88-2.99-1.65-5.81-3.21-7.52-6.16-1.49-2.58-1.73-5.33-1.81-8.24" class="cls-1"/><path d="M249.9 4.38c-1.47 0-2.74 1.18-2.74 2.79 0 1.48 1.21 2.79 2.74 2.79s2.83-1.3 2.83-2.79c0-1.59-1.29-2.79-2.83-2.79M257.39 4.38c-1.47 0-2.74 1.18-2.74 2.79 0 1.48 1.21 2.79 2.74 2.79s2.83-1.3 2.83-2.79c0-1.59-1.29-2.79-2.83-2.79M132.6 34.59c-1.47 0-2.74 1.18-2.74 2.79 0 1.48 1.2 2.79 2.74 2.79s2.79-1.31 2.79-2.79c0-1.57-1.22-2.79-2.79-2.79M140.09 34.59c-1.47 0-2.74 1.18-2.74 2.79 0 1.48 1.21 2.79 2.74 2.79s2.83-1.3 2.83-2.79c0-1.59-1.29-2.79-2.83-2.79M281.1.89c-1.02 0-2.63.3-2.63 2.33v28.5h5V1.37c-1.23-.49-2.13-.48-2.37-.48M150.09 15v12.48h-5.25c-4.2 0-5.95-.43-5.95-5.69v-8.63c-1.23-.49-2.13-.48-2.37-.48-1.02 0-2.63.3-2.63 2.33v6.79c0 3.88-.73 5.69-5.02 5.69h-4.38c-3.48 0-4.03-2.32-4.03-4.79V12.68h-6.93c-7.94 0-13.18 3.53-13.18 9.89 0 6.75 5.35 9.16 9.97 9.16 3.25 0 5.81-1.01 7.66-3.04 1.69 2.74 4.55 3.04 7.15 3.04h5.57c2.48 0 4.64-.97 5.67-2.91 1.03 1.94 2.78 2.91 5.26 2.91h13.46V13.15c-1.23-.49-2.13-.48-2.37-.48-1.02 0-2.63.3-2.63 2.33m-34.63 6.83c0 5.94-5 5.65-5.09 5.65-4.33 0-4.96-3.41-4.96-4.88 0-5.37 5.9-5.69 8.22-5.69h1.84v4.92Z" class="cls-3"/><path d="M270.14 3.21v24.27h-13.95V13.15c-1.23-.49-2.13-.48-2.37-.48-1.02 0-2.63.3-2.63 2.33v12.48h-14.88c-9.32 0-13.91-5.39-16.52-8.68 2.46-2.07 5.29-2.25 6.89-2.15 2.24.15 4.31.99 5.64 2.23-.86 1.15-2.63 3.13-4.65 4.73 1.31.72 2.82 1.32 4.57 1.69 2.79-2.65 4.76-5.44 5.45-6.54-.5-.78-3.22-5.85-10.73-6.34-8.12-.54-12.21 5.32-12.91 6.16 2.4 3.08 4.55 5.76 7.58 8.17-1.47.45-3.07.72-4.79.72h-30.92V1.36c-1.23-.49-2.14-.48-2.37-.48-1.02 0-2.63.3-2.63 2.33v28.5h35.93c3.36 0 6.47-.84 9.22-2.18 3.08 1.45 6.52 2.18 10.25 2.18h38.84V1.37c-1.23-.49-2.13-.48-2.37-.48-1.02 0-2.63.3-2.63 2.33ZM152.55 4.38c-1.47 0-2.74 1.18-2.74 2.79 0 1.48 1.21 2.79 2.74 2.79s2.83-1.3 2.83-2.79c0-1.59-1.29-2.79-2.83-2.79M116.85 4.38c-1.47 0-2.74 1.18-2.74 2.79 0 1.48 1.21 2.79 2.74 2.79s2.83-1.3 2.83-2.79c0-1.59-1.29-2.79-2.83-2.79M109.31 4.38c-1.47 0-2.74 1.18-2.74 2.79 0 1.48 1.21 2.79 2.74 2.79s2.83-1.3 2.83-2.79c0-1.59-1.29-2.79-2.83-2.79M168.07 12.41c-5.43 0-10.56 3.05-10.56 9.97s5.79 9.33 11.04 9.33h4.67v.41c0 1.3-.53 2.88-1.66 4.02-2.6 2.61-7.83 1.24-7.93 1.22-1.05-.26-2.09-.65-3.07-1.15-1.5 2.29-.32 3.96 1.41 4.61 3.21 1.21 8.52 1.41 11.51-.28 3.39-1.91 4.74-5.91 4.74-10.32v-6.28c0-6.81-3.23-11.52-10.15-11.52Zm5.15 15.07h-4.75c-1.14 0-5.86-.07-5.86-5.26 0-3.46 2.14-5.61 5.18-5.61 3.51 0 5.43 2.57 5.43 7.7zM118.37 68.84c-.51.37-1.67 1.25-3.9 1.25-.78 0-1.94-.11-2.79-.79-1.08-.86-1.16-2.24-1.16-3.03v-9.79h8.43c.54-1.08.57-1.94.57-2.28 0-1.96-1.24-2.33-2.63-2.33h-6.36v-5.75l-.23.09.23-.09c-1.23-.49-2.13-.48-2.37-.48-1.02 0-2.63.3-2.63 2.33v3.91H103c-1.39 0-2.63.37-2.63 2.33 0 .35.03 1.2.57 2.28h4.59v10.8c0 2.31.9 7.24 7.81 7.24.94 0 2.57-.08 4.56-.83.41-.16 1.37-.52 2.55-1.4-.28-1.25-1.13-2.57-2.07-3.44ZM282.61 56.29c-.55-1.15-1.91-3.51-6.06-4.5-3.57-.84-10.34-.87-11.68 1.54-.55.99-.35 2.06.13 2.7.31.41.55.69.72.83.32-.26.99-.58 2-.97 1.75-.66 4.69-.71 6.74-.35 2.82.52 3.56 2.23 3.82 3.34-3.89-.42-9.04-1.11-12.56 1.11-3.36 2.12-4.51 6.65-2.55 10.1s6.15 4.21 10.07 4.36c5.21.2 10.08-.58 10.22-.61V60.63c0-1.69-.29-3.14-.86-4.35Zm-8.35 14.33c-1.55.03-3.22-.05-4.68-.6-1.29-.48-2.5-1.54-2.77-2.91-.36-1.85 1.02-3.41 2.1-3.97 1.4-.73 3.24-.64 4.77-.55 1.42.09 3.27.26 4.8.43l.02 7.35c-1.1.11-3.93.24-4.24.25M145.89 58.49l5.58 1.59-2.56-7.76c-.47-.25-1.34-.44-2.18-.44-1.34 0-2.48.62-2.41 2.09l1.58 4.52ZM229.83 54.2v19.71h5V52.36c-1.23-.49-2.13-.48-2.37-.48-1.02 0-2.63.3-2.63 2.33ZM197.32 54.2v10.31c0 3.89-1.82 6.1-5.71 6.1-1.21 0-5.71-.06-5.71-6.1V52.36c-1.23-.49-2.13-.48-2.37-.48-1.02 0-2.63.3-2.63 2.33v11.58c0 6.38 5.1 9.35 10.71 9.35 6.44 0 10.71-3.75 10.71-9.35V52.37c-1.23-.49-2.13-.48-2.37-.48-1.02 0-2.63.3-2.63 2.33ZM254.81 54.2v9.39c0 2.47-.9 6.14-5.75 6.14-5.19 0-5.66-3.92-5.66-5.66V52.35c-1.23-.49-2.13-.48-2.37-.48-1.02 0-2.63.3-2.63 2.33v10.89c0 7.03 5.68 8.91 9.7 8.91 2.17 0 5.39-.7 6.85-2.81 0 6.21-.83 9.82-7.33 9.82-3.61 0-6.12-.8-7.11-1.23-1.29 2.79-.47 4 1.31 4.53 2.29.68 6.96.98 9.92.5 6.15-1.01 8.08-5.21 8.08-13.22V52.36c-1.23-.49-2.13-.48-2.37-.48-1.02 0-2.63.3-2.63 2.33ZM216.07 51.27c-5.61 0-10.71 2.97-10.71 9.35v11.45c0 2.03 1.61 2.33 2.63 2.33.23 0 1.14 0 2.37-.48V61.9c0-6.04 4.49-6.1 5.71-6.1 3.89 0 5.71 2.21 5.71 6.1v10.18c0 2.03 1.61 2.33 2.63 2.33.23 0 1.14 0 2.37-.48V60.64c0-5.6-4.27-9.35-10.71-9.35Z" class="cls-3"/><path d="M178.84 52.55c-.72-.33-1.47-.64-2.25-.7-2.17-.18-2.66 1.39-2.95 2.21l-4.69 13.25-4.93-14.17c-.26-.74-.45-.93-1.3-1.08-1.22-.21-2.65-.36-3.52.51-.39.39-.59.92-.78 1.44l-4.54 12.67-1.45-3.9c-.17-.43-.25-.66-1.1-.89-2.29-.64-6.07-1.73-8.84-2.42-.1-1.2-.37-2.25-.81-3.17-.55-1.15-1.91-3.51-6.06-4.5-3.57-.84-10.34-.87-11.68 1.54-.55.99-.35 2.06.13 2.7.31.41.55.69.72.83.32-.26.99-.58 2-.97 1.75-.66 4.69-.71 6.74-.35 2.82.52 3.56 2.23 3.82 3.34-3.89-.42-9.04-1.11-12.56 1.11-3.36 2.12-4.51 6.65-2.55 10.1s6.15 4.21 10.07 4.36c5.21.2 10.08-.58 10.22-.61V63.8c2.42.56 5.29 1.35 5.36 1.42.37.34 1.38 3 2.18 5.3l1.19 3.39h5.17l4.78-14.96 4.87 14.96h5.19l7.54-21.36Zm-45.49 18.07c-1.55.03-3.22-.05-4.68-.6-1.29-.48-2.5-1.54-2.77-2.91-.36-1.85 1.02-3.41 2.1-3.97 1.4-.73 3.24-.64 4.77-.55 1.42.09 3.27.26 4.8.43l.02 7.35c-1.1.11-3.93.24-4.24.25M232.33 42.18c-.82 0-1.52.28-2.09.85s-.85 1.26-.85 2.09.28 1.52.85 2.09 1.26.85 2.09.85 1.52-.28 2.09-.85.85-1.26.85-2.09-.28-1.52-.85-2.09-1.26-.85-2.09-.85" class="cls-3"/></svg>