<svg xmlns="http://www.w3.org/2000/svg" id="Layer_1" data-name="Layer 1" version="1.1" viewBox="0 0 2000 2000"><defs><style>.cls-2,.cls-4{fill:#008549;stroke-width:0}.cls-4{fill:#fff}</style></defs><path d="M1577.3 690.1c-115.5 0-209.4 93.9-209.4 209.4s93.9 209.4 209.4 209.4 209.3-93.9 209.3-209.4-93.9-209.4-209.3-209.4" class="cls-2"/><path d="M1577.3 690.1c-115.5 0-209.4 93.9-209.4 209.4s93.9 209.4 209.4 209.4 209.3-93.9 209.3-209.4-93.9-209.4-209.3-209.4Z" style="fill:none;stroke:#fff;stroke-width:4.6px"/><path d="M1577.3 690.1c-73.9 0-134 60.1-134 134s60.1 134 134 134 134-60.1 134-134-60.1-134-134-134" class="cls-4"/><path d="M1577.3 699c-69 0-125.2 56.2-125.2 125.2s1.7 23.4 4.8 34.3l8.3-31.1-1.8-.9 3.6-17.9.8-.3v1l.5-.2v.5l.6-.2v.5l.7-.2v-.5h.6v-.7h.5v-1.1h.7v.8h.6v.4h.6v.4h.7v-.6h.6v-.5h.5v-1h.7v.9h.6v.5h.6v.5h.7v-.5h.6v-.5h.5v-.9h.7v1h.6v.5h.5v.6h.7v-.4h.5v-.4h.6v-.8h.7v1.1h.6v.6h.5v.7l.7.2v-.5l.5.2v-.5l.6.2v-1l.8.3 3.6 17.9-1.8.9 3.8 14.5 34.9-19.2 9.7-40.8-3.9-2 12.3-48.7 2.7-.9v3.2c.6-.2 1.2-.4 1.9-.6v1.7c.6-.2 1.3-.4 1.9-.5v1.8c.8-.2 1.6-.5 2.4-.7v-1.7c.7-.2 1.3-.3 1.9-.5v-1.7c.6-.1 1.3-.3 1.9-.5v-3.1c.8-.2 1.6-.3 2.3-.5v3.2c.6-.1 1.3-.2 1.9-.3v1.7c.6 0 1.3-.2 1.9-.3v1.7l2.4-.3v-1.7c.6 0 1.2-.2 1.9-.2v-1.6c.6 0 1.2-.2 1.9-.2v-3.1c.8 0 1.5-.1 2.3-.1v3.1h1.9v1.7h1.9v1.7h2.4v-1.7h1.9v-1.7h1.9v-3.1c.8 0 1.5 0 2.3.1v3.1c.6 0 1.3.1 1.9.2v1.6c.6 0 1.3.2 1.9.2v1.7l2.4.3v-1.7c.7 0 1.3.2 1.9.3v-1.7c.6.1 1.3.2 1.9.3v-3.2c.8.2 1.5.3 2.3.5v3.1c.6.1 1.3.3 1.9.5v1.7c.7.2 1.3.3 1.9.5v1.7c.8.2 1.6.5 2.4.7v-1.8c.6.2 1.3.4 1.9.5V733c.6.2 1.3.3 1.9.5v-3.2l2.7.9 12.3 48.7-3.9 2 9.7 40.8 34.9 19.2 3.8-14.5-1.8-.9 3.6-17.9.8-.3v1l.6-.2v.5l.5-.2v.5l.7-.2v-.5h.5v-.7h.6v-1.1h.7v.8h.5v.4h.6v.4h.7v-.6h.6v-.5h.6v-1h.7v.9h.5v.5h.6v.5h.7v-.5h.6v-.5h.6v-.9h.7v1h.5v.5h.6v.6h.7v-.4h.6v-.4h.5v-.8h.7v1.1h.6v.6h.6v.7l.7.2v-.5l.6.2v-.5l.5.2v-1l.8.3 3.6 17.9-1.8.9 8.3 31.1c3.1-10.9 4.8-22.4 4.8-34.3 0-69-56.2-125.2-125.1-125.2" style="stroke-width:0;fill:#00bde0"/><path d="M1476.6 853.7v3.7c-1.7 12.1-4.7 34.8-4.7 34.8h-.5m5.2-83.5h-.1v-.5h-.6v-.5h-.6v-.9h-1.1v1h-.6v.5h-.4l-.1.3v.3h-.3v-.5h-.6v-.4h-.5v-.9l-1.1.2v.9h-.5v.7h-.4l-.1.3v.4h-.3v-.5l-.6.2v-.5l-.5.2v-1l-1.1.4q-.1.1-3.8 18.1v.2l1.7.9-8.6 32.4h.4c0 .1 8.7-32.5 8.7-32.5 3.7-1.1 7.4-1.7 11.2-1.7v-1.6c-4.4 0-8.8.7-12.9 2.2.2-.9 3.5-17.3 3.6-17.6h.4v.8l.6-.2v.5l.6-.2v.5l1.1-.3v-.7h.6v-.5h.5v-1h.2v.9h.6v.4h.5v.4h1.1c0-.1.1-.3.1-.3v-.3h.6v-.5h.5v-.9h.2v.9h.6v.5h.5v.5h.6v-.5Zm100.6-77.3h-.4v-1.7h-1.9v-1.6h-1.9V725h-.8l-3 .2v3.1l-1.9.2v1.6l-1.9.2v1.7h-.9v-1.6l-1.9.3V729l-1.9.3v-3.2l-3.8.8v3.2l-1.9.5v1.7l-1.9.5v1.7l-.9.3V733l-1.4.4-.5.2v-1.7l-1.9.6v-3.3l-1.2.4-2.9 1v.4l-12.6 49.3s3.1 1.6 3.9 2c-.1.4-4.2 17.9-9.6 40.5l-34 18.7c-2-7.6-3.7-13.9-3.7-14l1.8-.9-3.7-18.2-1.1-.4v1l-.6-.2v.5h-.5c0-.1-.1.1-.1.1v.2h-.3v-.6h-.5v-.7h-.6v-1.1l-1.1-.2v1h-.6v.4h-.4l-.2.2v.2h-.3v-.5h-.6v-.6h-.6v-1h-1.1v.8h-.6v.5h-.5v.5h-.1v.4h.4l.1-.2v-.3h.6v-.5h.5v-.9h.2v.9h.5v.5h.6v.6h1.2v-.4h.6v-.4h.5v-.8h.2v1h.5v.6l.6.2v.5l1.1.3v-.5l.5.2v-.5l.6.2v-.9h.4c0 .1 3.6 17.7 3.6 17.7h-.1c-4.1-1.5-8.4-2.3-12.8-2.3v1.6c3.8 0 7.6.6 11.2 1.7l3.8 14.3-14.4 7.9-.5 4v3.7c.6-4.3 1-7.3 1-7.4 0 0 44.9-24.7 48.2-26.5-10 42.4-24.1 102.2-24.1 102.2l.7.2 34-143.7h.1c13.2-4.5 26.9-6.8 40.7-6.8v-3.7c-1.4 0-2.9 0-4.3.1V763h4.3v-1.3h-5.7v9.9c-13.3.5-26.4 3.1-39 7.6l12.2-48.3 2.7-.9v3.2c.6-.2 1.3-.4 1.9-.6v1.7c.6-.2 1.3-.4 1.9-.5v1.8c.8-.2 1.6-.5 2.4-.7v-1.7c.6-.2 1.3-.3 1.9-.5V731c.7-.1 1.3-.3 1.9-.5v-3.1c.8-.2 1.5-.3 2.3-.5v3.2c.6-.1 1.3-.2 1.9-.3v1.7c.6-.1 1.3-.2 1.9-.3v1.7l2.4-.3v-1.7c.6 0 1.2-.2 1.9-.2v-1.6c.6 0 1.2-.2 1.9-.2v-3.1c.8 0 1.5-.1 2.3-.1v3.1h1.9v1.7h1.9v1.7h1.2v-.8Zm100.7 77.3h-.1v-.5h-.5v-.5h-.6v-.9h-1.1v1h-.5v.5h-.4l-.1.3v.3h-.3v-.5h-.5v-.4h-.6v-.9l-1.1.2v.9h-.6v.7h-.4l-.2.3v.4h-.2v-.5l-.6.2v-.5l-.6.2v-1l-1.2.4c0 .1-3.7 18.2-3.7 18.2l1.8.9c0 .1-1.7 6.5-3.7 14l-34-18.7c-5.3-22.7-9.5-40.2-9.6-40.5.8-.4 3.9-2 3.9-2l-12.6-49.7-3.2-1-1-.3v3.3l-1.9-.6v1.7l-1.9-.5v1.8l-.9-.3V733l-1.9-.5v-1.7l-1.3-.3h-.6v-3.3l-3.8-.8v3.2l-1.9-.3v1.7l-1.9-.3v1.7h-.9v-1.8h-1.1c0-.1-.8-.2-.8-.2v-1.6l-1.9-.2v-3.1l-3.8-.2v3.1h-1.9v1.6h-1.9v1.6h-.4v.8h1.2v-1.7h1.9V729h1.9v-3.1c.8 0 1.5 0 2.3.1v3.1c.6 0 1.3.1 1.9.2v1.6c.6 0 1.3.2 1.9.2v1.7l2.4.3v-1.7c.6 0 1.3.2 1.9.3V730c.7.1 1.3.2 1.9.3v-3.2c.8.2 1.5.3 2.3.5v3.1c.7.1 1.3.3 1.9.5v1.7c.7.2 1.3.3 1.9.5v1.7c.8.2 1.6.5 2.4.7V734c.6.2 1.3.3 1.9.5v-1.7c.6.2 1.3.4 1.9.5v-3.2l2.7.9 12.2 48.3c-12.5-4.5-25.6-7.1-39-7.6v-9.9h-5.7v1.3h4.3v8.5c-1.4 0-2.9-.1-4.3-.1v3.7c13.8 0 27.6 2.3 40.7 6.8h.1l34 143.7h.2l.5-.2s-14.2-59.8-24.2-102.3c3.3 1.8 48.1 26.5 48.2 26.5 0 0 .4 3 1 7.4v-3.6l-.5-4-14.4-7.9 3.8-14.4c3.7-1.1 7.4-1.7 11.2-1.7v-1.6c-4.4 0-8.8.7-12.9 2.2.2-.8 3.5-17.3 3.6-17.6h.4v.8l.5-.2v.5l.6-.2v.5l1.2-.3v-.7h.6v-.5l.6-.1v-.9h.2v.9h.5v.4h.6v.4h1c0-.1.2-.3.2-.3v-.3h.5v-.5h.5v-1h.2v.9h.5v.5h.6v.5h.6v-.5Zm0 48.7v-3.6l5.2 38.3h-.5s-3.1-22.6-4.8-34.7m.1-31.7c3.8 0 7.6.6 11.2 1.7l8.7 32.6h.4c0-.1-8.7-32.5-8.7-32.5l1.8-.9-3.7-18.2-1.1-.4v.3c-.1 0-.1.7-.1.7l-.5-.2v.5h-.5c0-.1-.1.1-.1.1v.2h-.3v-.6h-.6v-.7h-.5v-1.1l-1.1-.2v1h-.5v.4h-.4l-.2.2v.2h-.3v-.5h-.5v-.6h-.6v-1h-1.1v.8h-.5v.5h-.6v.5h-.1v.4h.4l.2-.2v-.3h.5v-.5h.6v-.9h.2v.9h.6v.5h.6v.6h1.1v-.4h.6v-.4h.6v-.8h.2v1h.6v.6l.6.2v.5l1.1.3v-.3c.1 0 .1-.2.1-.2l.6.2v-.5l.5.2v-.9h.4c0 .4 3.4 16.8 3.6 17.7-4.2-1.5-8.5-2.2-12.9-2.2v1.6Z" class="cls-2"/><path d="M1449.9 824.2c0 70.2 57.1 127.3 127.3 127.3v-2.1c-69 0-125.2-56.2-125.2-125.2S1508.2 699 1577.2 699v-2.2c-70.2 0-127.3 57.1-127.3 127.3m127.3 127.5c70.2 0 127.3-57.1 127.3-127.3S1647.4 697 1577.2 697v2.2c69 0 125.1 56.2 125.1 125.2s-56.2 125.2-125.1 125.2v2.1Z" style="stroke-width:0;fill:#231f20"/><path d="m1562.2 892-.5-1.3c0-1.1.9-1.9 2-1.8.8 0 1.5.5 1.7 1.3.2.5.4 1.5.5 2.6 0 1.3.4 2.8.5 3.5 0 .7 0 1.6.6 1.9l.4.3.6.4.2.2.3 1.1c0 1.1-.9 1.9-2 1.8l-1.4-.7-.4-.5c-.2-.4-.4-1.5-.5-2.8s0-2.7 0-3.4c-.1-.7-.5-1.6-1-2h-.2c0-.1-.7-.6-.7-.6" class="cls-2"/><path d="M1612.7 878.2c-4.3-.6-9.6 0-16.7 2.5-2.3.8-4.6 1.8-6.9 2.8l-14.6 6.3-1.1.5-1.5.6c-9.6 3.8-13.4 3.8-13.4 3.8s.4-1.5-.4-2.5c-1-1.5-2.9-1.3-4-.7-1 .5-2.6 2.3-1.2 4.9 1.8 3.3 6.1 2.6 10.1 1.7 3.2-.7 7-1.7 12.5-4.4l.8-.4 16.7-7.4c3.3-1.4 6.5-2.7 9.3-3.6 8.2-2.8 14.4-2.9 14.4-2.9s-1-.7-3.9-1.1M1592.3 892l.5-1.3c0-1.1-.9-1.9-2-1.8-.8 0-1.5.5-1.7 1.3-.2.5-.4 1.5-.5 2.6-.1 1.3-.4 2.8-.5 3.5s-.1 1.6-.6 1.9l-.4.3-.6.4-.2.2-.3 1.1c0 1.1.9 1.9 2 1.8l1.4-.7.4-.5c.2-.4.5-1.5.5-2.8v-3.4c0-.7.5-1.6 1-2h.2c0-.1.7-.6.7-.6" class="cls-2"/><path d="M1541.8 878.2c4.3-.6 9.5 0 16.7 2.5 2.3.8 4.6 1.8 6.9 2.8l14.6 6.3 1.2.5 1.5.6c9.6 3.8 13.4 3.8 13.4 3.8s-.4-1.5.4-2.5c1-1.5 2.9-1.3 4.1-.7 1 .5 2.6 2.3 1.2 4.9-1.8 3.3-6.1 2.6-10.1 1.7-3.2-.7-7-1.7-12.5-4.4l-.8-.4-16.7-7.4c-3.3-1.4-6.5-2.7-9.3-3.6-8.2-2.8-14.4-2.9-14.4-2.9s1-.7 3.9-1.1M1586.3 835.7s1.4-2.4 4-2.7c2-.2 4.5 1.8 4.5 1.8s-1.3-3.2-3.3-4.2-4.6-1.4-7.1-.5-4.1 3.3-4.1 3.3.3-1.8-.7-5.6c-1.1-3.8-2.4-4.9-2.4-4.9s-1.3 1.1-2.4 4.9-.8 5.6-.8 5.6-1.5-2.4-4-3.3-5.1-.5-7.1.5-3.3 4.2-3.3 4.2 2.5-2 4.5-1.8c2.7.2 4 2.7 4 2.7s-2.5 0-4.7 2.5c-3.2 3.6-2.4 5.7-2.4 5.7s1.1-3 5.2-3.2c1.6 0 2.6.4 2.8 1.3v.5s-3.8.8-5.4 4.1c-1.7 3.3-1.4 3.8-1.4 4.8s.8 2.4.8 2.6.6-2 2.4-4.3c1.2-1.6 2.5-1.8 2.5-1.8s-1 2.1-1.3 3.6c-.6 3 .8 5.6.8 5.6s.9-2.6 3.4-5c1.4-1.4 3.8-2.2 4.4-2.1l.4.6-1 26.3s-.9 0-2.1.3-2.2.7-2.2.7.9 2.4 2.8 3.8c1.8 1.3 4.2 2.6 4.2 2.6s2.4-1.3 4.1-2.6c1.8-1.3 2.8-3.8 2.8-3.8s-1-.4-2.2-.7c-1.2-.2-2.1-.3-2.1-.3l-1-26.3.4-.6c.6 0 3 .8 4.4 2.1 2.5 2.4 3.4 5 3.4 5s1.3-2.6.8-5.6c-.3-1.5-1.3-3.6-1.3-3.6s1.3.2 2.6 1.8c1.8 2.3 2.3 4.4 2.3 4.3 0-.2.9-1.6.8-2.6 0-1 .2-1.5-1.4-4.8s-5.3-4.1-5.3-4.1v-.5c.1-.8 1.1-1.3 2.8-1.3 4.1.2 5.2 3.2 5.2 3.2s.8-2.1-2.5-5.7c-2.2-2.5-4.7-2.5-4.7-2.5" class="cls-2"/><path d="M1498.8 979.7c1-4.5 5.5-7.4 10-6.4s7.4 5.5 6.4 10-5.5 7.3-10 6.3-7.4-5.5-6.3-10M1600.9 1077.9c-1.3-4.4-5.8-7-10.3-5.8s-7.1 5.8-5.8 10.3c1.2 4.5 5.8 7 10.3 5.8 4.4-1.2 7-5.8 5.8-10.3M1553.6 1077.9c1.2-4.4 5.8-7 10.3-5.8s7.1 5.8 5.8 10.3c-1.2 4.5-5.9 7-10.3 5.8s-7-5.8-5.8-10.3M1654.1 966.8c1.9 7.5 1.3 15.6-2.1 22.8v.7h.9c2.5-.7 5.2 0 7.2 1.7l.3.3 14.8 13.8c-7.6 7-15.9 13.1-24.9 18.4l-12.5-18.8h-.1c.3 7.9-2.1 15.6-6.9 21.9v.8l.7.2c2.5-.1 5.1 1 6.6 3.3l.2.4 9.1 14.2a13 13 0 0 1 2.2 7.2c0 7.2-6.2 12.9-13.4 13v.7c1.1.5 2.2 1 3.4 1.3 10.3 2.9 21-3.2 23.8-13.5 1.1-4 .9-8.1-.5-11.8h-.1.1c10.4-6.3 20.1-13.6 28.9-21.8s1.1-1 1.1-1l1.2-1.2c2.7-2.7 5.4-5.4 8-8.2l-47.8-44.6M1685.6 965.1l-.4-.3c-2-1.9-2.7-4.6-2.2-7s-.1-.8-.1-.8h-.8c-7 3.7-15 4.9-22.7 3.4h-.1c0 .1 60.3 56.7 60.3 56.7 3.1-3.8 6.1-7.7 8.9-11.7M1496 999.3c-1.6.3-3.2.7-4.9 1.1-4.6 1.2-8.4 2.8-11.1 4.2 3.3-8.2 2.9-14.7 2.9-14.7h-.1c-6.7 4-11.6 4.4-19.5 3.2s-.7.4-.7.4v.7h.1c1.4 2.1 2.3 4.5 2.1 7.2v.4c-.4 3.7-2 6.8-4.6 8.8h-.1c-1.6 1.2-3.6 2-5.8 2.1-6 .3-11.2-4.3-11.5-10.3 0-1.5.2-3.8.7-5.2 1.4-4 3.3-7.2 9.3-10.5 3.6-2 6.7-3.1 12.1-4 3-.5 5.7-1.1 8.2-2 2.9-1.1 3.3-1.7 4.1-2.8l.2-.3c.7-1 1.1-2.5 1.1-2.8.2-1.6-2-1-2.7-.6-1.2.5-3.1 1-4.9 1.3-2.8.4-4.2.9-8.3 1.6-3.7.7-6.6 1.1-11.6 3.2-6.7 2.8-11.6 7.7-14.3 12.2-2.3 3.7-3.6 8.4-3.7 12.8v2.9000000000000004c.2 10.5 9.2 19.6 19.7 20h2.1c3.6-.2 7.2-1.6 10.6-3.9 9.4 8.4 19.7 15.8 30.7 21.9v-26.5c-3.4-2.3-6.7-4.8-9.9-7.4 1.2-.4 2.3-.7 2.8-.9 2.1-.6 4.7-1.1 7.1-1.3m27.2-.2s.1-.5.1-1.3v-.3c0-2.3-.9-6.4-6.7-8.5-6.7-2.4-13.3-2-20.7-.5v10.7c3.3-.2 6.4 0 7.8 1 3.3 2.3 1.8 5.5 1.8 5.5l-2.4 7.6c-2.4-1.4-4.8-3-7.2-4.6v26.5h.1l.6.3c1.1.6 2.1 1.1 3.2 1.7s2.2 1.2 3.3 1.7l.5.2c1.9.9 3.7 1.8 5.6 2.6l13.9-42.7ZM1613.4 1011.2h-.1c-2 7.6-6.5 14.4-12.9 19l-.2.7.6.4c2.5.6 4.6 2.4 5.4 5v.4c.1 0 1.6 4.4 1.6 4.4-9.8 2.1-20 3.2-30.4 3.2s-27.1-2-39.7-5.6l10.8-33.2v-.4c1-2.6 3.1-4.4 5.5-5s.6-.5.6-.5l-.2-.7c-6.4-4.7-10.9-11.4-12.8-19h-.2l-24.6 75.6c1.2.5 2.4.8 3.5 1.3s.2 0 .2 0c2 .7 4 1.4 6.1 2.1l.8.2c1.1.3 2.1.7 3.2 1 14.8 4.2 30.4 6.6 46.7 6.6s25.5-1.5 37.6-4.2h.2c2.2-.5 4.4-1.1 6.6-1.7l1.6-.5c1.2-.4 2.4-.7 3.5-1 .8-.3 1.5-.5 2.3-.7" class="cls-4"/><path d="M1249.2 816.7h17.7v80.4h-17.7zm-6.8-15.8q3.45 0 6 .6c-1.4-1-2-2.6-2-4.9 0-3.3 1.3-6.1 4-8.4 3.1-2.8 7.6-4.1 13.4-4.1s2.9.1 4.6.4l2.3.4-1.6 9.3-1.8-.3c-1.4-.2-2.7-.2-3.9-.2-3.4 0-5.1 1.2-5.1 3.5s2.5 3.8 7.4 3.8h6.8v9.5h-29.9V801Zm-23.4 68.3c0-10-3.3-15-10-15s-6.2 1.3-8.3 4c-1.9 2.5-2.9 5.8-2.9 9.7q0 14.4 14.4 14.4h6.8zm-44.6 27.8v-14.8h4.8c2.5 0 4.6.3 6.1.9-3.3-3-4.9-8-4.9-15s2.4-14.7 7.4-20c5.5-5.9 12.9-8.8 22.3-8.8s15.5 2.6 20 7.7c4.1 4.8 6.2 11.4 6.2 20v29.9h-61.8Zm-26.6-14.7h27.7v14.8h-27.7zm-26.5-69.2h17.7v69.2h10.5v14.8h-28.1v-84Zm-24.9 19.8c-2.4 0-4.5-.9-6.2-2.7s-2.5-4.1-2.5-6.7.8-4.7 2.5-6.6c1.7-1.8 3.8-2.7 6.2-2.7s4.6.9 6.3 2.7 2.6 4 2.6 6.6-.9 4.9-2.6 6.7q-2.55 2.7-6.3 2.7m-23.9 49.4h15v-41.2h17.8v56h-32.8zm-26.5 0h27.7v14.8H1046zm-24.2-49q-3.6 0-6-2.7c-1.6-1.8-2.4-4-2.4-6.5s.8-4.7 2.4-6.5q2.4-2.7 6-2.7c3.6 0 4.3.9 5.9 2.7s2.4 4 2.4 6.5-.8 4.7-2.4 6.5-3.6 2.7-5.9 2.7m-1.5 22.7c-2.3-1.2-5.2-1.9-8.6-1.9s-6.2 1.3-8.2 4c-1.9 2.5-2.9 5.8-2.9 9.7q0 14.4 14.4 14.4h5.4V856Zm-18.4-22.7q-3.45 0-6-2.7c-1.6-1.8-2.4-4-2.4-6.5s.8-4.7 2.4-6.5q2.4-2.7 6-2.7c3.6 0 4.3.9 5.9 2.7s2.5 4 2.5 6.5-.8 4.7-2.5 6.5c-1.6 1.8-3.6 2.7-5.9 2.7m11.3 63.7c-20.1 0-30.2-9.1-30.2-27.4s2.4-15.6 7.2-21c5.4-6.1 13.1-9.2 23.2-9.2s17.3 1.4 24.1 4.1v38.7h10.1V897zm-79.5-27.8c0-10-3.3-15-10.1-15s-6.2 1.3-8.3 4c-1.9 2.5-2.9 5.8-2.9 9.7q0 14.4 14.4 14.4h6.8v-13.1ZM889.1 897v-14.8h4.8c2.5 0 4.6.3 6.1.9-3.3-3-4.9-8-4.9-15s2.5-14.7 7.4-20c5.5-5.9 12.9-8.8 22.3-8.8s15.5 2.6 20 7.7c4.1 4.8 6.2 11.4 6.2 20v29.9h-61.8Zm-17.3-64.1c-2.4 0-4.4-.9-6.2-2.7-1.7-1.8-2.5-4.1-2.5-6.7s.8-4.7 2.5-6.6c1.7-1.8 3.8-2.7 6.2-2.7s4.6.9 6.3 2.7 2.6 4 2.6 6.6-.9 4.9-2.6 6.7q-2.55 2.7-6.3 2.7m-23.9 49.4H863v-41.2h17.8v41.2h10v14.8h-42.9zm-38.1 0c9.9-.2 14.8-5.1 14.8-14.8s-3.3-13.1-10-13.1-9.5 2.7-13.7 8.2c-4.2 5.4-6.9 11.9-8.2 19.7h17.2Zm-47.2 0h12.5v-69.2h17.8v29.8c0 5.8-.5 10.9-1.5 15.2h.2c2.3-5.8 6-10.4 11-13.8 4.8-3.2 10-4.8 15.7-4.8s14.1 2.4 18.3 7.3c4.1 4.7 6.1 11.3 6.1 19.8s-1.2 11.4-3.6 15.8h11.1v14.8h-87.7v-14.8Zm-23.8-49q-3.6 0-6-2.7c-1.6-1.8-2.4-4-2.4-6.5s.8-4.7 2.4-6.5q2.4-2.7 6-2.7c3.6 0 4.3.9 6 2.7 1.6 1.8 2.5 4 2.5 6.5s-.8 4.7-2.5 6.5q-2.4 2.7-6 2.7m-10.3 49c3.2 0 5.8-1.2 7.6-3.6 1.9-2.5 2.9-6 2.9-10.5 0-9.3-3.4-14-10.1-14s-5.3 1.1-7.3 3.2c-2.2 2.4-3.3 5.9-3.3 10.4 0 9.7 3.4 14.5 10.1 14.5m-9.5-49q-3.45 0-6-2.7c-1.6-1.8-2.4-4-2.4-6.5s.8-4.7 2.4-6.5q2.4-2.7 6-2.7c3.6 0 4.3.9 5.9 2.7s2.5 4 2.5 6.5-.8 4.7-2.5 6.5c-1.6 1.8-3.6 2.7-5.9 2.7m-24.1 49h3.4c2.2 0 4.2.2 6.2.6-2.4-3.3-3.6-7.8-3.6-13.4 0-8.9 2.7-16.1 8.2-21.7 5.4-5.5 12.4-8.3 21-8.3s15.1 2.3 19.7 7c4.7 4.7 7 11.6 7 20.6s-1.7 12.5-5.1 15.8c2.7-.4 5.3-.6 7.7-.6h4.9v14.8h-69.5v-14.8Zm-26.6 0h27.7v14.8h-27.7zm-24.2-49q-3.6 0-6-2.7c-1.6-1.8-2.4-4-2.4-6.5s.8-4.7 2.4-6.5q2.4-2.7 6-2.7c3.6 0 4.3.9 6 2.7 1.6 1.8 2.4 4 2.4 6.5s-.8 4.7-2.4 6.5q-2.4 2.7-6 2.7m-1.4 22.7c-2.3-1.2-5.2-1.9-8.6-1.9s-6.2 1.3-8.2 4c-1.9 2.5-2.9 5.8-2.9 9.7q0 14.4 14.4 14.4h5.3zm-18.5-22.7c-2.3 0-4.3-.9-5.9-2.7s-2.4-4-2.4-6.5.8-4.7 2.4-6.5 3.6-2.7 5.9-2.7 4.3.9 6 2.7c1.6 1.8 2.5 4 2.5 6.5s-.8 4.7-2.5 6.5q-2.4 2.7-6 2.7m11.3 63.7c-20.1 0-30.2-9.1-30.2-27.4s2.4-15.6 7.2-21c5.4-6.1 13.1-9.2 23.2-9.2s17.3 1.4 24.1 4.1v38.7h10.1V897zm-82.2-83.9h17.7v84h-17.7zm-47.9 69.2H518v-69.2h17.8v84h-30.5zM468.2 927c-2.8 0-5.4-.2-7.9-.7l1.3-14.9c2.2.6 4.8.9 7.6.9s5.9-1 7.5-2.9c1.7-2.2 2.6-6 2.6-11.3v-57.2H497v41.2h10.2v14.8H497v.5c0 19.7-9.6 29.5-28.7 29.5m-16.5-12c0 2.6-.8 4.7-2.4 6.5s-3.6 2.7-5.9 2.7-4.4-.9-6-2.7c-1.6-1.7-2.4-3.9-2.4-6.5s.8-4.7 2.4-6.5q2.4-2.7 6-2.7c3.6 0 4.3.9 5.9 2.7s2.4 3.9 2.4 6.5m-19.8 0c0 2.6-.8 4.7-2.5 6.5-1.6 1.8-3.6 2.7-5.9 2.7s-4.3-.9-6-2.7c-1.6-1.8-2.4-4-2.4-6.5s.8-4.7 2.4-6.5q2.4-2.7 6-2.7c3.6 0 4.3.9 5.9 2.7s2.5 3.9 2.5 6.5m-17.9-32.6h20.1v-41.2h17.6v56h-37.7zm-26.6 0h27.7v14.8h-27.7zm-26.6 0h27.7v14.8h-27.7zm-26.5-69.2h17.7v69.2h10.5v14.8h-28.1v-84Zm-38.2 19.8c-2.4 0-4.5-.9-6.2-2.7s-2.6-4.1-2.6-6.7.9-4.7 2.6-6.6c1.7-1.8 3.8-2.7 6.2-2.7s4.5.9 6.2 2.7 2.6 4 2.6 6.6-.9 4.9-2.6 6.7-3.8 2.7-6.2 2.7m-7.7 49.4c10.4 0 15.7-4.9 15.7-14.8s-3.3-13.1-9.9-13.1-9.6 2.7-13.9 8.2c-4.1 5.3-6.9 11.9-8.3 19.7zm-47.8 42.1c-19.7 0-29.6-11.4-29.6-34.3s.9-13.5 2.6-20.5l18.3-3.4c-2.1 7.6-3.2 15-3.2 22.1 0 14.2 4.4 21.3 13.3 21.3s12.7-7.1 12.7-21.3V841h17.6v1.8c0 5.7-.4 10.8-1.3 15.2h.2c2.3-5.9 5.9-10.5 11-13.8 4.8-3.2 10-4.8 15.7-4.8s14.1 2.4 18.4 7.3c4.1 4.7 6.1 11.3 6.1 19.8s-2.7 16.6-8.1 21.9c-6 5.8-15.1 8.7-27.2 8.7h-15.7c-2 18.3-12.2 27.4-30.7 27.4M1254.7 997.4v17.9h-11.1v-17.8l-15-33.4h12.1l5.5 13c1.3 3 2.3 5.8 3.1 8.2h.1c.6-1.9 1.9-5 3.7-9.2l5.2-12h11.7l-15.2 33.3Zm-44.3-23.2v41.1h-11v-41.1h-11.5v-10.1h34.1v10.1h-11.5Zm-43.2-10.1h11.1v51.2h-11.1zm-34.9 51.2v-51.2h11.1v40.7h14.5v10.5zm-29.7-31.4c-.7-2-1.3-4.4-1.8-7.1h-.1c-.7 3.3-1.3 5.7-1.7 7.2l-3.9 12.5h11.4zm9.4 31.4-2.9-9.5h-16.8l-2.8 9.5h-11l15.9-51.2h13.2l16.6 51.2zm-45.6-34.1c0-5.1-2.7-7.7-8-7.7h-2.8v15.3c.9.2 2 .3 3.2.3 5 0 7.5-2.7 7.5-8m11.6-.9c0 5.4-1.6 9.8-4.9 13.3-3.6 3.7-8.4 5.5-14.7 5.5h-2.6v16.5h-11.1v-51.2c4.6-.3 9.4-.4 14.4-.4 12.6 0 18.9 5.5 18.9 16.4m-57.2-16.2h11.1v51.2h-11.1zm-11.2 49.7c-3.7 1.4-7.7 2.2-11.9 2.2-8.1 0-14.1-2.6-17.9-7.9-3.1-4.2-4.6-9.7-4.6-16.5s2.1-15.2 6.2-20.1c4.3-5.1 10.3-7.7 18.1-7.7s7 .5 9.8 1.4l-1.4 10.8c-2.7-1.1-5.6-1.6-8.6-1.6s-6.8 1.4-8.9 4.1-3.1 6.4-3.1 11.1c0 10.4 4.2 15.6 12.5 15.6s5.8-.6 8.2-1.9zm-55.9-49.7h11.1v51.2h-11.1zm-27.3 51.2-12.4-25.2c-1.7-3.7-3-7-3.8-9.9.3 5.9.5 13.1.5 21.4v13.6H900V964h14.6l11.9 24.3c1.5 3.2 2.9 6.5 4.1 10.2-.3-5.1-.5-12.4-.5-21.8V964h10.6v51.2h-14.5Zm-39-20.1c0 14.1-6.8 21.1-20.4 21.1s-19-6.4-19-19v-33.1H859v32.4c0 3.2.6 5.6 1.8 7.1 1.3 1.8 3.6 2.6 6.8 2.6s5.4-.8 6.7-2.3c1.3-1.6 2-4.3 2-8.1v-31.8h11zm-60.8 20.1-3-21.6c-.5-3.4-1-7.7-1.5-12.7h-.1c-.9 4.9-1.9 9.3-2.8 13.1l-6.1 21.1h-10.3l-5.8-19.6c-1.5-5.4-2.6-10.3-3.2-14.7h-.1c-.4 5.5-.8 10.1-1.3 13.8l-2.3 20.5h-11.2l7.7-51.2h12.8l6.7 22.7c.9 2.8 1.7 6.5 2.6 11.1h.1q1.2-6.45 2.7-11.1l6.8-22.7h12.5l7.7 51.2h-11.5Zm-90.6 0-12.4-25.2c-1.7-3.7-3-7-3.8-9.9.3 5.9.5 13.1.5 21.4v13.6h-10.6V964h14.6l11.9 24.3c1.6 3.2 2.9 6.5 4.1 10.2-.3-5.1-.5-12.4-.5-21.8V964h10.6v51.2h-14.5Zm-48-25.2c0-10.8-3.7-16.1-11.2-16.1s-6.1 1.3-8.1 4c-2.1 2.8-3.2 6.6-3.2 11.5 0 10.7 3.7 16.1 11.1 16.1s6.1-1.3 8.1-4c2.1-2.8 3.2-6.6 3.2-11.4m11.8-1.3c0 8.2-2.3 14.9-7 20.1-4.5 4.9-10.1 7.4-16.8 7.4s-12.8-2.3-16.6-6.9c-3.7-4.4-5.5-10.7-5.5-18.8s2.3-14.9 7-20.1c4.5-4.9 10.1-7.4 16.8-7.4s12.9 2.3 16.6 6.9c3.7 4.4 5.5 10.7 5.5 18.8m-67-24.8h11.1v51.2h-11.1zm-12.6 48.7c-5.1 2.2-10.7 3.4-16.9 3.4s-14-2.3-18.3-6.7c-4.1-4.3-6.1-10.3-6.1-18s2.3-15.5 7-20.5c4.8-5.1 11.5-7.7 20.2-7.7s9.6.7 13.9 2.1l-2.2 10.8c-3.8-1.6-7.8-2.3-12.2-2.3s-8.7 1.5-11.2 4.7c-2.3 2.8-3.5 6.6-3.5 11.5s1.1 8.6 3.4 11.3c2.4 2.8 5.8 4.1 10.2 4.1s3.3-.2 4.5-.7V988h11.1v24.8Zm-78.2 2.5v-51.2h27v9.9h-15.9v10.1H568v9.6h-15.1v11.3h15.9v10.2h-27Zm-23.6-35.4c0-4.3-2.5-6.4-7.4-6.4s-2.2 0-3.1.2v13.1c.8.1 1.7.1 2.8.1 2.4 0 4.2-.6 5.6-1.8q2.1-1.95 2.1-5.1m1.3 35.3-11.2-20h-.7v20h-11.1v-51.2c3.4-.3 8.4-.4 15-.4 12.1 0 18.1 5.1 18.1 15.2s-1 6.4-2.9 9q-2.85 3.9-7.5 5.1c1.7 2.5 3 4.4 3.7 5.8l10 16.5h-13.5Zm-64.9 0V994H437v21.3h-11.1v-51.2H437v19.6h17.6v-19.6h11.1v51.2zm-50.9-25.7c0-5.2-.9-9-2.7-11.6-2-2.9-5.4-4.3-10.1-4.3s-3.8 0-4.6.1v31.3c1.2.2 2.6.3 4.1.3 4 0 7.2-1.3 9.5-3.9 2.5-2.8 3.8-6.8 3.8-12m11.9-.8q0 12.9-7.2 20.1c-4.6 4.6-11 6.9-18.9 6.9s-8.4-.1-14.2-.4v-51c5-.3 10.5-.5 16.4-.5q24 0 24 24.9m-70.3-4.8c-.7-2-1.3-4.4-1.9-7.1h-.1c-.7 3.3-1.3 5.7-1.7 7.2l-3.8 12.5h11.4l-3.8-12.6Zm9.5 31.4-2.9-9.5h-16.7l-2.8 9.5h-11l15.9-51.2h13.2l16.6 51.2H355Zm-47.1-17.9v17.9h-11.1v-17.8l-15-33.4h12.1l5.5 13c1.3 3 2.3 5.8 3.1 8.2h.1c.6-1.9 1.9-5 3.7-9.2l5.2-12h11.7l-15.2 33.3Zm-45.7-33.3h11.1v51.2h-11.1zm-23.6 15.8c0-4.3-2.5-6.4-7.4-6.4s-2.2 0-3.1.2v13.1c.8.1 1.7.1 2.8.1 2.4 0 4.3-.6 5.6-1.8q2.1-1.95 2.1-5.1m1.3 35.3-11.1-20h-.7v20h-11.1v-51.2c3.4-.3 8.4-.4 15-.4 12.1 0 18.1 5.1 18.1 15.2s-1 6.4-2.9 9q-2.85 3.9-7.5 5.1c1.7 2.5 3 4.4 3.7 5.8l10 16.5z" class="cls-2"/></svg>