<svg xmlns="http://www.w3.org/2000/svg" id="Layer_1" viewBox="0 0 267.27 70.14"><defs><style>.cls-1{fill:#08af9b}.cls-3{fill:#757d91}</style></defs><path d="M42.24 21.12 63.36 0H21.12v42.24L0 63.36h42.24V21.12" style="fill:#2b2764"/><path d="M42.24 21.12v21.12h21.12V0zM0 63.36l21.12-21.12V21.12H0z" class="cls-1"/><path d="M138.09 28.36h4.31v4.31h-4.31zM131.12 28.36h4.31v4.31h-4.31zM122.5 17.68c0-2.53-.49-4.81-1.79-6.19-1.54-1.63-3.72-2.31-6.5-2.31h-8.69V7.05h-4.02v17.47h-6.43c-1.82 0-3.65-.28-4.7-1.17-.96-.8-1.29-2.13-1.29-3.94v-9.06h-4.7v9.58c0 2.5.56 4.96 2.06 6.38 1.88 1.79 4.27 2.53 7.94 2.53h11.14v-3.85h16.98zm-4.31 2.99h-12.66v-7.21h9.13c1.11 0 2.18.52 2.71 1.2.56.71.83 1.6.83 2.83v3.17ZM144.43 7.63h-4.32v13.04h-8.66V0h-4.31v24.99h17.29zM170.91 0h4.31v24.99h-4.31zM110.47 1.39h4.29v4.29h-4.29zM250.01 0h4.31v4.37h-4.31zM262.9 28.39h4.31v4.31h-4.31zM197.42 24.99h69.81V7.66h-4.31V20.7h-8.59V7.66h-4.31V20.7h-23.01L226.97 0h-4.31l.04 20.7h-24.5c-1.82 0-3.54-.28-4.59-1.17-.96-.8-1.29-2.13-1.29-3.94v-5.32h-4.77v5.85c0 2.5.55 4.96 2.06 6.38 1.88 1.79 4.16 2.5 7.83 2.5Z" class="cls-3"/><path d="M212.04 12.1h-4.55v-1.73c0-.65.15-1.15.44-1.5.27-.33.6-.48 1.03-.48h2.38v-2.5h-2.11c-1.36 0-2.42.43-3.16 1.28-.72.82-1.08 2.02-1.08 3.56v3.88h7.06v-2.5ZM153.34 24.99h12.94V0h-4.31v20.67h-8.59V7.63h-4.32v16.8c0 2.13-.58 3.02-2.31 3.02-.54 0-1.04-.05-1.65-.19v4.24c.53.14 1.35.26 2.12.26 4.07 0 5.89-2.03 6.13-6.77ZM103.97 44.88c0-4.08-2.78-8-9.66-8h-9.92v26.48h4.7V52.91h4.67l6.46 10.45h5.29l-6.92-11.1c3.95-1.31 5.39-4.34 5.39-7.38Zm-10.71 3.95h-4.18v-7.57h4.18c3.88 0 5.75 1.08 5.75 3.72 0 3.07-2.29 3.85-5.75 3.85M147.09 45.38c-2.39 0-4.72.61-6.1 1.29l-.55 4.38c1.68-.83 4.29-1.53 6.07-1.53 2.36 0 3.98.55 3.98 2.51v.24c-1.29-.18-2.45-.24-3.37-.24-4.69 0-8.03 1.99-8.03 5.85 0 4.23 3.86 5.73 8.18 5.73 2.54 0 5.33-.49 7.51-1.35V52.21c0-5.02-3.25-6.83-7.69-6.83m3.4 13.88c-.92.31-2.08.49-3.16.49-2.11 0-3.77-.55-3.77-2.14s1.84-2.21 4.01-2.21c.95 0 2.11.15 2.91.37v3.49ZM170.94 45.63c-1.16-.15-2.21-.25-2.97-.25-5.88 0-9.74 4.01-9.74 9.16s3.71 9.07 10.08 9.07c2.48 0 4.81-.31 6.92-.89V38.4h-4.29zm0 13.45c-.95.21-1.84.34-2.67.34-3.37 0-5.54-1.53-5.54-4.87s2.17-4.96 5.54-4.96c.77 0 1.62.09 2.67.37v9.13ZM131.12 58.65c-1.26.37-2.3.46-3.22.46-2.39 0-3.4-.95-3.4-4.11v-9.04h-4.32v10.26c0 5.67 3.12 7.08 7.51 7.08 1.1 0 2.27-.12 3.43-.37v.37c0 2.02-1.87 2.88-4.5 2.88-1.26 0-3.07-.31-4.62-.77v4.1c1.37.35 3.25.62 4.43.62 6.83 0 8.98-2.11 8.98-8.21V45.96h-4.29v12.68ZM219.31 45.38c-2.39 0-4.72.61-6.1 1.29l-.55 4.38c1.68-.83 4.29-1.53 6.07-1.53 2.36 0 3.98.55 3.98 2.51v.24c-1.29-.18-2.45-.24-3.37-.24-4.69 0-8.03 1.99-8.03 5.85 0 4.23 3.86 5.73 8.18 5.73 2.54 0 5.33-.49 7.51-1.35V52.21c0-5.02-3.25-6.83-7.69-6.83m3.4 13.88c-.92.31-2.08.49-3.15.49-2.11 0-3.77-.55-3.77-2.14s1.84-2.21 4.01-2.21c.95 0 2.11.15 2.91.37zM238.25 45.5c-1.87 0-5.09.4-7.75.89v16.97h4.29V50.03c1.23-.21 2.36-.34 3.28-.34 2.54 0 3.86.95 3.86 4.1v9.56h4.29V52.57c0-5.67-3.55-7.08-7.96-7.08ZM259.03 54.66l7.84-8.55h-5.08l-7.78 8.49V38.52h-4.29v24.84h4.29v-8.51l8.12 8.51h5.14zM202.75 49.13c2.51-1.11 3.69-3.36 3.69-5.58 0-3.72-2.97-6.66-9.57-6.66h-9.3v26.48h10.61c4.83 0 9.63-2.22 9.63-7.77 0-2.68-1.5-5.39-5.06-6.46Zm-10.48-7.87h4.31c3.59 0 4.99 1.27 4.99 3.1 0 2.15-1.53 3.2-4.99 3.2h-4.31zm5.25 17.73h-5.25v-7.02h5.12c3.46 0 5.55.75 5.55 3.53 0 2.42-1.73 3.49-5.42 3.49M110.47 46.11h4.29v17.25h-4.29zM110.47 38.38h4.29v4.29h-4.29z" class="cls-3"/></svg>