<svg xmlns="http://www.w3.org/2000/svg" xml:space="preserve" id="Layer_1" x="0" y="0" version="1.1" viewBox="0 0 1000 1000"><style>.st0{fill:#009295}</style><path d="m820.57 451.6.24.17c-6.35-14.53-15.85-31.33-29.66-45.77l-7.87-8.91-8.45 8.91h.01c-14.81 15.48-24.66 33.65-30.99 48.83-12.61 32.2-18.64 67.41-17.44 103.68 9.77-31.97 24.59-67.45 43.73-103.23.35 55.98 4.88 115.27 12.49 160.28 7.64-44.97 12.13-104.21 12.5-160.17 17.3 32.5 32.43 67.39 43.72 103.12 2.08-37.91-4.5-74.11-18.28-106.91" class="st0"/><path d="M724.41 390.25c-18.46 4.48-36.61 10.6-53.71 18.83-4.39 2.13-8.72 4.36-13 6.71-2.14 1.17-4.27 2.39-6.39 3.63-1.05.62-2.12 1.25-3.17 1.9-.83.5-1.99 1.56-2.93 1.78 25.72-5.94 48.64-9.56 79.73-11.76 0 0-8.82 12.36-15.54 37.4-3.76 14.02-3.25 34.2 0 52.12 0 0 6.3-30.55 24.02-64.08 9.7-18.33 22.8-37.54 40.15-53.11-16.56.48-33.05 2.67-49.16 6.58" style="fill:#e6ce9e"/><path d="M841.08 390.25c18.45 4.48 36.61 10.6 53.71 18.83 4.39 2.13 8.72 4.36 12.99 6.71 2.15 1.17 4.28 2.39 6.41 3.63 1.05.62 2.1 1.25 3.17 1.9.82.5 1.98 1.56 2.92 1.78-25.72-5.94-48.64-9.56-79.71-11.76 0 0 8.82 12.36 15.52 37.4 3.76 14.02 3.26 34.2 0 52.12 0 0-6.3-30.55-24.02-64.08-9.68-18.33-22.8-37.54-40.17-53.11 16.57.48 33.08 2.67 49.18 6.58" style="fill:#c7c5c8"/><path d="M111.41 491.8v4.7H92.68c-3.38 0-6.05-.45-8-1.33s-3.37-2.34-4.26-4.37c-.88-2.03-1.33-4.83-1.33-8.4 0-3.49.42-6.26 1.27-8.31.84-2.04 2.23-3.51 4.15-4.41 1.91-.9 4.55-1.35 7.9-1.35 1.61 0 3.84.07 6.67.21 2.85.15 4.9.3 6.2.44v22.82zm-26.21-3.82c.57 1.37 1.51 2.34 2.8 2.93s3.05.89 5.3.89h6.79v-18.4c-2.94-.22-5.27-.33-7-.33-2.18 0-3.9.31-5.17.91-1.27.61-2.18 1.58-2.73 2.92-.55 1.35-.83 3.16-.83 5.44-.01 2.4.26 4.28.84 5.64m2.46-29.61h4.69v5.35h-4.69zm7.4 0h4.64v5.35h-4.64zM124.9 468.87v27.63h-13.48v-4.7h8.23v-22.93zm-8.68 32.04h4.7v5.31h-4.7zm7.41 0h4.64v5.31h-4.64zM132.68 510.08l-1.33-.11v-4.65c1.22.12 2.22.18 2.98.18 1.66 0 2.92-.66 3.77-1.99.84-1.33 1.27-3.18 1.27-5.58v-29.01h5.2v27.9c0 4.35-.75 7.67-2.27 9.98-1.51 2.29-3.79 3.45-6.84 3.45-.86 0-1.78-.05-2.78-.17M163.62 491.8v4.7h-10.49v-39.34h5.24v34.64zM197.93 491.8v4.7h-34.31v-4.7h7.18c-.85-2.11-1.29-5.04-1.29-8.85 0-3.63.45-6.46 1.34-8.47.88-2.01 2.28-3.44 4.21-4.28 1.94-.86 4.63-1.28 8.1-1.28 2.87 0 5.47.13 7.79.4l1.93.21v22.27zm-22.66-3.02c.33 1.24.76 2.24 1.27 3.02h11.11v-18.07c-2.28-.19-3.89-.28-4.81-.28-2.22 0-3.88.31-5.02.94-1.15.62-1.94 1.64-2.39 3.03-.44 1.4-.65 3.37-.65 5.91.01 2.4.16 4.22.49 5.45m.39-30.41h4.7v5.35h-4.7zm7.41 0h4.64v5.35h-4.64z" class="st0"/><path d="M232.67 491.79v4.7h-6.24c-1.81 0-3.66-.21-5.55-.65-1.88-.45-3.67-1.05-5.33-1.83-1.58.78-3.3 1.38-5.19 1.83-1.88.44-3.7.65-5.47.65h-6.96v-4.7h6.78c1.88 0 3.82-.34 5.81-1.04-2.68-2.14-4.83-4.53-6.44-7.16-1.59-2.62-2.44-5.03-2.52-7.2l-.16-4.2a33.3 33.3 0 0 1 6.94-2.87c2.4-.7 4.8-1.05 7.15-1.05 2.36 0 4.76.35 7.21 1.05 2.45.69 4.8 1.65 7.05 2.87l-.22 4.2c-.08 2.17-.92 4.58-2.52 7.2-1.61 2.63-3.77 5.02-6.49 7.16 2.03.7 3.98 1.04 5.85 1.04zm-23.61-9.55c1.56 2.39 3.72 4.45 6.48 6.19 2.81-1.78 5-3.84 6.58-6.21 1.57-2.39 2.37-4.83 2.37-7.38-3.39-1.21-6.37-1.82-8.96-1.82-2.54 0-5.48.61-8.83 1.82.01 2.55.79 5.01 2.36 7.4M244.72 457.16v39.34h-12.04v-4.7h6.79v-34.64zM254.33 457.16h5.25v39.33h-5.25zM311.23 491.8v4.7H292.5c-3.39 0-6.06-.45-8.01-1.33s-3.37-2.34-4.25-4.37c-.89-2.03-1.32-4.83-1.32-8.4q0-5.235 1.26-8.31c.86-2.04 2.24-3.51 4.15-4.41 1.92-.9 4.55-1.35 7.9-1.35 1.61 0 3.84.07 6.68.21 2.84.15 4.9.3 6.18.44v22.82zm-26.21-3.82c.57 1.37 1.49 2.34 2.78 2.93s3.06.89 5.3.89h6.8v-18.4q-4.425-.33-7.02-.33c-2.17 0-3.9.31-5.17.91-1.27.61-2.18 1.58-2.74 2.92-.55 1.35-.82 3.16-.82 5.44.02 2.4.3 4.28.87 5.64m2.46-29.61h4.7v5.35h-4.7zm7.41 0h4.63v5.35h-4.63zM332.94 491.8v4.7h-21.71v-4.7h8.23v-22.93h5.26v22.93zm-16.96 9.11h4.7v5.31h-4.7zm7.4 0h4.64v5.31h-4.64z" class="st0"/><path d="M372.06 491.79v4.7h-2.16c-.65 0-1.37-.21-2.1-.63-.74-.42-1.37-.96-1.89-1.64v2.27h-32.97v-4.7h8.94c-.51-3.01-.76-5.98-.76-8.89 0-2.32.16-4.67.5-7.04.32-2.38.69-4.37 1.1-5.94q1.485-.615 4.11-1.11c1.77-.33 3.65-.5 5.67-.5 4.8 0 8.22 1.12 10.31 3.37 2.08 2.25 3.11 5.9 3.11 10.99v6.85c.41.67.96 1.21 1.64 1.64.68.42 1.45.62 2.34.62h2.16zm-25.49-3.94c.16 1.63.33 2.96.52 3.94h13.59v-9.22c0-3.38-.71-5.83-2.13-7.32s-3.67-2.24-6.76-2.24c-1.59 0-3.14.16-4.64.5-.56 3.39-.83 6.52-.83 9.39 0 1.65.07 3.32.25 4.95" class="st0"/><path d="M393.76 491.8v4.7h-21.71v-4.7h8.23v-22.93h5.25v22.93zm-13.36-33.49h5.02v5.41h-5.02zM415.48 491.8v4.7h-21.72v-4.7H402v-22.93h5.24v22.93zm-16.9-33.43h4.7v5.35h-4.7zm7.4 0h4.63v5.35h-4.63z" class="st0"/><path d="M427.52 457.16v39.34h-12.04v-4.7h6.78v-34.64zM437.13 457.16h5.26v39.33h-5.26zM503.98 469.53v29c0 2.32-.51 4.4-1.55 6.24-1.03 1.85-2.55 3.29-4.59 4.33-2.03 1.05-4.45 1.57-7.28 1.57h-15.53c-2.84 0-5.25-.52-7.26-1.57-2-1.04-3.52-2.48-4.53-4.33-1.02-1.84-1.53-3.94-1.53-6.29 0-3.06.71-8.43 2.12-16.14l4.91.79-.39 2.41c-.37 2.44-.72 4.77-1.03 7-.3 2.23-.47 3.91-.47 5.05 0 2.58.67 4.62 2.02 6.13 1.35 1.52 3.43 2.27 6.27 2.27h15.25c2.82 0 4.93-.75 6.29-2.27 1.36-1.51 2.04-3.53 2.04-6.07v-1.15h-7.61c-2.66 0-4.73-.36-6.22-1.06-1.49-.71-2.58-1.97-3.26-3.81-.67-1.84-1.03-4.53-1.03-8.07 0-3.68.4-6.57 1.2-8.68.79-2.1 2.13-3.63 4.03-4.58 1.89-.96 4.51-1.44 7.87-1.44 1.21 0 2.64.04 4.28.13 1.64.1 2.97.2 4 .32zm-17.46 19.14c.45 1.2 1.14 2.02 2.1 2.46s2.31.67 4.04.67h6.07v-18.01c-1.95-.19-3.49-.28-4.64-.28-2.08 0-3.75.32-4.93.97-1.21.65-2.05 1.68-2.55 3.1s-.74 3.35-.74 5.82c-.01 2.31.21 4.07.65 5.27m1.93-30.3h4.7v5.35h-4.7zm7.41 0h4.64v5.35h-4.64zM527.82 468.18c2.19.23 3.99.5 5.39.8v23.65c0 5.56-.73 9.87-2.18 12.95s-4.17 4.62-8.15 4.62c-1.55 0-4.46-.31-8.74-.89v-4.7c3.61.59 6.39.89 8.35.89 1.25 0 2.26-.23 3.04-.67s1.37-1.32 1.77-2.63c.41-1.31.6-3.21.6-5.72h-7.56c-4.28 0-7.09-1.31-8.44-3.92-1.34-2.61-2.02-5.86-2.02-9.72.04-3.65.43-6.55 1.2-8.72.76-2.19 2-3.77 3.76-4.79 1.75-1.01 4.13-1.52 7.15-1.52 1.69.01 3.63.13 5.83.37m-11.35 21.05c.88 1.71 2.74 2.56 5.58 2.56h5.9v-18.9c-1.81-.25-3.4-.38-4.8-.38-2.98 0-5.06.79-6.22 2.35-1.15 1.56-1.75 4.17-1.8 7.81.01 2.66.45 4.84 1.34 6.56M567.07 491.8v4.7h-28.51v-4.7h17.9v-5.09c0-5.23-1.01-8.92-3.04-11.07s-4.4-3.24-7.13-3.24h-4.81l-.39-3.92c.55-.18 1.46-.37 2.71-.54 1.26-.19 2.43-.29 3.55-.29q3.975 0 7.2 1.92c2.15 1.27 3.88 3.31 5.17 6.11 1.3 2.8 1.94 6.38 1.94 10.77v5.35z" class="st0"/><path d="M588.78 491.8v4.7h-21.71v-4.7h8.24v-22.93h5.24v22.93zm-13.37-33.49h5.02v5.41h-5.02zM627.15 472.59c1.93 2.86 2.9 6.21 2.9 10.04v13.87h-41.27v-4.7h7.84v-22.93h5.19v8.83c1.66-2.05 3.16-3.74 4.51-5.02 1.33-1.29 2.92-2.34 4.72-3.15s3.89-1.21 6.24-1.21c4.64.01 7.93 1.44 9.87 4.27m-25.34 11.75v7.46h23.04v-8.29c0-2.98-.71-5.47-2.15-7.48-1.44-2.02-3.53-3-6.25-3-5.04 0-9.92 3.75-14.64 11.31M78.9 527.7h8.18c1.49 0 2.73.2 3.68.61.96.4 1.73.92 2.28 1.54.57.62.96 1.33 1.18 2.1.21.76.32 1.53.32 2.25 0 .74-.13 1.47-.4 2.15-.25.68-.63 1.32-1.13 1.87-.49.55-1.1 1.03-1.81 1.41-.71.39-1.51.62-2.38.71l6.62 10.61h-3.95l-5.92-10.24h-3.51v10.24H78.9zm3.16 10.25h4.15c.6 0 1.21-.06 1.82-.16.6-.09 1.14-.28 1.61-.53.48-.27.84-.64 1.13-1.14.29-.49.43-1.14.43-1.92 0-.79-.14-1.43-.43-1.93a3 3 0 0 0-1.13-1.13c-.46-.27-1.01-.43-1.61-.55-.61-.1-1.22-.14-1.82-.14h-4.15zM98.97 527.7h15.02v2.96h-11.86v6.92h11.04v2.96h-11.04v7.45h12.44v2.96h-15.6zM126.33 527.7h2.86l9.95 23.25h-3.68l-2.33-5.74h-11.07l-2.3 5.74h-3.68zm5.66 14.74-4.33-10.67h-.06l-4.4 10.67zM142.17 527.7h3.16v20.29H156v2.96h-13.83zM168.35 527.7h15.01v2.96H171.5v6.92h11.04v2.96H171.5v7.45h12.46v2.96h-15.61zM189.11 546.09c.57.85 1.3 1.49 2.18 1.9.89.4 1.81.61 2.74.61.53 0 1.06-.08 1.62-.26.54-.16 1.04-.41 1.49-.73.45-.35.81-.74 1.1-1.22.29-.49.42-1.03.42-1.67 0-.9-.28-1.59-.84-2.06-.58-.47-1.29-.87-2.13-1.18-.83-.31-1.76-.63-2.76-.92q-1.5-.435-2.76-1.23c-.84-.53-1.54-1.24-2.12-2.13-.57-.88-.86-2.07-.86-3.59 0-.67.14-1.4.45-2.16.3-.78.76-1.47 1.39-2.1s1.45-1.16 2.45-1.6c1-.42 2.2-.64 3.6-.64 1.27 0 2.48.18 3.65.53 1.15.34 2.17 1.06 3.05 2.13l-2.56 2.33c-.4-.6-.96-1.1-1.67-1.47-.74-.37-1.54-.55-2.46-.55-.88 0-1.61.11-2.19.34-.58.22-1.04.53-1.4.89-.34.35-.59.76-.73 1.18-.14.41-.22.8-.22 1.14 0 .99.29 1.74.86 2.27.57.52 1.27.94 2.12 1.28.84.33 1.76.63 2.75.89 1 .27 1.93.63 2.76 1.1.85.48 1.55 1.12 2.12 1.91.57.8.86 1.9.86 3.3 0 1.12-.21 2.13-.64 3.02-.43.9-1 1.66-1.73 2.26-.72.62-1.57 1.08-2.56 1.42-.99.33-2.03.49-3.15.49-1.49 0-2.91-.25-4.25-.78q-1.995-.78-3.18-2.43zM211.55 530.65h-7.49v-2.96h18.13v2.96h-7.48v20.3h-3.16zM229.82 527.7h2.86l9.95 23.25h-3.68l-2.33-5.74h-11.07l-2.3 5.74h-3.68zm5.65 14.74-4.33-10.67h-.06l-4.4 10.67zM247.49 530.65H240v-2.96h18.14v2.96h-7.5v20.3h-3.15zM261.48 527.7h15.02v2.96h-11.86v6.92h11.04v2.96h-11.04v7.45h12.45v2.96h-15.61zM290.17 527.7h8.1c1.65 0 3.1.19 4.34.55 1.23.38 2.31.88 3.21 1.5.91.62 1.66 1.34 2.27 2.15.59.81 1.07 1.64 1.43 2.49.35.87.6 1.72.75 2.57.16.84.24 1.63.24 2.36 0 1.5-.29 2.93-.82 4.31a11 11 0 0 1-2.44 3.71c-1.08 1.08-2.41 1.96-4 2.61-1.57.65-3.41.99-5.5.99h-7.58zm3.14 20.29h3.97c1.34 0 2.62-.18 3.8-.54 1.2-.36 2.24-.9 3.14-1.62.89-.73 1.61-1.63 2.14-2.7.53-1.09.79-2.35.79-3.8 0-.76-.12-1.62-.37-2.61s-.7-1.94-1.35-2.84q-1.02-1.35-2.79-2.28c-1.18-.62-2.72-.93-4.6-.93h-4.74v17.32zM315.03 527.7h15v2.96h-11.84v6.92h11.03v2.96h-11.03v7.45h12.44v2.96h-15.6zM331.91 527.7h3.65l6.83 18.92h.07l7.1-18.92h3.45l-9.17 23.25h-2.95zM355.8 527.7h15v2.96h-11.85v6.92h11.03v2.96h-11.03v7.45h12.46v2.96H355.8zM375.87 527.7h3.16v20.29h10.67v2.96h-13.83zM403.6 551.55c-1.77 0-3.41-.32-4.89-.93-1.5-.63-2.77-1.49-3.84-2.59-1.06-1.08-1.9-2.38-2.49-3.87-.59-1.48-.91-3.1-.91-4.83s.31-3.33.91-4.82 1.43-2.78 2.49-3.88c1.07-1.1 2.34-1.96 3.84-2.58 1.47-.62 3.12-.93 4.89-.93s3.41.31 4.89.93c1.5.62 2.76 1.49 3.84 2.58 1.06 1.1 1.9 2.39 2.5 3.88.59 1.49.9 3.09.9 4.82s-.31 3.35-.9 4.83c-.61 1.49-1.44 2.78-2.5 3.87-1.08 1.11-2.34 1.96-3.84 2.59-1.48.61-3.12.93-4.89.93m0-2.96c1.33 0 2.54-.24 3.61-.73 1.08-.5 2-1.16 2.76-2 .78-.83 1.35-1.8 1.77-2.95.41-1.12.62-2.31.62-3.59 0-1.26-.21-2.47-.62-3.59-.42-1.13-1-2.12-1.77-2.95a8.4 8.4 0 0 0-2.76-1.97c-1.07-.5-2.28-.76-3.61-.76s-2.54.26-3.61.76c-1.08.48-2 1.14-2.76 1.97-.77.83-1.35 1.82-1.77 2.95-.41 1.12-.62 2.33-.62 3.59 0 1.28.21 2.47.62 3.59.42 1.14 1 2.12 1.77 2.95s1.69 1.5 2.76 2c1.07.48 2.28.73 3.61.73M420.26 527.7h8.17c1.49 0 2.72.2 3.68.61.98.4 1.73.92 2.28 1.54.57.62.96 1.33 1.17 2.1.21.76.32 1.53.32 2.25s-.11 1.47-.32 2.24c-.22.8-.61 1.48-1.17 2.12-.55.61-1.31 1.13-2.28 1.53-.96.41-2.19.62-3.68.62h-5.02v10.24h-3.15zm3.15 10.25h4.13c.62 0 1.22-.06 1.83-.16.6-.09 1.14-.28 1.62-.53.46-.27.84-.64 1.12-1.14.3-.49.43-1.14.43-1.92 0-.79-.13-1.43-.43-1.93-.28-.49-.65-.86-1.12-1.13-.48-.27-1.02-.43-1.62-.55-.61-.1-1.2-.14-1.83-.14h-4.13zM439.5 527.7h4.7l7.39 17.6h.14l7.32-17.6h4.7v23.25h-3.16v-19.12h-.07l-7.85 19.12h-2.1l-7.85-19.12h-.06v19.12h-3.16zM469.49 527.7h15.01v2.96h-11.85v6.92h11.04v2.96h-11.04v7.45h12.45v2.96h-15.61zM489.57 527.7h4.13l12.82 19.12h.06V527.7h3.15v23.25h-4l-12.95-19.12h-.06v19.12h-3.15zM520.58 530.65h-7.5v-2.96h18.14v2.96h-7.49v20.3h-3.15zM543.7 527.7h14.62v2.96h-11.46v7.29h10.67v2.95h-10.67v10.05h-3.16zM565.29 527.7v14.25c0 .73.1 1.47.29 2.25.2.79.52 1.49.98 2.16.46.64 1.07 1.18 1.81 1.61.75.41 1.67.62 2.76.62 1.1 0 2.02-.21 2.76-.62.74-.42 1.34-.96 1.8-1.61.46-.67.8-1.37 1-2.16.2-.78.3-1.52.3-2.25V527.7h3.15v14.74c0 1.37-.23 2.59-.7 3.7-.45 1.11-1.07 2.07-1.89 2.87-.81.82-1.78 1.44-2.85 1.88-1.1.43-2.29.64-3.56.64-1.26 0-2.45-.21-3.55-.64-1.1-.45-2.05-1.06-2.86-1.88-.81-.8-1.45-1.76-1.9-2.87-.46-1.11-.69-2.34-.69-3.7V527.7zM585.69 527.7h4.14l12.8 19.12h.07V527.7h3.16v23.25h-4.02l-12.93-19.12h-.07v19.12h-3.15zM611.32 527.7h8.1c1.65 0 3.1.19 4.33.55 1.23.38 2.32.88 3.23 1.5s1.66 1.34 2.26 2.15c.61.81 1.08 1.64 1.43 2.49.35.87.61 1.72.76 2.57.15.84.23 1.63.23 2.36 0 1.5-.28 2.93-.82 4.31-.54 1.39-1.35 2.63-2.43 3.71s-2.41 1.96-4 2.61-3.41.99-5.5.99h-7.58V527.7zm3.14 20.29h3.97c1.34 0 2.62-.18 3.8-.54 1.19-.36 2.24-.9 3.14-1.62.9-.73 1.61-1.63 2.14-2.7.52-1.09.79-2.35.79-3.8 0-.76-.12-1.62-.36-2.61-.25-.99-.7-1.94-1.37-2.84s-1.6-1.66-2.77-2.28c-1.19-.62-2.72-.93-4.6-.93h-4.74z" class="st0"/></svg>