<svg xmlns="http://www.w3.org/2000/svg" xml:space="preserve" viewBox="0 0 841.89 841.89"><path d="M753.926 395.751c9.027 5.203 17.821 10.267 26.611 15.337 6.485 3.741 12.999 7.434 19.443 11.246 11.762 6.958 18.586 17.319 20.846 30.732.247 1.467.255 2.986.257 4.481.018 14.997.068 29.995-.009 44.992-.052 10.173-3.892 18.931-10.435 26.592-3.507 4.106-7.841 7.136-12.496 9.799a5310 5310 0 0 0-34.157 19.703c-7.475 4.349-15.522 6.34-24.123 5.881-6.303-.337-12.331-1.962-17.828-5.107a5440 5440 0 0 1-43.861-25.355c-2.138-1.25-3.726-1.5-6.053-.129-14.262 8.403-28.662 16.572-42.993 24.858-7.413 4.286-15.402 6.181-23.91 5.736-7.368-.386-14.104-2.848-20.453-6.566-11.557-6.769-23.272-13.273-34.741-20.187-13.555-8.171-20.86-20.252-21.057-36.211-.177-14.329-.034-28.661-.038-42.992-.003-10.251 3.537-19.185 10.041-27.01 3.394-4.083 7.563-7.196 12.155-9.831 14.357-8.241 28.656-16.584 43.032-24.793 1.552-.886 1.976-1.873 1.971-3.54-.051-16.997-.259-33.998.037-50.99.267-15.308 6.954-27.465 20-35.583 10.448-6.502 21.273-12.397 31.942-18.541 2.811-1.618 5.623-3.243 8.508-4.721 4.564-2.339 9.441-3.535 14.558-4.044 9.472-.944 18.098 1.405 26.227 6.119 11.37 6.594 22.72 13.223 34.166 19.682 9.382 5.295 15.982 12.889 19.806 22.925a38.5 38.5 0 0 1 2.534 13.652c.056 16.997.022 33.994.022 50.991-.002.908-.002 1.818-.002 2.874M674.88 505.613c.336-.093.424-.099.493-.139 14.409-8.304 28.921-16.436 43.182-24.986 7.868-4.717 12.032-11.982 12.038-21.352.01-15.907-.021-31.815.038-47.722.006-1.614-.468-2.509-1.904-3.33-13.789-7.88-27.466-15.958-41.307-23.745-8.33-4.686-16.904-4.495-25.209.227-13.589 7.727-27.086 15.617-40.666 23.361-1.568.894-2.173 1.857-2.164 3.69.077 15.657.057 31.315.04 46.972-.011 10.073 4.59 17.468 13.089 22.576 3.776 2.27 7.631 4.41 11.449 6.612zm-78.784-83.011c-1.113.591-1.776.917-2.415 1.286-10.372 5.994-20.699 12.068-31.125 17.966-6.944 3.928-10.521 9.817-10.593 17.681-.127 13.747-.109 27.496-.006 41.243.057 7.595 3.499 13.404 10.087 17.23 12.086 7.019 24.16 14.059 36.323 20.943 5.995 3.392 12.33 3.534 18.346.175 11.184-6.244 22.214-12.767 33.301-19.184.449-.26.836-.63 1.352-1.025-.675-.457-1.136-.814-1.637-1.102-9.445-5.437-18.877-10.895-28.348-16.286-7.612-4.332-13.769-10.146-18.297-17.649-4.757-7.883-6.982-16.47-6.988-25.652-.007-10.832-.002-21.663-.002-32.495.002-.906.002-1.811.002-3.131m102.414 96.322c.878.587 1.525 1.074 2.221 1.476q15.884 9.157 31.783 18.289c6.453 3.706 13.021 3.756 19.439.111 12.219-6.939 24.367-14.006 36.494-21.105 6.332-3.707 9.553-9.418 9.615-16.697.118-13.907.139-27.817-.008-41.723-.08-7.547-3.47-13.341-10.137-17.154-9.384-5.366-18.715-10.825-28.075-16.232-1.843-1.065-3.718-2.075-5.914-3.297v3.097c0 11.16.027 22.319-.022 33.479-.01 2.234-.135 4.495-.499 6.695-2.503 15.143-10.179 26.866-23.393 34.803-5.773 3.467-11.65 6.762-17.478 10.136-4.599 2.66-9.194 5.323-14.026 8.122m-79.084-136.652c.998-.501 1.658-.794 2.281-1.152 9.664-5.544 19.262-11.206 28.997-16.621 16.119-8.966 32.421-8.873 48.542-.111 9.859 5.358 19.458 11.194 29.179 16.805.61.352 1.272.616 2.047.987.056-.707.117-1.118.117-1.53.005-13.157.012-26.314-.011-39.472-.002-.903-.156-1.821-.355-2.706-1.285-5.692-4.617-9.857-9.623-12.741-11.887-6.847-23.764-13.712-35.676-20.516-6.623-3.783-13.303-3.699-19.927.057-3.544 2.009-7.062 4.063-10.589 6.101-8.567 4.949-17.193 9.801-25.68 14.883-6.076 3.638-9.292 9.113-9.299 16.304-.011 12.241-.003 24.482-.003 36.724zM161.118 409.523c-.065-3.356-.059-6.591-.22-9.818-.074-1.472-.289-2.991-.763-4.379-1.979-5.793-8.334-7.837-13.372-4.38-.542.372-1.053.789-1.758 1.32l-6.989-5.786c2.696-3.007 5.993-4.565 9.72-5.276 4.347-.83 8.623-.487 12.658 1.389 5.997 2.787 9.305 7.648 10.146 14.115.373 2.871.321 5.802.373 8.707.064 3.591.572 4.158 4.164 4.305.327.013.652.077 1.27.153.026 1.303.063 2.605.076 3.907.013 1.325.003 2.65.003 3.927-1.841.61-93.007.837-97.421.256V389.7c-7.473-2.215-13.414 2.025-13.557 9.538-.103 5.414-.017 10.832-.027 16.248-.002.814-.069 1.629-.113 2.603-.953.045-1.763.116-2.573.116q-11.874.011-23.748.004c-9.993-.005-17.623-7.707-17.9-17.96-.126-4.655 1.028-8.884 3.891-12.599q.305-.394.662-.742c.114-.111.283-.164.697-.393l6.737 5.553c-.646 1.675-1.494 3.228-1.833 4.884-.831 4.055-.179 7.877 3.063 10.734 1.118.985 2.754 1.864 4.187 1.921 5.565.22 11.144.09 17 .09.038-1 .077-1.88.104-2.76.112-3.737-.137-7.526.401-11.199 1.189-8.117 7.568-14.044 15.692-14.639 5.3-.388 10.637-.27 15.958-.363.312-.005.627.127 1.201.252v28.555h33.31c-.198-4.089-.232-8.141-.634-12.157-.388-3.88-3.012-7.334-7.658-8.029-2.268-.339-4.278.248-6.141 1.472-.553.363-1.035.833-1.811 1.468l-7.033-5.818c2.607-2.916 5.706-4.492 9.184-5.192 5.755-1.158 11.271-.492 16.163 3.031 4.786 3.447 7.066 8.284 7.346 14.085.125 2.577-.022 5.166.037 7.748.053 2.281 1.167 3.527 3.285 3.537 8.499.04 16.999.014 25.498-.001.314.001.629-.141.725-.164M424.451 409.094c1.902.726 10.203.885 13.368.311-.298-.704-.605-1.369-.866-2.051-2.585-6.756-2.096-13.191 2.042-19.231 1.896-2.767 4.498-4.678 7.577-5.89 4.813-1.894 9.75-2.031 14.608-.291 6.077 2.176 10.012 6.444 11.407 12.813 1.347 6.152.519 11.929-3.543 16.96-3.326 4.119-7.746 6.355-12.983 6.446-9.576.166-19.158.039-28.737.054-2.409.004-4.312-1.019-5.918-2.722-.338-.358-.663-.729-1.198-1.319-3.928 4.145-8.969 4.118-14.127 4.073-12.744-.113-25.489-.046-38.234-.027-1.823.003-3.633.086-5.156-1.293-1.93 11.44-7.386 16.462-18.916 17.418v-8.059c.406-.156.914-.42 1.454-.548 4.535-1.075 7.222-4.323 7.352-9.083.08-2.913.017-5.831.017-8.746v-23.554h9.997v2.735q-.001 9.496.002 18.992c0 .583-.038 1.174.043 1.746.157 1.099.703 1.868 1.937 1.871 3.398.006 6.797.002 10.437.002v-24.367c3.083-.214 5.933-.139 9.038-.051v8.424c1.502-.697 2.241-1.701 3.044-2.559 2.721-2.908 5.928-5.128 9.585-6.617 6.371-2.594 12.889-3.246 19.322-.344 5.916 2.669 9.077 7.486 10.123 13.861.546 3.33.034 6.428-1.187 9.489-.183.456-.297.937-.488 1.557m-38.407.278c.217.129.349.278.482.278 7.488.024 14.979.137 22.465.007 3.705-.064 6.317-2.505 7.169-6.158.757-3.244.158-6.29-1.664-9.038-1.818-2.742-4.623-3.85-7.748-3.667-3.534.207-6.781 1.533-9.671 3.629-4.991 3.619-8.248 8.587-10.876 14.036-.134.277-.112.63-.157.913m59.382-9.927c-.001 2.703.46 4.418 1.416 6.226 2.838 5.363 11.384 5.314 14.343.747 2.621-4.045 2.933-8.221.768-12.483-2.695-5.304-9.706-6.261-13.883-2.006-2.062 2.102-2.762 4.66-2.644 7.516M280.842 386.336l7.042 5.793c-.518 1.14-1.083 2.147-1.447 3.222-1.531 4.524-1.042 8.75 2.458 12.186 1.055 1.036 2.699 1.961 4.124 2.042 4.54.258 9.104.096 13.9.096-.355-.866-.621-1.454-.841-2.06-2.763-7.599-2.197-14.707 3.261-21.008 2.355-2.719 5.396-4.389 8.907-5.159 6.603-1.449 12.716-.558 17.987 3.976 2.794 2.403 4.605 5.475 5.406 9.049 1.389 6.205.65 12.059-3.445 17.171-3.307 4.128-7.697 6.439-12.947 6.516-10.827.158-21.659.165-32.486.011-8.757-.125-16.305-7.641-16.82-16.39-.269-4.576.204-8.99 2.908-12.89.559-.808 1.208-1.555 1.993-2.555m33.583 13.238c-.174 2.07.452 4.206 1.603 6.18 2.666 4.571 9.32 5.483 13.152 1.836 3.696-3.517 4.364-10.177 1.448-14.443-2.121-3.103-5.688-4.473-9.344-3.589-4.248 1.028-6.83 4.704-6.859 10.016M296.175 504.168l-.51 1.737h-9.595v-56.679h9.852v20.771c.69-.354 1.059-.497 1.378-.714 6.025-4.103 14.728-2.949 20.141 1.157 5.581 4.234 8.573 9.851 8.476 16.939-.143 10.477-7.829 17.994-15.873 19.496-4.264.797-8.46.627-12.27-1.857-.477-.31-1.009-.539-1.599-.85m19.826-18.252c-.311-1.023-.646-3.111-1.549-4.915-3.191-6.37-11.836-6.886-15.719-2.232-3.353 4.018-3.801 8.501-2.068 13.273 2.703 7.445 11.806 7.617 15.839 3.706 2.468-2.393 3.353-5.442 3.497-9.832M221.812 409.707c3.221 0 6.383-.004 9.546.001 1.921.003 3.208-.946 3.692-2.749.34-1.265.519-2.612.524-3.923.04-10.998.023-21.996.023-32.993v-2.841h9.303c.064.629.184 1.262.185 1.896q.018 17.746.004 35.493c-.002 2.427-.262 4.828-1.289 7.062-1.926 4.192-5.317 6.315-9.84 6.525-3.242.151-6.5.1-9.745-.009-1.116-.037-2.217-.52-3.49-.84-.727 5.072-2.552 9.664-6.744 13.043-3.528 2.845-7.609 3.894-12.206 4.041v-8.129c.58-.173 1.261-.422 1.963-.579 3.224-.724 5.329-2.739 6.26-5.816.545-1.8.873-3.735.891-5.613.09-8.997.04-17.996.04-26.994v-2.895h9.54c.042.893.118 1.778.119 2.663q.016 9.374.001 18.746c-.003 1.349-.006 2.679 1.223 3.911M360.673 470.012l.477-1.852h9.359c.527 1.931.737 31.991.26 37.762-1.574.04-3.192.096-4.811.117-1.575.02-3.151.004-4.762.004l-.451-1.796c-.278.044-.565.006-.738.129-11.546 8.173-29.079-1.347-29.112-16.978-.017-8.065 3.239-14.202 10.219-18.092 6.13-3.417 12.456-3.784 18.624.193.257.17.541.3.935.513m-19.992 16.978.257.052c0 .582-.036 1.167.006 1.746.326 4.469 3.343 8.147 7.527 9.197 4.341 1.089 8.691-.594 10.953-4.479 1.986-3.41 2.133-7.1.988-10.843-1.231-4.026-4.935-6.847-9.071-6.951-4.503-.113-8.183 2.278-9.631 6.456-.534 1.541-.697 3.211-1.029 4.822M61.864 470.118l.426-1.935h9.491v37.678h-9.376l-.647-1.911c-5.24 3.924-10.985 4.239-16.839 2.122-5.911-2.138-9.948-6.459-11.847-12.369-2.602-8.097-1.033-15.507 5.136-21.555 3.158-3.096 7.101-4.749 11.583-5.285 4.465-.535 8.338.726 12.073 3.255m.544 16.987c-.435-1.838-.665-3.756-1.348-5.497-1.403-3.579-4.296-5.471-8.02-5.846-3.611-.364-6.751.834-8.891 3.914-2.62 3.77-2.853 7.88-1.346 12.122 1.319 3.71 4.015 5.888 7.887 6.362 4.248.52 7.706-.929 9.911-4.763 1.099-1.912 1.615-3.997 1.807-6.292M155.914 469.671l.384-1.471h9.352c.541 1.648.739 33.872.201 37.679h-9.493l-.487-1.619c-.218.041-.491.015-.658.136-9.846 7.125-26.021.941-28.708-13.384-1.364-7.271.428-13.768 5.921-18.866 4.846-4.497 10.676-6.362 17.246-4.945 2.065.445 3.986 1.556 6.242 2.47m-9.648 28.54c4.476-.001 7.773-2.373 9.282-6.563 1.116-3.1 1.119-6.155.015-9.252-1.358-3.811-4.051-6.141-8.003-6.603-3.981-.465-7.38.852-9.633 4.425-1.574 2.497-2.099 5.267-1.794 8.122.749 7.024 5.403 10.037 10.133 9.871M196.581 449.147h9.467c.015 3.398.036 6.773.044 10.149.008 3.327.002 6.653.002 10.258.678-.321 1.196-.492 1.632-.784 7.106-4.757 19.805-.93 22.17 9.072.532 2.249.937 4.58.984 6.882.131 6.494.048 12.993.041 19.49-.001.488-.071.975-.123 1.644h-9.73c-.045-.821-.131-1.694-.133-2.567-.012-6.081.025-12.161-.029-18.241a23 23 0 0 0-.497-4.44c-.571-2.728-2.339-4.316-5.077-4.816-4.264-.78-7.894 1.604-8.702 5.837a29.7 29.7 0 0 0-.514 5.194c-.064 5.497-.024 10.995-.024 16.492v2.582h-9.512zM425.083 449.145h9.464c.015 3.49.036 6.951.044 10.411.008 3.582.002 7.165.002 10.747v10.931c.777-.576 1.301-.876 1.715-1.286 3.314-3.284 6.65-6.548 9.887-9.906 1.358-1.409 2.78-2.141 4.811-2.039 3.221.163 6.457.043 9.932.488l-15.911 15.513 17.341 22.042c-2.51 0-4.462.023-6.414-.007-1.907-.029-4.062.419-5.646-.326-1.488-.7-2.386-2.673-3.517-4.107-2.825-3.587-5.635-7.186-8.591-10.96-1.11 1.087-2.204 1.992-3.068 3.079-.408.513-.5 1.374-.516 2.083-.059 2.498-.023 4.998-.023 7.498v2.588h-9.51zM380.78 468.057c2.935 0 5.751-.059 8.56.052.523.021 1.02.722 1.425 1.03 1.889-.674 3.846-1.592 5.904-2.068 6.674-1.542 16.465 2.665 17.888 12.526.166 1.148.394 2.302.403 3.455.056 7.408.061 14.817.073 22.226 0 .15-.113.301-.237.609h-9.58c-.04-.901-.112-1.783-.114-2.664-.01-6.163.033-12.326-.032-18.488a21 21 0 0 0-.591-4.673c-.532-2.194-2.008-3.517-4.251-4.074-4.62-1.147-8.334 1.058-9.295 5.718a24.6 24.6 0 0 0-.485 4.692c-.057 5.579-.022 11.16-.022 16.74v2.693h-9.646zM167.535 525.953v-7.791c1.981-.967 3.928-1.571 5.448-2.733 2.858-2.186 3.623-5.421 3.619-8.895-.014-11.814-.005-23.629-.005-35.443v-2.868h9.689c.05.803.134 1.529.135 2.255.008 12.563.074 25.127-.017 37.689-.065 8.97-7.134 16.862-16.879 17.863-.566.058-1.146-.04-1.99-.077M81.755 449.046h9.691v56.787h-9.691zM253.774 367.14h9.384c.539 1.72.696 47.502.135 51.071h-9.519zM197.924 418.1h-9.068c-.527-1.7-.704-47.138-.177-50.898h9.246zM110.593 506.078h-9.83c-.061-.818-.159-1.539-.16-2.261-.012-6.656-.09-13.314.038-19.967.044-2.295.364-4.652.998-6.853 1.374-4.773 4.636-7.787 9.484-8.942 3.817-.909 7.673-1.288 11.676-.318v8.222c-1.194.03-2.326.05-3.457.089-1.079.038-2.165.032-3.235.158-3.768.445-5.484 2.402-5.505 6.355-.033 6.406-.009 12.813-.009 19.219zM240.863 468.192h9.426v37.68h-9.25c-.549-1.64-.735-33.832-.176-37.68M245.529 461.21c-3.68-.003-6.131-2.427-6.098-6.032.031-3.35 2.662-5.889 6.038-5.983 3.105-.086 6.22 2.597 6.226 6.044.005 3.082-2.844 6.48-6.166 5.971M181.578 461.21c-3.512.522-6.358-3.147-6.188-5.962.203-3.372 2.652-5.988 6.006-6.035 3.612-.051 6.179 2.421 6.196 5.966.018 3.761-2.234 6.02-6.014 6.031M39.747 437.709c-3.327-.005-5.665-2.33-5.65-5.619.015-3.275 2.382-5.567 5.725-5.543 3.062.022 5.553 2.463 5.601 5.49.049 3.101-2.529 5.677-5.676 5.672M61.425 432.033c.041 3.228-2.36 5.656-5.611 5.676-3.177.02-5.732-2.488-5.715-5.61.016-3.019 2.486-5.501 5.525-5.551 3.285-.054 5.761 2.287 5.801 5.485M307.592 374.035c-.071 3.275-2.37 5.284-5.924 5.174-3.108-.095-5.355-2.547-5.237-5.713.115-3.067 2.61-5.429 5.663-5.457 3.11-.028 5.86 2.609 5.498 5.996M159.593 432.096c.44 2.987-2.678 5.859-5.536 5.658-3.18-.223-5.654-2.556-5.624-5.727.029-3.057 2.458-5.294 5.561-5.521 3.138-.229 6.048 2.889 5.599 5.59" style="fill:#221afb"/></svg>