<svg xmlns="http://www.w3.org/2000/svg" viewBox="0 0 1033.5 283.3"><defs><style>.cls-1{fill:#026c68}.cls-2{fill:#7ebc00}.cls-3{fill:#88b925}</style></defs><g id="Layer_1"><path d="M28.5 164.3c0 3.7-1.6 5.1-5.7 5.1h-6.1c-4 0-6.8-1-8.4-2.8-1.4-1.7-2-4.4-1.4-7.8l1.7-11.7H1.8L.2 157.6h.1c-.8 6.1.3 11.2 3.4 14.7 3 3.4 7.4 5.1 13 5.1h6.1c7.9 0 12.7-5 12.7-13v-26.6h-7.1v26.6Z" class="cls-1"/><path d="M14.3 134.4h7.5v8.1h-7.5zM188.4 154.8c0 1.4-.3 2.4-1 2.8-.7.6-1.8.7-3.7.3l-4.8-1c-2.4-.6-2.8-1.3-2.8-3v-14.7H169v15.9c-.3.8-1 1.6-4.2 1.6h-2.3c-4 0-5.7-1.4-5.7-5.1v-11h-7.1v11c0 1 0 2.1.3 3.3-1.4 1.1-3.7 1.8-6.4 1.8h-5.8c-2.3 0-3.4-.3-4-.8v-2.7c0-11-6.4-17.4-17.4-17.4H81v-1c0-2.8.8-4.4 3.4-6.2l11.2-7.9-3.4-5.9-11.3 7.9c-4.1 2.8-6.1 6.8-6.1 12v8.2h41.6c7.2 0 10.5 3.1 10.5 10.3v1.8c0 1.3-.3 1.7-2.1 1.7H53.2c-2 0-2.7-.4-2.7-3.1v-40.1h-7.1v40.1c0 6.8 3.8 11 9.8 11h71.6c3.7 0 5.9-1.6 7.1-3.1 1.4 2.1 3.4 3.1 5.9 3.1h5.8c4 0 6.9-1.3 9.1-3.8 2.3 2.5 5.5 3.8 9.6 3.8h2.3c2.8 0 5.2-1 6.8-3.1 1.4 1.6 3.3 2.5 5.5 3.1l4.8 1c1.1.3 2.3.4 3.3.4 2.3 0 4.4-.7 5.9-2 2.5-2 3.8-5.4 3.8-9.3v-19.1h-7.1v19.1h.7ZM210.1 175.7c0-2.5.8-3.5 3-3.5h4.1v-4.1h-4.1c-4.2 0-6.8 2.8-6.8 7.6v.3h-2v4.1h13.6V176h-7.8zM228.2 154.2c0 1.3-.4 2.5-3.1 2.5h-24.6v8.1h24.6c6.1 0 10.1-4.2 10.1-10.6v-40.9h-7.1v40.9z" class="cls-1"/><path d="m219 153.5-6.8-32-6.8 1.9 6.2 30.1zM245.2 113.6h7.1v51.2h-7.1zM273.2 134.5h-.4c-8.1 0-13.6 5.7-13.6 14.2v1.8c0 8.5 5.7 14.3 14 14.3h6.5v.7c0 2.4-.6 3.1-4.8 4l-13.9 3.1 1.6 6.9 13.9-3.1c4.4-.8 10.2-3 10.2-11v-16.8c0-8.5-5.5-14.2-13.6-14.2h.1Zm-6.9 14.2c0-4.2 2.3-6.7 6.5-6.7h.4c4.2 0 6.5 2.3 6.5 6.7v8.5h-6.5c-4.4 0-6.9-2.4-6.9-6.7zM358.4 156.8h-33.3c-6.2 0-8.9-2.5-8.9-8.4v-9.8h-7.1v9.8c0 10.3 5.9 16.4 16 16.4h40.2v-30.4h-7.1v22.4h.1Z" class="cls-1"/><path d="M339.7 129.6h7.1v8.1h-7.1zM330.4 129.6h7.2v8.1h-7.2zM399.6 170.8h7.1v8.1h-7.1zM390.1 170.8h7.2v8.1h-7.2zM403 155.1v-20.7h-7.1v20.7c0 1.3-.3 1.7-2.3 1.7h-10.2c-2 0-2.7-.4-2.7-3.1v-40.1h-7.1v40.1c0 6.8 3.8 11 9.8 11h10.2c6.8 0 9.3-5.1 9.3-9.8ZM470.7 171.2h7.5v8.1h-7.5zM494.9 154.2c0 1.3-.4 2.5-3.1 2.5h-7.9c-4 0-5.7-1.4-5.7-5.1v-11h-7.1v11c0 1.1 0 2.1.3 3-1.3 1.4-3.4 2.1-6.2 2.1H460c-3.4 0-5.1-.6-5.8-1.8v-41.6h-7.1v40.9c0 1.3-.4 2.5-3.1 2.5h-5c-2.8 0-4.5-.4-5.5-1.4 0-1.3 0-2.7-.4-4.2l-1.8-7.8c-1.6-6.8-5.8-10.3-12-10.3h-7.8v8.1h7.8c3.3 0 4.7 1.1 5.4 4.1l1.8 7.8c.3 1.3.3 2.1-.3 2.7-.6.7-1.7 1-3.7 1h-14.9v8.1h14.9c3.8 0 7.1-1.4 8.9-4 1.6 2.5 4.1 4 7.5 4h5c3.5 0 6.7-1.6 8.4-4.2 1.6 2.8 4.2 4.2 7.6 4.2h5.2c4 0 6.9-1.3 9.2-3.7 2.3 2.4 5.5 3.7 9.5 3.7h7.9c6.1 0 10.2-4.2 10.2-10.6v-40.9h-7.1v40.9zM511.9 113.6h7.1v51.2h-7.1zM558 119.2h7.1v8.1H558zM548.7 119.2h7.2v8.1h-7.2zM571.7 148.8l-.6-3.1c-1.6-7.8-5.7-11.5-12.9-11.5h-11.5l-3.1 16.3c-.8 4 0 7.5 2 10.1 2.1 2.5 5.5 4 9.6 4h4.1c4.1 0 7.6-1.6 9.9-4.2 2.4-3 3.3-7.1 2.4-11.6Zm-7.7 7c-1 1.1-2.4 1.7-4.4 1.7h-4.1c-2.1 0-3.4-.4-4.2-1.4-.7-.8-.8-2.3-.6-4.1l2.1-10.5h5.7c3.8 0 5.1 1.3 5.9 5.7l.6 3c.4 2.4.1 4.4-.8 5.7h-.1ZM581.4 165c0 3-1.1 4.5-3.8 5.7l-6.2 2.4 2.7 6.7 6.1-2.4c5.5-2.1 8.4-6.2 8.4-12.3v-28.6h-7.1v28.6ZM596.2 113.6h7.1v51.2h-7.1zM614.5 120.8h7.5v8.1h-7.5zM615.3 165c0 3-1.1 4.5-3.8 5.7l-6.2 2.4 2.7 6.7 6.1-2.4c5.5-2.1 8.4-6.2 8.4-12.3v-28.6h-7.1v28.6ZM641.5 134.5h-.4c-8.1 0-13.6 5.7-13.6 14.2v1.8c0 8.5 5.7 14.3 14 14.3h6.5v.7c0 2.4-.6 3.1-4.8 4l-13.9 3.1 1.6 6.9 13.9-3.1c4.4-.8 10.2-3 10.2-11v-16.8c0-8.5-5.5-14.2-13.6-14.2h.1Zm-6.9 14.2c0-4.2 2.3-6.7 6.5-6.7h.4c4.2 0 6.5 2.3 6.5 6.7v8.5h-6.5c-4.4 0-6.9-2.4-6.9-6.7z" class="cls-1"/><path d="M879.6 283c-84.9 0-153.9-69.2-153.9-153.9l1.3-21.2h24.1V75.6h2.7v-5.1h11.5l3.4 5.5h6.1v41.1h4.8v5.8h1.8v-33h19.3v8.5h6.4v15.9H818V98.9h14.6l5.1 6.7v17.6h29.7v4.4h-34.3v-20.5l-2.8-3.7h-7.8v20.7h-6.1v-5.2h-13.6V103h-6.4v-8.5h-10.5v33.1h-10.6v-5.8h-4.8V80.7h-4l-3.4-5.5h-4.7v5.1h-2.7v32.4h-24.2l-.8 17c0 82.2 67.1 149.2 149.5 149.2s149.2-66.7 149.5-148.6h-15.6v-26.2h-9.2V90.5h-10.5v-5.8h-12.9v4l-2.7 2.8v24.2h-13.2v-18l-3.4-3.7h-6.9v-6.1h-8.1v39.8h-13.3V113H922v14.7h-31.4v-4.4h26.9v-14.7h20.7v14.7h4.4V83.5h17.1v6.1h4.8l5.7 6.4v15.4h4V89.7l2.7-2.8v-6.7h21.8V86h10.5v13.6h9.1v26.2h15.3v4c.1 84.7-68.9 153.6-153.7 153.6" class="cls-3"/><path d="M821.3 221.2c-1.3 0-2.5.3-3.7.8-3.1 2.3-4.2 6.7-2.3 10.1.8 1.7 2.5 2.7 4.8 3.4.7 0 1.3.1 2.3.1 9.3 0 17.7-5.8 24.6-11.3l1.3-1 .8 1.3c3.1 5.2 8.8 9.2 14.6 10.3h1.3c4 0 8.8-2 9.6-6.4.6-3.1-1.3-6.7-4.4-8.2-1.8-.7-4.2-.7-7.5.7-.7.3-1 1.3-1.3 2.7-.3 1.3-.8 3.7-3.1 3.7s-4.2-1.3-5.2-3.1c-.6-1-.6-2.1 0-3 4.8-7.2 11.2-12.5 17.1-17.1 2.8-2.3 5.7-4.7 8.4-7.1l1-.8 1 .8q4.05 3.75 8.4 6.9c6.4 5.1 13.2 10.3 17.1 18 .1.3.6 1 .1 1.8-.6 1.3-3.1 3.7-5.1 4-1.3.1-2-.1-2.3-.6-.7-.7-.7-1.8-.7-2.5s0-1.3-.1-1.7c-.8-1.8-2.8-2.3-4.8-2.8-3.5-.8-7.6 2-8.5 5.8-.3 1.8 0 3.5.8 5.1 2.1 2.7 4.8 4 7.9 4 6.4 0 13.3-5.2 16.6-10.5l.8-1.3 1.3 1c6.4 5.1 14.7 10.9 23.1 10.9s4.4-.3 6.7-1.3c1.3-.7 2.7-2.1 3.1-4 .6-2 .1-4-.8-5.5-1.3-2.1-3.7-3.1-6.1-3.1s-5 1.3-6.1 3.1l-.7 1-1-.3c-4.2-1.7-9.6-4-12.2-8.8-1-1.7-.6-4 .3-5.5.8-1.7 1.8-2 2.5-2s.7 0 .8.1c2.1 1.3 4.2 2 6.1 2 3.5 0 6.4-2.1 7.2-5.7.3-1.8 0-3.5-1-5.2s-2.8-2.8-4.8-3.4h-1.3c-3.4 0-6.7 1.7-8.8 4.2-1.3 1.7-2 3.7-2.7 5.8-.6 2-1.3 3.7-2.3 5.5l-.8 1.3-26.6-24.6 1-1c28.7-27.6 67.4-37.4 98.9-40.3-4-.3-8.2-.6-12.2-.6-35 0-67.8 12-92.7 33.8l-.8.7-.8-.7c-12.9-9.6-30.6-21.5-50.7-27.3-18.8-5.5-37.7-7.6-55.6-6.1 31.6 2.8 70.2 12.6 99.1 40.3l1 1-26.6 24.6-.8-1.3c-1.3-1.8-1.8-3.7-2.3-5.5-.7-2.1-1.3-4-2.7-5.8-2-2-4-3-6.7-4-4.2-.8-8.2 1.7-9.1 5.8-.6 3.1 1.3 6.7 4.4 8.2.3.1 1 .1 1.8.1 2 0 4-.8 5.8-1.7l.8-.3c.3-.1.6-.1.8-.1 1.3 0 2.3.8 3 2.1.8 1.7 1.3 3.7.1 5.2-2.7 4.7-7.9 6.9-12.2 8.8l-1 .3-.7-.8c-2-2.3-4.4-3.7-6.9-3.7m.8 18.2c-.8 0-1.8 0-2.8-.1-3.5-.8-5.7-2.5-6.9-4.8-2.7-4.7-1.3-10.6 3.4-14 4.7-2.7 10.1-1.3 13.6 2.3 3.5-1.3 7.8-3.5 9.8-7.1.1-.1.1-.8 0-1.7-.1-.7-.6-1.3-.7-1.3l-.7.3c-2.1.8-4.4 1.8-7.1 1.8s-2-.1-2.8-.6c-4.2-2.1-6.7-6.9-6.1-11.3 1-5.1 5.1-8.5 10.1-8.5s1.8.1 2.5.3h.1c3.1 1.3 5.5 2.5 7.9 5 1.8 2.1 2.7 4.7 3.4 6.9.3 1 .7 2.3 1.3 3.1l21.7-20.1c-33-30.9-78.4-38.5-111.1-39.4l-13.6-.3 13-2.5c23.1-4.4 47.4-3.1 72.1 4 20.1 5.8 37.7 17.6 50.7 27 25.5-21.8 58.5-33.8 93.9-33.8s18.8.8 27.9 2.7l13.6 2.5-13.9.3c-32.6.8-78.1 8.5-111.1 39.4l21.7 20.1c.6-1 .7-2.1 1.3-3.1.7-2.3 1.3-4.8 3.1-6.9 3-3.7 8.2-5.8 12.9-5.1 2.7.7 5.1 2.3 6.7 4.4 1.7 2.3 2.1 5.1 1.7 7.6-1.3 4.8-5.1 7.8-10.1 7.8s-4.8-.7-6.9-2c-.3.7-.7 2.1-.3 2.7 2 3.5 6.1 5.7 9.8 7.1 2-2.3 4.8-3.5 7.9-3.5s6.7 1.8 8.8 4.7c1.7 2.3 2.1 5.1 1.3 7.9-.7 2.7-2.5 4.8-4.8 5.7-2.5 1-5 1.7-7.6 1.7-8.8 0-17.1-5.5-23.6-10.5-4 5.2-11.2 10.5-18 10.5s-7.8-1.8-10.5-5.2c-1.7-2.3-2.1-5.1-1.3-7.6 1.3-4.8 5.5-8.4 9.9-8.4s1.3.1 2.1.3c2.5.6 5.2 1.3 6.7 4.2.7.8.6 2.3.6 3.1.7-.1 1.8-1 2.3-1.8-4-7.1-9.9-11.7-16.3-16.8-2.5-2-5.1-4-7.5-6.1-2.5 2.3-5 4.2-7.5 6.4-6.1 5-12 9.8-16.6 16.7.1.6 1.8 1.7 2.7 1.8.1-.3.3-1 .6-1.3.3-1.7.8-4 3.1-4.8 4-1.7 6.9-1.8 9.8-.6 4.2 2.1 6.7 6.9 6.1 11.3-1.3 6.7-8.5 9.3-14.3 8.8-6.1-1-12-5-15.9-10.3-7.1 6.1-15.4 11.5-25.2 11.5" class="cls-3"/><path d="m935.7 40.1 3.7 2.8-2.7-3.7c-17.1-24.6-36.5-25.5-42.8-24.9 1.3-1.3 3.4-3.4 6.4-4.4l2.1-.8-2.1-.6c-4.7-1.3-11.2-2.3-16.7 2.3-.8-4.7-3-9.8-4.2-10.6-.3-.1-.7-.3-.8-.1-1.3.3-4 4.2-5.2 10.9-4-3.1-10.6-4.7-16.1-1.8l-1.7.8 1.8.6s3.7 1.3 5.8 4.4c-25.2.6-34.3 12.9-41.6 22.8-.6.7-1 1.3-1.7 2.1l1 1c10.3-9.6 26.2-12.7 33.8-10.9-9.2 3.7-26.8 14.3-32.8 44.7l-.7 4 2.1-3.4c10.1-15.9 19.8-25.5 31.6-30.9-7.6 11.5-18 31.1-13.9 49l.6 3.1.7-3.4c4-17.6 14.2-32 21-38.6-5.5 19.5-3.4 38.2-.6 45.7l1.3 3.4v-3.5c1.3-16.1 5.8-33.4 9.1-41.6l2.3 15.9-1.3.3 1 21.9h-1.7l1.8 22.5-2 .6v.7c0 .1 1.3 14.2 2 22.2-2.7 1.3-5.2 4-6.1 5v1.3h19.7v-1.3c-2-2.7-5-4.2-6.1-5l2.1-23.6h-2.1c0 .1 1.3-23.1 1.3-23.1h-1.7c0 .1 1-21.8 1-21.8h-1.8c.3-2 1-7.2 2-16.1 4.2 7.2 7.9 22.4 9.9 41.1l.6 5.7.8-5.5c3.7-22.8.1-40.3-1.3-46.4 5.8 5.7 17.6 25.8 21.5 40.1l1 4.2.3-4.4c1.3-19.1-3-33.7-15-49.5 5 1.3 10.9 5.5 17.4 11.9 6.1 5.8 11.7 13.6 14.9 19.3l1.8 3.4-.3-4c-2.3-23.4-19.8-39.9-32.4-44.7 11.3-1.6 27.9 7.2 33 11" class="cls-3"/><path d="M5.7 213h.4L5 234.2H0c0-.1 1.3-25.2 1.3-25.2h4.4zm17.9 0H23l-6.4 21.1h-5L5.2 213h-.4v-4h3.5l6.4 21.1h-1.1L20 209h3.5v4Zm.2 21.2L22.7 213h.6v-4h4.4l1.3 25.1h-5.1ZM34 211.5c-.6-.4-.8-1.1-.8-1.8 0-.8.3-1.4.8-1.8.6-.4 1.3-.7 2-.7s1.4.3 2 .7.8 1.1.8 1.8c0 .8-.3 1.4-.8 1.8-.6.4-1.3.7-2 .7s-1.4-.3-2-.7m-.6 22.6v-18.7h5v18.7zM43 234.1v-18.7h5v18.7zm4.3-13.4c.4-1.6 1.1-2.8 2.3-4s2.5-1.7 4.4-1.7l-1.3 4.4c-1.3 0-2.1.3-2.8.8s-1.1 1.3-1.4 2.1-.4 1.7-.4 2.5h-1.3c0-1.3.3-2.7.7-4.2h-.1Zm6.8-5.6c1.3 0 2.3.3 3.3 1s1.7 1.7 2.3 3 .8 2.8.8 4.7v10.3h-5v-10.3c0-1.4-.3-2.4-.7-3.1s-1.1-1.1-2.1-1.1l1.3-4.4h.1ZM65.4 211.5c-.6-.4-.8-1.1-.8-1.8 0-.8.3-1.4.8-1.8.6-.4 1.3-.7 2-.7s1.4.3 2 .7.8 1.1.8 1.8c0 .8-.3 1.4-.8 1.8-.6.4-1.3.7-2 .7s-1.4-.3-2-.7m-.4 22.6v-18.7h5v18.7zM81.7 234.2h-.3c-2.1 0-3.8-.6-5.2-1.6s-2.3-2.7-2.5-4.7h4.1c.1 1 .6 1.6 1.1 2 .6.4 1.4.6 2.5.6h.3zm-.4-15.4c-.8 0-1.4.1-2 .4s-.8.6-1 1c-.1.4-.3.7 0 1.1.1.4.6.7 1.1.8.6.1 1.4.3 2.5.4 1.3.1 2.1.4 3 .6s1.6.6 2.3 1 1.3 1.1 1.6 2c.6 1.3.7 2.5.3 3.7-.4 1.3-1.3 2.3-2.5 3.1s-2.8 1.3-4.5 1.3v-3.7c.7 0 1.4-.1 1.8-.4.6-.3.8-.7 1-1.1s.1-.8 0-1.3c-.3-.4-.7-.8-1.3-1-.6-.1-1.6-.4-2.8-.6-1.1-.1-2.1-.3-2.8-.6-.7-.1-1.4-.6-2.1-1s-1.1-1.1-1.6-1.8c-.4-1.3-.6-2.4 0-3.7.4-1.1 1.3-2.1 2.5-3 1.3-.7 2.8-1.1 4.5-1.1v3.7Zm2.2.5c-.6-.4-1.3-.6-2.3-.6V215c1.3 0 2.4.3 3.4.7 1.1.4 2 1.1 2.7 2 .7.8 1.1 2 1.3 3.1h-4.1c-.1-.7-.6-1.3-1.1-1.6h.1ZM103.6 219.3H91.3v-3.7h12.3zm0 14.8h-2.8c-2 0-3.5-.4-4.7-1.4s-1.7-2.4-1.7-4.4V209h5v20.2c0 .1.1.3.3.4h3.8v4.4h.1ZM107.2 234.1v-18.7h5v18.7zm6.3-16.8c1.4-1.6 3.4-2.3 5.7-2.3v4.7c-2.4 0-4.1.4-5.2 1.3s-1.7 2.1-1.8 3.7h-1c.1-3.4 1-5.8 2.4-7.4ZM120.6 215.4h5.4l7.8 18-3.7 2.8-9.5-20.7Zm21.7 0L131.5 242h-5.2l10.8-26.6zM169.4 229.5c-.8 1.4-2 2.5-3.5 3.4-1.4.8-3.1 1.3-4.8 1.3s-3.4-.4-5-1.3-2.7-2-3.5-3.4-1.3-3.1-1.3-4.8.4-3.4 1.3-4.8c.8-1.4 2-2.5 3.5-3.4s3.1-1.3 5-1.3 3.4.4 4.8 1.3c1.4.8 2.7 2 3.5 3.4s1.3 3.1 1.3 4.8-.4 3.4-1.3 4.8m-4.3-7.5c-.4-.8-1-1.4-1.7-1.8s-1.4-.7-2.3-.7-1.6.3-2.3.7-1.3 1-1.7 1.8-.6 1.7-.6 2.7.1 1.8.6 2.7c.4.8 1 1.4 1.7 1.8s1.6.7 2.3.7 1.6-.3 2.3-.7 1.3-1 1.7-1.8.7-1.7.7-2.7-.3-1.8-.7-2.7M184.3 219.3h-12.2v-3.7h12.2zm-9.3 14.8v-19.3c0-2 .7-3.5 2-4.8 1.3-1.1 3-1.8 5.2-1.8v4c-.7 0-1.3.1-1.6.6-.3.4-.6 1-.6 2v19.3h-5.1Zm7.2-25.8c.8 0 1.6 0 2.1.3v4h-.3c-.6 0-1.3-.1-1.8-.1v-4ZM200.4 213h.4l-1.1 21.2h-5c0-.1 1.3-25.2 1.3-25.2h4.4zm18 0h-.6l-6.4 21.1h-5L200 213h-.4v-4h3.5l6.4 21.1h-1.1l6.4-21.1h3.5v4Zm.2 21.2-1.1-21.2h.6v-4h4.4l1.3 25.1h-5.1ZM234.4 234.2c-1.3 0-2.3-.3-3.3-1s-1.7-1.7-2.3-3-.8-2.8-.8-4.7v-10.3h5v10.3c0 1.4.3 2.4.7 3.1s1.1 1.1 2.1 1.1l-1.3 4.4h-.1Zm6.8-5.7c-.4 1.6-1.1 2.8-2.3 4-1.1 1.1-2.5 1.7-4.4 1.7l1.3-4.4c1.3 0 2.1-.3 2.8-.8s1.1-1.3 1.4-2.1.4-1.7.4-2.5h1.3c0 1.3-.3 2.7-.7 4.2h.1Zm4.3-13.1v18.7h-5v-18.7zM249.8 234.1v-18.7h5v18.7zm4.3-13.4c.4-1.6 1.1-2.8 2.3-4 1.1-1.1 2.5-1.7 4.4-1.7l-1.3 4.4c-1.3 0-2.1.3-2.8.8s-1.1 1.3-1.4 2.1-.4 1.7-.4 2.5h-1.3c0-1.3.3-2.7.7-4.2h-.1Zm6.6-5.6c1.3 0 2.3.3 3.3 1s1.7 1.7 2.3 3 .8 2.8.8 4.7v10.3h-5v-10.3c0-1.4-.3-2.4-.7-3.1s-1.1-1.1-2.1-1.1l1.3-4.4h.1ZM272.2 211.5c-.6-.4-.8-1.1-.8-1.8 0-.8.3-1.4.8-1.8s1.3-.7 2-.7 1.4.3 2 .7.8 1.1.8 1.8c0 .8-.3 1.4-.8 1.8s-1.3.7-2 .7-1.4-.3-2-.7m-.4 22.6v-18.7h5v18.7zM296.4 230.9c-.8 1.1-1.8 2-3.1 2.4-1.3.6-2.4.8-3.7.8h-.4c-1.7 0-3.3-.4-4.5-1.1-1.3-.7-2.3-1.7-3-2.8-.8-1.6-1.4-3.3-1.6-5.1 0-1.8.1-3.5.8-5.1.6-1.4 1.6-2.7 3-3.7s3.1-1.4 5.2-1.4h.4c1.3 0 2.4.3 3.7.8 1.3.6 2.3 1.4 3.1 2.4.8 1.1 1.4 2.4 1.6 4h-5.1c-.1-1-.6-1.7-1.3-2.3-.7-.4-1.3-.7-2-.7h-.4c-1 0-1.7.1-2.3.6-.6.4-1 1-1.3 1.8s-.4 2-.4 3.3.3 2.3.7 3 .8 1.1 1.3 1.4 1.1.4 1.8.4h.4c.7 0 1.4-.3 2-.7.7-.4 1.1-1.3 1.3-2.3h5.1c-.1 1.6-.7 2.8-1.6 4v.3ZM301.8 211.5c-.6-.4-.8-1.1-.8-1.8 0-.8.3-1.4.8-1.8s1.3-.7 2-.7 1.4.3 2 .7.8 1.1.8 1.8c0 .8-.3 1.4-.8 1.8s-1.3.7-2 .7-1.4-.3-2-.7m-.4 22.6v-18.7h5v18.7zM311 215.4h5v26.5h-5zm9.1 14.8 1 4c-2.1 0-3.7-.7-4.8-2.3-1-1.6-1.7-3.7-1.8-6.5l1.6-.3c0 1.6.4 2.8 1.1 3.7s1.7 1.4 3.1 1.4h-.1Zm1.1-15.1-1 4c-1.4 0-2.4.4-3.1 1.1s-1.1 1.8-1.1 3.1l-1.4-.3c.1-2.5.8-4.5 2-5.9s2.7-2.1 4.8-2.1h-.1Zm.1 0c1.4 0 2.7.4 3.8 1.1s2.1 1.8 2.8 3.3 1.1 3.1 1.1 5-.3 3.7-1 5.1-1.6 2.7-2.8 3.4c-1.3.8-2.5 1.3-4.1 1.3l-1-4c1.3 0 2.3-.6 3-1.6s1-2.4 1-4.1-.3-3-1-4-1.6-1.4-2.8-1.4l1-4ZM335.9 233.1c-1.1-.7-2.1-1.8-2.8-3.3s-1.1-3.1-1.1-5 .3-3.7 1-5.1 1.6-2.7 2.8-3.4c1.3-.8 2.5-1.3 4.1-1.3l1 4c-1.3 0-2.3.6-3 1.6s-1 2.4-1 4.1.3 3 1 4 1.6 1.4 2.8 1.4l-1 4c-1.4 0-2.7-.4-3.8-1.1Zm5-2.9c1.4 0 2.4-.4 3.1-1.1s1.1-1.8 1.1-3.1l1.4.3c-.1 2.5-.8 4.5-2 5.9s-2.7 2.1-4.8 2.1l1-4h.1Zm-.9-15.1c2.1 0 3.7.7 4.8 2.3 1 1.6 1.7 3.7 1.8 6.5l-1.6.3c0-1.6-.4-2.8-1.1-3.7s-1.7-1.4-3.1-1.4l-1-4h.1Zm5.1 19v-18.7h5v18.7zM355.9 232.5c-1-1.1-1.6-2.5-1.6-4.5v-20.2h5v21.5c0 .3.1.4.4.4h1.4v4.4c-2.5 0-4.4-.6-5.4-1.6h.1ZM365.1 211.5c-.6-.4-.8-1.1-.8-1.8 0-.8.3-1.4.8-1.8s1.3-.7 2-.7 1.4.3 2 .7.8 1.1.8 1.8c0 .8-.3 1.4-.8 1.8s-1.3.7-2 .7-1.4-.3-2-.7m-.6 22.6v-18.7h5v18.7zM384.9 219.3h-12.3v-3.7h12.3zm0 14.8h-2.8c-2 0-3.5-.4-4.7-1.4s-1.7-2.4-1.7-4.4V209h5v20.2c0 .1.1.3.3.4h3.8v4.4h.1ZM389 211.5c-.6-.4-.8-1.1-.8-1.8 0-.8.3-1.4.8-1.8s1.3-.7 2-.7 1.4.3 2 .7.8 1.1.8 1.8c0 .8-.3 1.4-.8 1.8s-1.3.7-2 .7-1.4-.3-2-.7m-.4 22.6v-18.7h5v18.7zM406.5 234.2c-1.8 0-3.4-.4-4.8-1.1s-2.5-1.8-3.3-3.3c-.8-1.4-1.1-3.1-1.1-5s.3-3.3 1-4.8c.7-1.6 1.7-2.7 3.1-3.7s3.1-1.4 5.2-1.4 3.8.4 5.2 1.4 2.3 2.1 2.8 3.5.8 3 .8 4.7v1.3h-4.7v-1.3c0-1.8-.3-3.4-1-4.4s-1.7-1.6-3.1-1.6-1.8.3-2.5.8c-.7.6-1.3 1.3-1.6 2.1-.3 1-.6 2-.6 3.1s.1 2.3.6 3.1c.4.8.8 1.4 1.6 1.8s1.6.6 2.5.6v3.7l-.3.3Zm5.6-8.1h-12.5v-2.7h12.5zm-1.3 7.2c-1.3.6-2.7 1-4 1h-.4v-3.7h.4c.8 0 1.6-.1 2.4-.6.8-.4 1.4-.8 1.8-1.3l2.8 2.4c-.7.8-1.8 1.7-3.1 2.3ZM425.5 234.2h-.3c-2.1 0-3.8-.6-5.2-1.6s-2.3-2.7-2.5-4.7h4.1c.1 1 .6 1.6 1.1 2 .6.4 1.4.6 2.5.6h.3zm-.3-15.4c-.8 0-1.4.1-2 .4s-.8.6-1 1-.3.7 0 1.1c.1.4.6.7 1.1.8s1.4.3 2.5.4c1.3.1 2.1.4 3 .6s1.6.6 2.3 1 1.3 1.1 1.6 2c.6 1.3.7 2.5.3 3.7-.4 1.3-1.3 2.3-2.5 3.1s-2.8 1.3-4.5 1.3v-3.7c.7 0 1.4-.1 1.8-.4.6-.3.8-.7 1-1.1s.1-.8 0-1.3c-.3-.4-.7-.8-1.3-1-.6-.1-1.6-.4-2.8-.6-1.1-.1-2.1-.3-2.8-.6-.7-.1-1.4-.6-2.1-1s-1.1-1.1-1.6-1.8c-.4-1.3-.6-2.4 0-3.7.4-1.1 1.3-2.1 2.5-3 1.3-.7 2.8-1.1 4.5-1.1v3.7Zm2.3.5c-.6-.4-1.3-.6-2.3-.6V215c1.3 0 2.4.3 3.4.7 1.1.4 2 1.1 2.7 2 .7.8 1.1 2 1.3 3.1h-4.1c-.1-.7-.6-1.3-1.1-1.6h.1ZM518 234.1V209h5v25.1zm18.5-11.1h-16v-4.4h16zm-2.5 11.1V209h5v25.1zM560.6 229.5c-.8 1.4-2 2.5-3.5 3.4-1.4.8-3.1 1.3-4.8 1.3s-3.4-.4-5-1.3c-1.4-.8-2.7-2-3.5-3.4s-1.3-3.1-1.3-4.8.4-3.4 1.3-4.8c.8-1.4 2-2.5 3.5-3.4 1.4-.8 3.1-1.3 5-1.3s3.4.4 4.8 1.3c1.4.8 2.7 2 3.5 3.4s1.3 3.1 1.3 4.8-.4 3.4-1.3 4.8m-4.4-7.5c-.4-.8-1-1.4-1.7-1.8s-1.4-.7-2.3-.7-1.6.3-2.3.7-1.3 1-1.7 1.8-.7 1.7-.7 2.7.3 1.8.7 2.7c.4.8 1 1.4 1.7 1.8s1.6.7 2.3.7 1.6-.3 2.3-.7 1.3-1 1.7-1.8.7-1.7.7-2.7-.3-1.8-.7-2.7M571.7 234.2c-1.3 0-2.3-.3-3.3-1s-1.7-1.7-2.3-3-.8-2.8-.8-4.7v-10.3h5v10.3c0 1.4.3 2.4.7 3.1s1.1 1.1 2.1 1.1l-1.3 4.4h-.1Zm6.8-5.7c-.4 1.6-1.1 2.8-2.3 4s-2.5 1.7-4.4 1.7l1.3-4.4c1.3 0 2.1-.3 2.8-.8s1.1-1.3 1.4-2.1.4-1.7.4-2.5h1.3c0 1.3-.3 2.7-.7 4.2h.1Zm4.3-13.1v18.7h-5v-18.7zM594.4 234.2h-.3c-2.1 0-3.8-.6-5.2-1.6s-2.3-2.7-2.5-4.7h4.1c.1 1 .6 1.6 1.1 2 .6.4 1.4.6 2.5.6h.3zm-.4-15.4c-.8 0-1.4.1-2 .4s-.8.6-1 1c-.1.4-.3.7 0 1.1.1.4.6.7 1.1.8.6.1 1.4.3 2.5.4 1.3.1 2.1.4 3 .6s1.6.6 2.3 1 1.3 1.1 1.6 2c.6 1.3.7 2.5.3 3.7-.4 1.3-1.3 2.3-2.5 3.1s-2.8 1.3-4.5 1.3v-3.7c.7 0 1.4-.1 1.8-.4.6-.3.8-.7 1-1.1.1-.4.1-.8 0-1.3-.3-.4-.7-.8-1.3-1-.6-.1-1.6-.4-2.8-.6-1.1-.1-2.1-.3-2.8-.6s-1.4-.6-2.1-1-1.1-1.1-1.6-1.8c-.4-1.3-.6-2.4 0-3.7.4-1.1 1.3-2.1 2.5-3 1.3-.7 2.8-1.1 4.5-1.1v3.7Zm2.2.5c-.6-.4-1.3-.6-2.3-.6V215c1.3 0 2.4.3 3.4.7 1.1.4 2 1.1 2.7 2 .7.8 1.1 2 1.3 3.1h-4.1c-.1-.7-.6-1.3-1.1-1.6h.1ZM606.1 211.5c-.6-.4-.8-1.1-.8-1.8 0-.8.3-1.4.8-1.8s1.3-.7 2-.7 1.4.3 2 .7.8 1.1.8 1.8c0 .8-.3 1.4-.8 1.8-.6.4-1.3.7-2 .7s-1.4-.3-2-.7m-.4 22.6v-18.7h5v18.7zM615.3 234.1v-18.7h5v18.7zm4.3-13.4c.4-1.6 1.1-2.8 2.3-4s2.5-1.7 4.4-1.7l-1.3 4.4c-1.3 0-2.1.3-2.8.8s-1.1 1.3-1.4 2.1-.4 1.7-.4 2.5h-1.3c0-1.3.3-2.7.7-4.2h-.1Zm6.6-5.6c1.3 0 2.3.3 3.3 1s1.7 1.7 2.3 3 .8 2.8.8 4.7v10.3h-5v-10.3c0-1.4-.3-2.4-.7-3.1s-1.1-1.1-2.1-1.1l1.3-4.4h.1ZM640.4 233.1c-1.1-.7-2.1-1.8-2.8-3.3s-1.1-3.1-1.1-5 .3-3.7 1-5.1 1.6-2.7 2.8-3.4 2.5-1.3 4.1-1.3l1 4c-1.3 0-2.3.6-3 1.6s-1 2.4-1 4.1.3 3 1 4 1.6 1.4 2.8 1.4l-1 4c-1.4 0-2.7-.4-3.8-1.1Zm14.2-17.7v18.1c0 1.4-.3 2.7-1 3.8s-1.7 2-3 2.5-2.8.8-4.5.8H639v-4h7.1c1.3 0 2.1-.3 2.7-.7s.8-1.3.8-2.4v-18.1zm-9.4 14.8c1.4 0 2.4-.4 3.1-1.1s1.1-1.8 1.1-3.1l1.4.3c-.1 2.5-.8 4.5-2 5.9s-2.7 2.1-4.8 2.1l1-4h.1Zm-.7-15.1c2.1 0 3.7.7 4.8 2.3 1 1.6 1.7 3.7 1.8 6.5l-1.6.3c0-1.6-.4-2.8-1.1-3.7s-1.7-1.4-3.1-1.4l-1-4h.1ZM466.3 234.1v-18.7h5v18.7zm4.2-13.4c.4-1.6 1.1-2.8 2.3-4 1.1-1.1 2.5-1.7 4.4-1.7l-1.3 4.4c-1.3 0-2.1.3-2.8.8s-1.1 1.3-1.4 2.1-.4 1.7-.4 2.5H470c0-1.3.3-2.7.7-4.2h-.1Zm6.8-5.6c1.3 0 2.3.3 3.3 1s1.7 1.7 2.3 3 .8 2.8.8 4.7v10.3h-5v-10.3c0-1.4-.3-2.4-.7-3.1s-1.1-1.1-2.1-1.1l1.3-4.4h.1ZM505.6 234.1h-5v-26.5h5zm-9-14.9-1-4c2.1 0 3.7.7 4.8 2.3 1 1.6 1.7 3.7 1.8 6.5l-1.6.3c0-1.6-.4-2.8-1.1-3.7s-1.7-1.4-3.1-1.4h.1Zm-1.2 15 1-4c1.4 0 2.4-.4 3.1-1.1s1.1-1.8 1.1-3.1l1.4.3c-.1 2.5-.8 4.5-2 5.9s-2.7 2.1-4.8 2.1h.1Zm-.1 0c-1.4 0-2.7-.4-3.8-1.1s-2.1-1.8-2.8-3.3-1.1-3.1-1.1-5 .3-3.7 1-5.1 1.6-2.7 2.8-3.4c1.3-.8 2.5-1.3 4.1-1.3l1 4c-1.3 0-2.3.6-3 1.6s-1 2.4-1 4.1.3 3 1 4 1.6 1.4 2.8 1.4l-1 4ZM448 233.1c-1.1-.7-2.1-1.8-2.8-3.3s-1.1-3.1-1.1-5 .3-3.7 1-5.1 1.6-2.7 2.8-3.4c1.3-.8 2.5-1.3 4.1-1.3l1 4c-1.3 0-2.3.6-3 1.6s-1 2.4-1 4.1.3 3 1 4 1.6 1.4 2.8 1.4l-1 4c-1.4 0-2.7-.4-3.8-1.1Zm4.8-2.9c1.4 0 2.4-.4 3.1-1.1s1.1-1.8 1.1-3.1l1.4.3c-.1 2.5-.8 4.5-2 5.9s-2.7 2.1-4.8 2.1l1-4h.1Zm-.7-15.1c2.1 0 3.7.7 4.8 2.3 1 1.6 1.7 3.7 1.8 6.5l-1.6.3c0-1.6-.4-2.8-1.1-3.7s-1.7-1.4-3.1-1.4l-1-4h.1Zm5.1 19v-18.7h5v18.7z" class="cls-2"/></g></svg>