<?xml version="1.0" encoding="utf-8"?>
<!-- Generator: Adobe Illustrator 24.3.0, SVG Export Plug-In . SVG Version: 6.00 Build 0)  -->
<svg version="1.1" id="Layer_1" xmlns="http://www.w3.org/2000/svg" xmlns:xlink="http://www.w3.org/1999/xlink" x="0px" y="0px"
	 viewBox="0 0 42.9 48" style="enable-background:new 0 0 42.9 48;" xml:space="preserve">
<style type="text/css">
	.st0{fill:url(#SVGID_1_);}
	.st1{fill:url(#SVGID_2_);}
	.st2{fill:url(#SVGID_3_);}
	.st3{fill:none;}
</style>
<g>
	
		<linearGradient id="SVGID_1_" gradientUnits="userSpaceOnUse" x1="1.1582" y1="1017.6443" x2="42.6582" y2="1017.6443" gradientTransform="matrix(1 0 0 1 0 -974)">
		<stop  offset="0" style="stop-color:#1C4E9D"/>
		<stop  offset="0.2457" style="stop-color:#1F468D"/>
		<stop  offset="0.6903" style="stop-color:#243465"/>
	</linearGradient>
	<path class="st0" d="M5.3,45.6l-0.2-0.5H2.5l-0.8,1.8H1.2l2.9-6.4h0.4l2.2,5.1c0.2,0.6,0.6,0.9,1,1v0.2c-0.1,0-0.3,0-0.5,0
		C6.6,46.8,5.8,46.7,5.3,45.6z M4.9,44.6l-1.1-2.5l-1.1,2.5H4.9z M8.4,41.7c0-0.6-0.1-1-0.7-1H7.6v-0.3h1.2c0.7,0,0.9,0.3,0.9,1.2
		v4.7h3.4v0.4H8.4L8.4,41.7L8.4,41.7z M14.3,40.9h-0.7c-0.7,0-1.1,0.3-1.1,1.2h-0.4v-0.8c0-0.4,0.2-0.8,0.8-0.8h4.6v0.4h-2.1v5.9
		h-1.3v-5.9H14.3z M18.6,41.7c0-0.6-0.1-1-0.7-1h-0.1v-0.3H19c0.7,0,0.9,0.3,0.9,1.2v1.6h2.7v-2.8h1.3v5.1c0,0.6,0.1,1,0.7,1h0.1
		v0.3h-1.2c-0.7,0-0.9-0.3-0.9-1.2v-1.8h-2.7v3.1h-1.3V41.7z M27.5,44.2l-1.8-2.6c-0.4-0.5-0.9-1-1.3-1.1v-0.2h1.1
		c0.7,0,1.3,0.6,1.6,1.1l1.3,2l1.9-3h0.6l-2.2,3.5v2.8h-1.3L27.5,44.2L27.5,44.2z M34.5,45.6l-0.2-0.5h-2.6l-0.8,1.8h-0.5l2.9-6.4
		h0.4l2.2,5.1c0.2,0.6,0.6,0.9,1,1v0.2c-0.1,0-0.3,0-0.5,0C35.8,46.8,35,46.7,34.5,45.6z M34.1,44.6L33,42.1l-1.1,2.5H34.1z
		 M37.6,41.7c0-0.6-0.1-1-0.7-1h-0.1v-0.3h2.7c1.2,0,2.9,0.2,2.9,1.7c0,0.5-0.4,1.2-1.4,1.4c1.3,0.1,1.7,0.8,1.7,1.5
		c0,1.5-1.5,1.8-2.9,1.8h-2.2V41.7L37.6,41.7z M39.6,43.3c0.8,0,1.4-0.3,1.4-1.2c0-1-0.8-1.2-1.5-1.2c-0.1,0-0.3,0-0.6,0.1v2.4
		L39.6,43.3L39.6,43.3z M41.3,45.1c0-0.9-0.6-1.3-1.7-1.3h-0.7v2.6c0.1,0,0.4,0.1,0.7,0.1C40.7,46.4,41.3,45.9,41.3,45.1z"/>
	
		<linearGradient id="SVGID_2_" gradientUnits="userSpaceOnUse" x1="0.4577" y1="985.5943" x2="31.2557" y2="985.5943" gradientTransform="matrix(1 0 0 1 0 -974)">
		<stop  offset="0" style="stop-color:#1C4E9D"/>
		<stop  offset="0.356" style="stop-color:#1F468D"/>
		<stop  offset="1" style="stop-color:#243465"/>
	</linearGradient>
	<path class="st1" d="M30.9,16.3l-4,3.6c-0.5,0.4-1.2,0.4-1.6-0.1l-6.8-7.6c-0.4-0.5-1.1-0.5-1.6-0.1L6,21.8
		c-0.5,0.4-1.2,0.4-1.6-0.1l-3.6-4c-0.4-0.5-0.4-1.2,0.1-1.6L12.6,5.6l4.9-4.3c0.5-0.4,1.2-0.4,1.6,0.1l4.3,4.9l7.6,8.5
		C31.4,15.2,31.3,15.9,30.9,16.3z"/>
	
		<linearGradient id="SVGID_3_" gradientUnits="userSpaceOnUse" x1="12.1454" y1="998.9943" x2="42.9464" y2="998.9943" gradientTransform="matrix(1 0 0 1 0 -974)">
		<stop  offset="0" style="stop-color:#A87419"/>
		<stop  offset="0.5947" style="stop-color:#C5912C"/>
		<stop  offset="1" style="stop-color:#D3A036"/>
	</linearGradient>
	<path class="st2" d="M12.5,20.2l4-3.6c0.5-0.4,1.2-0.4,1.6,0.1l6.8,7.6c0.4,0.5,1.1,0.5,1.6,0.1l10.9-9.7c0.5-0.4,1.2-0.4,1.6,0.1
		l3.6,4c0.4,0.5,0.4,1.2-0.1,1.6L30.8,30.9l-4.9,4.3c-0.5,0.4-1.2,0.4-1.6-0.1L20,30.2l-7.6-8.5C12,21.4,12.1,20.7,12.5,20.2z"/>
	<line class="st3" x1="5.1" y1="22.5" x2="0" y2="16.8"/>
</g>
</svg>
