<?xml version="1.0" encoding="utf-8"?>
<!-- Generator: Adobe Illustrator 24.3.0, SVG Export Plug-In . SVG Version: 6.00 Build 0)  -->
<svg version="1.1" id="Layer_1" xmlns="http://www.w3.org/2000/svg" xmlns:xlink="http://www.w3.org/1999/xlink" x="0px" y="0px"
	 viewBox="0 0 235 48" style="enable-background:new 0 0 235 48;" xml:space="preserve">
<style type="text/css">
	.st0{fill:#FFFFFF;}
	.st1{fill:none;}
</style>
<path class="st0" d="M195.2,45.7l-0.2-0.5h-2.6l-0.8,1.8h-0.5l2.9-6.4h0.4l2.2,5.1c0.2,0.6,0.6,0.9,1,1v0.2c-0.1,0-0.3,0-0.5,0
	C196.5,46.9,195.7,46.8,195.2,45.7z M194.8,44.7l-1.1-2.5l-1.1,2.5H194.8z M198.3,41.8c0-0.6-0.1-1-0.7-1h-0.1v-0.3h1.2
	c0.7,0,0.9,0.3,0.9,1.2v4.7h3.4v0.4h-4.7L198.3,41.8L198.3,41.8z M204.2,41h-0.7c-0.7,0-1.1,0.3-1.1,1.2H202v-0.8
	c0-0.4,0.2-0.8,0.8-0.8h4.6V41h-2.1v5.9H204V41H204.2z M208.5,41.8c0-0.6-0.1-1-0.7-1h-0.1v-0.3h1.2c0.7,0,0.9,0.3,0.9,1.2v1.6h2.7
	v-2.8h1.3v5.1c0,0.6,0.1,1,0.7,1h0.1v0.3h-1.2c-0.7,0-0.9-0.3-0.9-1.2v-1.8h-2.7V47h-1.3V41.8z M217.4,44.3l-1.8-2.6
	c-0.4-0.5-0.9-1-1.3-1.1v-0.2h1.1c0.7,0,1.3,0.6,1.6,1.1l1.3,2l1.9-3h0.6l-2.2,3.5v2.8h-1.3L217.4,44.3L217.4,44.3z M224.4,45.7
	l-0.2-0.5h-2.6l-0.8,1.8h-0.5l2.9-6.4h0.4l2.2,5.1c0.2,0.6,0.6,0.9,1,1v0.2c-0.1,0-0.3,0-0.5,0C225.7,46.9,224.9,46.8,224.4,45.7z
	 M224,44.7l-1.1-2.5l-1.1,2.5H224z M227.5,41.8c0-0.6-0.1-1-0.7-1h-0.1v-0.3h2.7c1.2,0,2.9,0.2,2.9,1.7c0,0.5-0.4,1.2-1.4,1.4
	c1.3,0.1,1.7,0.8,1.7,1.5c0,1.5-1.5,1.8-2.9,1.8h-2.2V41.8L227.5,41.8z M229.5,43.4c0.8,0,1.4-0.3,1.4-1.2c0-1-0.8-1.2-1.5-1.2
	c-0.1,0-0.3,0-0.6,0.1v2.4L229.5,43.4L229.5,43.4z M231.2,45.2c0-0.9-0.6-1.3-1.7-1.3h-0.7v2.6c0.1,0,0.4,0.1,0.7,0.1
	C230.6,46.5,231.2,46,231.2,45.2z"/>
<path class="st0" d="M220.8,16.4l-4,3.6c-0.5,0.4-1.2,0.4-1.6-0.1l-6.8-7.6c-0.4-0.5-1.1-0.5-1.6-0.1l-10.9,9.7
	c-0.5,0.4-1.2,0.4-1.6-0.1l-3.6-4c-0.4-0.5-0.4-1.2,0.1-1.6l11.7-10.5l4.9-4.3c0.5-0.4,1.2-0.4,1.6,0.1l4.3,4.9l7.6,8.5
	C221.3,15.3,221.2,16,220.8,16.4z"/>
<path class="st0" d="M202.4,20.3l4-3.6c0.5-0.4,1.2-0.4,1.6,0.1l6.8,7.6c0.4,0.5,1.1,0.5,1.6,0.1l10.9-9.7c0.5-0.4,1.2-0.4,1.6,0.1
	l3.6,4c0.4,0.5,0.4,1.2-0.1,1.6L220.7,31l-4.9,4.3c-0.5,0.4-1.2,0.4-1.6-0.1l-4.3-4.9l-7.6-8.5C201.9,21.5,202,20.8,202.4,20.3z"/>
<line class="st1" x1="195" y1="22.6" x2="189.9" y2="16.9"/>
<path class="st0" d="M8.8,31.4l-0.4-0.9H3.8l-1.4,3H1.5l5.1-11.1h0.8l3.8,9c0.4,1,1,1.6,1.8,1.7v0.4c-0.2,0-0.6,0.1-0.8,0.1
	C11,33.6,9.6,33.3,8.8,31.4z M8,29.7l-1.9-4.4l-2,4.4C4.2,29.7,8,29.7,8,29.7z M13.6,24.6c0-1-0.2-1.7-1.2-1.7h-0.2v-0.5h2.1
	c1.2,0,1.6,0.5,1.6,2.2v8.9h-2.2L13.6,24.6L13.6,24.6z M18.3,31.2v-4.8h-1v-0.8h1v-1.5l0.9-1h1.4v2.5h1.9v0.8h-1.9v4.9
	c0,1.3,0.3,1.6,0.9,1.6s1.1-0.3,1.4-0.5l0.2,0.5c-0.5,0.4-1.2,0.7-2.2,0.7C19.2,33.7,18.3,32.8,18.3,31.2z M24,24.6
	c0-1-0.2-1.7-1.2-1.7h-0.2v-0.5h2.1c1.2,0,1.6,0.5,1.6,2.2v1.5c0.4-0.3,1.1-0.6,1.9-0.6c1.6,0,3.3,0.6,3.3,3.1v5h-2.2v-4.9
	c0-1.7-0.7-2.3-1.6-2.3c-0.6,0-1.1,0.4-1.4,0.6v6.6H24V24.6L24,24.6z M33.8,36.3c1.2,0,2-0.3,2.5-1.6l0.4-0.9l-3.1-6.6
	c-0.4-0.8-0.9-1.3-1.6-1.3v-0.3h1.5c1,0,1.8,0.5,2.2,1.3l2,4.2l2.1-5.4h0.9l-3.5,9c-0.7,1.8-1.5,2.3-2.7,2.3h-0.7
	C33.8,37,33.8,36.3,33.8,36.3z M41.3,31.4c0-1.6,0.9-2.5,4.6-2.5h0.3c0-2-0.6-2.7-1.6-2.7c-0.8,0-1.4,0.3-1.7,1.5H42
	c0-0.6,0-1.2,0.4-1.7s1.5-0.6,2.6-0.6c2.2,0,3.5,1.2,3.5,3.5v4.5H47l-0.6-0.8h-0.1c-0.3,0.5-1,0.9-2.1,0.9
	C42.4,33.7,41.3,32.7,41.3,31.4z M46.2,31.7v-2.1H46c-1.6,0-2.3,0.6-2.3,1.8c0,0.9,0.4,1.4,1.1,1.4C45.5,32.8,46,32.2,46.2,31.7z
	 M52.5,32.7L52.5,32.7l-0.7,0.8h-1.5v-8.9c0-1-0.2-1.7-1.2-1.7H49v-0.5h2.1c1.2,0,1.6,0.5,1.6,2.2v1.3c0.4-0.3,1-0.5,1.8-0.5
	c2.5,0,3.7,1.8,3.7,4.1s-1.2,4.1-3.6,4.1C53.5,33.7,52.8,33.2,52.5,32.7z M55.8,29.6c0-1.9-0.4-3.3-1.7-3.3c-0.7,0-1.2,0.3-1.5,0.5
	v5.1c0.3,0.5,0.8,1.1,1.6,1.1C55.4,32.9,55.8,31.5,55.8,29.6z M63.7,27.8c0-3.2,2.2-5.7,5.7-5.7c2.2,0,3.5,0.6,4.2,1.4
	c0.4,0.6,0.4,1.6,0.4,2.3h-0.5c-0.4-2.1-1.6-2.9-3.6-2.9c-2.7,0-3.8,2.4-3.8,4.9c0,4.1,1.7,5.4,3.8,5.4c1,0,1.7-0.2,2.3-0.4v-3
	c0-0.9,0.4-2,3.3-2v0.4c-0.8,0-1.1,0.6-1.1,1.6v3c-1.3,0.8-2.8,1.1-4.6,1.1C66.3,33.8,63.7,31.2,63.7,27.8z M76.8,24.6
	c0-1-0.2-1.7-1.2-1.7h-0.2v-0.5h2.1c1.2,0,1.6,0.5,1.6,2.2v8.9h-2.2C76.8,33.5,76.8,24.6,76.8,24.6z M80.7,29.6
	c0-2.3,1.6-4.1,4.1-4.1s4.1,1.8,4.1,4.1s-1.6,4.1-4.1,4.1S80.7,31.9,80.7,29.6z M86.7,29.6c0-1.9-0.6-3.3-1.8-3.3
	c-1.2,0-1.8,1.4-1.8,3.3s0.6,3.3,1.8,3.3S86.7,31.5,86.7,29.6z M92.8,32.7L92.8,32.7l-0.7,0.8h-1.5v-8.9c0-1-0.2-1.7-1.2-1.7h-0.2
	v-0.5h2.1c1.2,0,1.6,0.5,1.6,2.2v1.3c0.4-0.3,1-0.5,1.8-0.5c2.5,0,3.7,1.8,3.7,4.1s-1.2,4.1-3.6,4.1C93.8,33.7,93.1,33.2,92.8,32.7z
	 M96.1,29.6c0-1.9-0.4-3.3-1.7-3.3c-0.7,0-1.2,0.3-1.5,0.5v5.1c0.3,0.5,0.8,1.1,1.6,1.1C95.6,32.9,96.1,31.5,96.1,29.6z M99.5,31.4
	c0-1.6,0.9-2.5,4.6-2.5h0.3c0-2-0.6-2.7-1.6-2.7c-0.8,0-1.4,0.3-1.7,1.5h-0.9c0-0.6,0-1.2,0.4-1.7s1.5-0.6,2.6-0.6
	c2.2,0,3.5,1.2,3.5,3.5v4.5h-1.5l-0.6-0.8h-0.1c-0.3,0.5-1,0.9-2.1,0.9C100.5,33.7,99.5,32.7,99.5,31.4z M104.4,31.7v-2.1h-0.3
	c-1.6,0-2.3,0.6-2.3,1.8c0,0.9,0.4,1.4,1.1,1.4C103.7,32.8,104.2,32.2,104.4,31.7z M108.6,24.6c0-1-0.2-1.7-1.2-1.7h-0.2v-0.5h2.1
	c1.2,0,1.6,0.5,1.6,2.2v8.9h-2.2v-8.9H108.6z M116.9,28.1c0-3.4,2.4-6,5.7-6c2.2,0,3.4,0.6,4.1,1.4c0.5,0.6,0.4,1.6,0.4,2.5h-0.5
	c-0.4-2-1.6-3.2-3.5-3.2c-2.1,0-3.8,1.2-3.8,5.3c0,2.6,1.1,4.9,3.8,4.9c1.6,0,3-0.8,3.8-2.4l0.6,0.5c-1.1,1.9-2.5,2.7-4.9,2.7
	C119,33.8,116.9,31.4,116.9,28.1z M128.6,29.6c0-2.3,1.6-4.1,4.1-4.1c2.6,0,4.1,1.8,4.1,4.1s-1.6,4.1-4.1,4.1
	C130.1,33.7,128.6,31.9,128.6,29.6z M134.5,29.6c0-1.9-0.6-3.3-1.8-3.3s-1.8,1.4-1.8,3.3s0.6,3.3,1.8,3.3S134.5,31.5,134.5,29.6z
	 M138.8,27.8c0-1-0.2-1.7-1.2-1.7h-0.2v-0.5h1.7c0.7,0,1.2,0.2,1.5,0.6h0.1c0.4-0.3,1.1-0.8,2.2-0.8c1.3,0,2.1,0.7,2.4,1
	c0.5-0.5,1.1-1,2.4-1c1.9,0,3,0.9,3,3.1v5h-2.2v-5c0-1.6-0.6-2.2-1.4-2.2c-0.6,0-1.2,0.3-1.5,0.6c0.2,0.3,0.3,0.9,0.3,1.6v5h-2.2v-5
	c0-1.6-0.6-2.2-1.4-2.2c-0.4,0-0.9,0.3-1.2,0.5v6.7h-2.2v-5.7H138.8z M153,27.8c0-1-0.2-1.7-1.2-1.7h-0.2v-0.5h1.7
	c0.8,0,1.2,0.2,1.4,0.7c0.4-0.3,1.1-0.9,2.3-0.9c2.4,0,3.6,1.8,3.6,4.1s-1.2,4.1-3.7,4.1c-0.8,0-1.5-0.3-1.8-0.5v3.5H153V27.8z
	 M158.4,29.6c0-1.9-0.4-3.3-1.6-3.3c-0.8,0-1.2,0.3-1.6,0.6v5.6c0.3,0.2,0.9,0.5,1.5,0.5C158,32.9,158.4,31.5,158.4,29.6z
	 M161.9,31.4c0-1.6,0.9-2.5,4.6-2.5h0.3c0-2-0.6-2.7-1.6-2.7c-0.8,0-1.4,0.3-1.7,1.5h-0.9c0-0.6,0-1.2,0.4-1.7s1.5-0.6,2.6-0.6
	c2.2,0,3.5,1.2,3.5,3.5v4.5h-1.5l-0.6-0.8h-0.1c-0.3,0.5-1,0.9-2.1,0.9C162.9,33.7,161.9,32.7,161.9,31.4z M166.8,31.7v-2.1h-0.3
	c-1.6,0-2.3,0.6-2.3,1.8c0,0.9,0.4,1.4,1.1,1.4C166.1,32.8,166.6,32.2,166.8,31.7z M171.3,27.8c0-1-0.2-1.7-1.2-1.7h-0.2v-0.5h1.7
	c0.8,0,1.2,0.2,1.4,0.6c0.4-0.4,1.1-0.8,2.5-0.8c2.2,0,3.3,0.9,3.3,3.1v5h-2.2v-5c0-1.6-0.7-2.2-1.6-2.2c-0.7,0-1.1,0.2-1.5,0.4v6.8
	h-2.2V27.8z M181.3,36.3c1.2,0,2-0.3,2.5-1.6l0.4-0.9l-3.1-6.6c-0.4-0.8-0.9-1.3-1.6-1.3v-0.3h1.5c1,0,1.8,0.5,2.2,1.3l2,4.2
	l2.1-5.4h0.9l-3.5,9c-0.7,1.8-1.5,2.3-2.7,2.3h-0.7L181.3,36.3L181.3,36.3z"/>
<path class="st0" d="M3.1,7.8l2.4,1v0.6L5.4,9.5C5.2,9.6,5,9.7,4.9,9.7S4.8,9.8,4.8,9.8v0.1c0,0.1,0,0.3,0,0.5v1.9
	c0,0.5-0.1,1-0.2,1.4S4.3,14.5,4,14.8s-0.6,0.6-1.1,0.8C2.5,15.8,2,16,1.5,16.1l-0.3,0.1L1,15.5l0.2-0.1c0.3-0.1,0.5-0.2,0.6-0.4
	c0.2-0.1,0.3-0.3,0.4-0.4c0.1-0.1,0.2-0.3,0.2-0.4c0-0.2,0.1-0.4,0.1-0.6c0-0.2,0.1-0.5,0.1-0.7c0-0.3,0-0.6,0-1v-2l0.1-1.7L3.1,7.8
	z M20.1,5.4c0.1,0.1,0.2,0.2,0.4,0.2c0.2,0.1,0.3,0.1,0.5,0.1c0.1,0,0.3,0,0.5-0.1c0.1-0.1,0.3-0.1,0.4-0.2s0.2-0.2,0.3-0.4
	c0-0.1,0.1-0.2,0.1-0.2c0,0.1,0,0.1,0,0.2c0,0.2,0.1,0.3,0.3,0.4c0.1,0.1,0.2,0.2,0.3,0.2c0.1,0.1,0.3,0.1,0.5,0.1s0.3,0,0.5-0.1
	c0.1-0.1,0.2-0.1,0.3-0.2c0.1-0.1,0.2-0.2,0.3-0.4c0.1-0.2,0.1-0.3,0.1-0.5s0-0.3-0.1-0.5c-0.1-0.1-0.2-0.3-0.3-0.4
	c-0.1-0.1-0.2-0.2-0.4-0.2c-0.1-0.1-0.3-0.1-0.5-0.1s-0.3,0-0.5,0.1c-0.1,0.1-0.3,0.1-0.4,0.2c-0.1,0.1-0.2,0.3-0.3,0.4
	c0,0.1,0,0.1,0,0.2c0-0.1,0-0.2-0.1-0.2c-0.1-0.1-0.2-0.3-0.3-0.4c-0.1-0.1-0.2-0.2-0.4-0.3c-0.1-0.1-0.3-0.1-0.5-0.1
	s-0.3,0-0.5,0.1S20,3.4,19.9,3.6c0.1,0.3,0,0.4-0.1,0.5c-0.1,0.2-0.1,0.3-0.1,0.5s0,0.3,0.1,0.5C19.9,5.2,20,5.4,20.1,5.4z
	 M47.7,14.7c0-0.1,0-0.1,0-0.2c0-0.1,0.1-0.2,0.2-0.3l0,0l0,0l0,0c0,0,0.1,0,0.2,0c0,0,0.1,0,0.3,0c0.1,0,0.3,0.1,0.4,0.2l0.2,0.1
	l0.5-0.8l-0.4-0.3c-0.1-0.1-0.2-0.2-0.3-0.2s-0.3-0.1-0.4-0.1c-0.1,0-0.2,0-0.4,0l0,0c-0.3,0-0.5,0.1-0.7,0.3
	c-0.2,0.1-0.3,0.3-0.4,0.5c-0.1,0.2-0.2,0.4-0.2,0.6c0,0.1,0,0.2,0,0.3h-0.5v1.1h3.6l-0.4-1.1C49.4,14.7,47.7,14.7,47.7,14.7z
	 M40.2,7.8l2.4,1v0.5l-0.1,0.1c-0.1,0.1-0.2,0.2-0.3,0.3S42,9.8,42,9.9l0,0c0,0.1,0,0.1,0,0.2l0,0l0,0c0,0,0,0.1,0,0.3v2.3h-2.7
	c-0.2,0-0.4,0-0.6-0.1c-0.1-0.1-0.3-0.1-0.4-0.3c-0.1,0-0.1-0.1-0.2-0.2v0.5h-2.7c-0.2,0-0.4,0-0.5-0.1c-0.2-0.1-0.3-0.1-0.4-0.3
	c-0.1,0-0.1-0.1-0.2-0.2v0.5H30c-0.2,0-0.3,0-0.5-0.1s-0.3-0.1-0.4-0.3c-0.1,0-0.1-0.1-0.2-0.2v0.5h-4.6c-0.2,0-0.3,0-0.5-0.1
	s-0.3-0.1-0.4-0.3c-0.1,0-0.1-0.1-0.2-0.2v0.5h-4.5c-0.2,0-0.4,0-0.5-0.1c-0.2-0.1-0.3-0.1-0.5-0.3c-0.1-0.1-0.3-0.2-0.4-0.3
	l-0.1-0.1c-0.2,0.2-0.4,0.4-0.7,0.5c-0.4,0.2-0.8,0.3-1.3,0.3c-0.3,0-0.6,0-0.8-0.1c-0.3-0.1-0.5-0.1-0.6-0.3
	c-0.1,0-0.1-0.1-0.2-0.1v0.5h-7V5.2l0-1.6L7,3.2l2.4,1v0.5H9.3C9.1,4.9,9,5,8.9,5.1c-0.1,0-0.1,0-0.2,0.1v0.1c0,0.1,0,0.3,0,0.5v5.7
	h2.9V9.8c0-0.5,0.1-0.9,0.2-1.2c0.1-0.4,0.4-0.7,0.6-0.9c0.3-0.2,0.6-0.4,1-0.5C13.8,7,14.2,7,14.7,7s0.9,0,1.3,0.1s0.7,0.3,1,0.5
	c0.3,0.3,0.5,0.6,0.7,0.9C17.9,9,18,9.4,18,9.9s-0.1,0.9-0.3,1.2c0.1,0.1,0.2,0.1,0.4,0.2c0.2,0.1,0.4,0.1,0.6,0.1h2.5V8.5V6.8
	l0.5-0.3l2.4,1V8L24,8.1c-0.2,0.2-0.3,0.3-0.4,0.3s-0.1,0.1-0.1,0.1l-0.1,0.1c0,0.1,0,0.2,0,0.2V11c0.1,0.1,0.3,0.2,0.5,0.3
	s0.4,0.2,0.6,0.2H27v-3V6.8l0.5-0.3l2.4,1V8l-0.1,0.1c-0.2,0.2-0.3,0.3-0.4,0.3s-0.1,0.1-0.1,0.1l-0.1,0.1c0,0.1,0,0.2,0,0.2V11
	c0.1,0.1,0.3,0.2,0.5,0.3s0.4,0.2,0.6,0.2h2.1V9.8l-0.1-1.6l0.5-0.3l1.6,0.7v2.5c0.1,0.1,0.3,0.2,0.5,0.3s0.5,0.2,0.7,0.2h0.6V9.8
	V8.2l0.5-0.4L38,8.5V11c0.1,0.1,0.3,0.2,0.5,0.3s0.5,0.2,0.7,0.2h0.6V9.8l-0.1-1.6L40.2,7.8z M13.6,10.7c0,0,0,0,0,0.2
	c0,0.1,0.1,0.2,0.2,0.2c0.1,0.1,0.2,0.2,0.4,0.2c0.2,0.1,0.4,0.1,0.6,0.1c0.2,0,0.3,0,0.5-0.1c0.1-0.1,0.2-0.2,0.3-0.3
	s0.2-0.3,0.2-0.5s0.1-0.5,0.1-0.7c0-0.3,0-0.6-0.1-0.8c0-0.2-0.1-0.4-0.2-0.6c-0.1-0.1-0.2-0.3-0.4-0.4c-0.1-0.1-0.3-0.1-0.6-0.1
	S14.2,7.9,14,8c-0.1,0.1-0.3,0.2-0.3,0.4c-0.1,0.2-0.1,0.4-0.2,0.6c0,0.3,0,0.5,0,0.8v0.9H13.6z M26,5.5c0.1,0.1,0.2,0.2,0.3,0.2
	c0.1,0.1,0.3,0.1,0.5,0.1s0.3,0,0.5-0.1c0.1-0.1,0.3-0.1,0.4-0.2s0.2-0.2,0.3-0.4c0-0.1,0-0.2,0-0.2s0,0.1,0,0.2
	c0.1,0.2,0.2,0.3,0.3,0.4c0.1,0.1,0.2,0.2,0.3,0.2c0.1,0.1,0.3,0.1,0.5,0.1c0.1,0,0.3,0,0.5-0.1c0.1-0.1,0.3-0.1,0.4-0.2
	s0.2-0.2,0.3-0.4c0.1-0.2,0.1-0.3,0.1-0.5s0-0.3-0.1-0.5C30.2,4,30.1,3.9,30,3.8c-0.1-0.1-0.2-0.2-0.4-0.3c-0.1-0.1-0.3-0.1-0.4-0.1
	c-0.2,0-0.4,0-0.5,0.1s-0.3,0.1-0.4,0.2c-0.1,0.1-0.2,0.2-0.3,0.4c0,0,0,0.1,0,0.2c0-0.1,0-0.1-0.1-0.2s-0.1-0.3-0.2-0.4
	c-0.1-0.1-0.2-0.2-0.4-0.3c-0.1-0.1-0.3-0.1-0.5-0.1s-0.3,0-0.5,0.1C26.2,3.5,26,3.5,26,3.6c-0.1,0.1-0.2,0.2-0.3,0.4
	c-0.1,0.2-0.1,0.3-0.1,0.5s0,0.3,0.1,0.5C25.8,5.2,25.9,5.4,26,5.5z M143.8,3.6l0.1,1.6v6.3H142c-0.2,0-0.5,0-0.7-0.2
	c-0.2-0.1-0.4-0.2-0.5-0.3v-0.6c0-0.5,0-1-0.2-1.4c-0.1-0.4-0.3-0.8-0.6-1.1c-0.3-0.3-0.6-0.5-1-0.8c-0.4-0.2-0.9-0.4-1.4-0.5
	l-0.2-0.1l-0.3,0.7l0.2,0.1c0.4,0.2,0.7,0.4,0.9,0.6s0.3,0.4,0.4,0.6c0.1,0.3,0.1,0.5,0.2,0.9c0,0.4,0,0.9,0,1.4v0.7H137
	c-0.3,0-0.5,0-0.7,0s-0.3-0.1-0.5-0.1c-0.1,0-0.1-0.1-0.1-0.1l-0.1-0.3l-0.8,0.2l0.4,1.7h5.5v-0.5c0.1,0.1,0.1,0.1,0.2,0.2
	c0.3,0.2,0.6,0.3,1,0.3h3.9V5.4c0-0.1,0-0.1,0-0.2c0,0,0,0,0-0.1c0.1,0,0.2-0.1,0.3-0.2s0.2-0.1,0.3-0.2l0.1-0.1V4.2l-2.4-1
	L143.8,3.6z M21.2,3.2c0.1,0.1,0.3,0.2,0.4,0.2c0.1,0.1,0.3,0.1,0.4,0.1c0.2,0,0.3,0,0.5-0.1s0.3-0.1,0.4-0.3
	C23,3,23.1,2.9,23.2,2.8c0.1-0.2,0.1-0.3,0.1-0.5s0-0.3-0.1-0.5c-0.1-0.1-0.1-0.2-0.2-0.3c-0.1-0.1-0.2-0.2-0.4-0.3
	c-0.1,0-0.3-0.1-0.5-0.1s-0.3,0-0.5,0.1c-0.1,0.1-0.3,0.1-0.4,0.3c-0.1,0.1-0.2,0.3-0.3,0.4c0,0.1-0.1,0.3-0.1,0.4s0,0.3,0.1,0.4
	C21,2.9,21.1,3,21.2,3.2z M181.2,5.5c0.1,0.1,0.2,0.2,0.3,0.2c0.1,0.1,0.3,0.1,0.5,0.1c0.1,0,0.3,0,0.5-0.1s0.3-0.1,0.4-0.2
	c0.1-0.1,0.2-0.2,0.3-0.4c0,0,0-0.1,0-0.2c0,0,0,0.1,0,0.2c0.1,0.2,0.2,0.3,0.3,0.4s0.2,0.2,0.4,0.2c0.2,0.1,0.3,0.1,0.5,0.1
	s0.3,0,0.5-0.1c0.1-0.1,0.2-0.1,0.3-0.2s0.2-0.2,0.3-0.4c0.1-0.2,0.1-0.3,0.1-0.5s0-0.3-0.1-0.5c-0.1-0.2-0.2-0.3-0.3-0.4
	c-0.1-0.1-0.2-0.2-0.4-0.2s-0.3-0.1-0.5-0.1s-0.3,0-0.5,0.1c-0.1,0.1-0.3,0.1-0.4,0.2c-0.1,0.1-0.2,0.3-0.3,0.4c0,0,0,0.1,0,0.2
	c0,0,0-0.1,0-0.2C183,4,183,3.9,182.9,3.8c-0.1-0.1-0.3-0.2-0.4-0.3c-0.2,0-0.3-0.1-0.5-0.1s-0.3,0-0.5,0.1s-0.3,0.1-0.3,0.2
	C181,3.9,181,4,180.9,4.2s-0.1,0.3-0.1,0.4s0,0.3,0.1,0.4C181,5.2,181.1,5.4,181.2,5.5z M182.3,3.2c0.1,0.1,0.2,0.2,0.4,0.2
	s0.3,0.1,0.5,0.1s0.3,0,0.5-0.1c0.1-0.1,0.3-0.1,0.4-0.2c0.1-0.1,0.2-0.2,0.3-0.4c0.1-0.1,0.1-0.3,0.1-0.5s0-0.3-0.1-0.5
	c-0.1-0.1-0.1-0.2-0.3-0.3s-0.2-0.2-0.4-0.3s-0.3-0.1-0.5-0.1s-0.3,0-0.5,0.1c-0.1,0.1-0.3,0.1-0.4,0.3c-0.1,0.1-0.2,0.3-0.3,0.4
	c0,0.1-0.1,0.3-0.1,0.4s0,0.3,0.1,0.4C182.1,2.9,182.2,3,182.3,3.2z M63.8,5.1c0.1,0.1,0.3,0.2,0.4,0.3c0.2,0,0.3,0.1,0.4,0.1
	c0.2,0,0.3,0,0.5-0.1c0.1-0.1,0.3-0.1,0.4-0.3s0.2-0.2,0.3-0.4c0-0.1,0-0.1,0.1-0.2c0,0.1,0,0.2,0.1,0.2c0.1,0.1,0.1,0.2,0.2,0.3
	c0.1,0.1,0.2,0.2,0.4,0.3c0.1,0.1,0.3,0.1,0.5,0.1s0.3,0,0.5-0.1C67.7,5.2,67.9,5.2,68,5c0-0.1,0-0.2,0.1-0.3
	c0.1-0.1,0.1-0.3,0.1-0.5c0-0.2,0-0.3-0.1-0.5c-0.1-0.1-0.2-0.3-0.3-0.4c-0.1-0.1-0.2-0.1-0.3-0.2C67.4,3,67.2,3,67,3
	s-0.3,0-0.5,0.1c-0.1,0.1-0.2,0.1-0.3,0.2c-0.1,0.1-0.2,0.2-0.3,0.4c0,0.1-0.1,0.2-0.1,0.3c0-0.1,0-0.2-0.1-0.2
	c-0.1-0.2-0.2-0.3-0.3-0.4c-0.1-0.1-0.2-0.1-0.3-0.2c-0.1-0.1-0.3-0.1-0.5-0.1s-0.3,0-0.5,0.1c-0.2,0.1-0.3,0.1-0.4,0.2
	c-0.1,0.1-0.2,0.2-0.3,0.3c-0.1,0.2-0.1,0.3-0.1,0.5c0,0.2,0,0.3,0.1,0.5C63.7,4.9,63.8,5,63.8,5.1z M155.2,5.1
	c0.1,0.1,0.3,0.2,0.4,0.3c0.2,0,0.3,0.1,0.4,0.1c0.2,0,0.3,0,0.5-0.1s0.3-0.1,0.4-0.3c0.1-0.1,0.2-0.2,0.3-0.4c0-0.1,0-0.1,0.1-0.2
	c0,0.1,0,0.2,0.1,0.2c0.1,0.1,0.1,0.2,0.2,0.3c0.1,0.1,0.2,0.2,0.4,0.3s0.3,0.1,0.5,0.1s0.3,0,0.5-0.1c0.1-0.1,0.3-0.1,0.4-0.3
	c0.1-0.1,0.2-0.2,0.2-0.3c0.1-0.1,0.1-0.3,0.1-0.5c0-0.2,0-0.3-0.1-0.5c-0.1-0.1-0.2-0.3-0.3-0.4c-0.1-0.1-0.2-0.2-0.3-0.2
	C158.9,3,158.7,3,158.5,3s-0.3,0-0.5,0.1c-0.1,0.1-0.2,0.1-0.3,0.2c-0.1,0.1-0.2,0.2-0.3,0.4c0,0.1-0.1,0.2-0.1,0.3
	c0-0.1,0-0.2-0.1-0.2c-0.1-0.2-0.2-0.3-0.3-0.4c-0.1-0.1-0.2-0.2-0.3-0.2c-0.1-0.1-0.3-0.1-0.5-0.1s-0.3,0-0.5,0.1s-0.3,0.1-0.4,0.2
	c-0.1,0.1-0.2,0.2-0.3,0.3c-0.1,0.2-0.1,0.3-0.1,0.5c0,0.2,0,0.3,0.1,0.5C155.1,4.9,155.2,5,155.2,5.1z M137.5,5.4
	c0.1,0.1,0.2,0.2,0.4,0.2s0.3,0.1,0.5,0.1s0.3,0,0.5-0.1c0.1-0.1,0.2-0.1,0.3-0.2s0.2-0.2,0.3-0.4c0.1-0.2,0.1-0.3,0.1-0.5
	s0-0.3-0.1-0.5c-0.1-0.1-0.2-0.3-0.3-0.4c-0.1-0.1-0.3-0.2-0.4-0.3c-0.1,0-0.3-0.1-0.4-0.1c-0.2,0-0.3,0-0.4,0.1s-0.3,0.1-0.4,0.3
	c-0.1,0.1-0.2,0.2-0.3,0.4c-0.1,0.1-0.1,0.3-0.1,0.5s0,0.3,0.1,0.5C137.3,5.2,137.4,5.3,137.5,5.4z M170.1,9.3
	c0.2,0.3,0.2,0.7,0.2,1.2v2.2h-13.1c-0.5,0-0.9-0.1-1.3-0.2c-0.4-0.1-0.8-0.3-1.1-0.6s-0.5-0.6-0.7-1s-0.3-0.8-0.3-1.3
	s0.1-1,0.3-1.4c0.2-0.4,0.4-0.7,0.7-1s0.6-0.5,1-0.6s0.8-0.2,1.3-0.2s0.9,0.1,1.3,0.2c0.4,0.1,0.7,0.3,1,0.6c0.3,0.3,0.5,0.6,0.7,1
	c0.2,0.4,0.2,0.8,0.2,1.3v1.9h7.9v-0.8c0-0.3,0-0.6-0.1-0.8c0-0.2-0.1-0.3-0.2-0.4c-0.1-0.1-0.2-0.2-0.4-0.2s-0.4-0.1-0.7-0.1h-4.4
	V8l2.9-2.4l1.9-1.7c0.3-0.2,0.5-0.5,0.8-0.7c0.2-0.3,0.4-0.5,0.6-0.8l0.1-0.1h0.5v0.3c0,0.3,0,0.6-0.2,0.9c-0.1,0.3-0.3,0.5-0.5,0.8
	s-0.4,0.5-0.7,0.8c-0.2,0.3-0.5,0.5-0.7,0.7l-0.7,0.6c-0.2,0.2-0.4,0.4-0.5,0.5L164.6,8h2.5c0.4,0,0.8,0,1.2,0.2
	c0.4,0.1,0.7,0.3,1,0.5C169.7,8.7,169.9,9,170.1,9.3z M156.7,11.3c0.2,0.1,0.4,0.1,0.6,0.1h1.1V9.7c0-0.3,0-0.5,0-0.8
	s-0.1-0.5-0.2-0.7c-0.1-0.2-0.2-0.4-0.3-0.5s-0.3-0.2-0.6-0.2c-0.2,0-0.4,0-0.5,0.2c-0.2,0.1-0.3,0.3-0.4,0.4
	c-0.1,0.2-0.2,0.5-0.2,0.7C156.1,9,156,9.3,156,9.5c0,0.3,0,0.5,0.1,0.8c0.1,0.2,0.1,0.4,0.2,0.6C156.4,11.1,156.5,11.2,156.7,11.3z
	 M103.1,3.2l2.4,1v0.5l-0.1,0.1c-0.1,0.1-0.2,0.2-0.3,0.2c-0.1,0.1-0.2,0.2-0.3,0.2c0,0,0,0,0,0.1c0,0,0,0.1,0,0.2v7.3h-4.9L98.8,12
	c-0.3,0.1-0.6,0.2-0.8,0.3c-0.3,0.1-0.7,0.2-1,0.3s-0.7,0.1-1,0.2c-0.3,0-0.6,0-0.8,0h-5V5.2l-0.1-1.6l0.5-0.4l2.4,1v0.5l-0.1,0.1
	c-0.2,0.2-0.4,0.3-0.5,0.3c-0.1,0.1-0.1,0.1-0.1,0.1v0.1c0,0.1,0,0.3,0,0.5v5.7h2.6c0.6,0,1.1-0.1,1.6-0.2c0.3-0.1,0.6-0.2,0.9-0.3
	l-2.9-2V8.2l0.1-0.1c0.2-0.3,0.4-0.5,0.7-0.7c0.3-0.2,0.5-0.3,0.8-0.5s0.6-0.3,0.9-0.3s0.7-0.1,1-0.1c0.4,0,0.7,0,1.1,0.2
	c0.4,0.1,0.7,0.3,1,0.5s0.6,0.5,0.7,0.8c0.2,0.3,0.3,0.7,0.3,1c0,0.6-0.1,1.1-0.4,1.6c-0.2,0.3-0.5,0.6-0.8,0.8l0.2,0.1h2.7V5.2
	l-0.1-1.6L103.1,3.2z M95.6,8.4l2.8,1.9c0.2-0.2,0.3-0.4,0.4-0.6C98.9,9.5,99,9.2,99,8.9c0-0.2,0-0.4-0.2-0.6
	c-0.1-0.2-0.3-0.3-0.5-0.5c-0.2-0.1-0.4-0.2-0.7-0.3c-0.1,0-0.2,0-0.3,0c-0.1,0-0.3,0-0.4,0c-0.3,0.1-0.5,0.2-0.8,0.3
	C95.9,8,95.8,8.2,95.6,8.4z M106.5,3.6v1.6v7.6h2v-7c0-0.2,0-0.4,0-0.5V5.2c0,0,0.1-0.1,0.2-0.1c0.1-0.1,0.3-0.2,0.4-0.4l0.1-0.1
	V4.2l-2.3-1L106.5,3.6z M119.9,13.8c-0.1-0.1-0.2-0.2-0.3-0.2c-0.1-0.1-0.3-0.1-0.5-0.1s-0.3,0-0.5,0.1c-0.1,0.1-0.3,0.1-0.3,0.3
	c-0.1,0.1-0.2,0.2-0.3,0.4c-0.1,0.2-0.1,0.3-0.1,0.4c0,0.2,0,0.3,0.1,0.5c0.1,0.1,0.2,0.3,0.3,0.4c0.1,0.1,0.2,0.2,0.4,0.2
	c0.1,0.1,0.3,0.1,0.5,0.1s0.4,0,0.5-0.1s0.2-0.1,0.3-0.2c0.1-0.1,0.2-0.3,0.3-0.4c0-0.1,0.1-0.3,0.1-0.4s0-0.3-0.1-0.4
	C120.1,14.1,120,13.9,119.9,13.8z M133.2,13.8c-0.1-0.1-0.2-0.2-0.4-0.2c-0.1-0.1-0.3-0.1-0.5-0.1c-0.1,0-0.3,0-0.4,0.1
	c-0.1,0.1-0.3,0.2-0.4,0.3c-0.1,0.1-0.2,0.2-0.3,0.4c0,0.1,0,0.1-0.1,0.2c0,0,0-0.1,0-0.2c-0.1-0.2-0.1-0.3-0.3-0.4
	c-0.1-0.1-0.2-0.2-0.4-0.3s-0.3-0.1-0.5-0.1s-0.3,0-0.5,0.1c-0.1,0.1-0.3,0.1-0.4,0.2c-0.1,0.1-0.2,0.2-0.3,0.4
	c-0.1,0.1-0.1,0.3-0.1,0.4c0,0.2,0,0.3,0.1,0.5s0.2,0.3,0.3,0.4c0.1,0.1,0.2,0.2,0.4,0.2c0.1,0.1,0.3,0.1,0.5,0.1s0.3,0,0.5-0.1
	s0.3-0.1,0.4-0.2c0.1-0.1,0.2-0.2,0.3-0.4c0,0,0-0.1,0-0.2c0,0.1,0,0.1,0.1,0.2c0.1,0.1,0.2,0.3,0.3,0.4c0.1,0.1,0.2,0.2,0.4,0.3
	c0.1,0,0.3,0.1,0.4,0.1c0.2,0,0.4,0,0.5-0.1s0.3-0.1,0.4-0.2c0.1-0.1,0.2-0.2,0.3-0.4c0.1-0.1,0.1-0.3,0.1-0.5c0-0.1,0-0.3-0.1-0.4
	C133.4,14.1,133.3,13.9,133.2,13.8z M121.4,6.9l0.1,1.7v2.9h-4.4c-0.3,0-0.6,0-0.8,0c-0.3,0-0.5-0.1-0.7-0.2
	c-0.2-0.1-0.3-0.2-0.4-0.5c-0.1-0.2-0.2-0.5-0.2-0.9c0-0.1,0-0.3,0-0.4c0-0.2,0.1-0.3,0.1-0.5s0.1-0.3,0.1-0.4
	c0.1-0.1,0.1-0.2,0.2-0.3l0.1-0.2L115,7.6l-0.7,0.5c-0.2,0.2-0.4,0.4-0.6,0.6s-0.4,0.5-0.5,0.8s-0.2,0.6-0.2,0.9
	c0,0.3,0.1,0.6,0.2,0.9c0.1,0.2,0.3,0.4,0.5,0.6c0.2,0.2,0.4,0.3,0.7,0.4c0.3,0.1,0.5,0.2,0.8,0.2s0.5,0.1,0.8,0.1s0.5,0,0.6,0h7v-4
	V8.5c0,0,0.1-0.1,0.2-0.1c0.1-0.1,0.3-0.2,0.4-0.3l0.1-0.1V7.5l-2.3-1L121.4,6.9z M147.7,3.6v1.6v7.6h2v-7c0-0.2,0-0.4,0-0.5V5.2
	c0,0,0.1-0.1,0.2-0.1c0.1-0.1,0.3-0.2,0.4-0.4l0.1-0.1V4.2l-2.3-1L147.7,3.6z M186.3,7.8l-0.5,0.4l0.1,1.6v1.6h-0.6
	c-0.3,0-0.5,0-0.7-0.2c-0.2-0.1-0.3-0.2-0.5-0.3V8.5l-1.6-0.7L182,8.2v1.6v1.6h-0.6c-0.2,0-0.4,0-0.7-0.2c-0.2-0.1-0.4-0.2-0.5-0.3
	V8.5l-1.6-0.7l-0.5,0.3l0.1,1.6v1.6h-2.1c-0.2,0-0.4,0-0.7-0.2c-0.2-0.1-0.4-0.2-0.5-0.3v-0.5c0-0.2,0-0.4,0-0.5V9.7
	c0,0,0.1-0.1,0.2-0.1l0.6-0.4V8.8l-2.4-1L173,8.2l0.1,1.6v2c0,0.4,0,0.7,0,1s0,0.5,0,0.8c0,0.2-0.1,0.4-0.1,0.5
	c-0.1,0.2-0.2,0.3-0.3,0.5c-0.1,0.1-0.2,0.3-0.4,0.4c-0.2,0.1-0.4,0.2-0.7,0.4l-0.3,0.1l0.3,0.7l0.2-0.1c0.5-0.2,1-0.4,1.4-0.5
	c0.4-0.2,0.8-0.4,1.1-0.8c0.3-0.3,0.5-0.7,0.6-1.1s0.2-0.9,0.2-1.4l0,0c0.1,0.1,0.1,0.1,0.2,0.2c0.1,0.1,0.3,0.2,0.4,0.2
	c0.2,0.1,0.3,0.1,0.5,0.1h4.1v-0.5c0.1,0.1,0.1,0.1,0.2,0.2c0.1,0.1,0.3,0.2,0.4,0.3c0.2,0.1,0.3,0.1,0.5,0.1h2.7v-0.5
	c0.1,0,0.1,0.1,0.2,0.2c0.1,0.1,0.3,0.2,0.4,0.3c0.2,0.1,0.3,0.1,0.6,0.1h2.7v-2.3c0-0.1,0-0.3,0-0.3l0,0l0,0c0-0.1,0-0.1,0-0.2l0,0
	c0,0,0.1-0.1,0.2-0.2c0.1-0.1,0.2-0.2,0.3-0.3l0.1-0.1V8.8L186.3,7.8z M74.2,13.8c-0.1-0.1-0.2-0.2-0.4-0.2
	c-0.1-0.1-0.3-0.1-0.5-0.1c-0.1,0-0.3,0-0.5,0.1c-0.1,0.1-0.3,0.1-0.4,0.2c-0.1,0.1-0.2,0.2-0.3,0.4c0,0,0,0.1,0,0.2
	c0,0,0-0.1,0-0.2c-0.1-0.2-0.2-0.3-0.3-0.4c-0.1-0.1-0.2-0.2-0.4-0.2c-0.2-0.1-0.3-0.1-0.4-0.1c-0.2,0-0.3,0-0.5,0.1
	c-0.1,0.1-0.3,0.1-0.4,0.2c-0.1,0.1-0.2,0.2-0.3,0.4c-0.1,0.2-0.1,0.3-0.1,0.4c0,0.2,0,0.3,0.1,0.5c0.1,0.1,0.2,0.3,0.3,0.4
	c0.1,0.1,0.2,0.2,0.4,0.2c0.1,0.1,0.3,0.1,0.5,0.1c0.1,0,0.3,0,0.4-0.1s0.3-0.1,0.4-0.2c0.1-0.1,0.2-0.2,0.3-0.4c0,0,0-0.1,0-0.2
	c0,0,0,0.1,0,0.2c0.1,0.2,0.2,0.3,0.3,0.4c0.1,0.1,0.3,0.2,0.4,0.2s0.3,0.1,0.4,0.1c0.2,0,0.3,0,0.5-0.1c0.1-0.1,0.3-0.1,0.4-0.2
	c0.1-0.1,0.2-0.2,0.3-0.4c0.1-0.1,0.1-0.3,0.1-0.5c0-0.1,0-0.3-0.1-0.4C74.4,14.1,74.3,13.9,74.2,13.8z M131.2,6.9l0.1,1.7v2.9h-3.7
	V5.8c0-0.2,0-0.4,0-0.5V5.2c0,0,0-0.1,0.1-0.1c0.1-0.1,0.3-0.2,0.5-0.3l0.1-0.1V4.2l-2.4-1l-0.5,0.4l0.1,1.6v7.6h7.8v-4
	c0-0.1,0-0.1,0-0.2c0-0.1,0-0.1,0-0.1s0,0,0.1,0c0,0,0.1-0.1,0.2-0.1c0.1,0,0.2-0.1,0.4-0.3l0.1-0.1V7.5l-2.4-1L131.2,6.9z
	 M86.4,3.2l2.4,1v0.5l-0.1,0.1C88.6,4.9,88.5,5,88.4,5c-0.1,0.1-0.2,0.2-0.3,0.2c0,0,0,0,0,0.1c0,0,0,0.1,0,0.2v7.3h-3.9
	c-0.2,0-0.4,0-0.5-0.1c-0.2-0.1-0.3-0.1-0.5-0.3c-0.1-0.1-0.3-0.2-0.4-0.3L82.7,12c-0.2,0.2-0.4,0.4-0.7,0.5
	c-0.4,0.2-0.8,0.3-1.3,0.3c-0.3,0-0.6,0-0.8-0.1c-0.3-0.1-0.5-0.1-0.6-0.3c-0.1,0-0.1-0.1-0.2-0.1v0.5h-4.2c-0.2,0-0.3,0-0.5-0.1
	s-0.3-0.1-0.4-0.3c-0.1,0-0.1-0.1-0.2-0.2v0.5h-7.9c-0.5,0-0.9-0.1-1.3-0.2c-0.4-0.1-0.8-0.3-1.1-0.6s-0.5-0.6-0.7-1
	s-0.3-0.8-0.3-1.3s0.1-0.9,0.3-1.4c0.2-0.4,0.4-0.7,0.7-1s0.6-0.5,1-0.6s0.8-0.2,1.3-0.2s0.9,0.1,1.3,0.2s0.7,0.3,1,0.6
	c0.3,0.3,0.5,0.6,0.7,1C69,8.6,69,9,69,9.5v1.9h2.7V8.5V6.8l0.5-0.3l2.4,1V8l-0.1,0.1c-0.2,0.2-0.3,0.3-0.4,0.3S74,8.5,74,8.5
	l-0.1,0.1c0,0.1,0,0.2,0,0.2V11c0.1,0.1,0.3,0.2,0.5,0.3s0.4,0.2,0.6,0.2h2.2V9.8c0-0.5,0.1-0.9,0.2-1.2c0.1-0.4,0.4-0.7,0.6-0.9
	c0.3-0.2,0.6-0.4,1-0.5C79.3,7,79.7,7,80.2,7s0.9,0.1,1.3,0.2s0.7,0.3,1,0.5C82.8,8,83,8.3,83.2,8.6c0.2,0.4,0.3,0.8,0.3,1.3
	s-0.1,0.9-0.3,1.2c0.1,0.1,0.2,0.1,0.4,0.2c0.2,0.1,0.4,0.1,0.6,0.1h1.9V5.1L86,3.5L86.4,3.2z M79.1,10.7c0,0,0,0,0,0.2
	c0,0.1,0.1,0.2,0.2,0.2c0.1,0.1,0.2,0.2,0.4,0.2c0.2,0.1,0.4,0.1,0.6,0.1s0.3,0,0.5-0.1c0.1-0.1,0.2-0.2,0.3-0.3
	c0.1-0.1,0.2-0.3,0.2-0.5s0.1-0.5,0.1-0.7c0-0.3,0-0.6-0.1-0.8c0-0.2-0.1-0.4-0.2-0.6C81,8.3,80.9,8.1,80.8,8
	c-0.1-0.1-0.3-0.1-0.6-0.1c-0.3,0-0.4,0-0.6,0.1c-0.1,0.1-0.3,0.2-0.3,0.4c-0.1,0.2-0.1,0.4-0.2,0.6c0,0.3,0,0.5,0,0.8
	C79.1,9.8,79.1,10.7,79.1,10.7z M65.3,11.3c0.2,0.1,0.4,0.1,0.6,0.1H67V9.7c0-0.3,0-0.5,0-0.8s-0.1-0.5-0.2-0.7s-0.2-0.4-0.3-0.5
	c-0.1-0.1-0.3-0.2-0.6-0.2c-0.2,0-0.4,0-0.5,0.2c-0.3,0-0.4,0.1-0.5,0.3s-0.2,0.5-0.2,0.7c-0.1,0.3-0.1,0.5-0.1,0.8s0,0.5,0.1,0.8
	c0.1,0.2,0.1,0.4,0.2,0.6C65,11.1,65.1,11.2,65.3,11.3z M56.1,3.6l0.1,1.6v6.3h-1.9c-0.2,0-0.5,0-0.7-0.2c-0.2-0.1-0.3-0.2-0.5-0.3
	V5.8c0-0.2,0-0.4,0-0.5s0-0.1,0-0.1s0,0,0.1-0.1s0.3-0.2,0.5-0.3l0.1-0.1V4.2l-2.5-1l-0.4,0.5L51,5.3v6.3h-2.2V6.7
	c0-0.1,0-0.1,0-0.2l0.1-0.1c0,0,0.1-0.1,0.2-0.1c0.1-0.1,0.2-0.1,0.3-0.2L49.6,6V5.5l-2.4-1l-0.5,0.4l0.1,1.6v5h-2.2
	c0,0-0.1,0-0.2,0c-0.1,0-0.2,0-0.3,0s-0.2,0-0.3,0h-0.1l-0.3-0.3l-0.3,0.7l0.1,0.1c0.1,0.1,0.2,0.2,0.4,0.3l0.4,0.3
	c0.2,0.1,0.4,0.2,0.6,0.2c0.2,0.1,0.5,0.1,0.7,0.1h7.8v-0.5c0.1,0,0.1,0.1,0.2,0.1c0.1,0.1,0.3,0.2,0.5,0.2c0.2,0.1,0.3,0.1,0.5,0.1
	h3.9V5.4c0-0.1,0-0.1,0-0.2c0,0,0,0,0-0.1c0.1,0,0.2-0.1,0.3-0.2s0.2-0.1,0.3-0.2l0.2,0V4.2l-2.4-1L56.1,3.6z"/>
</svg>
