<?xml version="1.0" encoding="utf-8"?>
<!-- Generator: Adobe Illustrator 24.3.0, SVG Export Plug-In . SVG Version: 6.00 Build 0)  -->
<svg version="1.1" id="Layer_1" xmlns="http://www.w3.org/2000/svg" xmlns:xlink="http://www.w3.org/1999/xlink" x="0px" y="0px"
	 viewBox="0 0 543 150" style="enable-background:new 0 0 543 150;" xml:space="preserve">
<style type="text/css">
	.st0{fill:url(#SVGID_1_);}
	.st1{fill:url(#SVGID_2_);}
	.st2{fill:url(#SVGID_3_);}
	.st3{fill:none;}
	.st4{fill:url(#SVGID_4_);}
	.st5{fill:url(#SVGID_5_);}
</style>
<g>
	<linearGradient id="SVGID_1_" gradientUnits="userSpaceOnUse" x1="409.9979" y1="136.9749" x2="540.6075" y2="136.9749">
		<stop  offset="0" style="stop-color:#1C4E9D"/>
		<stop  offset="0.2457" style="stop-color:#1F468D"/>
		<stop  offset="0.6903" style="stop-color:#243465"/>
	</linearGradient>
	<path class="st0" d="M423.13,143.09l-0.71-1.7h-8.26l-2.55,5.51H410l9.16-19.99h1.4l6.96,16.17c0.75,1.79,1.83,2.88,3.23,3.03v0.76
		c-0.34,0.09-1.03,0.15-1.49,0.15C427.2,147.03,424.63,146.55,423.13,143.09z M421.83,140.03l-3.42-7.9l-3.6,7.9H421.83z
		 M432.8,130.86c0-1.82-0.31-3.03-2.17-3.03h-0.31v-0.91h3.73c2.17,0,2.8,0.94,2.8,3.94v14.69h10.71v1.36H432.8V130.86z
		 M451.18,128.28h-2.2c-2.21,0-3.57,0.94-3.57,3.63h-0.93v-2.57c0-1.21,0.5-2.42,2.64-2.42h14.6v1.36h-6.49v18.63h-4.04V128.28z
		 M464.79,130.86c0-1.82-0.31-3.03-2.17-3.03h-0.31v-0.91h3.73c2.17,0,2.8,0.94,2.8,3.94v5h8.38v-8.93h4.04v16.05
		c0,1.82,0.31,3.03,2.17,3.03h0.31v0.91h-3.73c-2.17,0-2.8-0.88-2.8-3.94v-5.75h-8.38v9.69h-4.04V130.86z M492.87,138.91l-5.5-8.06
		c-1.09-1.54-2.7-3.18-4.13-3.33v-0.61h3.39c2.33,0,4.07,1.79,5.06,3.33l4.22,6.21l6.02-9.54h2.02l-7.05,11.18v8.81h-4.04V138.91z
		 M514.95,143.09l-0.71-1.7h-8.26l-2.55,5.51h-1.62l9.16-19.99h1.4l6.96,16.17c0.74,1.79,1.83,2.88,3.23,3.03v0.76
		c-0.34,0.09-1.02,0.15-1.49,0.15C519.02,147.03,516.44,146.55,514.95,143.09z M513.65,140.03l-3.42-7.9l-3.6,7.9H513.65z
		 M524.61,130.86c0-1.82-0.31-3.03-2.17-3.03h-0.31v-0.91h8.39c3.88,0,9.16,0.51,9.16,5.3c0,1.73-1.43,3.63-4.32,4.36
		c4.07,0.39,5.25,2.45,5.25,4.78c0,4.63-4.75,5.54-9.16,5.54h-6.83V130.86z M530.98,135.98c2.52,0,4.35-1.03,4.35-3.91
		c0-3-2.42-3.94-4.81-3.94c-0.47,0-0.96,0.03-1.86,0.21v7.63H530.98z M536.26,141.52c0-2.79-1.77-4.18-5.28-4.18h-2.33v8.06
		c0.43,0.12,1.34,0.3,2.33,0.3C534.43,145.7,536.26,144.18,536.26,141.52z"/>
	<linearGradient id="SVGID_2_" gradientUnits="userSpaceOnUse" x1="407.8626" y1="36.12" x2="504.6371" y2="36.12">
		<stop  offset="0" style="stop-color:#1C4E9D"/>
		<stop  offset="0.356" style="stop-color:#1F468D"/>
		<stop  offset="1" style="stop-color:#243465"/>
	</linearGradient>
	<path class="st1" d="M503.44,51.2l-12.62,11.25c-1.48,1.32-3.74,1.19-5.06-0.29l-21.4-24.01c-1.32-1.48-3.58-1.61-5.06-0.29
		l-34.23,30.51c-1.48,1.32-3.74,1.19-5.06-0.29l-11.25-12.62c-1.32-1.48-1.19-3.74,0.29-5.06l36.91-32.89l15.3-13.63
		c1.48-1.32,3.74-1.19,5.06,0.29l13.63,15.29l23.78,26.68C505.05,47.62,504.92,49.88,503.44,51.2z"/>
	<linearGradient id="SVGID_3_" gradientUnits="userSpaceOnUse" x1="444.5613" y1="78.5528" x2="541.3358" y2="78.5528">
		<stop  offset="0" style="stop-color:#A87419"/>
		<stop  offset="0.5947" style="stop-color:#C5912C"/>
		<stop  offset="1" style="stop-color:#D3A036"/>
	</linearGradient>
	<path class="st2" d="M445.76,63.47l12.62-11.25c1.48-1.32,3.74-1.19,5.06,0.29l21.4,24.01c1.32,1.48,3.58,1.61,5.06,0.29
		l34.23-30.51c1.48-1.32,3.74-1.19,5.06,0.29l11.25,12.62c1.32,1.48,1.19,3.74-0.29,5.06l-36.91,32.89l-15.3,13.63
		c-1.48,1.32-3.74,1.19-5.06-0.29l-13.63-15.29l-23.78-26.68C444.15,67.05,444.28,64.79,445.76,63.47z"/>
	<line class="st3" x1="422.4" y1="70.75" x2="406.39" y2="52.78"/>
	<linearGradient id="SVGID_4_" gradientUnits="userSpaceOnUse" x1="189.3798" y1="66.7992" x2="189.3798" y2="94.8534">
		<stop  offset="0" style="stop-color:#A87419"/>
		<stop  offset="0.5947" style="stop-color:#C5912C"/>
		<stop  offset="1" style="stop-color:#D3A036"/>
	</linearGradient>
	<path class="st4" d="M17.13,84.28l-0.79-1.88H7.18L4.36,88.5H2.57l10.15-22.15h1.55l7.71,17.92c0.83,1.98,2.03,3.19,3.58,3.36v0.84
		c-0.38,0.1-1.14,0.17-1.65,0.17C21.63,88.64,18.78,88.1,17.13,84.28z M15.68,80.89l-3.79-8.76L7.9,80.89H15.68z M26.76,70.72
		c0-2.01-0.34-3.36-2.41-3.36h-0.34v-1.01h4.13c2.41,0,3.1,1.04,3.1,4.36V88.5h-4.47V70.72z M36.23,83.94v-9.7h-2.06v-1.51h2.06
		v-3.02l1.72-2.01h2.75v5.03h3.79v1.51H40.7v9.9c0,2.52,0.65,3.19,1.79,3.19c1.2,0,2.13-0.5,2.72-0.91l0.48,0.94
		c-0.93,0.81-2.37,1.48-4.47,1.48C38.09,88.84,36.23,87.16,36.23,83.94z M47.69,70.72c0-2.01-0.34-3.36-2.41-3.36h-0.34v-1.01h4.13
		c2.41,0,3.1,1.04,3.1,4.36v2.95c0.76-0.57,2.24-1.28,3.79-1.28c3.13,0,6.54,1.21,6.54,6.14v9.97h-4.47v-9.8
		c0-3.46-1.48-4.63-3.1-4.63c-1.2,0-2.27,0.77-2.75,1.17V88.5h-4.47V70.72z M67.24,94.04c2.37,0,3.96-0.7,4.96-3.26l0.72-1.81
		l-6.19-13.22c-0.76-1.64-1.82-2.52-3.2-2.69v-0.67h3.03c2.06,0,3.68,1.04,4.47,2.68l3.96,8.46l4.2-10.81H81l-6.95,17.96
		c-1.38,3.66-3.06,4.53-5.44,4.53h-1.38V94.04z M82.35,84.31c0-3.19,1.89-5.03,9.29-5.03h0.52c0-4.03-1.2-5.37-3.27-5.37
		c-1.55,0-2.89,0.5-3.44,3.02h-1.89c0-1.17,0.03-2.45,0.86-3.36c0.83-0.91,2.93-1.17,5.16-1.17c4.51,0,7.05,2.32,7.05,7.05v9.06
		H93.7l-1.2-1.51h-0.17c-0.62,0.94-2.06,1.85-4.13,1.85C84.38,88.84,82.35,86.99,82.35,84.31z M92.15,84.98v-4.2h-0.52
		c-3.3,0-4.65,1.14-4.65,3.52c0,1.88,0.86,2.85,2.24,2.85C90.74,87.16,91.78,85.92,92.15,84.98z M104.78,86.99h-0.17l-1.2,1.51
		h-2.93V70.72c0-2.01-0.34-3.36-2.41-3.36h-0.34v-1.01h4.13c2.41,0,3.1,1.04,3.1,4.36v2.69c0.83-0.5,2.03-1.01,3.61-1.01
		c4.99,0,7.4,3.62,7.4,8.22c0,4.6-2.41,8.22-7.23,8.22C106.71,88.84,105.37,87.9,104.78,86.99z M111.32,80.62
		c0-3.86-0.86-6.71-3.44-6.71c-1.34,0-2.34,0.6-2.93,1.01v10.24c0.52,1.11,1.62,2.18,3.1,2.18
		C110.43,87.33,111.32,84.48,111.32,80.62z M127.05,77.09c0-6.44,4.51-11.41,11.36-11.41c4.3,0,7.06,1.28,8.33,2.72
		c0.89,1.14,0.89,3.16,0.89,4.67h-1.03c-0.86-4.13-3.17-5.87-7.16-5.87c-5.47,0-7.57,4.77-7.57,9.9c0,8.16,3.34,10.74,7.57,10.74
		c2.06,0,3.44-0.34,4.65-0.87v-5.97c0-1.85,0.83-4.1,6.68-4.1v0.84c-1.55,0-2.2,1.17-2.2,3.19v6.01c-2.65,1.58-5.57,2.25-9.12,2.25
		C132.28,89.18,127.05,83.87,127.05,77.09z M153.31,70.72c0-2.01-0.34-3.36-2.41-3.36h-0.34v-1.01h4.13c2.41,0,3.1,1.04,3.1,4.36
		V88.5h-4.47V70.72z M161.23,80.62c0-4.6,3.13-8.22,8.26-8.22c5.13,0,8.26,3.62,8.26,8.22c0,4.6-3.13,8.22-8.26,8.22
		C164.36,88.84,161.23,85.22,161.23,80.62z M173.1,80.62c0-3.86-1.2-6.71-3.61-6.71c-2.41,0-3.61,2.85-3.61,6.71
		c0,3.86,1.2,6.71,3.61,6.71C171.9,87.33,173.1,84.48,173.1,80.62z M185.35,86.99h-0.17l-1.2,1.51h-2.93V70.72
		c0-2.01-0.34-3.36-2.41-3.36h-0.34v-1.01h4.13c2.41,0,3.1,1.04,3.1,4.36v2.69c0.83-0.5,2.03-1.01,3.61-1.01
		c4.99,0,7.4,3.62,7.4,8.22c0,4.6-2.41,8.22-7.23,8.22C187.28,88.84,185.94,87.9,185.35,86.99z M191.89,80.62
		c0-3.86-0.86-6.71-3.44-6.71c-1.34,0-2.34,0.6-2.93,1.01v10.24c0.52,1.11,1.62,2.18,3.1,2.18C191,87.33,191.89,84.48,191.89,80.62z
		 M198.81,84.31c0-3.19,1.89-5.03,9.29-5.03h0.52c0-4.03-1.2-5.37-3.27-5.37c-1.55,0-2.89,0.5-3.44,3.02h-1.89
		c0-1.17,0.03-2.45,0.86-3.36c0.83-0.91,2.93-1.17,5.16-1.17c4.51,0,7.05,2.32,7.05,7.05v9.06h-2.93l-1.2-1.51h-0.17
		c-0.62,0.94-2.06,1.85-4.13,1.85C200.84,88.84,198.81,86.99,198.81,84.31z M208.62,84.98v-4.2h-0.52c-3.3,0-4.65,1.14-4.65,3.52
		c0,1.88,0.86,2.85,2.24,2.85C207.21,87.16,208.24,85.92,208.62,84.98z M217.09,70.72c0-2.01-0.34-3.36-2.41-3.36h-0.34v-1.01h4.13
		c2.41,0,3.1,1.04,3.1,4.36V88.5h-4.47V70.72z M233.64,77.76c0-6.78,4.85-12.08,11.36-12.08c4.3,0,6.88,1.28,8.16,2.72
		c0.93,1.18,0.89,3.12,0.89,5.1h-1.03c-0.86-4.06-3.17-6.31-6.99-6.31c-4.23,0-7.57,2.42-7.57,10.57c0,5.14,2.1,9.9,7.57,9.9
		c3.17,0,6.02-1.68,7.67-4.8l1.2,0.91c-2.17,3.73-5.09,5.4-9.91,5.4C237.74,89.18,233.64,84.21,233.64,77.76z M256.97,80.62
		c0-4.6,3.13-8.22,8.26-8.22c5.13,0,8.26,3.62,8.26,8.22c0,4.6-3.13,8.22-8.26,8.22C260.11,88.84,256.97,85.22,256.97,80.62z
		 M268.85,80.62c0-3.86-1.2-6.71-3.61-6.71s-3.61,2.85-3.61,6.71c0,3.86,1.2,6.71,3.61,6.71S268.85,84.48,268.85,80.62z
		 M277.49,77.09c0-2.01-0.31-3.36-2.37-3.36h-0.34v-1.01h3.41c1.38,0,2.41,0.34,2.93,1.28h0.14c0.83-0.71,2.27-1.61,4.34-1.61
		c2.58,0,4.23,1.31,4.75,1.91c0.93-0.97,2.24-1.91,4.89-1.91c3.82,0,6.02,1.85,6.02,6.18v9.93h-4.47v-9.97
		c0-3.26-1.2-4.46-2.75-4.46c-1.27,0-2.37,0.57-2.96,1.28c0.34,0.67,0.55,1.88,0.55,3.22v9.93h-4.47v-9.97
		c0-3.26-1.2-4.46-2.75-4.46c-0.89,0-1.86,0.57-2.41,1.07V88.5h-4.47V77.09z M305.91,77.09c0-2.01-0.31-3.36-2.37-3.36h-0.34v-1.01
		h3.41c1.55,0,2.37,0.34,2.89,1.41c0.83-0.71,2.27-1.75,4.68-1.75c4.82,0,7.23,3.62,7.23,8.22c0,4.6-2.41,8.22-7.4,8.22
		c-1.51,0-2.92-0.5-3.61-1.01v7.05h-4.47V77.09z M316.75,80.62c0-3.86-0.89-6.71-3.27-6.71c-1.55,0-2.48,0.6-3.1,1.14v11.28
		c0.55,0.47,1.76,1.01,2.93,1.01C315.89,87.33,316.75,84.48,316.75,80.62z M323.67,84.31c0-3.19,1.89-5.03,9.29-5.03h0.52
		c0-4.03-1.2-5.37-3.27-5.37c-1.55,0-2.89,0.5-3.44,3.02h-1.89c0-1.17,0.03-2.45,0.86-3.36s2.93-1.17,5.16-1.17
		c4.51,0,7.06,2.32,7.06,7.05v9.06h-2.93l-1.2-1.51h-0.17c-0.62,0.94-2.07,1.85-4.13,1.85C325.7,88.84,323.67,86.99,323.67,84.31z
		 M333.48,84.98v-4.2h-0.52c-3.3,0-4.65,1.14-4.65,3.52c0,1.88,0.86,2.85,2.24,2.85C332.07,87.16,333.1,85.92,333.48,84.98z
		 M342.5,77.09c0-2.01-0.31-3.36-2.37-3.36h-0.34v-1.01h3.41c1.55,0,2.37,0.34,2.89,1.24c0.83-0.74,2.2-1.58,5.02-1.58
		c4.3,0,6.54,1.85,6.54,6.18v9.93h-4.47v-9.97c0-3.26-1.38-4.46-3.27-4.46c-1.31,0-2.31,0.37-2.93,0.84V88.5h-4.47V77.09z
		 M362.43,94.04c2.37,0,3.96-0.7,4.96-3.26l0.72-1.81l-6.19-13.22c-0.76-1.64-1.82-2.52-3.2-2.69v-0.67h3.03
		c2.06,0,3.68,1.04,4.47,2.68l3.96,8.46l4.2-10.81h1.82l-6.95,17.96c-1.38,3.66-3.06,4.53-5.44,4.53h-1.38V94.04z"/>
	<linearGradient id="SVGID_5_" gradientUnits="userSpaceOnUse" x1="189.4878" y1="24.1372" x2="189.4878" y2="45.6538">
		<stop  offset="0" style="stop-color:#1C4E9D"/>
		<stop  offset="0.2457" style="stop-color:#1F468D"/>
		<stop  offset="0.6903" style="stop-color:#243465"/>
	</linearGradient>
	<path class="st5" d="M5.87,37.1l4.81,1.95v1.13l-0.25,0.16c-0.41,0.25-0.72,0.44-0.94,0.57c-0.19,0.11-0.25,0.19-0.27,0.22
		c-0.05,0.07-0.07,0.16-0.08,0.26c-0.02,0.19-0.02,0.49-0.02,0.93v3.7c0,1.1-0.12,2.06-0.35,2.84c-0.24,0.81-0.65,1.54-1.23,2.17
		c-0.57,0.61-1.3,1.12-2.15,1.5c-0.81,0.36-1.76,0.72-2.81,1.07l-0.55,0.18l-0.36-1.41l0.41-0.19c0.51-0.23,0.93-0.47,1.26-0.71
		c0.32-0.24,0.61-0.51,0.85-0.8c0.22-0.28,0.38-0.57,0.47-0.87c0.1-0.34,0.19-0.74,0.26-1.18c0.07-0.43,0.11-0.93,0.13-1.49
		c0.02-0.58,0.03-1.23,0.03-1.96v-4.01L4.94,37.9L5.87,37.1z M39.77,32.34c0.19,0.19,0.43,0.34,0.72,0.48c0.3,0.14,0.64,0.21,1,0.21
		c0.29,0,0.59-0.07,0.9-0.21c0.28-0.13,0.53-0.28,0.72-0.45c0.22-0.19,0.41-0.45,0.55-0.77c0.07-0.15,0.12-0.3,0.15-0.46
		c0.02,0.13,0.05,0.26,0.09,0.39c0.1,0.36,0.29,0.65,0.56,0.85c0.21,0.16,0.44,0.31,0.69,0.43c0.29,0.14,0.62,0.21,0.99,0.21
		c0.33,0,0.65-0.07,0.94-0.21c0.25-0.12,0.48-0.27,0.69-0.43c0.25-0.19,0.45-0.46,0.6-0.79c0.14-0.31,0.21-0.62,0.21-0.93
		c0-0.31-0.07-0.62-0.21-0.92c-0.14-0.29-0.33-0.55-0.56-0.75c-0.22-0.2-0.48-0.35-0.75-0.46c-0.28-0.11-0.58-0.17-0.9-0.17
		c-0.36,0-0.68,0.06-0.96,0.17c-0.27,0.11-0.52,0.27-0.74,0.46c-0.26,0.22-0.44,0.5-0.54,0.82c-0.04,0.13-0.07,0.26-0.09,0.38
		c-0.04-0.15-0.09-0.3-0.16-0.45c-0.13-0.29-0.31-0.53-0.52-0.73c-0.21-0.21-0.48-0.37-0.78-0.49c-0.3-0.11-0.6-0.17-0.92-0.17
		c-0.31,0-0.62,0.06-0.92,0.17c-0.31,0.12-0.58,0.29-0.78,0.51c-0.18,0.2-0.34,0.44-0.47,0.71c-0.14,0.3-0.21,0.61-0.21,0.91
		c0,0.3,0.07,0.61,0.21,0.93C39.41,31.9,39.58,32.16,39.77,32.34z M95.19,50.76c0.01-0.12,0.03-0.24,0.05-0.35
		c0.03-0.19,0.13-0.36,0.31-0.53l0.03-0.03l0.03-0.04c0,0,0.02-0.02,0.08-0.04c0.11-0.04,0.24-0.05,0.4-0.05
		c0.09,0,0.26,0.01,0.54,0.09c0.23,0.06,0.49,0.17,0.77,0.32l0.42,0.23l1.06-1.5l-0.89-0.68c-0.21-0.17-0.44-0.31-0.68-0.41
		c-0.24-0.11-0.52-0.18-0.82-0.23c-0.25-0.03-0.48-0.05-0.75-0.05c-0.03,0-0.06,0-0.1,0c-0.6,0.08-1.09,0.27-1.45,0.56
		c-0.35,0.27-0.62,0.61-0.82,0.99c-0.19,0.38-0.31,0.78-0.35,1.19c-0.02,0.18-0.03,0.35-0.04,0.52h-0.99v2.18h7.29l-0.74-2.18H95.19
		z M80.09,37.05l4.73,2v0.98l-0.2,0.16c-0.23,0.18-0.44,0.35-0.65,0.5c-0.22,0.15-0.37,0.26-0.47,0.32
		c-0.04,0.02-0.07,0.05-0.1,0.09c-0.04,0.13-0.04,0.26-0.04,0.43v0.05l-0.01,0.05c-0.02,0.1-0.04,0.29-0.04,0.63v4.65H78
		c-0.43,0-0.81-0.07-1.13-0.2c-0.29-0.12-0.58-0.29-0.85-0.49c-0.12-0.09-0.25-0.19-0.36-0.3v0.99h-5.3c-0.39,0-0.76-0.07-1.09-0.2
		c-0.32-0.13-0.62-0.3-0.87-0.51c-0.12-0.1-0.25-0.21-0.37-0.33v1.03h-8.28c-0.32,0-0.65-0.07-0.98-0.2
		c-0.32-0.12-0.62-0.29-0.89-0.49c-0.12-0.09-0.25-0.19-0.36-0.3v0.99h-9.15c-0.32,0-0.65-0.07-0.98-0.2
		c-0.32-0.12-0.62-0.29-0.89-0.49c-0.12-0.09-0.25-0.19-0.36-0.3v0.99h-9.09c-0.39,0-0.76-0.06-1.1-0.19
		c-0.34-0.12-0.65-0.29-0.92-0.5c-0.26-0.2-0.51-0.43-0.73-0.68c-0.07-0.08-0.13-0.16-0.2-0.24c-0.38,0.42-0.83,0.76-1.35,1.03
		c-0.76,0.39-1.64,0.59-2.63,0.59c-0.58,0-1.12-0.06-1.61-0.17c-0.51-0.12-0.95-0.29-1.3-0.52c-0.12-0.08-0.24-0.16-0.34-0.24v0.93
		H12.91V31.75l-0.12-3.12l0.91-0.89l4.83,2.02v0.93l-0.2,0.16c-0.42,0.33-0.73,0.56-0.94,0.7c-0.18,0.11-0.26,0.19-0.28,0.23
		c-0.03,0.05-0.05,0.12-0.06,0.21c-0.02,0.19-0.02,0.51-0.02,0.98v11.35h5.81v-3.27c0-0.94,0.14-1.78,0.41-2.49
		c0.28-0.73,0.72-1.35,1.29-1.83c0.56-0.47,1.22-0.82,1.97-1.05c0.73-0.23,1.59-0.34,2.54-0.34c0.92,0,1.77,0.12,2.54,0.37
		c0.78,0.25,1.48,0.62,2.07,1.1c0.6,0.49,1.09,1.12,1.45,1.88c0.36,0.76,0.54,1.61,0.54,2.53c0,0.91-0.17,1.74-0.51,2.49
		c0.23,0.16,0.47,0.29,0.72,0.39c0.37,0.15,0.77,0.22,1.21,0.22h4.99v-5.8l-0.06-3.33l0.9-0.66l4.78,1.94v0.96l-0.16,0.16
		c-0.31,0.3-0.58,0.49-0.83,0.59c-0.16,0.06-0.25,0.12-0.29,0.16c-0.08,0.06-0.14,0.12-0.19,0.19c-0.03,0.19-0.04,0.33-0.04,0.48
		v4.36c0.28,0.25,0.61,0.47,0.98,0.65c0.42,0.21,0.82,0.31,1.25,0.31h5.04v-5.8l-0.06-3.33l0.9-0.66l4.78,1.94v0.96l-0.16,0.16
		c-0.31,0.3-0.58,0.49-0.83,0.59c-0.16,0.06-0.25,0.12-0.29,0.16c-0.08,0.06-0.14,0.12-0.19,0.19c-0.04,0.19-0.04,0.33-0.04,0.48
		v4.36c0.29,0.25,0.61,0.47,0.98,0.65c0.42,0.21,0.82,0.31,1.25,0.31h4.23v-3.27l-0.12-3.29l1.03-0.7l3.14,1.37v4.94
		c0.26,0.24,0.59,0.45,0.99,0.63c0.47,0.21,0.92,0.32,1.35,0.32h1.2v-3.27l-0.06-3.27l0.95-0.72l3.21,1.37v4.94
		c0.26,0.24,0.57,0.46,0.94,0.64c0.43,0.21,0.9,0.32,1.39,0.32h1.25v-3.27l-0.12-3.27L80.09,37.05z M26.87,42.79
		c0,0,0,0.09,0.09,0.38c0.04,0.15,0.16,0.31,0.33,0.47c0.21,0.19,0.47,0.35,0.8,0.48c0.31,0.13,0.74,0.2,1.28,0.2
		c0.35,0,0.65-0.07,0.94-0.23c0.28-0.15,0.48-0.34,0.63-0.59c0.17-0.29,0.3-0.64,0.4-1.06c0.1-0.43,0.15-0.9,0.15-1.39
		c0-0.6-0.04-1.14-0.13-1.62c-0.08-0.44-0.21-0.83-0.4-1.14c-0.17-0.29-0.4-0.53-0.71-0.71c-0.29-0.18-0.7-0.27-1.21-0.27
		c-0.5,0-0.88,0.1-1.15,0.29c-0.29,0.21-0.49,0.47-0.64,0.81c-0.16,0.37-0.26,0.81-0.31,1.29c-0.05,0.52-0.08,1.05-0.08,1.56V42.79z
		 M51.74,32.36c0.19,0.17,0.41,0.31,0.64,0.44c0.28,0.15,0.62,0.22,1.04,0.22c0.33,0,0.65-0.07,0.95-0.21
		c0.3-0.13,0.53-0.29,0.72-0.47c0.19-0.19,0.36-0.44,0.5-0.75c0.05-0.12,0.1-0.24,0.13-0.36c0.03,0.11,0.06,0.22,0.1,0.32
		c0.12,0.34,0.32,0.62,0.58,0.82c0.21,0.16,0.44,0.31,0.69,0.43c0.29,0.14,0.64,0.21,1.05,0.21c0.29,0,0.59-0.07,0.9-0.21
		c0.28-0.13,0.53-0.28,0.72-0.45c0.22-0.19,0.41-0.45,0.55-0.77c0.14-0.31,0.21-0.63,0.21-0.93c0-0.31-0.07-0.61-0.21-0.92
		c-0.14-0.29-0.31-0.53-0.52-0.73c-0.21-0.21-0.48-0.37-0.78-0.49c-0.3-0.11-0.59-0.17-0.86-0.17c-0.39,0-0.73,0.06-1.01,0.17
		c-0.27,0.11-0.52,0.27-0.74,0.46c-0.25,0.21-0.43,0.48-0.55,0.79c-0.04,0.11-0.08,0.21-0.1,0.32c-0.03-0.12-0.08-0.24-0.13-0.36
		c-0.13-0.27-0.29-0.51-0.47-0.71c-0.2-0.22-0.46-0.39-0.78-0.51c-0.3-0.11-0.62-0.17-0.97-0.17c-0.36,0-0.68,0.06-0.95,0.18
		c-0.26,0.11-0.49,0.27-0.7,0.47c-0.21,0.2-0.38,0.45-0.52,0.74c-0.14,0.3-0.21,0.61-0.21,0.91c0,0.3,0.07,0.61,0.21,0.93
		C51.33,31.92,51.52,32.17,51.74,32.36z M287.36,28.62l0.23,3.13v12.56h-3.69c-0.46,0-0.9-0.1-1.34-0.32c-0.38-0.18-0.71-0.4-1-0.65
		l0-1.28c0.04-1.11-0.08-2.08-0.35-2.89c-0.28-0.81-0.7-1.52-1.25-2.12c-0.55-0.59-1.25-1.1-2.08-1.51c-0.8-0.4-1.75-0.77-2.82-1.09
		l-0.48-0.14l-0.52,1.34l0.44,0.22c0.74,0.36,1.34,0.75,1.76,1.15c0.41,0.38,0.7,0.81,0.87,1.27c0.18,0.49,0.29,1.11,0.32,1.82
		c0.04,0.78,0.05,1.71,0.05,2.78v1.42h-3.58c-0.58,0-1.07-0.03-1.45-0.1c-0.37-0.06-0.67-0.15-0.9-0.25
		c-0.12-0.06-0.19-0.13-0.22-0.25l-0.13-0.5l-1.53,0.33l0.83,3.37h11.03v-1.04c0.12,0.12,0.24,0.23,0.37,0.33
		c0.56,0.47,1.23,0.7,1.97,0.7h7.74V32.22c0-0.15,0.01-0.27,0.02-0.37c0.01-0.05,0.02-0.09,0.06-0.11c0.18-0.08,0.37-0.2,0.57-0.38
		c0.14-0.12,0.35-0.26,0.61-0.42l0.26-0.16v-1.03l-4.81-2.01L287.36,28.62z M42.11,27.76c0.24,0.19,0.51,0.35,0.8,0.45
		c0.29,0.11,0.58,0.17,0.87,0.17c0.35,0,0.68-0.06,0.97-0.17c0.31-0.12,0.57-0.29,0.78-0.51c0.18-0.2,0.34-0.44,0.47-0.71
		c0.14-0.3,0.21-0.61,0.21-0.91c0-0.31-0.07-0.62-0.22-0.91c-0.12-0.24-0.27-0.47-0.44-0.68c-0.2-0.25-0.47-0.44-0.8-0.56
		c-0.3-0.11-0.6-0.17-0.92-0.17c-0.31,0-0.62,0.06-0.92,0.17c-0.3,0.11-0.57,0.28-0.82,0.5c-0.27,0.24-0.46,0.51-0.56,0.81
		c-0.09,0.26-0.14,0.55-0.14,0.83c0,0.29,0.05,0.57,0.13,0.85C41.64,27.25,41.83,27.53,42.11,27.76z M362.26,32.36
		c0.19,0.17,0.4,0.31,0.64,0.44c0.28,0.15,0.63,0.22,1.04,0.22c0.29,0,0.59-0.07,0.91-0.2c0.31-0.13,0.56-0.28,0.76-0.46
		c0.23-0.2,0.41-0.47,0.53-0.8c0.04-0.1,0.07-0.2,0.09-0.3c0.03,0.1,0.06,0.2,0.09,0.3c0.12,0.34,0.32,0.62,0.58,0.82
		c0.21,0.17,0.46,0.31,0.73,0.44c0.3,0.14,0.62,0.21,0.95,0.21c0.33,0,0.65-0.07,0.94-0.21c0.25-0.12,0.48-0.27,0.69-0.43
		c0.25-0.19,0.45-0.46,0.6-0.79c0.14-0.31,0.21-0.62,0.21-0.9c0-0.28-0.07-0.59-0.21-0.9c-0.14-0.32-0.33-0.59-0.57-0.79
		c-0.23-0.2-0.48-0.35-0.75-0.46c-0.28-0.11-0.58-0.17-0.9-0.17c-0.31,0-0.62,0.06-0.92,0.17c-0.29,0.11-0.56,0.27-0.79,0.47
		c-0.25,0.22-0.44,0.5-0.56,0.83c-0.04,0.1-0.07,0.2-0.09,0.3c-0.02-0.1-0.06-0.2-0.09-0.3c-0.12-0.32-0.29-0.59-0.51-0.81
		c-0.22-0.21-0.49-0.38-0.82-0.49c-0.31-0.11-0.63-0.16-0.96-0.16c-0.34,0-0.65,0.06-0.92,0.18c-0.26,0.11-0.49,0.27-0.7,0.47
		c-0.22,0.22-0.39,0.49-0.51,0.81c-0.11,0.31-0.17,0.6-0.17,0.87c0,0.27,0.06,0.57,0.17,0.87
		C361.85,31.89,362.03,32.16,362.26,32.36z M364.56,27.74c0.23,0.2,0.48,0.36,0.75,0.46c0.28,0.11,0.58,0.17,0.91,0.17
		c0.36,0,0.68-0.06,0.96-0.17c0.28-0.11,0.53-0.28,0.74-0.48c0.21-0.2,0.38-0.45,0.52-0.73c0.14-0.3,0.21-0.61,0.21-0.92
		c0-0.32-0.07-0.62-0.22-0.9c-0.13-0.25-0.29-0.49-0.49-0.7c-0.21-0.23-0.47-0.41-0.76-0.53c-0.28-0.11-0.59-0.17-0.93-0.17
		c-0.34,0-0.65,0.06-0.93,0.17c-0.28,0.11-0.54,0.29-0.77,0.51c-0.24,0.23-0.41,0.5-0.51,0.79c-0.09,0.27-0.14,0.55-0.14,0.83
		c0,0.28,0.04,0.57,0.13,0.85C364.13,27.24,364.31,27.52,364.56,27.74z M127.41,31.56c0.21,0.25,0.49,0.44,0.83,0.56
		c0.31,0.11,0.6,0.16,0.88,0.16c0.36,0,0.68-0.06,0.95-0.18c0.25-0.11,0.5-0.28,0.73-0.5c0.23-0.22,0.4-0.46,0.52-0.71
		c0.06-0.14,0.11-0.28,0.14-0.43c0.04,0.17,0.1,0.32,0.18,0.47c0.13,0.23,0.29,0.45,0.48,0.66c0.22,0.24,0.47,0.41,0.76,0.53
		c0.28,0.11,0.58,0.17,0.91,0.17c0.36,0,0.68-0.06,0.96-0.17c0.29-0.12,0.55-0.29,0.76-0.53c0.19-0.21,0.35-0.43,0.48-0.66
		c0.15-0.27,0.23-0.58,0.23-0.92c0-0.36-0.07-0.69-0.21-1c-0.14-0.29-0.32-0.54-0.54-0.73c-0.2-0.17-0.43-0.32-0.68-0.45
		c-0.29-0.14-0.61-0.21-0.97-0.21s-0.68,0.07-0.97,0.21c-0.26,0.13-0.49,0.28-0.68,0.45c-0.22,0.19-0.4,0.43-0.54,0.73
		c-0.07,0.15-0.13,0.32-0.16,0.49c-0.03-0.16-0.07-0.31-0.13-0.46c-0.12-0.32-0.32-0.58-0.58-0.78c-0.21-0.16-0.42-0.3-0.65-0.42
		c-0.28-0.15-0.59-0.22-0.93-0.22c-0.32,0-0.65,0.07-0.96,0.2c-0.31,0.13-0.57,0.29-0.76,0.48c-0.18,0.18-0.35,0.41-0.5,0.68
		c-0.17,0.31-0.26,0.65-0.26,1.02c0,0.35,0.09,0.67,0.28,0.95C127.11,31.17,127.26,31.37,127.41,31.56z M310.35,31.56
		c0.21,0.25,0.49,0.44,0.83,0.56c0.31,0.11,0.6,0.16,0.88,0.16c0.36,0,0.68-0.06,0.95-0.18c0.26-0.11,0.5-0.28,0.73-0.5
		c0.23-0.22,0.4-0.46,0.52-0.71c0.06-0.14,0.11-0.28,0.14-0.43c0.04,0.17,0.1,0.32,0.18,0.47c0.13,0.23,0.29,0.45,0.48,0.66
		c0.22,0.23,0.47,0.41,0.76,0.53c0.28,0.11,0.58,0.17,0.91,0.17c0.36,0,0.68-0.06,0.96-0.17c0.29-0.12,0.55-0.29,0.76-0.53
		c0.19-0.21,0.35-0.43,0.48-0.66c0.15-0.27,0.23-0.58,0.23-0.92c0-0.36-0.07-0.7-0.21-0.99c-0.14-0.29-0.32-0.54-0.54-0.73
		c-0.2-0.17-0.43-0.32-0.68-0.45c-0.29-0.14-0.61-0.21-0.97-0.21c-0.35,0-0.68,0.07-0.97,0.21c-0.26,0.12-0.49,0.27-0.69,0.45
		c-0.22,0.19-0.4,0.44-0.54,0.73c-0.07,0.15-0.13,0.32-0.16,0.49c-0.03-0.16-0.07-0.31-0.13-0.46c-0.13-0.32-0.32-0.58-0.58-0.78
		c-0.21-0.16-0.42-0.3-0.65-0.42c-0.28-0.15-0.59-0.22-0.93-0.22c-0.32,0-0.65,0.07-0.96,0.2c-0.32,0.13-0.57,0.29-0.76,0.48
		c-0.18,0.18-0.35,0.41-0.5,0.68c-0.17,0.31-0.26,0.65-0.26,1.02c0,0.35,0.09,0.67,0.28,0.95
		C310.04,31.17,310.19,31.37,310.35,31.56z M274.88,32.28c0.21,0.19,0.46,0.35,0.71,0.47c0.29,0.14,0.6,0.21,0.94,0.21
		c0.34,0,0.65-0.07,0.93-0.22c0.23-0.12,0.46-0.28,0.67-0.47c0.24-0.21,0.42-0.46,0.56-0.75c0.14-0.3,0.21-0.62,0.21-0.94
		c0-0.33-0.07-0.65-0.22-0.93c-0.13-0.26-0.31-0.5-0.54-0.72c-0.23-0.23-0.49-0.39-0.76-0.49c-0.26-0.09-0.54-0.14-0.85-0.14
		c-0.31,0-0.6,0.04-0.87,0.13c-0.3,0.1-0.57,0.26-0.8,0.5c-0.22,0.21-0.4,0.46-0.54,0.72c-0.15,0.29-0.22,0.6-0.22,0.93
		c0,0.33,0.07,0.64,0.21,0.94C274.46,31.82,274.65,32.08,274.88,32.28z M340.03,40.08c0.3,0.67,0.45,1.49,0.45,2.44v4.39h-26.15
		c-0.92,0-1.78-0.12-2.55-0.37c-0.79-0.25-1.5-0.66-2.1-1.23c-0.59-0.56-1.06-1.23-1.4-2c-0.33-0.77-0.51-1.66-0.51-2.64
		c0-0.99,0.19-1.9,0.56-2.71c0.37-0.8,0.85-1.47,1.42-2.01c0.57-0.54,1.27-0.95,2.06-1.23c0.78-0.26,1.62-0.4,2.5-0.4
		c0.96,0,1.84,0.14,2.6,0.43c0.77,0.29,1.44,0.7,1.99,1.22c0.56,0.53,1,1.18,1.32,1.96c0.31,0.77,0.47,1.65,0.47,2.63v3.74h15.72
		v-1.53c0-0.66-0.05-1.2-0.15-1.62c-0.09-0.37-0.23-0.66-0.42-0.88c-0.18-0.2-0.42-0.34-0.71-0.42c-0.35-0.09-0.8-0.14-1.33-0.14
		h-8.71v-2.32l5.72-4.81l3.89-3.37c0.53-0.45,1.06-0.94,1.56-1.47c0.49-0.51,0.88-1.06,1.18-1.64l0.15-0.29h1.1l0.04,0.5
		c0.04,0.58-0.06,1.16-0.31,1.73c-0.23,0.53-0.56,1.08-0.98,1.64c-0.41,0.54-0.86,1.07-1.34,1.58c-0.47,0.5-0.97,0.99-1.49,1.45
		l-1.35,1.22c-0.39,0.38-0.74,0.71-1.04,0.96l-2.66,2.23h4.92c0.84,0,1.62,0.11,2.32,0.31c0.71,0.21,1.35,0.53,1.91,0.96
		C339.28,38.84,339.73,39.41,340.03,40.08z M313.28,44.02c0.33,0.2,0.73,0.3,1.22,0.3h2.12v-3.53c0-0.54-0.04-1.1-0.1-1.68
		c-0.07-0.55-0.19-1.04-0.37-1.47c-0.17-0.41-0.4-0.75-0.69-1.04c-0.24-0.23-0.63-0.35-1.17-0.35c-0.4,0-0.74,0.11-1.04,0.32
		c-0.32,0.23-0.55,0.52-0.71,0.89c-0.18,0.43-0.34,0.92-0.46,1.46c-0.12,0.54-0.18,1.06-0.18,1.55c0,0.56,0.06,1.08,0.17,1.57
		c0.11,0.48,0.27,0.89,0.46,1.24C312.7,43.57,312.94,43.82,313.28,44.02z M205.98,27.75l4.81,2.01v1.03l-0.26,0.16
		c-0.26,0.16-0.46,0.3-0.61,0.42c-0.2,0.18-0.39,0.3-0.57,0.38c-0.04,0.02-0.05,0.06-0.06,0.11c-0.02,0.11-0.02,0.23-0.02,0.37
		v14.69h-9.81l-2.15-1.55c-0.55,0.27-1.12,0.49-1.69,0.66c-0.66,0.2-1.31,0.37-1.95,0.53c-0.67,0.17-1.34,0.27-2,0.31
		c-0.64,0.04-1.2,0.05-1.68,0.05h-9.96V31.75l-0.12-3.12l0.91-0.89l4.83,2.02v0.93l-0.2,0.16c-0.42,0.33-0.73,0.56-0.94,0.7
		c-0.18,0.11-0.26,0.19-0.28,0.23c-0.03,0.05-0.05,0.12-0.06,0.21c-0.02,0.19-0.02,0.51-0.02,0.98v11.35h5.15
		c1.18,0,2.28-0.12,3.26-0.35c0.64-0.15,1.24-0.34,1.79-0.57l-5.8-3.96v-1.74l0.11-0.15c0.39-0.49,0.85-0.94,1.38-1.32
		c0.51-0.37,1.05-0.7,1.61-0.99c0.58-0.3,1.2-0.53,1.86-0.68c0.65-0.15,1.35-0.22,2.07-0.22c0.73,0,1.47,0.1,2.2,0.31
		c0.74,0.21,1.42,0.53,2.03,0.95c0.62,0.43,1.12,0.96,1.48,1.57c0.38,0.64,0.55,1.33,0.51,2.07c0,1.19-0.27,2.25-0.81,3.13
		c-0.4,0.65-0.91,1.22-1.52,1.71l0.34,0.25h5.41V31.75l-0.24-3.13L205.98,27.75z M190.96,38.22l5.56,3.86
		c0.33-0.39,0.61-0.79,0.83-1.21c0.26-0.5,0.4-1.07,0.4-1.68c0-0.4-0.11-0.78-0.33-1.15c-0.23-0.38-0.53-0.68-0.93-0.92
		c-0.41-0.25-0.87-0.42-1.37-0.51c-0.22-0.04-0.45-0.06-0.69-0.06c-0.27,0-0.56,0.03-0.84,0.09c-0.53,0.11-1.07,0.33-1.59,0.65
		C191.63,37.51,191.28,37.82,190.96,38.22z M212.8,28.61l0.06,3.14v15.16h4.1V32.96c0-0.47,0.01-0.79,0.02-0.98
		c0.01-0.08,0.03-0.12,0.06-0.14c0.1-0.09,0.23-0.19,0.4-0.3c0.23-0.15,0.52-0.38,0.88-0.73l0.16-0.16v-0.89l-4.7-2.01L212.8,28.61z
		 M239.57,49.12c-0.21-0.18-0.44-0.34-0.67-0.47c-0.28-0.15-0.62-0.22-1.04-0.22c-0.33,0-0.65,0.07-0.94,0.21
		c-0.27,0.13-0.5,0.3-0.71,0.49c-0.21,0.2-0.38,0.45-0.52,0.73c-0.14,0.3-0.21,0.6-0.21,0.89c0,0.32,0.07,0.64,0.21,0.94
		c0.13,0.28,0.31,0.53,0.52,0.73c0.21,0.2,0.46,0.37,0.74,0.48c0.28,0.11,0.58,0.17,0.9,0.17c0.4,0,0.73-0.06,1-0.18
		c0.25-0.11,0.48-0.26,0.7-0.46c0.25-0.22,0.43-0.5,0.54-0.82c0.09-0.28,0.13-0.57,0.13-0.85c0-0.28-0.04-0.57-0.13-0.85
		C240.01,49.62,239.83,49.34,239.57,49.12z M266.22,49.12c-0.22-0.19-0.46-0.35-0.71-0.47c-0.29-0.14-0.64-0.21-1.05-0.21
		c-0.29,0-0.59,0.07-0.9,0.21c-0.29,0.13-0.54,0.3-0.75,0.5c-0.21,0.2-0.38,0.45-0.52,0.73c-0.06,0.12-0.1,0.24-0.13,0.35
		c-0.03-0.11-0.06-0.21-0.1-0.32c-0.12-0.3-0.29-0.56-0.5-0.77c-0.21-0.2-0.46-0.37-0.75-0.5c-0.3-0.14-0.62-0.2-0.95-0.2
		c-0.37,0-0.7,0.07-0.99,0.21c-0.26,0.13-0.5,0.29-0.71,0.47c-0.25,0.22-0.43,0.48-0.55,0.79c-0.11,0.29-0.17,0.58-0.17,0.86
		c0,0.31,0.06,0.62,0.17,0.91c0.12,0.31,0.31,0.57,0.55,0.79c0.22,0.2,0.47,0.35,0.75,0.46c0.28,0.11,0.6,0.17,0.96,0.17
		c0.31,0,0.62-0.06,0.92-0.17c0.3-0.12,0.57-0.28,0.78-0.49c0.22-0.21,0.39-0.47,0.51-0.77c0.04-0.11,0.08-0.22,0.1-0.33
		c0.03,0.12,0.08,0.24,0.13,0.36c0.14,0.29,0.31,0.53,0.52,0.74c0.21,0.21,0.48,0.37,0.78,0.49c0.29,0.11,0.59,0.17,0.86,0.17
		c0.39,0,0.73-0.06,1.02-0.17c0.27-0.11,0.52-0.27,0.75-0.46c0.24-0.21,0.43-0.48,0.55-0.79c0.11-0.29,0.17-0.6,0.17-0.91
		c0-0.28-0.06-0.57-0.17-0.86C266.65,49.6,266.46,49.33,266.22,49.12z M242.68,35.15l0.18,3.36v5.8h-8.89
		c-0.56,0-1.12-0.03-1.67-0.1c-0.51-0.06-0.97-0.2-1.37-0.4c-0.36-0.18-0.65-0.47-0.89-0.9c-0.24-0.43-0.36-1-0.36-1.72
		c0-0.24,0.03-0.49,0.09-0.75c0.07-0.3,0.15-0.64,0.22-0.99c0.06-0.31,0.15-0.58,0.26-0.8c0.11-0.24,0.24-0.45,0.36-0.64l0.29-0.43
		l-1.19-0.87l-1.35,1.11c-0.46,0.38-0.89,0.8-1.27,1.26c-0.39,0.48-0.72,1.01-0.97,1.57c-0.26,0.59-0.4,1.22-0.4,1.85
		c0,0.69,0.14,1.29,0.42,1.79c0.27,0.48,0.6,0.89,0.99,1.21c0.39,0.32,0.85,0.58,1.37,0.77c0.5,0.19,1.02,0.33,1.56,0.42
		c0.53,0.09,1.05,0.15,1.56,0.17c0.5,0.02,0.93,0.03,1.29,0.03h14.02v-8.25c0-0.09,0.01-0.13,0.03-0.15
		c0.05-0.06,0.15-0.15,0.34-0.27c0.22-0.13,0.51-0.35,0.89-0.64l0.21-0.16V36.4l-4.7-1.87L242.68,35.15z M295.17,28.61l0.06,3.14
		v15.16h4.1V32.96c0-0.47,0.01-0.79,0.03-0.98c0.01-0.08,0.03-0.12,0.06-0.14c0.1-0.09,0.23-0.19,0.4-0.3
		c0.23-0.14,0.52-0.38,0.88-0.73l0.16-0.16v-0.9l-4.7-2.01L295.17,28.61z M372.58,37.05l-0.95,0.72l0.12,3.27v3.27h-1.25
		c-0.49,0-0.96-0.11-1.39-0.32c-0.37-0.18-0.69-0.39-0.94-0.64v-4.94l-3.21-1.37L364,37.77l0.06,3.27v3.27h-1.2
		c-0.43,0-0.88-0.11-1.35-0.32c-0.4-0.18-0.73-0.39-0.99-0.63v-4.94l-3.14-1.37l-1.03,0.7l0.12,3.29v3.27h-4.12
		c-0.43,0-0.87-0.11-1.32-0.32c-0.39-0.18-0.73-0.4-1.02-0.65v-1.03c0-0.43,0.01-0.74,0.02-0.93c0.01-0.08,0.03-0.14,0.08-0.2
		c0.09-0.1,0.2-0.19,0.35-0.27l1.17-0.74v-1.13l-4.79-1.94l-1,0.78l0.12,3.26v4.01c0,0.73-0.01,1.39-0.03,1.96
		c-0.02,0.57-0.05,1.08-0.08,1.53c-0.03,0.4-0.11,0.77-0.24,1.09c-0.13,0.32-0.3,0.63-0.52,0.93c-0.22,0.29-0.49,0.54-0.8,0.75
		c-0.34,0.23-0.79,0.48-1.34,0.75l-0.49,0.24l0.68,1.32l0.44-0.15c1.01-0.35,1.94-0.71,2.75-1.07c0.86-0.38,1.58-0.89,2.13-1.51
		c0.55-0.62,0.96-1.34,1.22-2.15c0.25-0.79,0.36-1.76,0.32-2.85v-0.09c0.13,0.11,0.26,0.22,0.4,0.32c0.28,0.2,0.57,0.36,0.86,0.48
		c0.32,0.13,0.68,0.2,1.07,0.2h8.17v-1.03c0.12,0.12,0.25,0.23,0.37,0.33c0.26,0.21,0.55,0.38,0.88,0.51c0.33,0.13,0.7,0.2,1.09,0.2
		h5.3v-0.99c0.12,0.11,0.24,0.21,0.36,0.3c0.27,0.2,0.55,0.37,0.85,0.49c0.32,0.13,0.7,0.2,1.13,0.2h5.3v-4.65
		c0-0.28,0.01-0.49,0.04-0.63l0.01-0.05v-0.06c0-0.17,0-0.3,0.04-0.43c0.03-0.04,0.07-0.07,0.1-0.09c0.1-0.06,0.26-0.16,0.47-0.31
		c0.21-0.15,0.43-0.31,0.65-0.5l0.2-0.16v-0.98L372.58,37.05z M148.16,49.12c-0.22-0.19-0.46-0.35-0.71-0.47
		c-0.29-0.14-0.62-0.21-0.99-0.21c-0.29,0-0.59,0.07-0.9,0.21c-0.28,0.13-0.54,0.29-0.76,0.48c-0.25,0.22-0.43,0.48-0.55,0.79
		c-0.04,0.1-0.07,0.2-0.1,0.3c-0.03-0.1-0.06-0.2-0.1-0.3c-0.12-0.31-0.31-0.57-0.55-0.79c-0.22-0.19-0.47-0.35-0.76-0.48
		c-0.3-0.14-0.61-0.21-0.9-0.21c-0.37,0-0.7,0.07-0.99,0.21c-0.26,0.13-0.5,0.29-0.71,0.47c-0.24,0.21-0.42,0.46-0.56,0.75
		c-0.14,0.3-0.21,0.6-0.21,0.89c0,0.32,0.07,0.64,0.21,0.94c0.14,0.3,0.33,0.55,0.56,0.75c0.22,0.2,0.47,0.35,0.75,0.47
		c0.28,0.11,0.6,0.17,0.96,0.17c0.28,0,0.57-0.06,0.87-0.17c0.29-0.11,0.56-0.27,0.79-0.47c0.24-0.21,0.43-0.48,0.55-0.79
		c0.04-0.1,0.07-0.2,0.1-0.3c0.03,0.1,0.06,0.2,0.1,0.3c0.12,0.31,0.31,0.57,0.55,0.79c0.23,0.2,0.49,0.36,0.79,0.47
		c0.29,0.11,0.59,0.17,0.86,0.17c0.36,0,0.68-0.06,0.96-0.17c0.27-0.11,0.52-0.27,0.75-0.46c0.24-0.21,0.43-0.48,0.55-0.79
		c0.11-0.29,0.17-0.6,0.17-0.91c0-0.28-0.06-0.56-0.17-0.86C148.59,49.6,148.41,49.33,148.16,49.12z M262.18,35.17l0.18,3.34v5.8
		h-7.38V32.96c0-0.47,0.01-0.79,0.02-0.98c0.01-0.09,0.03-0.17,0.06-0.21c0.03-0.04,0.1-0.12,0.28-0.23
		c0.22-0.13,0.52-0.36,0.94-0.7l0.2-0.16v-0.93l-4.83-2.02l-0.91,0.89l0.12,3.12v15.16h15.53v-7.93c0-0.13,0.01-0.25,0.04-0.34
		c0.03-0.11,0.06-0.17,0.07-0.19c0,0,0.03-0.04,0.12-0.11c0.1-0.07,0.21-0.13,0.34-0.19c0.21-0.09,0.47-0.27,0.81-0.56l0.19-0.16
		v-0.98l-4.82-1.93L262.18,35.17z M172.56,27.75l4.81,2.01v1.03l-0.26,0.16c-0.26,0.16-0.46,0.3-0.61,0.42
		c-0.2,0.18-0.39,0.3-0.57,0.38c-0.04,0.02-0.05,0.06-0.06,0.11c-0.02,0.1-0.02,0.23-0.02,0.37v14.69h-7.79
		c-0.39,0-0.76-0.06-1.1-0.19c-0.34-0.12-0.65-0.29-0.92-0.5c-0.26-0.2-0.51-0.43-0.73-0.68c-0.07-0.08-0.13-0.16-0.2-0.24
		c-0.38,0.42-0.83,0.76-1.35,1.03c-0.76,0.39-1.64,0.59-2.63,0.59c-0.58,0-1.12-0.06-1.61-0.17c-0.51-0.12-0.95-0.29-1.3-0.52
		c-0.12-0.08-0.24-0.16-0.34-0.24v0.93h-8.44c-0.32,0-0.65-0.07-0.98-0.2c-0.32-0.12-0.62-0.29-0.89-0.49
		c-0.12-0.09-0.25-0.19-0.36-0.3v0.99H131.4c-0.92,0-1.78-0.12-2.54-0.37c-0.79-0.25-1.5-0.66-2.1-1.23c-0.59-0.56-1.06-1.23-1.4-2
		c-0.33-0.77-0.5-1.66-0.5-2.64c0-0.99,0.19-1.9,0.56-2.71c0.37-0.8,0.85-1.47,1.42-2.01c0.58-0.54,1.27-0.96,2.06-1.23
		c0.78-0.26,1.62-0.4,2.5-0.4c0.96,0,1.84,0.15,2.6,0.43c0.77,0.29,1.44,0.7,1.99,1.22c0.56,0.53,1,1.18,1.32,1.96
		c0.31,0.77,0.47,1.65,0.47,2.63v3.74h5.32v-5.8l-0.06-3.33l0.9-0.66l4.78,1.94v0.96l-0.16,0.16c-0.31,0.3-0.58,0.49-0.83,0.59
		c-0.16,0.06-0.25,0.12-0.29,0.16c-0.08,0.06-0.14,0.12-0.19,0.19c-0.03,0.19-0.04,0.33-0.04,0.48v4.36
		c0.29,0.25,0.61,0.47,0.98,0.65c0.42,0.21,0.82,0.31,1.25,0.31h4.39v-3.27c0-0.94,0.14-1.78,0.42-2.49
		c0.28-0.73,0.72-1.35,1.29-1.83c0.56-0.47,1.22-0.82,1.97-1.05c0.73-0.23,1.59-0.34,2.54-0.34c0.91,0,1.77,0.12,2.54,0.37
		c0.78,0.25,1.48,0.62,2.07,1.1c0.6,0.49,1.09,1.12,1.45,1.88c0.36,0.76,0.54,1.61,0.54,2.53c0,0.91-0.17,1.74-0.51,2.49
		c0.23,0.16,0.47,0.29,0.72,0.39c0.37,0.15,0.77,0.22,1.21,0.22h3.74V31.75l-0.24-3.13L172.56,27.75z M157.88,42.79
		c0,0,0,0.1,0.09,0.38c0.04,0.15,0.16,0.31,0.33,0.47c0.21,0.19,0.47,0.35,0.8,0.48c0.31,0.13,0.74,0.2,1.28,0.2
		c0.35,0,0.65-0.07,0.94-0.23c0.28-0.15,0.48-0.34,0.63-0.59c0.17-0.29,0.3-0.64,0.4-1.06c0.1-0.43,0.15-0.9,0.15-1.39
		c0-0.6-0.04-1.14-0.13-1.62c-0.08-0.44-0.21-0.83-0.4-1.14c-0.17-0.29-0.4-0.53-0.71-0.71c-0.29-0.18-0.7-0.27-1.21-0.27
		c-0.5,0-0.88,0.1-1.15,0.29c-0.29,0.21-0.49,0.47-0.64,0.81c-0.16,0.37-0.26,0.8-0.31,1.29c-0.05,0.52-0.08,1.05-0.08,1.56V42.79z
		 M130.35,44.02c0.33,0.2,0.74,0.3,1.22,0.3h2.12v-3.53c0-0.53-0.04-1.1-0.1-1.68c-0.07-0.55-0.19-1.04-0.37-1.47
		c-0.17-0.4-0.4-0.75-0.69-1.04c-0.24-0.23-0.63-0.35-1.17-0.35c-0.4,0-0.74,0.11-1.04,0.32c-0.32,0.23-0.55,0.52-0.71,0.89
		c-0.18,0.43-0.34,0.92-0.46,1.46c-0.12,0.54-0.18,1.06-0.18,1.55c0,0.56,0.06,1.08,0.17,1.56c0.11,0.48,0.27,0.89,0.46,1.24
		C129.76,43.57,130.01,43.82,130.35,44.02z M111.89,28.62l0.24,3.13v12.56h-3.8c-0.46,0-0.91-0.11-1.34-0.32
		c-0.37-0.18-0.69-0.39-0.94-0.64v-10.4c0-0.4,0.01-0.71,0.03-0.94c0.01-0.19,0.06-0.25,0.06-0.25c0.01-0.01,0.07-0.08,0.26-0.18
		c0.25-0.12,0.58-0.35,1.02-0.7l0.2-0.16v-0.99l-4.9-2.02l-0.83,0.91l0.12,3.1v12.56h-4.45v-9.45c0-0.12,0.01-0.25,0-0.41
		c0.06-0.06,0.14-0.13,0.23-0.2c0.1-0.08,0.23-0.18,0.4-0.29c0.19-0.13,0.4-0.29,0.63-0.48l0.2-0.16v-0.98l-4.73-2l-1.01,0.79
		l0.18,3.26v9.92h-4.5c-0.06,0-0.16-0.02-0.31-0.04c-0.2-0.04-0.42-0.07-0.66-0.11c-0.23-0.03-0.44-0.07-0.64-0.1
		c-0.08-0.01-0.15-0.04-0.18-0.07l-0.55-0.54l-0.62,1.41l0.26,0.26c0.2,0.2,0.44,0.39,0.72,0.58l0.78,0.55
		c0.33,0.2,0.72,0.36,1.17,0.48c0.44,0.12,0.92,0.18,1.44,0.18h15.7v-0.95c0.11,0.1,0.23,0.19,0.35,0.27
		c0.28,0.2,0.59,0.36,0.9,0.48c0.33,0.13,0.68,0.2,1.03,0.2h7.85V32.22c0-0.14,0.01-0.27,0.02-0.37c0.01-0.05,0.02-0.09,0.06-0.11
		c0.18-0.08,0.37-0.2,0.57-0.38c0.14-0.12,0.35-0.26,0.61-0.42l0.26-0.16v-1.03l-4.81-2.01L111.89,28.62z"/>
</g>
</svg>
