<?xml version="1.0" standalone="no"?>
<!DOCTYPE svg >
<svg version="1.0" xmlns="http://www.w3.org/2000/svg"
     viewBox="0 0 1024 1024"
 preserveAspectRatio="xMidYMid meet">

<g transform="translate(0,1024) scale(0.1,-0.1)"
fill="#ffff" stroke="none">
    <path d="M4992 8944 l-42 -36 0 -941 0 -942 121 3 c318 8 748 -86 1052 -231
    l117 -56 0 239 c0 131 -4 240 -9 242 -5 2 -144 113 -310 247 l-301 245 0 400
    0 401 -284 229 c-155 127 -287 231 -292 233 -6 2 -29 -13 -52 -33z"/>
<path d="M4510 8009 c-129 -105 -269 -219 -310 -253 l-75 -62 -3 -418 c-2
-333 0 -417 10 -413 156 59 511 147 596 147 l32 0 0 595 c0 327 -3 595 -7 595
-5 0 -114 -86 -243 -191z"/>
<path d="M4903 7013 c9 -2 23 -2 30 0 6 3 -1 5 -18 5 -16 0 -22 -2 -12 -5z"/>
<path d="M4778 7003 c6 -2 18 -2 25 0 6 3 1 5 -13 5 -14 0 -19 -2 -12 -5z"/>
<path d="M5243 7003 c9 -2 23 -2 30 0 6 3 -1 5 -18 5 -16 0 -22 -2 -12 -5z"/>
<path d="M4508 6953 c7 -3 16 -2 19 1 4 3 -2 6 -13 5 -11 0 -14 -3 -6 -6z"/>
<path d="M4080 6830 c-9 -6 -10 -10 -3 -10 6 0 15 5 18 10 8 12 4 12 -15 0z"/>
<path d="M3998 6794 c-27 -13 -48 -27 -48 -29 0 -5 99 42 109 51 13 11 -20 0
-61 -22z"/>
<path d="M3920 6750 c-9 -6 -10 -10 -3 -10 6 0 15 5 18 10 8 12 4 12 -15 0z"/>
<path d="M4833 6743 c15 -2 37 -2 50 0 12 2 0 4 -28 4 -27 0 -38 -2 -22 -4z"/>
<path d="M4993 6742 l-43 -3 0 -800 0 -799 335 0 335 0 0 773 0 774 -89 17
c-150 28 -418 48 -538 38z"/>
<path d="M3874 6724 c-18 -14 -18 -15 4 -4 12 6 22 13 22 15 0 8 -5 6 -26 -11z"/>
<path d="M4668 6733 c7 -3 16 -2 19 1 4 3 -2 6 -13 5 -11 0 -14 -3 -6 -6z"/>
<path d="M4645 6711 c-172 -31 -366 -89 -482 -143 l-43 -20 0 -704 0 -704 320
0 320 0 0 795 c0 437 -3 795 -7 794 -5 0 -53 -9 -108 -18z"/>
<path d="M3800 6679 c-17 -13 -18 -17 -5 -10 33 17 51 31 40 31 -5 0 -21 -10
-35 -21z"/>
<path d="M5800 5885 l0 -745 225 0 225 0 0 630 0 631 -24 22 c-32 30 -195 115
-320 166 -54 23 -100 41 -102 41 -2 0 -4 -335 -4 -745z"/>
<path d="M3649 6573 c-13 -16 -12 -17 4 -4 9 7 17 15 17 17 0 8 -8 3 -21 -13z"/>
<path d="M6490 6566 c0 -2 8 -10 18 -17 15 -13 16 -12 3 4 -13 16 -21 21 -21
13z"/>
<path d="M3565 6504 c-30 -27 -32 -31 -9 -16 28 19 62 53 53 52 -2 -1 -22 -17
-44 -36z"/>
<path d="M6530 6536 c0 -2 8 -10 18 -17 15 -13 16 -12 3 4 -13 16 -21 21 -21
13z"/>
<path d="M4005 6500 c-3 -6 1 -7 9 -4 18 7 21 14 7 14 -6 0 -13 -4 -16 -10z"/>
<path d="M3891 6430 c-46 -32 -96 -71 -110 -86 -14 -14 3 -4 39 23 36 28 89
65 118 83 49 30 62 41 45 39 -5 0 -46 -27 -92 -59z"/>
<path d="M6620 6455 c19 -19 36 -35 39 -35 3 0 -10 16 -29 35 -19 19 -36 35
-39 35 -3 0 10 -16 29 -35z"/>
<path d="M3479 6423 l-34 -38 38 34 c20 19 37 36 37 38 0 8 -8 0 -41 -34z"/>
<path d="M6735 6340 c33 -33 62 -60 64 -60 3 0 -21 27 -54 60 -33 33 -62 60
-64 60 -3 0 21 -27 54 -60z"/>
<path d="M3414 6358 l-19 -23 23 19 c21 18 27 26 19 26 -2 0 -12 -10 -23 -22z"/>
<path d="M3369 6311 c-8 -10 -36 -47 -62 -82 -27 -35 -36 -50 -20 -32 78 88
114 133 105 133 -5 0 -16 -9 -23 -19z"/>
<path d="M3672 6254 c-69 -63 -147 -153 -224 -259 -37 -52 -138 -235 -138
-251 0 -5 25 38 56 96 72 135 175 272 292 388 52 50 92 92 90 92 -2 0 -36 -30
-76 -66z"/>
<path d="M6467 6247 c40 -37 98 -96 129 -130 31 -34 43 -44 26 -22 -31 40
-155 163 -202 200 -14 11 7 -11 47 -48z"/>
<path d="M6820 6246 c0 -2 8 -10 18 -17 15 -13 16 -12 3 4 -13 16 -21 21 -21
13z"/>
<path d="M6870 6180 c12 -16 24 -30 26 -30 3 0 -4 14 -16 30 -12 17 -24 30
-26 30 -3 0 4 -13 16 -30z"/>
<path d="M3225 6118 c-16 -24 -22 -38 -14 -31 15 12 53 73 46 73 -2 0 -17 -19
-32 -42z"/>
<path d="M3177 6047 c-40 -61 -154 -309 -129 -282 5 6 19 35 31 65 13 30 45
97 72 148 47 87 59 119 26 69z"/>
<path d="M6650 6046 c0 -2 8 -10 18 -17 15 -13 16 -12 3 4 -13 16 -21 21 -21
13z"/>
<path d="M6970 6030 c6 -11 13 -20 16 -20 2 0 0 9 -6 20 -6 11 -13 20 -16 20
-2 0 0 -9 6 -20z"/>
<path d="M6700 5980 c11 -16 26 -33 32 -36 7 -4 -1 9 -16 29 -34 44 -46 50
-16 7z"/>
<path d="M7010 5960 c11 -22 23 -40 25 -40 3 0 -4 18 -15 40 -11 22 -23 40
-25 40 -3 0 4 -18 15 -40z"/>
<path d="M6760 5890 c6 -11 13 -20 16 -20 2 0 0 9 -6 20 -6 11 -13 20 -16 20
-2 0 0 -9 6 -20z"/>
<path d="M7041 5905 c0 -5 8 -26 19 -45 11 -19 19 -30 19 -25 0 6 -8 26 -19
45 -11 19 -19 31 -19 25z"/>
<path d="M6824 5768 c24 -51 48 -104 54 -118 l12 -25 -6 25 c-8 31 -91 210
-98 210 -2 0 15 -42 38 -92z"/>
<path d="M7081 5815 c0 -5 9 -28 20 -50 10 -22 16 -29 13 -15 -7 28 -33 80
-33 65z"/>
<path d="M3011 5679 c-7 -22 -11 -43 -8 -45 2 -2 9 14 16 37 7 22 11 43 8 45
-2 2 -9 -14 -16 -37z"/>
<path d="M7141 5650 c0 -8 4 -24 9 -35 5 -13 9 -14 9 -5 0 8 -4 24 -9 35 -5
13 -9 14 -9 5z"/>
<path d="M3256 5615 c-9 -26 -7 -32 5 -12 6 10 9 21 6 23 -2 3 -7 -2 -11 -11z"/>
<path d="M2991 5604 c0 -11 3 -14 6 -6 3 7 2 16 -1 19 -3 4 -6 -2 -5 -13z"/>
<path d="M6901 5590 c0 -3 6 -30 14 -60 8 -30 22 -95 30 -144 12 -77 25 -121
25 -89 0 54 -64 327 -69 293z"/>
<path d="M7161 5574 c0 -11 3 -14 6 -6 3 7 2 16 -1 19 -3 4 -6 -2 -5 -13z"/>
<path d="M2981 5564 c0 -11 3 -14 6 -6 3 7 2 16 -1 19 -3 4 -6 -2 -5 -13z"/>
<path d="M2971 5524 c0 -11 3 -14 6 -6 3 7 2 16 -1 19 -3 4 -6 -2 -5 -13z"/>
<path d="M7171 5524 c0 -11 3 -14 6 -6 3 7 2 16 -1 19 -3 4 -6 -2 -5 -13z"/>
<path d="M7181 5484 c0 -11 3 -14 6 -6 3 7 2 16 -1 19 -3 4 -6 -2 -5 -13z"/>
<path d="M2961 5474 c0 -11 3 -14 6 -6 3 7 2 16 -1 19 -3 4 -6 -2 -5 -13z"/>
<path d="M7192 5430 c0 -14 2 -19 5 -12 2 6 2 18 0 25 -3 6 -5 1 -5 -13z"/>
<path d="M2952 5420 c0 -14 2 -19 5 -12 2 6 2 18 0 25 -3 6 -5 1 -5 -13z"/>
<path d="M3196 5379 c-3 -17 -5 -43 -5 -58 1 -14 5 -2 10 28 10 58 6 83 -5 30z"/>
<path d="M2939 5364 c-1 -16 -4 -73 -8 -127 -3 -53 -3 -97 0 -97 7 0 20 242
14 249 -3 2 -5 -9 -6 -25z"/>
<path d="M7196 5368 c4 -12 10 -56 14 -98 5 -54 8 -63 9 -30 1 65 -10 150 -21
150 -5 0 -6 -10 -2 -22z"/>
<path d="M3182 5243 c-1 -17 -5 -40 -8 -50 -5 -17 -5 -17 6 0 6 9 9 32 7 50
l-4 32 -1 -32z"/>
<path d="M6961 5254 c0 -11 3 -14 6 -6 3 7 2 16 -1 19 -3 4 -6 -2 -5 -13z"/>
<path d="M7220 5175 c0 -20 -26 -25 -150 -28 -102 -3 -101 -3 28 -5 l132 -2 0
25 c0 14 -2 25 -5 25 -3 0 -5 -7 -5 -15z"/>
<path d="M3150 5150 l-25 -8 28 -1 c15 -1 27 4 27 9 0 6 -1 10 -2 9 -2 -1 -14
-5 -28 -9z"/>
<path d="M2993 5143 c26 -2 67 -2 90 0 23 2 2 3 -48 3 -49 0 -68 -1 -42 -3z"/>
<path d="M6960 4185 l0 -585 -170 0 -170 0 0 128 c0 102 -4 141 -19 185 -39
113 -119 195 -229 238 -46 17 -86 23 -209 27 l-153 5 0 -112 0 -111 125 0
c142 0 167 -8 212 -67 27 -35 28 -42 31 -165 l4 -128 -436 0 -436 0 0 290 0
290 -120 0 -120 0 0 -290 0 -290 -465 0 -466 0 -24 25 -25 24 0 266 0 266
-121 -3 -120 -3 1 -237 c1 -255 -5 -289 -51 -322 -21 -14 -84 -16 -607 -16
-637 0 -629 -1 -671 58 -23 32 -28 95 -30 395 l-1 127 -121 0 -120 0 3 -278 3
-278 33 -66 c38 -77 92 -130 171 -167 l56 -26 665 -3 c366 -2 679 0 697 3 18
3 46 17 62 31 l31 25 36 -28 37 -28 595 -3 c575 -3 596 -2 632 17 38 20 39 20
76 0 37 -18 67 -19 851 -19 l813 0 0 705 0 705 -125 0 -125 0 0 -585z"/>
<path d="M7550 4065 l0 -705 125 0 125 0 0 705 0 705 -125 0 -125 0 0 -705z"/>
<path d="M6018 4589 c-2 -66 -1 -123 1 -125 2 -2 60 -4 128 -4 l124 0 -3 123
-3 122 -122 3 -122 3 -3 -122z"/>
<path d="M6328 4704 c-5 -4 -8 -61 -8 -126 l0 -118 120 0 120 0 0 98 c0 93 -1
100 -26 123 -22 21 -37 24 -112 27 -48 2 -90 0 -94 -4z"/>
<path d="M3240 3055 l0 -125 120 0 120 0 0 125 0 125 -120 0 -120 0 0 -125z"/>
<path d="M4940 3055 l0 -125 125 0 125 0 0 125 0 125 -125 0 -125 0 0 -125z"/>
<path d="M5270 3055 l0 -125 120 0 120 0 0 125 0 125 -120 0 -120 0 0 -125z"/>
<path d="M2741 2578 c-5 -13 -28 -72 -51 -133 -23 -60 -91 -238 -152 -394 -60
-156 -112 -290 -115 -298 -5 -11 10 -13 82 -11 l88 3 31 85 32 85 179 0 179 0
32 -85 32 -85 86 -3 c51 -2 86 1 86 7 0 9 -41 116 -253 656 l-75 190 -86 3
c-82 3 -87 2 -95 -20z m161 -351 l56 -152 -59 -3 c-32 -2 -87 -2 -123 0 l-64
3 60 158 c34 86 64 155 67 151 3 -3 31 -74 63 -157z"/>
<path d="M3400 2170 l0 -430 255 0 255 0 0 76 0 77 -151 -5 c-83 -3 -161 -3
-175 0 l-24 4 0 354 0 354 -80 0 -80 0 0 -430z"/>
<path d="M3870 2520 l0 -80 118 0 117 0 -3 -350 -3 -350 86 0 85 0 0 350 0
350 125 0 125 0 0 80 0 80 -325 0 -325 0 0 -80z"/>
<path d="M4670 2170 l0 -430 80 0 80 0 0 185 0 185 185 0 185 0 0 -185 0 -185
80 0 80 0 0 430 0 430 -80 0 -80 0 0 -175 0 -175 -185 0 -185 0 0 175 0 175
-80 0 -80 0 0 -430z"/>
<path d="M5500 2595 c0 -3 70 -122 155 -265 l155 -259 0 -165 0 -166 85 0 85
0 0 171 0 171 141 236 c78 131 148 247 156 260 l14 23 -97 -3 -98 -3 -34 -60
c-88 -154 -156 -271 -165 -283 -7 -8 -38 40 -109 168 l-99 180 -95 0 c-52 0
-94 -2 -94 -5z"/>
<path d="M6468 2348 c-54 -139 -128 -333 -166 -430 l-69 -178 87 0 88 0 33 90
33 90 178 0 178 0 14 -35 c8 -19 23 -59 33 -90 l18 -55 88 0 c87 0 88 0 82 23
-15 47 -319 813 -328 825 -6 8 -37 12 -91 12 l-81 0 -97 -252z m246 -110 c31
-84 56 -156 56 -160 0 -5 -54 -8 -121 -8 -70 0 -119 4 -117 9 62 174 114 311
119 311 3 0 31 -69 63 -152z"/>
<path d="M7210 2170 l0 -430 203 0 c228 0 284 10 346 59 49 39 74 90 79 163 6
76 -29 151 -87 189 l-40 26 29 22 c73 54 96 186 48 279 -29 56 -103 106 -174
116 -26 3 -127 6 -225 6 l-179 0 0 -430z m362 280 c65 -19 95 -82 67 -143 -20
-44 -58 -57 -168 -57 l-101 0 0 105 0 105 83 0 c45 0 99 -5 119 -10z m38 -355
c80 -42 77 -166 -5 -201 -22 -9 -71 -14 -135 -14 l-100 0 0 115 0 115 105 0
c75 0 115 -4 135 -15z"/>
</g>
</svg>
