<?xml version="1.0" encoding="utf-8"?>
<!-- Generator: Adobe Illustrator 24.3.0, SVG Export Plug-In . SVG Version: 6.00 Build 0)  -->
<svg version="1.1" id="Layer_1" xmlns="http://www.w3.org/2000/svg" xmlns:xlink="http://www.w3.org/1999/xlink" x="0px" y="0px"
	 viewBox="0 0 33.93 49.21" style="enable-background:new 0 0 33.93 49.21;" xml:space="preserve">
<style type="text/css">
	.st0{fill:url(#SVGID_1_);}
	.st1{fill:url(#SVGID_2_);}
	.st2{fill:url(#SVGID_3_);}
	.st3{fill:url(#SVGID_4_);}
</style>
<g>
	<linearGradient id="SVGID_1_" gradientUnits="userSpaceOnUse" x1="0.6674" y1="8.8867" x2="24.3019" y2="8.8867">
		<stop  offset="0" style="stop-color:#1C4E9D"/>
		<stop  offset="0.2536" style="stop-color:#204891"/>
		<stop  offset="0.7502" style="stop-color:#243A74"/>
		<stop  offset="1" style="stop-color:#243465"/>
	</linearGradient>
	<path class="st0" d="M24.01,12.57l-3.08,2.75c-0.36,0.32-0.91,0.29-1.23-0.07l-5.23-5.86c-0.32-0.36-0.87-0.39-1.23-0.07
		l-8.36,7.45c-0.36,0.32-0.91,0.29-1.23-0.07l-2.75-3.08c-0.32-0.36-0.29-0.91,0.07-1.23l9.01-8.03l3.74-3.33
		c0.36-0.32,0.91-0.29,1.23,0.07l3.33,3.73l5.81,6.52C24.4,11.69,24.37,12.25,24.01,12.57z"/>
	<linearGradient id="SVGID_2_" gradientUnits="userSpaceOnUse" x1="9.63" y1="19.2497" x2="33.2645" y2="19.2497">
		<stop  offset="0" style="stop-color:#A87419"/>
		<stop  offset="0.5512" style="stop-color:#C28E2A"/>
		<stop  offset="1" style="stop-color:#D3A037"/>
	</linearGradient>
	<path class="st1" d="M9.92,15.57l3.08-2.75c0.36-0.32,0.91-0.29,1.23,0.07l5.23,5.86c0.32,0.36,0.87,0.39,1.23,0.07l8.36-7.45
		c0.36-0.32,0.91-0.29,1.23,0.07l2.75,3.08c0.32,0.36,0.29,0.91-0.07,1.23l-9.01,8.03l-3.74,3.33c-0.36,0.32-0.91,0.29-1.23-0.07
		l-3.33-3.73L9.85,16.8C9.53,16.44,9.56,15.89,9.92,15.57z"/>
</g>
<linearGradient id="SVGID_3_" gradientUnits="userSpaceOnUse" x1="0.3734" y1="45.7066" x2="33.5585" y2="45.7066">
	<stop  offset="0" style="stop-color:#A87419"/>
	<stop  offset="0.5512" style="stop-color:#C28E2A"/>
	<stop  offset="1" style="stop-color:#D3A037"/>
</linearGradient>
<path class="st2" d="M4.15,46.91H1.93l-0.42,0.9H0.37l2.13-4.2h1.09l2.14,4.2H4.57L4.15,46.91z M3.8,46.17l-0.76-1.61l-0.76,1.61
	H3.8z M6.23,43.61h1.1v3.41h2.4v0.79h-3.5V43.61z M10.89,44.4H9.37v-0.79h4.16v0.79H12v3.41h-1.1V44.4z M18.5,43.61v4.2h-1.1v-1.72
	h-2.17v1.72h-1.1v-4.2h1.1v1.66h2.17v-1.66H18.5z M21.93,46.32v1.49h-1.11v-1.5l-1.85-2.7h1.17l1.28,1.87l1.28-1.87h1.08
	L21.93,46.32z M27.1,46.91h-2.22l-0.42,0.9h-1.13l2.13-4.2h1.09l2.13,4.2h-1.16L27.1,46.91z M26.75,46.17l-0.76-1.61l-0.76,1.61
	H26.75z M33.33,46c0.15,0.18,0.23,0.4,0.23,0.66c0,0.37-0.16,0.65-0.49,0.85c-0.33,0.2-0.8,0.3-1.42,0.3h-2.47v-4.2h2.33
	c0.58,0,1.03,0.1,1.34,0.29c0.31,0.2,0.47,0.46,0.47,0.8c0,0.2-0.06,0.39-0.17,0.55c-0.11,0.16-0.27,0.29-0.47,0.38
	C32.96,45.7,33.17,45.83,33.33,46z M30.28,44.34v0.99h1.1c0.27,0,0.48-0.04,0.62-0.13c0.14-0.08,0.21-0.21,0.21-0.37
	s-0.07-0.29-0.21-0.37c-0.14-0.08-0.35-0.12-0.62-0.12H30.28z M32.22,46.95c0.15-0.08,0.22-0.21,0.22-0.39
	c0-0.35-0.29-0.52-0.88-0.52h-1.29v1.04h1.29C31.86,47.07,32.08,47.03,32.22,46.95z"/>
<linearGradient id="SVGID_4_" gradientUnits="userSpaceOnUse" x1="1.1874" y1="35.8242" x2="32.7445" y2="35.8242">
	<stop  offset="0" style="stop-color:#1C4E9D"/>
	<stop  offset="0.2536" style="stop-color:#204891"/>
	<stop  offset="0.7502" style="stop-color:#243A74"/>
	<stop  offset="1" style="stop-color:#243465"/>
</linearGradient>
<path class="st3" d="M6.15,39.95c0.39,0.23,0.77,0.52,1.14,0.84c-0.21,0.28-0.46,0.54-0.79,0.77c-0.37-0.29-0.74-0.54-1.12-0.8
	C5.64,40.46,5.9,40.19,6.15,39.95z M10.45,33.93c-0.25,0.25-0.48,0.55-0.71,0.88c0.49,0.8,0.95,1.56,0.95,1.93
	c0,0.02-0.02,0.06-0.09,0.09c-0.39,0.14-0.81,0.23-1.25,0.32c-1.05,0.2-2.13,0.34-3.24,0.34c-2.37,0-4.26-0.65-4.26-2.23
	c0-0.34,0.09-0.74,0.27-1.19l-0.38-0.13c-0.41,0.63-0.56,1.26-0.56,1.89c0,1.92,2.01,2.72,4.64,2.72c1.87,0,4.3-0.52,5.12-0.93
	c0.27-0.37,0.5-0.72,0.5-1.3c0-0.77-0.51-1.75-0.95-2.38H10.45z M15.58,40.54c0.38,0.26,0.72,0.51,1.11,0.81
	c0.27-0.2,0.45-0.41,0.72-0.72c-0.37-0.33-0.69-0.59-1.08-0.84C16.09,40,15.83,40.25,15.58,40.54z M17.41,40.43
	c0.38,0.26,0.72,0.51,1.11,0.81c0.27-0.2,0.45-0.41,0.72-0.72c-0.37-0.33-0.69-0.59-1.08-0.84C17.92,39.89,17.65,40.15,17.41,40.43z
	 M15.6,38.23h0.11c1.45,0,2.12-0.12,2.54-0.47c0.38-0.41,0.66-0.87,0.66-1.45c0-0.77-0.51-1.75-0.95-2.38h-0.05
	c-0.25,0.25-0.48,0.55-0.71,0.88c0.49,0.8,0.95,1.56,0.95,1.93c0,0.13-0.21,0.24-0.54,0.34c-0.42,0.12-1.06,0.15-1.86,0.15H15.6h0
	h-0.13c-0.12,0-0.37-0.02-0.61-0.09c-0.37-0.11-0.71-0.34-0.71-0.84v-0.45c0-1.92,0-3.95-0.15-5.66l-0.07-0.03
	c-0.27,0.18-0.57,0.44-0.89,0.73c0.14,1.66,0.25,3.21,0.25,4.7c0,1.15,0.01,1.7,0.59,2.19c0.39,0.32,0.87,0.45,1.62,0.45H15.6
	L15.6,38.23z M24.68,30.93c-0.37-0.32-0.75-0.6-1.14-0.84c-0.25,0.24-0.51,0.52-0.77,0.8c0.38,0.27,0.75,0.52,1.12,0.8
	C24.22,31.47,24.47,31.21,24.68,30.93z M29.32,30.23l-0.07-0.04c-0.21,0.15-0.39,0.3-0.52,0.43c-0.19,0.17-0.28,0.35-0.28,0.52
	c0,0.29,0.06,0.62,0.09,0.98c0.15,1.44,0.25,2.8,0.27,4.05c0,0.41-0.17,0.69-0.5,0.84c-0.41,0.18-0.76,0.21-1.06,0.21h-0.21h0h-0.16
	c-0.71,0-1.33-0.41-1.5-1.18c-0.25-1.15-0.55-2.35-0.9-3.48l-0.06-0.03c-0.25,0.25-0.45,0.53-0.67,0.8
	c0.44,1.34,0.79,2.38,0.79,2.91c0,0.19-0.26,0.42-0.62,0.59c-0.44,0.21-1.04,0.39-1.54,0.39c-0.91,0-1.3-0.4-1.33-1.05l-0.37,0.02
	c-0.02,0.2-0.03,0.38-0.03,0.58c0,0.91,0.59,1.45,1.65,1.45c0.63,0,1.28-0.21,1.9-0.52c0.41-0.2,0.61-0.45,0.68-0.75h0.05
	c0.37,0.98,1.08,1.27,1.93,1.27h0.18h0h0.14c0.37,0,0.81-0.08,1.18-0.23c0.44-0.18,0.66-0.51,0.86-0.91
	c0.27-0.47,0.38-1.12,0.38-1.96c0-0.87-0.08-1.81-0.12-2.71c0.23-0.13,0.43-0.27,0.6-0.4C29.6,31.35,29.3,30.74,29.32,30.23z
	 M32.5,30.37l-0.08-0.02c-0.29,0.22-0.66,0.55-0.93,0.83c0.15,1.35,0.34,3.43,0.34,4.86v0.77c0,0.52-0.01,1.07-0.1,1.56l0.12,0.05
	c0.55-0.5,0.8-0.83,0.83-1.26c0.05-0.34,0.07-0.81,0.07-1.29C32.74,34.05,32.7,32.07,32.5,30.37z"/>
</svg>
