<?xml version="1.0" encoding="utf-8"?>
<!-- Generator: Adobe Illustrator 24.3.0, SVG Export Plug-In . SVG Version: 6.00 Build 0)  -->
<svg version="1.1" id="Layer_1" xmlns="http://www.w3.org/2000/svg" xmlns:xlink="http://www.w3.org/1999/xlink" x="0px" y="0px"
	 viewBox="0 0 33.93 49.21" style="enable-background:new 0 0 33.93 49.21;" xml:space="preserve">
<style type="text/css">
	.st0{fill:#C9961A;}
	.st1{fill:url(#SVGID_1_);}
	.st2{fill:url(#SVGID_2_);}
	.st3{fill:url(#SVGID_3_);}
</style>
<g>
	<g>
		<path class="st0" d="M-3.52,56.86c0,0.13-0.01,0.23-0.04,0.32c-0.03,0.09-0.07,0.17-0.13,0.23c-0.06,0.07-0.14,0.12-0.23,0.16
			c-0.09,0.04-0.2,0.08-0.33,0.13l-0.01-0.05c0.06-0.03,0.12-0.06,0.16-0.09c0.04-0.03,0.08-0.07,0.11-0.11
			c0.03-0.04,0.06-0.08,0.07-0.13s0.02-0.09,0.03-0.15c0.01-0.05,0.01-0.12,0.02-0.19c0-0.07,0-0.15,0-0.24v-0.48l-0.01-0.36
			l0.06-0.05l0.5,0.2v0.06c-0.05,0.03-0.08,0.05-0.11,0.07s-0.04,0.03-0.05,0.05s-0.02,0.04-0.02,0.06c0,0.02,0,0.06,0,0.12V56.86z"
			/>
		<path class="st0" d="M-2.12,56.72v0.18h-0.46h-0.36v-1.74l-0.01-0.35l0.06-0.06l0.5,0.21v0.04c-0.05,0.04-0.08,0.06-0.11,0.08
			s-0.04,0.03-0.05,0.04s-0.02,0.03-0.02,0.06c0,0.02,0,0.06,0,0.12v1.41H-2.12z"/>
		<path class="st0" d="M0.08,56.72v0.18h-0.21c-0.04,0-0.08-0.01-0.11-0.02c-0.03-0.01-0.07-0.03-0.09-0.05
			c-0.03-0.02-0.05-0.04-0.08-0.07c-0.02-0.03-0.05-0.06-0.07-0.1c-0.05,0.08-0.11,0.13-0.19,0.18s-0.18,0.06-0.28,0.06
			c-0.06,0-0.12-0.01-0.18-0.02s-0.1-0.03-0.13-0.05c-0.04-0.02-0.07-0.05-0.09-0.08c-0.02-0.03-0.04-0.06-0.05-0.09v0.24h-0.81
			v-0.18h0.46v-0.45c0-0.1,0.02-0.2,0.04-0.27c0.03-0.08,0.08-0.14,0.14-0.19c0.06-0.05,0.13-0.09,0.21-0.11s0.18-0.04,0.28-0.04
			c0.1,0,0.2,0.01,0.28,0.04c0.09,0.03,0.16,0.07,0.23,0.12c0.06,0.05,0.12,0.12,0.15,0.2c0.04,0.08,0.06,0.17,0.06,0.27
			c0,0.12-0.03,0.22-0.08,0.31c0.04,0.04,0.09,0.07,0.14,0.09c0.05,0.02,0.11,0.03,0.17,0.03H0.08z M-1.05,56.72
			c0.05,0,0.1-0.01,0.14-0.04c0.04-0.02,0.08-0.05,0.1-0.09s0.04-0.09,0.05-0.14s0.02-0.12,0.02-0.18c0-0.08-0.01-0.14-0.02-0.2
			C-0.76,56-0.78,55.95-0.8,55.91c-0.03-0.04-0.06-0.08-0.11-0.11s-0.1-0.04-0.18-0.04c-0.07,0-0.13,0.02-0.17,0.05
			s-0.08,0.07-0.1,0.12c-0.02,0.05-0.04,0.11-0.04,0.17c-0.01,0.07-0.01,0.13-0.01,0.19v0.18c0,0.01,0,0.03,0.01,0.06
			c0.01,0.03,0.03,0.06,0.06,0.08c0.03,0.03,0.07,0.05,0.11,0.07C-1.18,56.71-1.12,56.72-1.05,56.72z"/>
		<path class="st0" d="M1.44,56.72v0.18H1.21c-0.03,0-0.06-0.01-0.09-0.02s-0.06-0.03-0.09-0.05C1,56.81,0.97,56.79,0.95,56.76
			c-0.02-0.03-0.05-0.06-0.07-0.1v0.24H0v-0.18h0.53v-0.75L0.52,55.6l0.05-0.04l0.5,0.2v0.04c-0.03,0.03-0.06,0.05-0.08,0.06
			c-0.02,0.01-0.04,0.02-0.05,0.03s-0.02,0.02-0.03,0.03c-0.01,0.01-0.01,0.02-0.02,0.04s0,0.04,0,0.06v0.08v0.46
			c0.04,0.04,0.09,0.08,0.15,0.11c0.06,0.03,0.12,0.04,0.18,0.04H1.44z M0.39,55.25c-0.03,0-0.07-0.01-0.09-0.02
			s-0.05-0.03-0.07-0.04s-0.03-0.04-0.05-0.07c-0.01-0.03-0.02-0.06-0.02-0.08s0.01-0.05,0.02-0.08c0.01-0.03,0.03-0.05,0.05-0.07
			s0.04-0.03,0.07-0.04s0.06-0.02,0.09-0.02c0.03,0,0.06,0,0.09,0.02c0.03,0.01,0.05,0.03,0.07,0.04c0.02,0.02,0.04,0.04,0.05,0.07
			c0.01,0.03,0.02,0.05,0.02,0.08s-0.01,0.06-0.02,0.08c-0.01,0.03-0.03,0.05-0.05,0.07c-0.02,0.02-0.04,0.03-0.07,0.04
			C0.45,55.25,0.42,55.25,0.39,55.25z M0.66,54.7c-0.03,0-0.05,0-0.08-0.02c-0.03-0.01-0.05-0.03-0.08-0.04
			c-0.02-0.02-0.04-0.04-0.05-0.07c-0.01-0.03-0.01-0.05-0.01-0.08s0-0.05,0.01-0.08c0.01-0.02,0.02-0.05,0.05-0.07
			c0.02-0.02,0.05-0.04,0.08-0.05c0.03-0.01,0.06-0.02,0.09-0.02c0.03,0,0.06,0.01,0.09,0.02c0.03,0.01,0.05,0.03,0.07,0.05
			c0.02,0.02,0.03,0.04,0.04,0.07c0.01,0.03,0.02,0.05,0.02,0.08s-0.01,0.05-0.02,0.08c-0.01,0.03-0.03,0.05-0.04,0.07
			s-0.04,0.03-0.07,0.04C0.73,54.69,0.7,54.7,0.66,54.7z M0.95,54.83c0.03,0,0.06,0,0.08,0.02s0.05,0.03,0.07,0.04
			s0.04,0.04,0.05,0.07c0.01,0.03,0.02,0.05,0.02,0.08s-0.01,0.06-0.02,0.08c-0.01,0.03-0.03,0.05-0.05,0.07s-0.04,0.03-0.07,0.04
			s-0.05,0.02-0.08,0.02c-0.03,0-0.06-0.01-0.09-0.02c-0.03-0.01-0.05-0.03-0.07-0.04s-0.04-0.04-0.05-0.07
			c-0.01-0.03-0.01-0.06-0.01-0.08s0-0.05,0.01-0.08c0.01-0.03,0.02-0.05,0.05-0.07s0.04-0.03,0.07-0.04
			C0.88,54.83,0.91,54.83,0.95,54.83z"/>
		<path class="st0" d="M2.79,56.72v0.18H2.56c-0.03,0-0.06-0.01-0.09-0.02s-0.06-0.03-0.09-0.05c-0.03-0.02-0.05-0.04-0.08-0.07
			c-0.02-0.03-0.05-0.06-0.07-0.1v0.24H1.35v-0.18h0.53v-0.75L1.87,55.6l0.05-0.04l0.5,0.2v0.04c-0.03,0.03-0.06,0.05-0.08,0.06
			c-0.02,0.01-0.04,0.02-0.05,0.03s-0.02,0.02-0.03,0.03c-0.01,0.01-0.01,0.02-0.02,0.04s0,0.04,0,0.06v0.08v0.46
			c0.04,0.04,0.09,0.08,0.15,0.11c0.06,0.03,0.12,0.04,0.18,0.04H2.79z M1.81,55.25c-0.04,0-0.07-0.01-0.09-0.02
			s-0.04-0.03-0.06-0.04c-0.02-0.02-0.04-0.04-0.05-0.07c-0.01-0.03-0.02-0.06-0.02-0.08s0.01-0.05,0.02-0.08
			c0.01-0.03,0.03-0.05,0.05-0.07c0.02-0.02,0.04-0.03,0.06-0.04s0.05-0.02,0.09-0.02s0.07,0,0.09,0.02s0.05,0.03,0.07,0.04
			C1.98,54.9,2,54.93,2.01,54.95s0.02,0.05,0.02,0.08s-0.01,0.06-0.02,0.08s-0.03,0.05-0.04,0.07c-0.02,0.02-0.04,0.03-0.07,0.04
			S1.84,55.25,1.81,55.25z M2.37,54.83c0.03,0,0.05,0,0.08,0.02s0.05,0.03,0.07,0.04c0.02,0.02,0.04,0.04,0.05,0.07
			c0.01,0.03,0.02,0.05,0.02,0.08s-0.01,0.06-0.02,0.08c-0.01,0.03-0.03,0.05-0.05,0.07c-0.02,0.02-0.04,0.03-0.07,0.04
			s-0.05,0.02-0.08,0.02c-0.04,0-0.07-0.01-0.1-0.02c-0.03-0.01-0.05-0.03-0.07-0.04c-0.02-0.02-0.04-0.04-0.05-0.07
			s-0.02-0.06-0.02-0.08s0.01-0.05,0.02-0.08s0.03-0.05,0.05-0.07c0.02-0.02,0.04-0.03,0.07-0.04C2.3,54.83,2.33,54.83,2.37,54.83z"
			/>
		<path class="st0" d="M5.48,56.07v0.04c-0.03,0.02-0.05,0.04-0.07,0.06s-0.04,0.03-0.05,0.04c-0.01,0.01-0.02,0.01-0.03,0.02
			c-0.01,0.01-0.01,0.02-0.02,0.04c0,0.01,0,0.03,0,0.06c0,0.02-0.01,0.05-0.01,0.09v0.49H4.73c-0.04,0-0.08-0.01-0.11-0.02
			c-0.03-0.01-0.06-0.03-0.09-0.05c-0.03-0.02-0.05-0.04-0.08-0.07c-0.02-0.03-0.05-0.06-0.07-0.1v0.24H3.83
			c-0.04,0-0.07-0.01-0.11-0.02c-0.03-0.01-0.06-0.03-0.09-0.05c-0.03-0.02-0.05-0.04-0.08-0.07c-0.03-0.03-0.05-0.06-0.07-0.1v0.24
			H2.67v-0.18h0.46v-0.45l-0.01-0.36l0.06-0.04L3.48,56v0.57c0.04,0.04,0.09,0.08,0.15,0.11c0.06,0.03,0.13,0.04,0.19,0.04h0.21
			v-0.45l-0.01-0.36l0.06-0.04L4.39,56v0.57c0.04,0.04,0.09,0.08,0.15,0.11c0.06,0.03,0.12,0.04,0.19,0.04h0.21v-0.45l-0.01-0.36
			l0.06-0.04L5.48,56.07z"/>
		<path class="st0" d="M8.55,56.72v0.18H8.34c-0.03,0-0.07-0.01-0.1-0.02s-0.06-0.03-0.09-0.05c-0.03-0.02-0.06-0.04-0.08-0.07
			C8.04,56.74,8.02,56.7,8,56.67v0.24H6.2c-0.06,0-0.11-0.01-0.15-0.02C6,56.87,5.96,56.86,5.92,56.83l-0.09-0.06
			c-0.03-0.02-0.06-0.04-0.08-0.06l0.02-0.04c0.01,0.01,0.03,0.02,0.05,0.02c0.02,0,0.05,0.01,0.08,0.01c0.03,0,0.05,0.01,0.08,0.01
			c0.02,0,0.04,0.01,0.05,0.01h0.6v-1.24l-0.02-0.36l0.06-0.05l0.49,0.21v0.04c-0.03,0.02-0.05,0.04-0.07,0.05s-0.04,0.03-0.05,0.04
			c-0.01,0.01-0.02,0.02-0.03,0.03C7,55.45,7,55.46,7,55.48c0,0.02,0,0.04,0,0.05v0.08v1.11h0.66v-1.56l-0.01-0.35l0.05-0.06
			l0.5,0.21v0.04c-0.05,0.04-0.08,0.06-0.11,0.08c-0.03,0.01-0.04,0.03-0.05,0.04s-0.02,0.04-0.02,0.06c0,0.03,0,0.07,0,0.12v1.26
			c0.04,0.04,0.09,0.08,0.15,0.11s0.12,0.04,0.19,0.04H8.55z M7.17,57.62H6.46v-0.13h0.12c0-0.04,0-0.08,0.01-0.12
			s0.02-0.08,0.04-0.12c0.02-0.04,0.05-0.07,0.08-0.1c0.03-0.03,0.08-0.04,0.14-0.05c0.03,0,0.05,0,0.08,0.01
			c0.03,0,0.06,0.01,0.08,0.02c0.02,0.01,0.05,0.02,0.07,0.04l0.06,0.04l-0.06,0.08C7.03,57.27,7,57.26,6.96,57.25
			c-0.03-0.01-0.06-0.01-0.08-0.01c-0.03,0-0.05,0-0.07,0.01c-0.02,0.01-0.03,0.02-0.04,0.03c-0.03,0.03-0.05,0.06-0.05,0.1
			c-0.01,0.04-0.01,0.07-0.01,0.12h0.42L7.17,57.62z"/>
		<path class="st0" d="M8.45,56.72h0.4v-1.56l-0.03-0.35l0.06-0.06l0.5,0.21v0.04c-0.03,0.02-0.06,0.04-0.08,0.06
			c-0.02,0.02-0.04,0.03-0.05,0.03s-0.03,0.01-0.03,0.03c-0.01,0.01-0.01,0.02-0.01,0.04c0,0.01,0,0.03,0,0.05v0.09v1.59H8.45V56.72
			z"/>
		<path class="st0" d="M12.21,56.72v0.18h-1.04c-0.1,0-0.2-0.01-0.28-0.04c-0.09-0.03-0.16-0.07-0.23-0.13s-0.11-0.13-0.15-0.22
			c-0.04-0.08-0.05-0.18-0.05-0.29c0-0.11,0.02-0.21,0.06-0.3c0.04-0.09,0.09-0.16,0.15-0.22c0.06-0.06,0.14-0.1,0.22-0.13
			s0.18-0.04,0.28-0.04c0.11,0,0.2,0.02,0.29,0.05c0.08,0.03,0.16,0.08,0.22,0.13c0.06,0.06,0.11,0.13,0.14,0.21
			c0.03,0.08,0.05,0.18,0.05,0.29v0.51H12.21z M10.9,55.16c-0.03,0-0.05,0-0.08-0.02c-0.03-0.01-0.05-0.03-0.07-0.05
			c-0.02-0.02-0.03-0.04-0.05-0.07c-0.02-0.02-0.02-0.05-0.02-0.08c0-0.03,0.01-0.06,0.02-0.09c0.01-0.03,0.03-0.05,0.05-0.07
			c0.02-0.02,0.04-0.03,0.07-0.04c0.03-0.01,0.06-0.02,0.09-0.02c0.03,0,0.06,0.01,0.08,0.02s0.05,0.03,0.07,0.04
			c0.02,0.02,0.04,0.04,0.05,0.07s0.02,0.06,0.02,0.09c0,0.03-0.01,0.06-0.02,0.08c-0.01,0.02-0.03,0.04-0.05,0.07
			c-0.02,0.02-0.04,0.04-0.07,0.05S10.94,55.16,10.9,55.16z M11.51,56.24c0-0.07,0-0.14-0.01-0.21s-0.02-0.13-0.05-0.19
			c-0.02-0.06-0.06-0.1-0.1-0.14c-0.04-0.04-0.1-0.06-0.18-0.06c-0.06,0-0.11,0.02-0.16,0.05c-0.05,0.03-0.08,0.08-0.11,0.13
			c-0.02,0.05-0.04,0.12-0.06,0.18c-0.02,0.07-0.02,0.14-0.02,0.2c0,0.07,0.01,0.14,0.02,0.2c0.02,0.06,0.04,0.12,0.06,0.16
			s0.06,0.08,0.11,0.11s0.11,0.04,0.18,0.04h0.32V56.24z M11.46,55.16c-0.03,0-0.06,0-0.08-0.02c-0.03-0.01-0.05-0.03-0.07-0.05
			c-0.02-0.02-0.04-0.04-0.05-0.07c-0.01-0.02-0.02-0.05-0.02-0.08c0-0.03,0.01-0.06,0.02-0.09c0.01-0.03,0.03-0.05,0.05-0.07
			c0.02-0.02,0.04-0.03,0.07-0.04c0.03-0.01,0.05-0.02,0.09-0.02s0.06,0.01,0.09,0.02c0.03,0.01,0.05,0.03,0.07,0.04
			c0.02,0.02,0.04,0.04,0.05,0.07s0.02,0.06,0.02,0.09c0,0.03-0.01,0.06-0.02,0.08c-0.01,0.02-0.03,0.04-0.05,0.07
			c-0.02,0.02-0.04,0.04-0.07,0.05C11.52,55.16,11.49,55.16,11.46,55.16z"/>
		<path class="st0" d="M13.54,56.72v0.18h-0.23c-0.03,0-0.06-0.01-0.09-0.02s-0.06-0.03-0.09-0.05c-0.03-0.02-0.05-0.04-0.08-0.07
			c-0.02-0.03-0.05-0.06-0.07-0.1v0.24H12.1v-0.18h0.53v-0.75l-0.01-0.36l0.05-0.04l0.5,0.2v0.04c-0.03,0.03-0.06,0.05-0.08,0.06
			c-0.02,0.01-0.04,0.02-0.05,0.03s-0.02,0.02-0.03,0.03c-0.01,0.01-0.01,0.02-0.02,0.04s0,0.04,0,0.06v0.08v0.46
			c0.04,0.04,0.09,0.08,0.15,0.11c0.06,0.03,0.12,0.04,0.18,0.04H13.54z M12.41,57.21c0.03,0,0.05,0.01,0.08,0.02
			s0.05,0.03,0.07,0.05c0.02,0.02,0.04,0.04,0.05,0.07s0.02,0.05,0.02,0.08c0,0.03-0.01,0.06-0.02,0.08
			c-0.01,0.03-0.03,0.05-0.05,0.07s-0.05,0.03-0.07,0.04s-0.05,0.02-0.08,0.02c-0.03,0-0.06,0-0.09-0.02
			c-0.03-0.01-0.05-0.03-0.07-0.04s-0.04-0.04-0.05-0.07c-0.01-0.03-0.02-0.05-0.02-0.08c0-0.03,0.01-0.05,0.02-0.08
			c0.01-0.03,0.03-0.05,0.05-0.07c0.02-0.02,0.05-0.04,0.07-0.05C12.35,57.22,12.38,57.21,12.41,57.21z M12.96,57.21
			c0.03,0,0.06,0.01,0.09,0.02c0.03,0.01,0.05,0.03,0.07,0.05c0.02,0.02,0.04,0.04,0.05,0.07s0.02,0.05,0.02,0.08
			c0,0.03-0.01,0.06-0.02,0.08c-0.01,0.03-0.03,0.05-0.05,0.07s-0.04,0.03-0.07,0.04c-0.03,0.01-0.06,0.02-0.09,0.02
			c-0.03,0-0.05,0-0.08-0.02s-0.05-0.03-0.07-0.04s-0.04-0.04-0.05-0.07c-0.01-0.03-0.02-0.05-0.02-0.08c0-0.03,0.01-0.05,0.02-0.08
			s0.03-0.05,0.05-0.07c0.02-0.02,0.05-0.04,0.07-0.05S12.94,57.21,12.96,57.21z"/>
		<path class="st0" d="M15.74,56.72v0.18h-0.21c-0.04,0-0.08-0.01-0.11-0.02c-0.03-0.01-0.07-0.03-0.09-0.05
			c-0.03-0.02-0.05-0.04-0.08-0.07c-0.02-0.03-0.05-0.06-0.07-0.1c-0.05,0.08-0.11,0.13-0.19,0.18s-0.18,0.06-0.28,0.06
			c-0.06,0-0.12-0.01-0.18-0.02s-0.1-0.03-0.13-0.05c-0.04-0.02-0.07-0.05-0.09-0.08c-0.02-0.03-0.04-0.06-0.05-0.09v0.24h-0.81
			v-0.18h0.46v-0.45c0-0.1,0.02-0.2,0.04-0.27c0.03-0.08,0.08-0.14,0.14-0.19c0.06-0.05,0.13-0.09,0.21-0.11s0.18-0.04,0.28-0.04
			c0.1,0,0.2,0.01,0.28,0.04c0.09,0.03,0.16,0.07,0.23,0.12c0.06,0.05,0.12,0.12,0.15,0.2c0.04,0.08,0.06,0.17,0.06,0.27
			c0,0.12-0.03,0.22-0.08,0.31c0.04,0.04,0.09,0.07,0.14,0.09c0.05,0.02,0.11,0.03,0.17,0.03H15.74z M14.62,56.72
			c0.05,0,0.1-0.01,0.14-0.04c0.04-0.02,0.08-0.05,0.1-0.09s0.04-0.09,0.05-0.14s0.02-0.12,0.02-0.18c0-0.08-0.01-0.14-0.02-0.2
			c-0.01-0.06-0.03-0.11-0.05-0.16c-0.03-0.04-0.06-0.08-0.11-0.11s-0.1-0.04-0.18-0.04c-0.07,0-0.13,0.02-0.17,0.05
			s-0.08,0.07-0.1,0.12c-0.02,0.05-0.04,0.11-0.04,0.17c-0.01,0.07-0.01,0.13-0.01,0.19v0.18c0,0.01,0,0.03,0.01,0.06
			c0.01,0.03,0.03,0.06,0.06,0.08c0.03,0.03,0.07,0.05,0.11,0.07C14.48,56.71,14.54,56.72,14.62,56.72z"/>
		<path class="st0" d="M15.64,56.72h0.4v-1.56l-0.03-0.35l0.06-0.06l0.5,0.21v0.04c-0.03,0.02-0.06,0.04-0.08,0.06
			c-0.02,0.02-0.04,0.03-0.05,0.03s-0.03,0.01-0.03,0.03c-0.01,0.01-0.01,0.02-0.01,0.04c0,0.01,0,0.03,0,0.05v0.09v1.59h-0.75
			V56.72z"/>
		<path class="st0" d="M17.84,56.72v0.18h-0.46h-0.36v-1.74L17,54.82l0.06-0.06l0.5,0.21v0.04c-0.05,0.04-0.08,0.06-0.11,0.08
			s-0.04,0.03-0.05,0.04s-0.02,0.03-0.02,0.06c0,0.02,0,0.06,0,0.12v1.41H17.84z"/>
		<path class="st0" d="M19.7,56.72v0.18h-0.42l-0.27-0.19c-0.07,0.04-0.15,0.07-0.23,0.09s-0.15,0.04-0.23,0.06
			s-0.15,0.03-0.23,0.04c-0.08,0-0.14,0.01-0.2,0.01h-0.43v-0.18h0.35c0.15,0,0.28-0.01,0.4-0.04c0.12-0.03,0.23-0.07,0.33-0.12
			l-0.75-0.51v-0.15c0.04-0.05,0.09-0.1,0.15-0.14c0.06-0.04,0.12-0.08,0.18-0.11c0.06-0.03,0.13-0.06,0.21-0.08
			s0.15-0.03,0.23-0.03c0.08,0,0.16,0.01,0.25,0.04c0.08,0.02,0.16,0.06,0.22,0.1s0.12,0.1,0.16,0.17c0.04,0.07,0.06,0.13,0.05,0.21
			c0,0.13-0.03,0.25-0.09,0.34c-0.06,0.09-0.14,0.17-0.24,0.24l0.13,0.09H19.7z M18.92,56.48c0.06-0.06,0.11-0.13,0.14-0.2
			c0.04-0.07,0.05-0.15,0.05-0.23c0-0.06-0.02-0.12-0.05-0.17s-0.08-0.1-0.13-0.13c-0.06-0.03-0.12-0.06-0.18-0.07
			c-0.07-0.01-0.14-0.01-0.21,0c-0.07,0.02-0.14,0.04-0.21,0.08c-0.07,0.04-0.13,0.1-0.18,0.18L18.92,56.48z"/>
		<path class="st0" d="M19.61,56.72h0.4v-1.56l-0.03-0.35l0.06-0.06l0.5,0.21v0.04c-0.03,0.02-0.06,0.04-0.08,0.06
			s-0.04,0.03-0.05,0.03c-0.01,0.01-0.03,0.01-0.03,0.03c-0.01,0.01-0.01,0.02-0.01,0.04s0,0.03,0,0.05v0.09v1.59h-0.75V56.72z"/>
		<path class="st0" d="M20.92,56.9v-1.74l-0.01-0.35l0.06-0.06l0.48,0.21v0.04c-0.04,0.04-0.07,0.06-0.09,0.08s-0.04,0.03-0.06,0.04
			c-0.02,0.01-0.02,0.03-0.03,0.06c0,0.02,0,0.06,0,0.12v1.59H20.92z"/>
		<path class="st0" d="M25.11,55.76v0.05c-0.04,0.03-0.08,0.06-0.1,0.07s-0.04,0.03-0.05,0.04s-0.02,0.04-0.02,0.06v0.12v0.8h-1.6
			c-0.04,0-0.09,0-0.15,0s-0.12-0.01-0.18-0.02c-0.06-0.01-0.12-0.03-0.17-0.05c-0.06-0.02-0.1-0.05-0.15-0.08
			c-0.04-0.03-0.08-0.08-0.1-0.13c-0.03-0.05-0.04-0.11-0.04-0.18c0-0.07,0.01-0.13,0.04-0.2c0.03-0.06,0.06-0.12,0.11-0.17
			c0.04-0.05,0.09-0.1,0.14-0.14l0.12-0.1l0.05,0.04c-0.02,0.02-0.03,0.05-0.05,0.08c-0.01,0.03-0.03,0.07-0.04,0.11
			s-0.02,0.08-0.03,0.12c-0.01,0.04-0.01,0.07-0.01,0.1c0,0.1,0.02,0.17,0.05,0.24s0.08,0.1,0.13,0.13s0.12,0.04,0.18,0.05
			c0.07,0.01,0.14,0.01,0.21,0.01h1.12v-0.75l-0.02-0.36l0.06-0.04L25.11,55.76z M23.92,57.21c0.04,0,0.07,0.01,0.09,0.02
			c0.02,0.01,0.05,0.03,0.07,0.05c0.02,0.02,0.04,0.04,0.04,0.07s0.01,0.05,0.01,0.08s0,0.05-0.01,0.08
			c-0.01,0.03-0.02,0.05-0.04,0.07s-0.04,0.03-0.07,0.04c-0.02,0.01-0.05,0.02-0.09,0.02c-0.03,0-0.06,0-0.08-0.02
			s-0.05-0.03-0.07-0.04s-0.04-0.04-0.05-0.07c-0.01-0.03-0.02-0.05-0.02-0.08c0-0.03,0.01-0.05,0.02-0.08
			c0.01-0.03,0.03-0.05,0.05-0.07c0.02-0.02,0.04-0.04,0.07-0.05S23.89,57.21,23.92,57.21z"/>
		<path class="st0" d="M26.35,56.72v0.18h-0.46h-0.36v-1.74l-0.01-0.35l0.06-0.06l0.5,0.21v0.04c-0.05,0.04-0.08,0.06-0.11,0.08
			s-0.04,0.03-0.05,0.04s-0.02,0.03-0.02,0.06c0,0.02,0,0.06,0,0.12v1.41H26.35z"/>
		<path class="st0" d="M27.43,55.77v0.04c-0.03,0.03-0.06,0.05-0.08,0.06c-0.02,0.01-0.04,0.02-0.05,0.03s-0.03,0.02-0.03,0.03
			c-0.01,0.01-0.01,0.02-0.02,0.04c0,0.02-0.01,0.04-0.01,0.06v0.08v0.8h-0.98v-0.18h0.62v-0.75l-0.02-0.36l0.06-0.04L27.43,55.77z
			 M26.53,57.21c0.03,0,0.06,0.01,0.09,0.02c0.03,0.01,0.05,0.03,0.07,0.05c0.02,0.02,0.03,0.04,0.04,0.07s0.02,0.05,0.02,0.08
			c0,0.03,0,0.06-0.02,0.08c-0.01,0.03-0.03,0.05-0.04,0.07c-0.02,0.02-0.04,0.03-0.07,0.04c-0.03,0.01-0.06,0.02-0.09,0.02
			c-0.03,0-0.06,0-0.09-0.02s-0.05-0.03-0.07-0.04s-0.04-0.04-0.05-0.07c-0.01-0.03-0.02-0.05-0.02-0.08c0-0.03,0.01-0.05,0.02-0.08
			s0.03-0.05,0.05-0.07c0.02-0.02,0.05-0.04,0.07-0.05S26.5,57.21,26.53,57.21z M27.08,57.21c0.04,0,0.07,0.01,0.1,0.02
			c0.03,0.01,0.05,0.03,0.07,0.05c0.02,0.02,0.04,0.04,0.05,0.07s0.02,0.05,0.02,0.08c0,0.03-0.01,0.06-0.02,0.08
			c-0.01,0.03-0.03,0.05-0.05,0.07s-0.04,0.03-0.07,0.04c-0.03,0.01-0.06,0.02-0.1,0.02c-0.03,0-0.05,0-0.08-0.02
			c-0.03-0.01-0.05-0.03-0.07-0.04c-0.02-0.02-0.04-0.04-0.05-0.07c-0.01-0.03-0.02-0.05-0.02-0.08c0-0.03,0.01-0.05,0.02-0.08
			s0.03-0.05,0.05-0.07c0.02-0.02,0.04-0.04,0.07-0.05C27.03,57.22,27.05,57.21,27.08,57.21z"/>
		<path class="st0" d="M29.6,56.72v0.18h-0.21c-0.07,0-0.14-0.02-0.19-0.07s-0.11-0.1-0.15-0.17v0.24h-1.2l-0.07-0.29l0.06-0.01
			c0.01,0.03,0.03,0.06,0.06,0.07c0.03,0.01,0.07,0.03,0.12,0.04c0.05,0.01,0.11,0.01,0.18,0.01h0.26h0.23v-0.23
			c0-0.13,0-0.24-0.01-0.33s-0.02-0.17-0.04-0.24c-0.02-0.07-0.06-0.12-0.12-0.18c-0.06-0.05-0.13-0.1-0.22-0.15l0.02-0.05
			c0.12,0.04,0.23,0.08,0.33,0.13c0.09,0.05,0.17,0.1,0.23,0.17c0.06,0.07,0.11,0.14,0.14,0.23c0.03,0.09,0.04,0.19,0.04,0.32v0.18
			c0.04,0.04,0.09,0.08,0.16,0.11c0.06,0.03,0.12,0.04,0.19,0.04H29.6z M28.52,55.25c-0.03,0-0.06-0.01-0.08-0.02
			c-0.03-0.01-0.05-0.03-0.07-0.05s-0.04-0.04-0.05-0.07c-0.01-0.03-0.02-0.05-0.02-0.08s0.01-0.06,0.02-0.08s0.03-0.05,0.05-0.07
			c0.02-0.02,0.04-0.04,0.07-0.04c0.03-0.01,0.05-0.01,0.08-0.01s0.06,0,0.08,0.01c0.02,0.01,0.05,0.02,0.07,0.04
			c0.02,0.02,0.04,0.04,0.05,0.07c0.01,0.03,0.02,0.05,0.02,0.08s-0.01,0.06-0.02,0.08c-0.01,0.03-0.03,0.05-0.05,0.07
			s-0.04,0.03-0.07,0.05C28.57,55.24,28.55,55.25,28.52,55.25z"/>
		<path class="st0" d="M29.49,56.72h0.4v-1.56l-0.03-0.35l0.06-0.06l0.5,0.21v0.04c-0.03,0.02-0.06,0.04-0.08,0.06
			c-0.02,0.02-0.04,0.03-0.05,0.03c-0.02,0.01-0.03,0.01-0.03,0.03c-0.01,0.01-0.01,0.02-0.01,0.04c0,0.01,0,0.03,0,0.05v0.09v1.59
			h-0.75V56.72z"/>
		<path class="st0" d="M30.8,56.9v-1.74l-0.01-0.35l0.06-0.06l0.48,0.21v0.04c-0.04,0.04-0.07,0.06-0.09,0.08
			c-0.02,0.01-0.04,0.03-0.06,0.04c-0.01,0.01-0.02,0.03-0.03,0.06c0,0.02,0,0.06,0,0.12v1.59H30.8z"/>
		<path class="st0" d="M34.14,56.72v0.18H33.1c-0.1,0-0.2-0.01-0.28-0.04c-0.09-0.03-0.16-0.07-0.23-0.13s-0.12-0.13-0.15-0.22
			c-0.04-0.08-0.05-0.18-0.05-0.29c0-0.11,0.02-0.21,0.06-0.3c0.04-0.09,0.09-0.16,0.15-0.22c0.06-0.06,0.14-0.1,0.22-0.13
			s0.18-0.04,0.28-0.04c0.11,0,0.2,0.02,0.29,0.05c0.08,0.03,0.16,0.08,0.22,0.13c0.06,0.06,0.11,0.13,0.14,0.21
			s0.05,0.18,0.05,0.29v0.51H34.14z M32.83,55.16c-0.03,0-0.05,0-0.08-0.02s-0.05-0.03-0.07-0.05c-0.02-0.02-0.03-0.04-0.05-0.07
			c-0.01-0.02-0.02-0.05-0.02-0.08c0-0.03,0.01-0.06,0.02-0.09s0.03-0.05,0.05-0.07c0.02-0.02,0.04-0.03,0.07-0.04
			s0.06-0.02,0.09-0.02c0.03,0,0.06,0.01,0.08,0.02s0.05,0.03,0.07,0.04s0.04,0.04,0.05,0.07s0.02,0.06,0.02,0.09
			c0,0.03-0.01,0.06-0.02,0.08c-0.01,0.02-0.03,0.04-0.05,0.07c-0.02,0.02-0.04,0.04-0.07,0.05S32.86,55.16,32.83,55.16z
			 M33.44,56.24c0-0.07,0-0.14-0.01-0.21s-0.02-0.13-0.05-0.19s-0.06-0.1-0.1-0.14c-0.04-0.04-0.1-0.06-0.18-0.06
			c-0.06,0-0.11,0.02-0.16,0.05c-0.05,0.03-0.08,0.08-0.11,0.13c-0.02,0.05-0.04,0.12-0.06,0.18c-0.01,0.07-0.02,0.14-0.02,0.2
			c0,0.07,0.01,0.14,0.02,0.2c0.02,0.06,0.04,0.12,0.06,0.16c0.03,0.05,0.06,0.08,0.11,0.11c0.05,0.03,0.11,0.04,0.18,0.04h0.32
			V56.24z M33.38,55.16c-0.03,0-0.06,0-0.08-0.02s-0.05-0.03-0.07-0.05c-0.02-0.02-0.04-0.04-0.05-0.07
			c-0.01-0.02-0.02-0.05-0.02-0.08c0-0.03,0.01-0.06,0.02-0.09c0.01-0.03,0.03-0.05,0.05-0.07s0.04-0.03,0.07-0.04
			s0.05-0.02,0.09-0.02s0.06,0.01,0.09,0.02s0.05,0.03,0.07,0.04c0.02,0.02,0.04,0.04,0.05,0.07s0.02,0.06,0.02,0.09
			c0,0.03-0.01,0.06-0.02,0.08c-0.01,0.02-0.03,0.04-0.05,0.07c-0.02,0.02-0.04,0.04-0.07,0.05S33.42,55.16,33.38,55.16z"/>
		<path class="st0" d="M35.49,55.87c0.09,0,0.18,0.01,0.26,0.03c0.08,0.02,0.15,0.06,0.21,0.1c0.06,0.05,0.11,0.1,0.14,0.18
			s0.05,0.16,0.05,0.26v0.46h-2.15v-0.18h1.8v-0.25c0-0.08-0.01-0.15-0.02-0.21c-0.01-0.05-0.03-0.1-0.06-0.13
			c-0.03-0.03-0.07-0.06-0.12-0.07c-0.05-0.01-0.11-0.02-0.17-0.02h-0.97v-0.18l0.66-0.55l0.46-0.4c0.06-0.05,0.13-0.11,0.19-0.18
			c0.06-0.07,0.11-0.14,0.15-0.21h0.03c0,0.06-0.01,0.12-0.03,0.18c-0.03,0.06-0.06,0.12-0.11,0.18c-0.05,0.06-0.1,0.12-0.15,0.18
			s-0.11,0.12-0.17,0.17l-0.16,0.14c-0.05,0.05-0.09,0.08-0.12,0.11l-0.45,0.38H35.49z"/>
		<path class="st0" d="M37.83,56.72v0.18h-0.21c-0.04,0-0.07-0.01-0.1-0.02c-0.03-0.01-0.06-0.03-0.09-0.05
			c-0.03-0.02-0.06-0.04-0.08-0.07c-0.02-0.03-0.05-0.06-0.07-0.1v0.19c0,0.13-0.01,0.23-0.04,0.32c-0.03,0.09-0.07,0.17-0.13,0.23
			c-0.06,0.07-0.14,0.12-0.23,0.16c-0.09,0.04-0.2,0.08-0.32,0.13l-0.03-0.05c0.07-0.03,0.12-0.06,0.17-0.09s0.08-0.06,0.11-0.1
			c0.03-0.04,0.05-0.08,0.07-0.13c0.02-0.04,0.03-0.09,0.03-0.15c0-0.05,0.01-0.12,0.01-0.19c0-0.07,0-0.15,0-0.24v-0.48l-0.01-0.36
			l0.06-0.05l0.5,0.2v0.06l-0.11,0.07c-0.02,0.01-0.04,0.03-0.05,0.04c-0.01,0.02-0.02,0.04-0.03,0.06s0,0.06,0,0.12v0.15
			c0.04,0.04,0.09,0.08,0.16,0.11s0.12,0.04,0.18,0.04H37.83z"/>
		<path class="st0" d="M40.52,56.07v0.04c-0.03,0.02-0.05,0.04-0.07,0.06s-0.04,0.03-0.05,0.04c-0.01,0.01-0.02,0.01-0.03,0.02
			c-0.01,0.01-0.01,0.02-0.02,0.04c0,0.01,0,0.03,0,0.06c0,0.02-0.01,0.05-0.01,0.09v0.49h-0.57c-0.04,0-0.08-0.01-0.11-0.02
			c-0.03-0.01-0.06-0.03-0.09-0.05c-0.03-0.02-0.05-0.04-0.08-0.07c-0.02-0.03-0.05-0.06-0.07-0.1v0.24h-0.57
			c-0.04,0-0.07-0.01-0.11-0.02c-0.03-0.01-0.06-0.03-0.09-0.05c-0.03-0.02-0.05-0.04-0.08-0.07c-0.03-0.03-0.05-0.06-0.07-0.1v0.24
			h-0.82v-0.18h0.46v-0.45l-0.01-0.36l0.06-0.04l0.3,0.13v0.57c0.04,0.04,0.09,0.08,0.15,0.11s0.13,0.04,0.19,0.04h0.21v-0.45
			l-0.01-0.36l0.06-0.04L39.44,56v0.57c0.04,0.04,0.09,0.08,0.15,0.11s0.12,0.04,0.19,0.04h0.21v-0.45l-0.01-0.36l0.06-0.04
			L40.52,56.07z M39,55.25c-0.04,0-0.07-0.01-0.09-0.02c-0.02-0.01-0.05-0.03-0.06-0.04c-0.02-0.02-0.04-0.04-0.05-0.07
			s-0.02-0.06-0.02-0.08c0-0.02,0-0.05,0.02-0.08s0.03-0.05,0.05-0.07c0.02-0.02,0.04-0.03,0.06-0.04c0.02-0.01,0.05-0.02,0.08-0.02
			s0.06,0,0.09,0.02s0.05,0.03,0.07,0.04c0.02,0.02,0.03,0.04,0.04,0.07s0.02,0.06,0.02,0.08c0,0.03,0,0.05-0.02,0.08
			s-0.03,0.05-0.04,0.07c-0.02,0.02-0.04,0.03-0.07,0.04S39.02,55.25,39,55.25z M39.27,54.7c-0.03,0-0.06,0-0.08-0.02
			c-0.03-0.01-0.05-0.03-0.07-0.04s-0.04-0.04-0.04-0.07c-0.01-0.03-0.01-0.05-0.01-0.08s0-0.05,0.01-0.08
			c0.01-0.02,0.02-0.05,0.04-0.07c0.02-0.02,0.04-0.04,0.07-0.05c0.03-0.01,0.05-0.02,0.09-0.02s0.06,0.01,0.09,0.02
			c0.03,0.01,0.05,0.03,0.07,0.05c0.02,0.02,0.04,0.04,0.05,0.07c0.01,0.03,0.02,0.05,0.02,0.08s-0.01,0.05-0.02,0.08
			c-0.01,0.03-0.03,0.05-0.05,0.07c-0.02,0.02-0.04,0.03-0.07,0.04C39.33,54.69,39.3,54.7,39.27,54.7z M39.33,55.04
			c0-0.02,0.01-0.05,0.02-0.08s0.03-0.05,0.05-0.07s0.05-0.03,0.07-0.04s0.06-0.02,0.09-0.02s0.06,0,0.08,0.02
			c0.03,0.01,0.05,0.03,0.07,0.04s0.04,0.04,0.05,0.07s0.02,0.06,0.02,0.08c0,0.03-0.01,0.05-0.02,0.08s-0.03,0.05-0.05,0.07
			s-0.04,0.03-0.07,0.04c-0.03,0.01-0.05,0.02-0.08,0.02s-0.06-0.01-0.09-0.02s-0.05-0.03-0.07-0.04s-0.04-0.04-0.05-0.07
			S39.33,55.06,39.33,55.04z"/>
	</g>
</g>
<g>
	<linearGradient id="SVGID_1_" gradientUnits="userSpaceOnUse" x1="0.8507" y1="8.8867" x2="24.4851" y2="8.8867">
		<stop  offset="0" style="stop-color:#1C4E9D"/>
		<stop  offset="0.2536" style="stop-color:#204891"/>
		<stop  offset="0.7502" style="stop-color:#243A74"/>
		<stop  offset="1" style="stop-color:#243465"/>
	</linearGradient>
	<path class="st1" d="M24.19,12.57l-3.08,2.75c-0.36,0.32-0.91,0.29-1.23-0.07l-5.23-5.86c-0.32-0.36-0.87-0.39-1.23-0.07
		l-8.36,7.45c-0.36,0.32-0.91,0.29-1.23-0.07l-2.75-3.08c-0.32-0.36-0.29-0.91,0.07-1.23l9.01-8.03l3.74-3.33
		c0.36-0.32,0.91-0.29,1.23,0.07l3.33,3.73l5.81,6.52C24.58,11.69,24.55,12.25,24.19,12.57z"/>
	<linearGradient id="SVGID_2_" gradientUnits="userSpaceOnUse" x1="9.8133" y1="19.2497" x2="33.4478" y2="19.2497">
		<stop  offset="0" style="stop-color:#A87419"/>
		<stop  offset="0.5512" style="stop-color:#C28E2A"/>
		<stop  offset="1" style="stop-color:#D3A037"/>
	</linearGradient>
	<path class="st2" d="M10.11,15.57l3.08-2.75c0.36-0.32,0.91-0.29,1.23,0.07l5.23,5.86c0.32,0.36,0.87,0.39,1.23,0.07l8.36-7.45
		c0.36-0.32,0.91-0.29,1.23,0.07l2.75,3.08c0.32,0.36,0.29,0.91-0.07,1.23l-9.01,8.03l-3.74,3.33c-0.36,0.32-0.91,0.29-1.23-0.07
		l-3.33-3.73l-5.81-6.52C9.71,16.44,9.75,15.89,10.11,15.57z"/>
</g>
<g>
	<g>
		<path class="st0" d="M3.69,43.35l1.97,4.33l-0.97,0.12l-0.45-1.05H2.31l-0.45,1.05H0.9l1.97-4.45H3.69z M3.26,44.52L2.6,46.07
			h1.34L3.26,44.52z"/>
		<path class="st0" d="M9.67,47.81H6.33v-4.45h0.96v3.79h2.23L9.67,47.81z"/>
		<path class="st0" d="M9.79,43.35h4.1l0.16,0.67h-1.73v3.79h-0.98v-3.79H9.79V43.35z"/>
		<path class="st0" d="M15.67,43.32v1.92h2v-1.89h0.96v4.45h-0.96v-1.89h-2v1.89H14.7v-4.45L15.67,43.32z"/>
		<path class="st0" d="M20.99,47.81v-1.74l-1.7-2.61l1-0.11l1.18,1.86l1.23-1.86h1.02l-1.76,2.75v1.7H20.99z"/>
		<path class="st0" d="M26.59,43.35l1.97,4.33l-0.97,0.12l-0.45-1.05h-1.92l-0.45,1.05H23.8l1.97-4.45H26.59z M26.16,44.52
			l-0.66,1.55h1.34L26.16,44.52z"/>
		<path class="st0" d="M31.12,43.35c0.49,0,0.89,0.09,1.2,0.28c0.31,0.19,0.46,0.51,0.46,0.96c0,0.17-0.04,0.32-0.13,0.45
			c-0.09,0.13-0.2,0.25-0.34,0.34c0.23,0.11,0.42,0.25,0.56,0.43c0.15,0.18,0.22,0.41,0.22,0.68c0,0.41-0.16,0.73-0.49,0.96
			s-0.76,0.35-1.3,0.35h-2.08v-4.45H31.12z M30.98,44.06h-0.79v1.11h0.71c0.27,0,0.48-0.04,0.63-0.13s0.23-0.23,0.23-0.42
			c0-0.21-0.07-0.35-0.21-0.43C31.41,44.1,31.22,44.06,30.98,44.06z M31.3,45.85h-1.11v1.25h1.04c0.26,0,0.47-0.05,0.62-0.16
			c0.16-0.1,0.23-0.25,0.23-0.45c0-0.21-0.07-0.37-0.22-0.48C31.73,45.91,31.53,45.85,31.3,45.85z"/>
	</g>
</g>
<linearGradient id="SVGID_3_" gradientUnits="userSpaceOnUse" x1="1.771" y1="36.0074" x2="33.2173" y2="36.0074">
	<stop  offset="0" style="stop-color:#1C4E9D"/>
	<stop  offset="0.2536" style="stop-color:#204891"/>
	<stop  offset="0.7502" style="stop-color:#243A74"/>
	<stop  offset="1" style="stop-color:#243465"/>
</linearGradient>
<path class="st3" d="M10.95,34.62v0.16c-0.15,0.11-0.27,0.18-0.36,0.23c-0.08,0.05-0.15,0.09-0.2,0.14
	c-0.05,0.05-0.07,0.11-0.07,0.19v0.38v2.52H4.6c-0.15,0-0.33,0-0.54-0.01c-0.21-0.01-0.42-0.03-0.63-0.06s-0.42-0.08-0.62-0.15
	c-0.2-0.07-0.37-0.15-0.52-0.26c-0.15-0.11-0.27-0.24-0.37-0.4c-0.1-0.16-0.15-0.35-0.15-0.58c0-0.21,0.05-0.42,0.15-0.62
	c0.1-0.2,0.23-0.38,0.38-0.55c0.15-0.17,0.32-0.31,0.51-0.45l0.44-0.32l0.18,0.12c-0.06,0.08-0.12,0.17-0.17,0.27
	s-0.1,0.21-0.13,0.35c-0.03,0.13-0.06,0.25-0.09,0.37c-0.03,0.11-0.05,0.22-0.05,0.33c0,0.3,0.06,0.55,0.18,0.74
	c0.12,0.19,0.28,0.33,0.47,0.42c0.19,0.09,0.41,0.14,0.66,0.17c0.25,0.03,0.49,0.04,0.74,0.04h4v-2.38l-0.07-1.15L9.2,34
	L10.95,34.62z M6.69,39.2c0.14,0,0.25,0.02,0.33,0.06s0.17,0.09,0.24,0.15s0.13,0.13,0.16,0.22c0.03,0.09,0.05,0.17,0.05,0.26
	s-0.02,0.17-0.05,0.26c-0.03,0.09-0.08,0.16-0.16,0.22s-0.16,0.11-0.24,0.14s-0.2,0.05-0.33,0.05c-0.11,0-0.21-0.02-0.3-0.05
	c-0.09-0.03-0.17-0.08-0.24-0.14c-0.07-0.06-0.13-0.13-0.17-0.22s-0.07-0.17-0.07-0.27c0-0.08,0.02-0.16,0.07-0.25
	s0.1-0.16,0.17-0.22c0.07-0.06,0.15-0.11,0.24-0.15C6.49,39.22,6.59,39.2,6.69,39.2z M15.39,37.66v0.58h-1.66h-1.29v-5.5l-0.05-1.09
	l0.21-0.18l1.77,0.66v0.12c-0.17,0.12-0.3,0.2-0.38,0.25c-0.08,0.05-0.15,0.09-0.18,0.14c-0.04,0.05-0.06,0.11-0.07,0.18
	c-0.01,0.07-0.01,0.2-0.01,0.39v4.47H15.39z M19.25,34.64v0.14c-0.12,0.09-0.22,0.15-0.29,0.18c-0.07,0.03-0.13,0.06-0.19,0.09
	c-0.05,0.03-0.09,0.07-0.11,0.1c-0.02,0.03-0.04,0.08-0.06,0.13c-0.02,0.05-0.02,0.11-0.02,0.18v0.26v2.52h-3.5v-0.58h2.23v-2.38
	l-0.07-1.15L17.46,34L19.25,34.64z M16.03,39.2c0.11,0,0.21,0.02,0.31,0.06c0.1,0.04,0.18,0.09,0.25,0.15
	c0.07,0.06,0.12,0.13,0.16,0.22c0.04,0.09,0.06,0.17,0.06,0.25c0,0.09-0.02,0.18-0.06,0.27c-0.04,0.09-0.09,0.16-0.16,0.22
	c-0.07,0.06-0.15,0.11-0.25,0.14c-0.1,0.03-0.2,0.05-0.31,0.05c-0.12,0-0.23-0.02-0.32-0.05c-0.09-0.03-0.18-0.08-0.25-0.14
	s-0.13-0.13-0.17-0.22c-0.04-0.09-0.06-0.17-0.06-0.27c0-0.08,0.02-0.16,0.06-0.25c0.04-0.09,0.1-0.16,0.17-0.22
	s0.16-0.11,0.25-0.15C15.8,39.22,15.91,39.2,16.03,39.2z M17.99,39.2c0.14,0,0.25,0.02,0.35,0.06s0.18,0.09,0.25,0.15
	c0.08,0.06,0.13,0.13,0.17,0.22c0.04,0.09,0.06,0.17,0.06,0.25c0,0.09-0.02,0.18-0.06,0.27c-0.04,0.09-0.1,0.16-0.17,0.22
	c-0.08,0.06-0.16,0.11-0.25,0.14s-0.21,0.05-0.35,0.05c-0.09,0-0.19-0.02-0.29-0.05c-0.1-0.03-0.18-0.08-0.25-0.14
	c-0.07-0.06-0.13-0.13-0.17-0.22s-0.07-0.17-0.07-0.27c0-0.08,0.02-0.16,0.07-0.25s0.1-0.16,0.17-0.22
	c0.07-0.06,0.15-0.11,0.25-0.15C17.8,39.22,17.9,39.2,17.99,39.2z M27.01,37.66v0.58h-0.76c-0.26,0-0.49-0.07-0.69-0.22
	c-0.2-0.15-0.38-0.32-0.53-0.54v0.75h-4.28l-0.25-0.91l0.21-0.04c0.03,0.11,0.1,0.18,0.22,0.23c0.12,0.05,0.26,0.08,0.44,0.11
	c0.18,0.03,0.39,0.04,0.66,0.04h0.92h0.83v-0.74c0-0.41-0.01-0.76-0.02-1.05c-0.02-0.29-0.07-0.54-0.15-0.74
	c-0.08-0.21-0.23-0.39-0.43-0.56s-0.47-0.32-0.81-0.47l0.07-0.16c0.44,0.12,0.83,0.25,1.16,0.4c0.33,0.15,0.6,0.32,0.82,0.53
	s0.38,0.45,0.48,0.72c0.11,0.28,0.15,0.62,0.14,1.01v0.58c0.15,0.13,0.34,0.25,0.55,0.34c0.21,0.09,0.44,0.14,0.67,0.14H27.01z
	 M23.12,32.99c-0.11,0-0.21-0.02-0.3-0.06c-0.09-0.04-0.18-0.09-0.25-0.15c-0.08-0.06-0.14-0.13-0.18-0.22s-0.07-0.17-0.07-0.27
	s0.02-0.18,0.07-0.26c0.05-0.08,0.11-0.15,0.18-0.22c0.08-0.07,0.16-0.11,0.25-0.14c0.09-0.03,0.19-0.04,0.3-0.04
	c0.11,0,0.2,0.01,0.29,0.04c0.08,0.03,0.17,0.07,0.24,0.14c0.08,0.07,0.14,0.14,0.18,0.22c0.05,0.08,0.07,0.17,0.07,0.26
	s-0.02,0.18-0.07,0.27s-0.11,0.16-0.18,0.22c-0.08,0.06-0.16,0.11-0.24,0.15S23.23,32.99,23.12,32.99z M26.61,37.66h1.43v-4.92
	l-0.09-1.09l0.23-0.18l1.77,0.66v0.14c-0.12,0.07-0.22,0.13-0.29,0.18s-0.13,0.09-0.18,0.11c-0.05,0.02-0.09,0.05-0.12,0.08
	c-0.02,0.03-0.04,0.07-0.05,0.12c-0.01,0.05-0.01,0.1-0.01,0.17v0.28v5.04h-2.69V37.66z M31.28,38.23v-5.5l-0.02-1.09l0.23-0.18
	l1.73,0.66v0.12c-0.14,0.12-0.25,0.2-0.33,0.25c-0.08,0.05-0.15,0.09-0.21,0.14c-0.05,0.05-0.08,0.11-0.09,0.18
	c-0.01,0.07-0.01,0.2-0.01,0.39v5.04H31.28z"/>
</svg>
